<svg width="407" height="339" viewBox="0 0 407 339" fill="none" xmlns="http://www.w3.org/2000/svg">
<path d="M255 56H272V60H259.554C257.039 60 255 58.2091 255 56V56Z" fill="#C8D3D9"/>
<rect x="333" y="160" width="4" height="93" fill="#D9E1E4"/>
<rect x="334" y="160" width="2" height="93" fill="#B4BEC1"/>
<rect x="332" y="160" width="1" height="93" fill="white"/>
<path d="M332.5 214C332.224 214 332 213.667 332 213.257V190.743C332 190.333 332.224 190 332.5 190C332.776 190 333 190.333 333 190.743V213.257C333 213.667 332.776 214 332.5 214Z" fill="#000201"/>
<path d="M336.214 254H331.786C331.352 254 331 253.667 331 253.255V217.448C331 217.036 331.352 216.703 331.786 216.703C332.22 216.703 332.572 217.036 332.572 217.448V252.51H335.428V172.745C335.428 172.333 335.78 172 336.214 172C336.648 172 337 172.333 337 172.745V253.255C337 253.667 336.648 254 336.214 254Z" fill="#2C2627"/>
<path d="M331.786 182C331.352 182 331 181.673 331 181.269V159.731C331 159.327 331.352 159 331.786 159H336.214C336.648 159 337 159.327 337 159.731V167.992C337 168.395 336.648 168.723 336.214 168.723C335.78 168.723 335.428 168.395 335.428 167.992V160.462H332.572V181.269C332.572 181.673 332.22 182 331.786 182Z" fill="#000201"/>
<path d="M332.5 188C332.224 188 332 187.624 332 187.16V184.84C332 184.376 332.224 184 332.5 184C332.776 184 333 184.376 333 184.84V187.16C333 187.624 332.776 188 332.5 188Z" fill="#000201"/>
<circle cx="334.5" cy="147.5" r="16.5" fill="white"/>
<path d="M351 146.5C350.995 151.725 348.553 156.64 344.415 159.751C340.277 162.863 334.931 163.805 330 162.291C336.861 160.185 341.553 153.771 341.553 146.5C341.553 139.229 336.861 132.815 330 130.709C334.931 129.195 340.277 130.137 344.415 133.249C348.553 136.36 350.995 141.275 351 146.5Z" fill="#C8D3D9"/>
<path fill-rule="evenodd" clip-rule="evenodd" d="M317 147C317 156.389 324.611 164 334 164C343.384 163.989 350.989 156.384 351 147C351 137.611 343.389 130 334 130C324.611 130 317 137.611 317 147ZM318.478 147C318.478 138.428 325.428 131.478 334 131.478C342.568 131.488 349.512 138.432 349.522 147C349.522 155.572 342.572 162.522 334 162.522C325.428 162.522 318.478 155.572 318.478 147Z" fill="#2C2627"/>
<circle cx="337.5" cy="155.5" r="2.5" fill="#C8D3D9"/>
<circle cx="337.5" cy="150.5" r="0.5" fill="#C8D3D9"/>
<path d="M331.818 236.335C327.838 225.094 316.277 218.342 304.453 220.353C292.628 222.364 283.988 232.552 284 244.468V271.558L299.712 272H336.916C346.904 272 355 263.958 355 254.038C355 244.118 346.904 236.076 336.916 236.076C326.929 236.076 318.833 244.118 318.833 254.038" fill="#EFD2BC"/>
<path d="M316.301 255H316.22C315.876 254.979 315.554 254.82 315.326 254.559C315.098 254.297 314.981 253.954 315.002 253.605C315.256 249.358 317.155 239.049 329.301 235.064C329.983 234.841 330.716 235.22 330.937 235.912C331.157 236.604 330.783 237.346 330.1 237.57C319.478 241.052 317.816 250.056 317.597 253.766C317.553 254.459 316.986 254.998 316.301 255Z" fill="#DBB497"/>
<path d="M305.623 275L303.95 272.955C306.577 270.715 307.835 267.215 307.249 263.772C306.663 260.329 304.323 257.466 301.11 256.263C297.897 255.06 294.3 255.698 291.672 257.937L290 255.892C295.167 251.487 302.853 252.193 307.168 257.47C311.482 262.746 310.79 270.595 305.623 275Z" fill="#DBB497"/>
<path d="M354 255.002C354 264.942 346.004 273 336.14 273H333.534C340.494 269.682 344.802 262.483 344.467 254.732C344.132 246.98 339.219 240.186 332 237.49C337.317 236.214 342.921 237.461 347.21 240.875C351.499 244.289 354.001 249.494 354 255.002Z" fill="#DBB497"/>
<circle cx="343" cy="249" r="3" fill="#DBB497"/>
<circle cx="341.5" cy="253.5" r="1.5" fill="#DBB497"/>
<ellipse cx="339.5" cy="251" rx="0.5" ry="1" fill="#DBB497"/>
<path d="M331.22 236.999C330.889 237.001 330.593 236.801 330.482 236.501C329.034 232.575 326.557 229.074 323.29 226.334C323.067 226.161 322.961 225.885 323.013 225.614C323.065 225.344 323.267 225.122 323.539 225.037C323.812 224.952 324.111 225.016 324.319 225.205C327.79 228.118 330.419 231.839 331.955 236.011C332.099 236.402 331.886 236.83 331.48 236.969C331.396 236.993 331.308 237.003 331.22 236.999Z" fill="#2C2627"/>
<path d="M321.355 225C321.229 225 321.105 224.953 321 224.863C320.469 224.405 319.918 223.974 319.356 223.583C319.146 223.447 319.01 223.173 319.001 222.869C318.991 222.564 319.11 222.278 319.311 222.12C319.512 221.963 319.763 221.96 319.967 222.112C320.562 222.527 321.149 222.985 321.713 223.469C321.949 223.674 322.055 224.055 321.972 224.407C321.89 224.76 321.639 225 321.355 225Z" fill="#2C2627"/>
<path d="M316.268 222C316.174 222 316.081 221.983 315.994 221.95C312.445 220.63 308.61 220.132 304.813 220.497C304.407 220.535 304.044 220.257 304.004 219.876C303.963 219.494 304.26 219.154 304.666 219.116C305.52 219.037 306.379 218.998 307.237 219C310.422 218.991 313.579 219.554 316.538 220.658C316.865 220.781 317.053 221.103 316.987 221.428C316.921 221.752 316.619 221.987 316.268 221.989V222Z" fill="#2C2627"/>
<path d="M282.757 245C282.339 245 282 244.674 282 244.272C282.003 232.694 290.311 222.645 302.048 220.024C302.315 219.956 302.6 220.033 302.791 220.226C302.982 220.418 303.048 220.696 302.964 220.949C302.88 221.202 302.659 221.391 302.387 221.442C291.338 223.91 283.517 233.371 283.514 244.272C283.514 244.674 283.175 245 282.757 245Z" fill="#2C2627"/>
<path d="M336.099 273H298.744C298.333 273 298 272.665 298 272.252C298 271.839 298.333 271.504 298.744 271.504H336.099C345.716 271.504 353.512 263.667 353.512 254C353.512 244.333 345.716 236.496 336.099 236.496C326.483 236.496 318.687 244.333 318.687 254C318.687 254.413 318.354 254.748 317.943 254.748C317.532 254.748 317.198 254.413 317.198 254C317.198 243.507 325.661 235 336.099 235C346.538 235 355 243.507 355 254C355 264.493 346.538 273 336.099 273Z" fill="#2C2627"/>
<path d="M303.523 275C303.301 275.001 303.09 274.905 302.948 274.738C302.682 274.425 302.725 273.961 303.044 273.699C307.195 270.206 307.715 264.088 304.211 259.968C300.706 255.848 294.478 255.256 290.232 258.638C290.026 258.807 289.744 258.855 289.493 258.765C289.241 258.674 289.057 258.459 289.011 258.2C288.965 257.941 289.063 257.677 289.269 257.508C294.154 253.635 301.302 254.322 305.327 259.052C309.352 263.782 308.766 270.806 304.009 274.829C303.873 274.941 303.701 275.001 303.523 275Z" fill="#000201"/>
<path d="M141 100.53C141.03 88.5758 132.057 78.5087 120.163 77.153C108.268 75.7972 97.2542 83.5862 94.586 95.2402C89.0541 92.2619 82.2616 92.9604 77.4536 97.002C72.6456 101.044 70.7978 107.608 72.7932 113.559C74.7885 119.51 80.2219 123.641 86.4976 123.976V124H119.718V123.894C131.782 122.749 140.998 112.632 141 100.53Z" fill="#C8D3D9"/>
<path opacity="0.4" d="M335 95.5305C335.03 83.5758 326.057 73.5087 314.163 72.153C302.268 70.7972 291.254 78.5862 288.586 90.2402C283.054 87.2619 276.262 87.9604 271.454 92.002C266.646 96.0436 264.798 102.608 266.793 108.559C268.788 114.51 274.222 118.641 280.498 118.976V119H313.718V118.894C325.782 117.749 334.998 107.632 335 95.5305Z" fill="#C8D3D9"/>
<g opacity="0.2">
<path d="M99.8516 148.455C99.85 153.89 95.631 158.376 90.2451 158.668C90.067 158.668 89.886 158.668 89.7049 158.668H69.7291C69.2334 158.668 68.7438 158.644 68.26 158.599C60.3423 157.841 54.2642 151.192 54.1629 143.177C54.0616 135.163 59.9698 128.36 67.8658 127.399C75.7617 126.438 83.1076 131.627 84.9031 139.435C88.049 137.731 91.8522 137.817 94.9183 139.664C97.9844 141.51 99.8624 144.844 99.8635 148.443L99.8516 148.455Z" fill="#C8D3D9"/>
<path d="M69.729 158.68H68.2452V158.611C68.7319 158.656 69.2216 158.68 69.729 158.68Z" fill="#C8D3D9"/>
<path d="M90.245 158.668H89.7049C89.8859 158.68 90.067 158.674 90.245 158.668Z" fill="#C8D3D9"/>
</g>
<path d="M84.8905 243H106V272H75V252.916C75 247.441 79.4276 243.002 84.8905 243Z" fill="#EFD2BC"/>
<path d="M98 243C96.6837 243.974 95.4372 245.034 94.2691 246.173C87.5125 252.751 83.7205 261.686 83.7322 271H81C80.9883 261.686 84.7804 252.751 91.537 246.173C92.705 245.034 93.9516 243.974 95.2679 243L98 243Z" fill="#DBB497"/>
<path d="M89 244C83.5946 244.002 79.2135 248.441 79.2135 253.916V273H76V253.916C76 248.441 80.3811 244.002 85.7865 244H89Z" fill="white"/>
<path fill-rule="evenodd" clip-rule="evenodd" d="M75.75 274H107.25C107.664 274 108 273.663 108 273.248V243.752C108 243.337 107.664 243 107.25 243H85.8C79.8353 243 75 247.851 75 253.835V273.248C75 273.663 75.3358 274 75.75 274ZM106.5 272.495H76.5V253.835C76.5 248.682 80.6638 244.505 85.8 244.505H106.5V272.495Z" fill="#000201"/>
<path d="M112.41 144C101.238 144 92.3596 140.359 86.0613 133.181C81.9333 128.498 76.7437 119.664 75.3519 104.174C74.8461 98.6315 74.8856 93.0526 75.4699 87.5175C75.5122 87.1922 75.8106 86.9627 76.1362 87.005C76.4619 87.0473 76.6916 87.3454 76.6493 87.6707C76.6139 87.9652 73.0667 116.604 86.9695 132.407C93.026 139.317 101.592 142.822 112.41 142.822C112.736 142.822 113 143.086 113 143.411C113 143.736 112.736 144 112.41 144Z" fill="#000201"/>
<path d="M118.41 144C107.238 144 98.3596 140.359 92.0613 133.181C87.9333 128.498 82.7437 119.664 81.3519 104.174C80.8461 98.6315 80.8856 93.0526 81.4699 87.5175C81.5122 87.1922 81.8106 86.9627 82.1362 87.005C82.4619 87.0473 82.6916 87.3454 82.6493 87.6707C82.6139 87.9652 79.0667 116.604 92.9695 132.407C99.026 139.317 107.592 142.822 118.41 142.822C118.736 142.822 119 143.086 119 143.411C119 143.736 118.736 144 118.41 144Z" fill="#000201"/>
<rect x="63" y="81" width="71" height="6" fill="#EFD2BC"/>
<rect x="63" y="81" width="71" height="2" fill="#DBB497"/>
<path fill-rule="evenodd" clip-rule="evenodd" d="M62.7377 87H133.262C133.67 87 134 86.6866 134 86.3V80.7C134 80.3134 133.67 80 133.262 80H62.7377C62.3303 80 62 80.3134 62 80.7V86.3C62 86.6866 62.3303 87 62.7377 87ZM132.525 85.6H63.4754V81.4H132.525V85.6Z" fill="#000201"/>
<rect x="160" y="82" width="4" height="4" fill="#C8D3D9"/>
<rect x="203" y="82" width="4" height="4" fill="#C8D3D9"/>
<rect x="246" y="82" width="4" height="4" fill="#C8D3D9"/>
<path d="M218 52H271V56H222.441C219.988 56 218 54.2091 218 52V52Z" fill="#C8D3D9"/>
<path fill-rule="evenodd" clip-rule="evenodd" d="M160.694 97H164.306C164.689 97 165 96.6621 165 96.2453V81.7547C165 81.3379 164.689 81 164.306 81H160.694C160.311 81 160 81.3379 160 81.7547V96.2453C160 96.6621 160.311 97 160.694 97ZM163.611 95.4906H161.389V82.5094H163.611V95.4906Z" fill="#000201"/>
<path fill-rule="evenodd" clip-rule="evenodd" d="M245.694 97H249.306C249.689 97 250 96.6621 250 96.2453V81.7547C250 81.3379 249.689 81 249.306 81H245.694C245.311 81 245 81.3379 245 81.7547V96.2453C245 96.6621 245.311 97 245.694 97ZM248.611 95.4906H246.389V82.5094H248.611V95.4906Z" fill="#000201"/>
<path fill-rule="evenodd" clip-rule="evenodd" d="M203.694 97H207.306C207.689 97 208 96.6621 208 96.2453V81.7547C208 81.3379 207.689 81 207.306 81H203.694C203.311 81 203 81.3379 203 81.7547V96.2453C203 96.6621 203.311 97 203.694 97ZM206.611 95.4906H204.389V82.5094H206.611V95.4906Z" fill="#000201"/>
<rect x="89" y="62" width="7" height="49" fill="#D9E1E4"/>
<rect x="92" y="62" width="3" height="49" fill="#B4BEC1"/>
<rect x="88" y="62" width="2" height="49" fill="white"/>
<path fill-rule="evenodd" clip-rule="evenodd" d="M87.75 111H95.25C95.6642 111 96 110.669 96 110.26V61.7396C96 61.3312 95.6642 61 95.25 61H87.75C87.3358 61 87 61.3312 87 61.7396V110.26C87 110.669 87.3358 111 87.75 111ZM94.5 109.521H88.5V62.4793H94.5V109.521Z" fill="#000201"/>
<rect x="95" y="55" width="7" height="211" fill="#EFD2BC"/>
<rect x="98" y="55" width="4" height="211" fill="#DBB497"/>
<path d="M95.5 165C95.3672 165.001 95.2397 164.93 95.1459 164.802C95.052 164.675 94.9995 164.502 95 164.322V160.678C95 160.303 95.2239 160 95.5 160C95.7761 160 96 160.303 96 160.678V164.322C96.0005 164.502 95.948 164.675 95.8541 164.802C95.7603 164.93 95.6328 165.001 95.5 165Z" fill="#000201"/>
<path d="M95.5 172C95.2239 172 95 171.654 95 171.227V168.773C95 168.346 95.2239 168 95.5 168C95.7761 168 96 168.346 96 168.773V171.227C96 171.654 95.7761 172 95.5 172Z" fill="#000201"/>
<path d="M102.286 266H95.7143C95.3198 266 95 265.668 95 265.259V174.398C95 173.989 95.3198 173.657 95.7143 173.657C96.1088 173.657 96.4286 173.989 96.4286 174.398V264.517H101.571V55.4825H96.4286V155.063C96.4286 155.473 96.1088 155.804 95.7143 155.804C95.3198 155.804 95 155.473 95 155.063V54.7413C95 54.3319 95.3198 54 95.7143 54H102.286C102.68 54 103 54.3319 103 54.7413V265.259C103 265.668 102.68 266 102.286 266Z" fill="#000201"/>
<rect x="102" y="199" width="27" height="63" fill="#D9E1E4"/>
<path d="M105 200V244L102 243.979V200H105Z" fill="#F9F9F9"/>
<rect x="112" y="199" width="27" height="63" fill="#A7B4B7"/>
<path fill-rule="evenodd" clip-rule="evenodd" d="M101.747 263H129.253C129.665 263 130 262.668 130 262.259V199.741C130 199.332 129.665 199 129.253 199H101.747C101.335 199 101 199.332 101 199.741V262.259C101 262.668 101.335 263 101.747 263ZM128.505 261.519H102.495V200.481H128.505V261.519Z" fill="#000201"/>
<rect x="147" y="94" width="119" height="15" fill="#6B838C"/>
<path d="M185 94H266V101H192.147C188.2 101 185 97.866 185 94Z" fill="#385666"/>
<path d="M266.257 109H146.743C146.333 109 146 108.674 146 108.273V93.7273C146 93.3256 146.333 93 146.743 93H170.378C170.789 93 171.122 93.3256 171.122 93.7273C171.122 94.1289 170.789 94.4545 170.378 94.4545H147.486V107.545H265.514V94.4545H175.864C175.453 94.4545 175.12 94.1289 175.12 93.7273C175.12 93.3256 175.453 93 175.864 93H266.257C266.667 93 267 93.3256 267 93.7273V108.273C267 108.674 266.667 109 266.257 109Z" fill="#000201"/>
<path d="M121 236V271H86C86 261.715 89.688 252.81 96.2522 246.246C102.816 239.682 111.719 235.996 121 236Z" fill="#EFD2BC"/>
<path d="M121 236V237.128C114.909 238.715 104.456 241.904 100.139 246.222C96.6144 249.784 93.932 254.09 92.2883 258.823C91.3766 261.421 90.7598 264.114 90.4494 266.85C89.9838 270.923 90.4347 271.194 86.091 270.926C82.7551 270.72 88.0919 259.441 88.5398 258.316C90.2017 254.154 92.6162 250.332 95.6625 247.043C102.205 240.003 111.385 236.002 121 236Z" fill="white"/>
<circle cx="114" cy="264" r="3" fill="#DBB497"/>
<circle cx="111.5" cy="258.5" r="1.5" fill="#DBB497"/>
<ellipse cx="109.5" cy="262" rx="0.5" ry="1" fill="#DBB497"/>
<circle cx="85.5" cy="255.5" r="2.5" fill="#DBB497"/>
<circle cx="83" cy="251" r="1" fill="#DBB497"/>
<circle cx="81.5" cy="253.5" r="0.5" fill="#DBB497"/>
<circle cx="112" cy="229" r="3" fill="#A7B4B7"/>
<circle cx="109.5" cy="223.5" r="1.5" fill="#A7B4B7"/>
<ellipse cx="107.5" cy="227" rx="0.5" ry="1" fill="#A7B4B7"/>
<path d="M118 251V269H114V254.484C114 252.56 115.791 251 118 251Z" fill="#DBB497"/>
<path fill-rule="evenodd" clip-rule="evenodd" d="M84.749 272H120.251C120.665 272 121 271.665 121 271.251V235.749C121 235.335 120.665 235 120.251 235C100.24 235.023 84.0231 251.24 84 271.251C84 271.665 84.3353 272 84.749 272ZM119.502 270.502H85.507C85.9283 251.904 100.904 236.928 119.502 236.507V270.502Z" fill="#000201"/>
<rect x="118" y="141" width="174" height="129" fill="#536B77"/>
<path d="M218 221.772V182H282V238.639L233.704 247L218.086 238.814L218 221.772Z" fill="#2C2627"/>
<path d="M206 160V174.163C206 174.625 205.615 175 205.141 175H195V160.375L206 160Z" fill="#253B4A"/>
<rect x="268" y="199" width="14" height="66" fill="#BC2C3D"/>
<path d="M218.6 217.694L251.347 182H280L218.011 252C218.011 252 217.87 217.694 218.6 217.694Z" fill="#453E40"/>
<path d="M218.097 214L218.431 213.645L248 182H242.625L218 208.171" fill="#453E40"/>
<path d="M218.547 201L236 182H233.136L218 198.73" fill="white"/>
<path fill-rule="evenodd" clip-rule="evenodd" d="M233.228 246.915C233.335 246.97 233.454 247 233.575 247C233.618 247 233.661 246.996 233.703 246.988L282.382 238.691C282.74 238.629 283.001 238.322 283 237.963V181.737C283 181.33 282.666 181 282.253 181H217.747C217.334 181 217 181.33 217 181.737V221.219L217.087 238.14C217.088 238.413 217.242 238.662 217.487 238.788L233.228 246.915ZM233.697 245.494L218.577 237.689L218.493 221.219V182.473H281.507V237.345L233.697 245.494Z" fill="#BC2C3D"/>
<path d="M313.89 174.701C314.302 174.255 314.886 174 315.497 174C316.109 174 316.693 174.255 317.105 174.701L320.119 177.976L321.431 179.398C322.012 180.028 322.163 180.938 321.815 181.718C321.466 182.498 320.685 183.001 319.823 183H311.172C310.312 182.999 309.534 182.497 309.186 181.719C308.838 180.941 308.986 180.034 309.564 179.404L310.876 177.982L313.89 174.701Z" fill="#D9E1E4"/>
<path d="M319.66 184H315.64C316.565 183.999 317.401 183.497 317.775 182.719C318.149 181.941 317.99 181.034 317.369 180.404L315.959 178.982L313 175.986L313.281 175.701C313.725 175.255 314.352 175 315.01 175C315.667 175 316.295 175.255 316.738 175.701L319.978 178.976L321.388 180.398C322.013 181.028 322.175 181.938 321.801 182.718C321.426 183.498 320.586 184.001 319.66 184Z" fill="#B4BEC1"/>
<path d="M315.236 175C314.814 175 314.472 174.647 314.472 174.211C314.47 172.206 312.898 170.581 310.957 170.579H301.764C301.342 170.579 301 170.225 301 169.789C301 169.353 301.342 169 301.764 169H310.957C313.741 169.003 315.997 171.334 316 174.211C316 174.647 315.658 175 315.236 175Z" fill="#000201"/>
<path d="M287.745 183C287.334 183 287 182.675 287 182.274V170.726C287 170.325 287.334 170 287.745 170H298.255C298.666 170 299 170.325 299 170.726C299 171.126 298.666 171.451 298.255 171.451H288.49V182.274C288.49 182.675 288.156 183 287.745 183Z" fill="#000201"/>
<path fill-rule="evenodd" clip-rule="evenodd" d="M307.258 183.204C307.742 184.298 308.824 185.002 310.017 185H319.019C320.206 184.988 321.275 184.278 321.749 183.187C322.223 182.096 322.015 180.827 321.216 179.947L316.727 174.987C316.156 174.358 315.348 174 314.5 174C313.652 174 312.844 174.358 312.273 174.987L307.784 179.947C306.981 180.832 306.775 182.11 307.258 183.204ZM314.519 175.501C314.096 175.502 313.694 175.681 313.411 175.996L308.921 180.959C308.519 181.404 308.416 182.045 308.658 182.594C308.9 183.143 309.442 183.498 310.041 183.499H319.043C319.642 183.498 320.184 183.143 320.426 182.594C320.668 182.045 320.565 181.404 320.163 180.959L315.673 175.996C315.379 175.669 314.957 175.488 314.519 175.501Z" fill="#000201"/>
<path d="M164 161.238V173H203V150H167.182L164.074 152.184C164.074 152.184 164 161.75 164 161.238Z" fill="#D9E1E4"/>
<path d="M179 157.909C179 157.909 183.21 169.375 195.24 159.418C195.24 159.418 196.142 163.34 199.751 163.34V174H201.742C201.742 174 203.661 173.9 202.759 158.814C201.856 143.728 179.779 146.142 179.779 146.142L179 157.909Z" fill="#9CB2B7"/>
<circle cx="176" cy="160" r="5" fill="#40545B"/>
<path d="M180 159.588C180 162.494 178.487 165 175.85 165C174.783 165 175.021 157.581 175.021 155.853C175.021 152.947 172.592 154.328 175.228 154.328C177.864 154.328 180 156.683 180 159.588Z" fill="#27373D"/>
<path fill-rule="evenodd" clip-rule="evenodd" d="M166 160.5C166 165.747 170.253 170 175.5 170C180.745 169.995 184.995 165.745 185 160.5C185 155.253 180.747 151 175.5 151C170.253 151 166 155.253 166 160.5ZM167.508 160.5C167.508 156.086 171.086 152.508 175.5 152.508C179.912 152.513 183.487 156.088 183.492 160.5C183.492 164.914 179.914 168.492 175.5 168.492C171.086 168.492 167.508 164.914 167.508 160.5Z" fill="#000201"/>
<path fill-rule="evenodd" clip-rule="evenodd" d="M170 160.5C170 163.538 172.462 166 175.5 166C178.536 165.997 180.997 163.536 181 160.5C181 157.462 178.538 155 175.5 155C172.462 155 170 157.462 170 160.5ZM170.88 160.5C170.88 157.948 172.948 155.88 175.5 155.88C178.05 155.883 180.117 157.95 180.12 160.5C180.12 163.052 178.052 165.12 175.5 165.12C172.948 165.12 170.88 163.052 170.88 160.5Z" fill="#000201"/>
<path fill-rule="evenodd" clip-rule="evenodd" d="M163.75 175H203.25C203.664 175 204 174.667 204 174.256V150.744C204 150.333 203.664 150 203.25 150H166.973C166.816 149.999 166.664 150.048 166.538 150.14L163.39 152.372C163.195 152.509 163.078 152.73 163.075 152.967C163.066 154.093 163.053 155.587 163.041 157.046C163.02 159.495 163 161.845 163 162.193V174.256C163 174.667 163.336 175 163.75 175ZM202.501 173.512H164.499L164.502 162.241V162.158V161.86L164.571 153.36L167.212 151.488H202.501V173.512Z" fill="#000201"/>
<rect x="286" y="146" width="4" height="123" fill="#253B4A"/>
<path d="M290 146V169H226.279C215.079 169 206 159.98 206 148.854V146H290Z" fill="#253B4A"/>
<rect x="118" y="146" width="4" height="123" fill="#6B838C"/>
<rect x="121" y="146" width="40" height="123" fill="#6B838C"/>
<path fill-rule="evenodd" clip-rule="evenodd" d="M266.375 101L303.467 144.431L303.999 146.056V150.069C304.067 156.024 299.274 160.908 293.292 160.977C287.313 161.045 282.409 156.276 282.337 150.323C282.273 156.167 277.53 160.918 271.631 160.986C265.649 161.054 260.745 156.283 260.675 150.328C260.675 150.327 260.675 150.326 260.675 150.326V150.104M260.675 150.328C260.616 156.182 255.862 160.938 249.955 160.999C243.974 161.06 239.076 156.283 239.013 150.328C239.013 150.327 239.013 150.326 239.013 150.326V150.077M266.375 101H147.087H266.375ZM147.087 101L112.609 141.368L147.087 101ZM112.609 141.368C111.158 142.801 110.114 143.882 109.847 144.284L112.609 141.368ZM109.847 144.284C109.493 144.822 109.249 145.424 109.129 146.056L109.847 144.284ZM109.129 146.056H109.042H109.129ZM109.042 146.056V146.579V146.056ZM109.042 146.579C108.986 147.07 108.986 147.566 109.042 148.057V146.579ZM109.042 148.057V150.308V148.057ZM109.042 150.308C109.087 154.161 111.193 157.697 114.566 159.585L109.042 150.308ZM114.566 159.585C117.939 161.473 122.068 161.426 125.397 159.461L114.566 159.585ZM125.397 159.461C128.654 157.539 130.661 154.066 130.704 150.308L125.397 159.461ZM130.704 150.308C130.749 154.161 132.854 157.697 136.228 159.585C139.601 161.473 143.73 161.426 147.059 159.461C150.316 157.539 152.323 154.066 152.366 150.308C152.435 156.264 157.34 161.036 163.322 160.968C169.219 160.9 173.962 156.152 174.028 150.31C174.073 154.162 176.179 157.698 179.551 159.585C182.925 161.473 187.053 161.426 190.382 159.461C193.639 157.539 195.646 154.066 195.69 150.309V150.326C195.758 156.281 200.663 161.054 206.645 160.986C212.543 160.918 217.285 156.17 217.351 150.328C217.422 156.283 222.326 161.054 228.307 160.986C234.205 160.918 238.947 156.17 239.013 150.328M159.158 101.443H159.672L159.253 101.295L159.158 101.443Z" fill="#BC2C3D"/>
<path d="M208 238.864V182H126V265H207.851C207.851 265 207.755 238.67 208 238.864Z" fill="#2C2627"/>
<rect x="178" y="217" width="31" height="47" fill="#BC2C3D"/>
<rect x="157" y="254" width="18" height="10" rx="5" fill="#131010"/>
<rect x="135" y="254" width="18" height="10" rx="5" fill="#131010"/>
<path d="M162.788 169.998C159.851 169.998 153.941 169.423 149.295 165.305C145.117 161.618 143 155.931 143 148.449C143 148.201 143.202 148 143.45 148C143.699 148 143.901 148.201 143.901 148.449C143.901 155.668 145.916 161.115 149.892 164.641C155.899 169.965 164.41 169.037 164.494 169.028C164.655 169.01 164.814 169.078 164.91 169.208C165.007 169.337 165.027 169.508 164.963 169.656C164.899 169.805 164.76 169.908 164.599 169.926C163.997 169.983 163.393 170.007 162.788 169.998Z" fill="#000201"/>
<circle cx="177.5" cy="200.5" r="5.5" fill="#453E40"/>
<circle cx="246.5" cy="218.5" r="8.5" fill="#453E40"/>
<path d="M161.788 165.998C158.851 165.998 152.941 165.423 148.295 161.305C144.117 157.618 142 151.931 142 144.449C142 144.201 142.202 144 142.45 144C142.699 144 142.901 144.201 142.901 144.449C142.901 151.668 144.916 157.115 148.892 160.641C154.899 165.965 163.41 165.037 163.494 165.028C163.655 165.01 163.814 165.078 163.91 165.208C164.007 165.337 164.027 165.508 163.963 165.656C163.899 165.805 163.76 165.908 163.599 165.926C162.997 165.983 162.393 166.007 161.788 165.998Z" fill="#000201"/>
<rect x="135" y="233" width="18" height="10" rx="5" fill="#131010"/>
<path d="M127.65 220.244L163.036 182H194L127.01 257C127.01 257 126.867 220.244 127.65 220.244Z" fill="#453E40"/>
<path d="M127.103 216L127.456 215.624L159 182H153.266L127 209.808" fill="#453E40"/>
<path d="M126.608 202L146 182H142.818L126 199.612" fill="white"/>
<path d="M181.832 264H128.738C128.541 263.999 128.352 263.92 128.214 263.78C128.075 263.639 127.998 263.449 128 263.252V182.748C127.998 182.551 128.075 182.361 128.214 182.22C128.352 182.08 128.541 182.001 128.738 182H207.265C207.461 182.002 207.649 182.081 207.787 182.221C207.925 182.362 208.002 182.551 208 182.748V237.613C208 238.021 207.67 238.352 207.262 238.352C206.854 238.352 206.524 238.021 206.524 237.613V183.493H129.473V262.504H181.832C182.245 262.504 182.579 262.839 182.579 263.252C182.579 263.665 182.245 264 181.832 264Z" fill="#BC2C3D"/>
<path fill-rule="evenodd" clip-rule="evenodd" d="M185 194.5C185 197.538 187.462 200 190.5 200C191.959 200 193.358 199.421 194.389 198.389C195.421 197.358 196 195.959 196 194.5C196 191.462 193.538 189 190.5 189C187.462 189 185 191.462 185 194.5ZM186.447 194.5C186.447 192.262 188.262 190.447 190.5 190.447C192.738 190.447 194.553 192.262 194.553 194.5C194.553 196.738 192.738 198.553 190.5 198.553C188.262 198.553 186.447 196.738 186.447 194.5Z" fill="#BC2C3D"/>
<path d="M118 178C120.761 178 123 180.404 123 183.37V269H118V178H118Z" fill="#91A3A8"/>
<path d="M237 101L256.862 146.263C256.862 146.263 260.082 155.476 251.581 161L255.433 159.609C255.433 159.609 263.562 153.76 258.129 140.924C252.695 128.087 240.088 101.569 240.088 101.569L237 101Z" fill="#A01D29"/>
<path d="M212 102L217.03 144.167L217.326 149.809C217.326 149.809 215.781 158.972 223.359 160.775L226.499 161.984C226.499 161.984 234.192 162.577 237.151 156.638C240.11 150.699 238.63 146.839 238.63 146.839L226.499 102.297L212 102Z" fill="white"/>
<path d="M236.275 156.642C234.055 160.295 229.617 162.659 225.425 161.836C227.21 162.19 229.786 160.827 231.164 159.811C233.044 158.427 234.088 156.601 234.856 154.436C236.783 149.007 234.427 143.228 232.993 137.862L228.829 122.259L223.495 102.297L211 102.048V102L225.577 102.297L231.777 124.938L235.701 139.273C237.239 144.888 239.568 150.697 236.486 156.268C236.418 156.39 236.346 156.515 236.275 156.642Z" fill="#C8D3D9"/>
<path d="M264 102L300.735 147.848C300.735 147.848 305.624 159.42 293.107 161.969C293.107 161.969 304.29 163.329 303.994 148.146L303.105 145.169L266.074 102H264Z" fill="#A01D29"/>
<path d="M117.5 270C117.224 270 117 269.669 117 269.261V161.739C117 161.331 117.224 161 117.5 161C117.776 161 118 161.331 118 161.739V269.261C118 269.457 117.947 269.645 117.854 269.784C117.76 269.922 117.633 270 117.5 270Z" fill="#000201"/>
<path d="M159.132 101L130.103 144.918V149.399C130.103 149.399 128.308 161.051 139.68 161.947C151.052 162.843 152.144 152.115 152.144 152.115L151.949 147.009L152.548 143.723L172 101.299L159.132 101Z" fill="white"/>
<rect x="123" y="195" width="4" height="29" fill="#91A3A8"/>
<path d="M185.3 101.294L173.6 144.283L173 148.406C173 148.406 173.18 159.041 181.19 160.643C189.2 162.245 192.617 158.022 193.457 156.6C194.297 155.178 195.2 148.111 195.2 148.111L200 101L185.3 101.294Z" fill="white"/>
<path d="M240 102.297L260.091 144.767L260.682 152.715C260.682 152.715 261.303 162.29 270.004 161.993C278.706 161.696 282 153.318 282 153.318L281.956 147.737L253.296 102L240 102.297Z" fill="white"/>
<path d="M251 102.812L276.978 143.86C279.218 147.343 279.984 151.588 279.106 155.646C278.591 157.935 277.533 160.061 275.47 161C275.47 161 283.41 158.782 281.779 148.006C281.209 144.25 276.315 138.22 272.013 131.321C263.539 117.737 253.162 102 253.162 102L251 102.812Z" fill="#C8D3D9"/>
<path d="M210.015 101L214.215 145.915C214.215 145.915 215.868 160.232 205 160.906C205 160.906 217.431 163.069 216.988 146.663C216.546 130.257 211.595 101.295 211.595 101.295L210.015 101Z" fill="#A01D29"/>
<path d="M196.891 102.132L191.593 145.023C191.593 145.023 195.125 154.852 186 162L191.593 159.617L194.536 153.065C194.536 153.065 199.541 102.43 198.952 102.132C198.363 101.835 196.891 102.132 196.891 102.132Z" fill="#C8D3D9"/>
<path d="M182.99 102L170.73 146.617C170.73 146.617 174.019 156.664 165 162C165 162 175.514 158.732 173.277 147.601C173.277 147.601 186.578 102.591 185.98 102.295C185.382 102 182.99 102 182.99 102Z" fill="#A01D29"/>
<path d="M169.302 101.502L148.319 146.036C148.319 146.036 153.664 155.846 142 162C142 162 152.815 159.785 151.317 147.232L172 101.203L169.203 101L169.302 101.502Z" fill="#C8D3D9"/>
<path d="M156.481 101L127.593 145.279C127.593 145.279 129.074 159.313 119 162C119 162 132.333 160.806 130.556 147.07L159 101.385L156.481 101Z" fill="#A01D29"/>
<path d="M206.5 162C200.2 162 195.073 157.045 195 150.886V146.721C195 146.323 195.33 146 195.737 146C196.144 146 196.474 146.323 196.474 146.721V150.878C196.54 156.291 201.082 160.627 206.619 160.563C212.156 160.498 216.591 156.058 216.525 150.644V146.721C216.525 146.323 216.855 146 217.262 146C217.669 146 217.999 146.323 217.999 146.721V150.636C218.068 156.841 212.982 161.927 206.635 162H206.5Z" fill="#000201"/>
<path d="M227.5 162C221.2 162 216.073 157.045 216 150.886V146.721C216 146.323 216.33 146 216.737 146C217.144 146 217.474 146.323 217.474 146.721V150.878C217.54 156.291 222.082 160.627 227.619 160.563C233.156 160.498 237.591 156.058 237.525 150.644V146.721C237.525 146.323 237.855 146 238.262 146C238.669 146 238.999 146.323 238.999 146.721V150.636C239.068 156.841 233.982 161.927 227.635 162H227.5Z" fill="#000201"/>
<path d="M249.5 162C243.2 162 238.073 157.045 238 150.886V146.721C238 146.323 238.33 146 238.737 146C239.144 146 239.474 146.323 239.474 146.721V150.878C239.54 156.291 244.082 160.627 249.619 160.563C255.156 160.498 259.591 156.058 259.525 150.644V146.721C259.525 146.323 259.855 146 260.262 146C260.669 146 260.999 146.323 260.999 146.721V150.636C261.068 156.841 255.982 161.927 249.635 162H249.5Z" fill="#000201"/>
<path d="M271.5 162C265.2 162 260.073 157.045 260 150.886V146.721C260 146.323 260.33 146 260.737 146C261.144 146 261.474 146.323 261.474 146.721V150.878C261.54 156.291 266.082 160.627 271.619 160.563C277.156 160.498 281.591 156.058 281.525 150.644V146.721C281.525 146.323 281.855 146 282.262 146C282.669 146 282.999 146.323 282.999 146.721V150.636C283.068 156.841 277.982 161.927 271.635 162H271.5Z" fill="#000201"/>
<path d="M292.5 162C286.2 162 281.073 157.045 281 150.886V146.721C281 146.323 281.33 146 281.737 146C282.144 146 282.474 146.323 282.474 146.721V150.878C282.54 156.291 287.082 160.627 292.619 160.563C298.156 160.498 302.591 156.058 302.525 150.644V146.721C302.525 146.323 302.855 146 303.262 146C303.669 146 303.999 146.323 303.999 146.721V150.636C304.068 156.841 298.982 161.927 292.635 162H292.5Z" fill="#000201"/>
<path d="M184.5 162C178.2 162 173.073 157.045 173 150.886V146.721C173 146.323 173.33 146 173.737 146C174.144 146 174.474 146.323 174.474 146.721V150.878C174.54 156.291 179.082 160.627 184.619 160.563C190.156 160.498 194.591 156.058 194.525 150.644V146.721C194.525 146.323 194.855 146 195.262 146C195.669 146 195.999 146.323 195.999 146.721V150.636C196.068 156.841 190.982 161.927 184.635 162H184.5Z" fill="#000201"/>
<path d="M162.5 162C156.2 162 151.073 157.045 151 150.886V146.721C151 146.323 151.33 146 151.737 146C152.144 146 152.474 146.323 152.474 146.721V150.878C152.54 156.291 157.082 160.627 162.619 160.563C168.156 160.498 172.591 156.058 172.525 150.644V146.721C172.525 146.323 172.855 146 173.262 146C173.669 146 173.999 146.323 173.999 146.721V150.636C174.068 156.841 168.982 161.927 162.635 162H162.5Z" fill="#000201"/>
<path d="M141.5 162C135.2 162 130.073 157.045 130 150.886V146.721C130 146.323 130.33 146 130.737 146C131.144 146 131.474 146.323 131.474 146.721V150.878C131.54 156.291 136.082 160.627 141.619 160.563C147.156 160.498 151.591 156.058 151.525 150.644V146.721C151.525 146.323 151.855 146 152.262 146C152.669 146 152.999 146.323 152.999 146.721V150.636C153.068 156.841 147.982 161.927 141.635 162H141.5Z" fill="#000201"/>
<path d="M119.5 162C113.2 162 108.073 157.045 108 150.886V146.721C108 146.323 108.33 146 108.737 146C109.144 146 109.474 146.323 109.474 146.721V150.878C109.54 156.291 114.082 160.627 119.619 160.563C125.156 160.498 129.591 156.058 129.525 150.644V146.721C129.525 146.323 129.855 146 130.262 146C130.669 146 130.999 146.323 130.999 146.721V150.636C131.068 156.841 125.982 161.927 119.635 162H119.5Z" fill="#000201"/>
<path d="M195.75 146H195.672C195.261 145.956 194.962 145.587 195.004 145.175L199.498 101.676C199.526 101.408 199.694 101.175 199.94 101.066C200.186 100.956 200.471 100.985 200.689 101.144C200.907 101.302 201.024 101.564 200.996 101.832L196.502 145.331C196.459 145.714 196.135 146.002 195.75 146Z" fill="#000201"/>
<path d="M214.314 120C213.965 119.999 213.674 119.706 213.636 119.319L212.004 101.843C211.978 101.571 212.085 101.306 212.283 101.145C212.48 100.985 212.74 100.955 212.963 101.066C213.186 101.178 213.339 101.413 213.364 101.685L214.996 119.161C215.035 119.579 214.763 119.952 214.39 119.997L214.314 120Z" fill="#000201"/>
<path d="M215.252 129C214.871 128.999 214.553 128.728 214.513 128.372L214.004 123.778C213.976 123.527 214.093 123.282 214.309 123.134C214.526 122.986 214.809 122.959 215.053 123.061C215.298 123.164 215.465 123.382 215.493 123.632L215.996 128.226C216.017 128.411 215.958 128.597 215.834 128.741C215.709 128.886 215.529 128.978 215.332 128.997L215.252 129Z" fill="#000201"/>
<path d="M217.101 145C216.647 144.999 216.267 144.721 216.218 144.354L215.005 134.798C214.972 134.54 215.111 134.289 215.37 134.137C215.628 133.986 215.966 133.958 216.257 134.064C216.547 134.17 216.746 134.393 216.778 134.651L217.995 144.204C218.045 144.6 217.691 144.955 217.204 144.997L217.101 145Z" fill="#000201"/>
<path d="M238.261 146C237.926 145.999 237.633 145.774 237.546 145.449L226.025 101.931C225.957 101.675 226.031 101.402 226.218 101.215C226.406 101.029 226.678 100.957 226.933 101.026C227.188 101.095 227.387 101.296 227.454 101.552L238.976 145.07C239.079 145.466 238.844 145.871 238.45 145.976C238.388 145.991 238.325 145.999 238.261 146Z" fill="#000201"/>
<path d="M260.269 146C259.984 146 259.725 145.831 259.607 145.568L240.066 102.049C239.899 101.677 240.06 101.237 240.426 101.067C240.793 100.897 241.226 101.061 241.393 101.433L260.934 144.952C261.101 145.324 260.939 145.763 260.573 145.932C260.478 145.977 260.374 146 260.269 146Z" fill="#000201"/>
<path d="M152.717 146C152.616 145.999 152.517 145.975 152.426 145.932C152.25 145.851 152.113 145.701 152.045 145.518C151.978 145.334 151.986 145.13 152.067 144.952L171.607 101.433C171.774 101.061 172.207 100.897 172.574 101.067C172.94 101.237 173.101 101.677 172.934 102.049L153.394 145.568C153.273 145.836 153.007 146.005 152.717 146Z" fill="#000201"/>
<path d="M149.765 117C149.484 117.001 149.225 116.849 149.092 116.603C148.958 116.358 148.971 116.059 149.126 115.826L158.577 101.374C158.72 101.133 158.984 100.99 159.265 101.001C159.545 101.011 159.797 101.174 159.921 101.425C160.045 101.676 160.021 101.974 159.858 102.202L150.407 116.653C150.266 116.87 150.024 117.001 149.765 117Z" fill="#000201"/>
<path d="M143.694 126C143.44 126.001 143.205 125.861 143.083 125.635C142.962 125.409 142.974 125.134 143.114 124.919L146.724 119.318C146.933 118.994 147.363 118.903 147.685 119.114C148.006 119.325 148.097 119.759 147.887 120.083L144.278 125.684C144.149 125.882 143.929 126.001 143.694 126Z" fill="#000201"/>
<path d="M130.746 146C130.472 146.001 130.22 145.849 130.09 145.603C129.959 145.357 129.972 145.059 130.123 144.825L140.647 128.32C140.878 127.988 141.325 127.901 141.66 128.123C141.995 128.345 142.099 128.796 141.896 129.147L131.372 145.653C131.235 145.87 130.999 146.001 130.746 146Z" fill="#000201"/>
<path d="M281.25 146C280.996 146 280.76 145.872 280.623 145.66L252.139 102.176C251.979 101.953 251.955 101.661 252.077 101.416C252.199 101.17 252.446 101.011 252.721 101.001C252.996 100.99 253.255 101.131 253.395 101.366L281.879 144.85C282.029 145.079 282.04 145.371 281.909 145.611C281.778 145.851 281.525 146 281.25 146Z" fill="#000201"/>
<path d="M303.252 146C303.032 146 302.824 145.905 302.682 145.74L265.204 102.247C265.014 102.048 264.951 101.763 265.039 101.504C265.127 101.245 265.353 101.055 265.626 101.01C265.899 100.965 266.175 101.072 266.344 101.289L303.821 144.781C304.011 145 304.053 145.308 303.931 145.57C303.809 145.832 303.544 146 303.252 146Z" fill="#000201"/>
<path d="M109.749 146C109.457 146 109.191 145.832 109.069 145.57C108.947 145.308 108.989 144.999 109.179 144.779L146.703 101.233C146.978 100.945 147.432 100.921 147.736 101.177C148.041 101.433 148.088 101.88 147.844 102.192L110.32 145.739C110.178 145.905 109.969 146 109.749 146Z" fill="#000201"/>
<path d="M178.708 129C178.647 129.001 178.586 128.993 178.527 128.976C178.346 128.925 178.19 128.799 178.096 128.625C178.001 128.452 177.975 128.246 178.024 128.052L184.607 101.563C184.672 101.302 184.862 101.097 185.106 101.026C185.35 100.956 185.611 101.029 185.791 101.22C185.97 101.41 186.041 101.688 185.976 101.949L179.39 128.438C179.309 128.769 179.029 129 178.708 129Z" fill="#000201"/>
<path d="M173.794 146C173.725 145.999 173.657 145.991 173.591 145.975C173.168 145.866 172.915 145.445 173.026 145.035L176.433 132.599C176.498 132.324 176.711 132.106 176.99 132.029C177.269 131.952 177.57 132.03 177.773 132.23C177.976 132.431 178.05 132.723 177.966 132.992L174.562 145.428C174.468 145.765 174.154 145.999 173.794 146Z" fill="#000201"/>
<path d="M266.257 102H146.743C146.333 102 146 101.776 146 101.5C146 101.224 146.333 101 146.743 101H266.257C266.667 101 267 101.224 267 101.5C267 101.776 266.667 102 266.257 102Z" fill="#000201"/>
<path d="M139.255 110C139.203 109.999 139.152 109.995 139.101 109.985C129.155 107.935 123.953 101.74 121.319 96.9056C119.604 93.7658 118.481 90.3474 118.003 86.8151C117.978 86.5505 118.097 86.2925 118.318 86.1382C118.538 85.9839 118.825 85.9568 119.071 86.0671C119.317 86.1774 119.485 86.4083 119.51 86.6729C119.98 90.0269 121.053 93.272 122.678 96.2568C126.271 102.857 131.895 106.987 139.396 108.534C139.774 108.609 140.033 108.952 139.997 109.329C139.96 109.707 139.64 109.996 139.255 110Z" fill="#000201"/>
<path d="M291.5 239C291.224 239 291 238.667 291 238.256V161.744C291 161.333 291.224 161 291.5 161C291.776 161 292 161.333 292 161.744V238.256C292 238.667 291.776 239 291.5 239Z" fill="#000201"/>
<path d="M183 269.666V238H296V270" fill="#D9E1E4"/>
<path d="M295 238V269L292 268.985V238H295Z" fill="#B4BEC1"/>
<path d="M185 238V271L182 270.985V238H185Z" fill="#F9F9F9"/>
<path d="M203 239V271L202 270.985V239H203Z" fill="#F9F9F9"/>
<path d="M201 239V271L199 270.985V239H201Z" fill="#F9F9F9"/>
<path d="M181.856 265H126.741C126.332 265 126 264.668 126 264.258V181.742C126 181.332 126.332 181 126.741 181H208.259C208.668 181 209 181.332 209 181.742V237.989C209 238.399 208.668 238.731 208.259 238.731C207.85 238.731 207.518 238.399 207.518 237.989V182.484H127.482V263.516H181.856C182.265 263.516 182.597 263.848 182.597 264.258C182.597 264.668 182.265 265 181.856 265Z" fill="#000201"/>
<path fill-rule="evenodd" clip-rule="evenodd" d="M186 193.5C186 196.538 188.462 199 191.5 199C194.538 199 197 196.538 197 193.5C197 190.462 194.538 188 191.5 188C188.462 188 186 190.462 186 193.5ZM187.447 193.5C187.447 191.262 189.262 189.447 191.5 189.447C193.738 189.447 195.553 191.262 195.553 193.5C195.553 195.738 193.738 197.553 191.5 197.553C189.262 197.553 187.447 195.738 187.447 193.5Z" fill="#000201"/>
<path d="M191.5 190C191.224 190 191 189.659 191 189.239V182.761C191 182.341 191.224 182 191.5 182C191.776 182 192 182.341 192 182.761V189.239C192 189.659 191.776 190 191.5 190Z" fill="#000201"/>
<path d="M136.56 175H118.44C118.197 175 118 174.776 118 174.5C118 174.224 118.197 174 118.44 174H136.56C136.803 174 137 174.224 137 174.5C137 174.776 136.803 175 136.56 175Z" fill="#000201"/>
<path d="M127.538 171H118.462C118.207 171 118 170.776 118 170.5C118 170.224 118.207 170 118.462 170H127.538C127.793 170 128 170.224 128 170.5C128 170.776 127.793 171 127.538 171Z" fill="#000201"/>
<path d="M130.581 171H129.419C129.188 171 129 170.776 129 170.5C129 170.224 129.188 170 129.419 170H130.581C130.812 170 131 170.224 131 170.5C131 170.776 130.812 171 130.581 171Z" fill="#000201"/>
<path d="M203.545 168H188.455C188.204 168 188 167.776 188 167.5C188 167.224 188.204 167 188.455 167H203.545C203.796 167 204 167.224 204 167.5C204 167.776 203.796 168 203.545 168Z" fill="#000201"/>
<path d="M203.545 171H199.455C199.204 171 199 170.776 199 170.5C199 170.224 199.204 170 199.455 170H203.545C203.796 170 204 170.224 204 170.5C204 170.776 203.796 171 203.545 171Z" fill="#000201"/>
<path d="M196.495 171H193.505C193.226 171 193 170.776 193 170.5C193 170.224 193.226 170 193.505 170H196.495C196.774 170 197 170.224 197 170.5C197 170.776 196.774 171 196.495 171Z" fill="#000201"/>
<rect x="182" y="259" width="13" height="1" fill="#000201"/>
<rect x="182" y="255" width="34" height="1" fill="#000201"/>
<rect x="220" y="255" width="4" height="1" fill="#000201"/>
<path d="M169 263L168 262.705V183H169V263Z" fill="#BC2C3D"/>
<path d="M167.252 201H127.748C127.335 201 127 200.776 127 200.5C127 200.224 127.335 200 127.748 200H167.252C167.665 200 168 200.224 168 200.5C168 200.776 167.665 201 167.252 201Z" fill="#000201"/>
<path d="M167.5 265C167.367 265.001 167.24 264.923 167.146 264.783C167.052 264.644 166.999 264.454 167 264.257V181.743C167 181.333 167.224 181 167.5 181C167.776 181 168 181.333 168 181.743V264.257C168 264.667 167.776 265 167.5 265Z" fill="#000201"/>
<ellipse cx="189.379" cy="266.079" rx="2.55721" ry="2.44793" transform="rotate(-39.17 189.379 266.079)" fill="#F9F9F9"/>
<ellipse cx="185.047" cy="265.163" rx="1.11248" ry="1.22248" transform="rotate(-39.17 185.047 265.163)" fill="#F9F9F9"/>
<ellipse cx="190.954" cy="261.847" rx="0.667486" ry="0.726961" transform="rotate(-39.17 190.954 261.847)" fill="#F9F9F9"/>
<ellipse cx="282.626" cy="244.118" rx="2.44875" ry="2.55932" transform="rotate(-76.57 282.626 244.118)" fill="#B4BEC1"/>
<ellipse cx="284.53" cy="248.125" rx="1.22586" ry="1.1121" transform="rotate(-76.57 284.53 248.125)" fill="#B4BEC1"/>
<ellipse cx="278.311" cy="245.44" rx="0.727205" ry="0.667262" transform="rotate(-76.57 278.311 245.44)" fill="#B4BEC1"/>
<path d="M290.552 174H265.448C265.201 174 265 173.776 265 173.5C265 173.224 265.201 173 265.448 173H290.552C290.799 173 291 173.224 291 173.5C291 173.776 290.799 174 290.552 174Z" fill="#000201"/>
<path d="M186.436 249C186.326 248.999 186.219 248.957 186.139 248.884C185.961 248.724 185.953 248.457 186.122 248.287L192.228 242.133C192.397 241.963 192.68 241.955 192.859 242.115C193.039 242.275 193.048 242.543 192.879 242.714L186.769 248.868C186.683 248.954 186.562 249.002 186.436 249Z" fill="#000201"/>
<path d="M188.415 249C188.249 249 188.098 248.903 188.033 248.754C187.968 248.604 188.001 248.432 188.116 248.315L191.277 245.133C191.378 245.024 191.533 244.977 191.68 245.011C191.828 245.045 191.944 245.154 191.985 245.296C192.025 245.438 191.983 245.591 191.875 245.694L188.72 248.876C188.641 248.958 188.53 249.003 188.415 249Z" fill="#000201"/>
<path d="M180.432 123C180.221 123.001 180.041 122.836 180.006 122.611C179.971 122.385 180.092 122.165 180.292 122.091L188.426 119.027C188.571 118.971 188.732 119.004 188.849 119.112C188.966 119.221 189.021 119.388 188.993 119.552C188.965 119.716 188.858 119.852 188.713 119.907L180.582 122.972C180.534 122.991 180.483 123 180.432 123Z" fill="#000201"/>
<path d="M181.476 124C181.242 123.996 181.044 123.867 181.006 123.692C180.969 123.518 181.101 123.348 181.322 123.288L186.336 122.026C186.503 121.976 186.693 121.999 186.83 122.087C186.966 122.175 187.028 122.312 186.988 122.444C186.949 122.577 186.816 122.681 186.642 122.717L181.631 123.981C181.581 123.993 181.529 123.999 181.476 124Z" fill="#000201"/>
<path d="M322.405 149C322.352 149 322.299 148.987 322.25 148.963C322.149 148.915 322.069 148.822 322.029 148.704C321.988 148.586 321.991 148.453 322.036 148.338L324.227 142.287C324.314 142.048 324.55 141.936 324.754 142.037C324.959 142.138 325.055 142.414 324.968 142.653L322.774 148.7C322.716 148.879 322.569 148.998 322.405 149Z" fill="#2C2627"/>
<path d="M325.409 146C325.355 146 325.302 145.988 325.252 145.964C325.15 145.919 325.07 145.83 325.029 145.717C324.988 145.604 324.991 145.478 325.036 145.368L326.22 142.274C326.307 142.046 326.545 141.939 326.752 142.035C326.958 142.132 327.055 142.395 326.968 142.623L325.782 145.714C325.723 145.885 325.575 145.998 325.409 146Z" fill="#2C2627"/>
<path d="M181.534 152C181.457 152 181.382 151.983 181.315 151.951L174.252 148.763C174.022 148.66 173.933 148.415 174.053 148.217C174.174 148.019 174.457 147.943 174.687 148.046L181.75 151.237C181.976 151.34 182.065 151.58 181.95 151.776C181.871 151.912 181.71 151.998 181.534 152Z" fill="#000201"/>
<path d="M177.555 152C177.48 152.001 177.405 151.987 177.339 151.959L174.246 150.684C174.02 150.59 173.934 150.37 174.054 150.193C174.175 150.016 174.456 149.948 174.682 150.043L177.756 151.318C177.943 151.396 178.037 151.564 177.986 151.724C177.935 151.885 177.752 151.999 177.54 152H177.555Z" fill="#000201"/>
<path d="M258.432 140C258.221 140.001 258.041 139.836 258.006 139.611C257.971 139.385 258.092 139.165 258.292 139.091L266.426 136.027C266.571 135.971 266.732 136.004 266.849 136.112C266.966 136.221 267.021 136.388 266.993 136.552C266.965 136.716 266.858 136.852 266.713 136.907L258.582 139.972C258.534 139.991 258.483 140 258.432 140Z" fill="#000201"/>
<path d="M259.476 142C259.242 141.996 259.044 141.867 259.006 141.692C258.969 141.518 259.101 141.348 259.322 141.288L264.336 140.026C264.503 139.976 264.693 139.999 264.83 140.087C264.966 140.175 265.028 140.312 264.988 140.444C264.949 140.577 264.816 140.681 264.642 140.717L259.631 141.981C259.581 141.993 259.529 141.999 259.476 142Z" fill="#000201"/>
<path d="M273.466 195C273.279 195 273.11 194.892 273.037 194.725C272.964 194.559 273.001 194.366 273.13 194.236L278.189 189.148C278.303 189.026 278.476 188.974 278.642 189.012C278.807 189.05 278.938 189.172 278.983 189.33C279.028 189.489 278.981 189.659 278.86 189.774L273.801 194.862C273.714 194.951 273.593 195.001 273.466 195Z" fill="#453E40"/>
<path d="M271.46 201C271.275 201 271.109 200.894 271.037 200.73C270.965 200.567 271.001 200.378 271.129 200.25L278.206 193.137C278.383 192.96 278.674 192.954 278.858 193.123C279.042 193.293 279.048 193.574 278.872 193.751L271.797 200.864C271.709 200.952 271.587 201.002 271.46 201Z" fill="#453E40"/>
<rect x="66" y="270" width="292" height="5" fill="#536B77"/>
<path d="M229 270H358V273H231.675C230.198 273 229 271.657 229 270H229Z" fill="#253B4A"/>
<path fill-rule="evenodd" clip-rule="evenodd" d="M66.7414 276H358.259C358.668 276 359 275.668 359 275.259V269.741C359 269.332 358.668 269 358.259 269H66.7414C66.3319 269 66 269.332 66 269.741V275.259C66 275.668 66.3319 276 66.7414 276ZM357.517 274.518H67.4828V270.482H357.517V274.518Z" fill="#000201"/>
<path d="M264 239H295V243H268.387C265.964 243 264 241.209 264 239Z" fill="#B4BEC1"/>
<path d="M181.743 271C181.333 271 181 270.667 181 270.257V238.743C181 238.333 181.333 238 181.743 238H295.257C295.667 238 296 238.333 296 238.743V269.995C296 270.406 295.667 270.738 295.257 270.738C294.847 270.738 294.514 270.406 294.514 269.995V239.486H182.486V270.257C182.486 270.667 182.153 271 181.743 271Z" fill="#000201"/>
<circle cx="213.5" cy="143.5" r="2.5" fill="#A01D29"/>
<circle cx="234.5" cy="147.5" r="2.5" fill="#C8D3D9"/>
<circle cx="224.5" cy="119.5" r="2.5" fill="#C8D3D9"/>
<circle cx="224.5" cy="115.5" r="0.5" fill="#C8D3D9"/>
<circle cx="185.5" cy="97.5" r="2.5" fill="#385666"/>
<ellipse cx="181.5" cy="96" rx="0.5" ry="1" fill="#385666"/>
<circle cx="146" cy="148" r="4" fill="#C8D3D9"/>
<circle cx="298.5" cy="148.5" r="2.5" fill="#A01D29"/>
<circle cx="295.5" cy="144.5" r="0.5" fill="#A01D29"/>
<circle cx="231" cy="143" r="1" fill="#C8D3D9"/>
<circle cx="210" cy="140" r="1" fill="#A01D29"/>
<circle cx="142.5" cy="141.5" r="1.5" fill="#C8D3D9"/>
<rect x="142" y="242" width="4" height="14" fill="#131010"/>
<path d="M303.257 146H108.743C108.333 146 108 145.776 108 145.5C108 145.224 108.333 145 108.743 145H303.257C303.667 145 304 145.224 304 145.5C304 145.776 303.667 146 303.257 146Z" fill="#000201"/>
<path d="M227.955 115C227.045 115 226.186 115.399 225.626 116.081C225.066 116.763 224.868 117.652 225.088 118.492L228.342 130.87C228.671 132.122 229.853 133 231.209 133H233L227.955 115Z" fill="#C8D3D9"/>
<path d="M229 167.571C229 170.57 231.534 173 234.66 173H251.34C254.466 173 257 170.57 257 167.571V167L229 167.571Z" fill="#253B4A"/>
<path d="M155.5 97C155.224 97 155 96.8168 155 96.5909V94.4091C155 94.1832 155.224 94 155.5 94C155.776 94 156 94.1832 156 94.4091V96.5909C156 96.8168 155.776 97 155.5 97Z" fill="#000201"/>
<path d="M157.5 99C157.224 99 157 98.7985 157 98.55V93.45C157 93.2015 157.224 93 157.5 93C157.776 93 158 93.2015 158 93.45V98.55C158 98.7985 157.776 99 157.5 99Z" fill="#000201"/>
<path d="M98.5 61C98.2239 61 98 60.7985 98 60.55V55.45C98 55.2015 98.2239 55 98.5 55C98.7761 55 99 55.2015 99 55.45V60.55C99 60.7985 98.7761 61 98.5 61Z" fill="#000201"/>
<path d="M90.5 72C90.2239 72 90 71.7985 90 71.55V66.45C90 66.2015 90.2239 66 90.5 66C90.7761 66 91 66.2015 91 66.45V71.55C91 71.7985 90.7761 72 90.5 72Z" fill="white"/>
<path d="M90.5 78C90.2239 78 90 77.7934 90 77.5385V74.4615C90 74.2066 90.2239 74 90.5 74C90.7761 74 91 74.2066 91 74.4615V77.5385C91 77.7934 90.7761 78 90.5 78Z" fill="white"/>
<path d="M99.5 120C99.2239 120 99 119.799 99 119.55V114.45C99 114.201 99.2239 114 99.5 114C99.7761 114 100 114.201 100 114.45V119.55C100 119.669 99.9473 119.784 99.8536 119.868C99.7598 119.953 99.6326 120 99.5 120Z" fill="#000201"/>
<path d="M99.5 193C99.2239 193 99 192.799 99 192.55V187.45C99 187.201 99.2239 187 99.5 187C99.7761 187 100 187.201 100 187.45V192.55C100 192.799 99.7761 193 99.5 193Z" fill="#000201"/>
<path d="M99.5 186C99.2239 186 99 185.793 99 185.538V182.462C99 182.207 99.2239 182 99.5 182C99.7761 182 100 182.207 100 182.462V185.538C100 185.661 99.9473 185.778 99.8536 185.865C99.7598 185.951 99.6326 186 99.5 186Z" fill="#000201"/>
<path d="M152.5 82C152.224 82 152 81.7761 152 81.5V78.5C152 78.2239 152.224 78 152.5 78C152.776 78 153 78.2239 153 78.5V81.5C153 81.7761 152.776 82 152.5 82Z" fill="#000201"/>
<path d="M153.5 82C153.224 82 153 81.7985 153 81.55V76.45C153 76.2015 153.224 76 153.5 76C153.776 76 154 76.2015 154 76.45V81.55C154 81.7985 153.776 82 153.5 82Z" fill="#000201"/>
<path d="M68.55 85H63.45C63.2015 85 63 84.7761 63 84.5C63 84.2239 63.2015 84 63.45 84H68.55C68.7985 84 69 84.2239 69 84.5C69 84.7761 68.7985 85 68.55 85Z" fill="#000201"/>
<path d="M74.5312 85H70.4688C70.2099 85 70 84.7761 70 84.5C70 84.2239 70.2099 84 70.4688 84H74.5312C74.7901 84 75 84.2239 75 84.5C75 84.7761 74.7901 85 74.5312 85Z" fill="#000201"/>
<path d="M98.5 245C98.2239 245 98 244.799 98 244.55V239.45C98 239.201 98.2239 239 98.5 239C98.7761 239 99 239.201 99 239.45V244.55C99 244.799 98.7761 245 98.5 245Z" fill="#000201"/>
<path d="M175.5 165C175.224 165 175 164.799 175 164.551V161.449C175 161.201 175.224 161 175.5 161C175.776 161 176 161.201 176 161.449V164.551C176 164.799 175.776 165 175.5 165Z" fill="#000201"/>
<path d="M171.399 163C171.283 162.999 171.173 162.944 171.097 162.849C171.028 162.761 170.993 162.647 171.001 162.531C171.009 162.416 171.059 162.308 171.139 162.233L172.333 161.109C172.5 160.949 172.754 160.967 172.9 161.15C173.047 161.333 173.03 161.611 172.863 161.771L171.67 162.895C171.594 162.966 171.498 163.003 171.399 163Z" fill="#000201"/>
<path d="M178.596 163C178.499 163.001 178.404 162.964 178.33 162.895L177.137 161.771C176.97 161.611 176.953 161.333 177.1 161.15C177.246 160.967 177.5 160.949 177.667 161.109L178.861 162.233C178.941 162.309 178.991 162.416 178.999 162.531C179.007 162.647 178.972 162.761 178.903 162.849C178.826 162.946 178.713 163.001 178.596 163Z" fill="#000201"/>
<ellipse cx="258" cy="217" rx="2" ry="3" fill="#453E40"/>
<ellipse cx="257.5" cy="212" rx="0.5" ry="1" fill="#453E40"/>
<ellipse cx="180.904" cy="209.343" rx="3.1142" ry="2.22591" transform="rotate(-23.3 180.904 209.343)" fill="#453E40"/>
<ellipse cx="186.175" cy="206.013" rx="0.892616" ry="0.637155" transform="rotate(-23.4986 186.175 206.013)" fill="#453E40"/>
<ellipse cx="213.999" cy="165.835" rx="2.22443" ry="3.11628" transform="rotate(-23.3 213.999 165.835)" fill="#253B4A"/>
<ellipse cx="216.965" cy="170.21" rx="0.634703" ry="0.890366" transform="rotate(-23.3 216.965 170.21)" fill="#253B4A"/>
<path fill-rule="evenodd" clip-rule="evenodd" d="M140.743 83H271.257C271.667 83 272 82.6653 272 82.2523V51.7477C272 51.3347 271.667 51 271.257 51H140.743C140.333 51 140 51.3347 140 51.7477V82.2523C140 82.6653 140.333 83 140.743 83ZM270.514 81.5047H141.486V52.4953H270.514V81.5047Z" fill="#000201"/>
<path d="M50.6122 116C50.3044 116.002 50.0436 115.778 50.0049 115.479C49.9661 115.18 50.1617 114.9 50.4602 114.826C66.2402 110.817 66.7781 87.8193 66.7842 87.5869C66.7892 87.2579 67.0655 86.9951 67.4012 87.0001C67.7369 87.005 68.005 87.2757 67.9999 87.6048C67.8254 91.8567 67.0626 96.0656 65.7326 100.116C62.8635 108.731 57.6846 114.216 50.7641 115.976C50.7146 115.99 50.6636 115.998 50.6122 116Z" fill="#000201"/>
<path d="M54.6122 118C54.3044 118.002 54.0436 117.779 54.0049 117.481C53.9661 117.182 54.1617 116.903 54.4602 116.83C70.2402 112.831 70.7781 87.8467 70.7842 87.5853C70.7892 87.2572 71.0655 86.9951 71.4012 87.0001C71.7369 87.005 72.005 87.275 71.9999 87.6031C71.8174 92.1796 71.0579 96.7165 69.7387 101.111C66.8696 110.392 61.6907 116.226 54.7641 117.982C54.7144 117.994 54.6634 118 54.6122 118Z" fill="#000201"/>
<path d="M272 272H346C346 273.105 344.936 274 343.622 274H274.378C273.064 274 272 273.105 272 272Z" fill="#253B4A"/>
<path d="M300.868 226C300.455 225.999 300.1 225.723 300.017 225.339C299.935 224.955 300.149 224.569 300.529 224.415C303.328 223.287 306.576 222.83 310.186 223.056C310.667 223.086 311.03 223.481 310.998 223.936C310.966 224.392 310.551 224.737 310.07 224.707C306.735 224.5 303.754 224.913 301.208 225.939C301.1 225.981 300.985 226.001 300.868 226Z" fill="white"/>
<path d="M294.939 231C294.723 230.999 294.513 230.923 294.346 230.785C293.944 230.453 293.883 229.855 294.211 229.448C294.884 228.621 295.643 227.869 296.475 227.206C296.738 226.995 297.093 226.942 297.405 227.067C297.718 227.191 297.941 227.475 297.99 227.811C298.039 228.147 297.907 228.483 297.644 228.694C296.919 229.273 296.257 229.928 295.669 230.648C295.491 230.871 295.222 231 294.939 231Z" fill="white"/>
<path d="M280.121 235.986C280.121 235.986 278.597 224.476 286.372 220C286.372 220 291.295 228.443 284.021 238L282.671 237.91" fill="#EFD2BC"/>
<path fill-rule="evenodd" clip-rule="evenodd" d="M280.621 238.826C280.734 238.936 280.886 238.998 281.045 238.998C281.098 239.002 281.152 238.999 281.205 238.989C286.377 237.591 289.743 234.99 291.194 231.257C292.455 228.023 292.232 223.878 290.555 219.275C289.796 217.181 288.818 215.169 287.638 213.273C287.461 213 287.093 212.918 286.813 213.089C280.277 217.08 276.665 221.645 276.084 226.681C275.289 233.521 280.404 238.613 280.621 238.826ZM277.279 226.808C277.803 222.29 281.051 218.122 286.931 214.411V214.405C288.159 216.478 292.509 224.542 290.071 230.828C288.794 234.107 285.823 236.433 281.235 237.742C280.265 236.676 276.644 232.288 277.279 226.808Z" fill="#EFD2BC"/>
<path d="M282.267 237.997C282.241 238.001 282.214 238.001 282.187 237.997C282.047 237.947 281.969 237.776 282.012 237.616C285.128 226.195 285.468 220.345 285.468 220.287C285.477 220.119 285.603 219.99 285.75 220.001C285.896 220.011 286.008 220.155 286 220.323C286 220.381 285.643 226.293 282.506 237.799C282.469 237.914 282.374 237.992 282.267 237.997Z" fill="#000201"/>
<path d="M285.361 223.998C285.184 224.013 285.024 223.928 285.002 223.81C284.981 223.691 285.107 223.583 285.284 223.569L288.601 223.007C288.712 222.988 288.83 223.01 288.909 223.065C288.989 223.12 289.019 223.2 288.988 223.273C288.957 223.347 288.869 223.404 288.758 223.423L285.438 223.992L285.361 223.998Z" fill="#000201"/>
<path d="M284.744 226C284.679 226 284.617 225.973 284.569 225.926L282.083 223.473C281.978 223.371 281.972 223.198 282.068 223.088C282.165 222.977 282.328 222.97 282.432 223.073L284.919 225.526C284.996 225.602 285.021 225.72 284.982 225.824C284.944 225.928 284.849 225.997 284.744 225.997V226Z" fill="#000201"/>
<path d="M284.275 229.999C284.132 230.01 284.009 229.878 284 229.706C283.992 229.533 284.101 229.385 284.244 229.374L286.708 229.003C286.777 228.992 286.846 229.015 286.9 229.066C286.954 229.117 286.99 229.192 286.998 229.274C287.015 229.445 286.914 229.6 286.773 229.621L284.309 229.996L284.275 229.999Z" fill="#000201"/>
<path d="M282.708 232C282.624 232 282.544 231.967 282.489 231.909L281.074 230.447C281.004 230.375 280.982 230.275 281.015 230.184C281.048 230.093 281.132 230.025 281.234 230.005C281.337 229.986 281.443 230.019 281.512 230.09L282.927 231.555C283.003 231.634 283.021 231.747 282.974 231.842C282.927 231.938 282.823 232 282.708 232Z" fill="#000201"/>
<path opacity="0.15" d="M280.085 219C280.085 219 280.158 219.081 280.28 219.241C281.436 220.716 287.099 228.744 281.712 238H279" fill="black"/>
<path d="M280.925 237.209C280.925 237.209 281.876 226.98 277.018 223C277.018 223 273.941 230.507 278.487 239L279.331 238.92" fill="#DBB497"/>
<path d="M276.778 218.59C276.778 218.59 270.488 229.803 276.479 236C276.479 236 269.29 232.754 275.58 218L277 218.404L276.778 218.885" fill="white"/>
<path fill-rule="evenodd" clip-rule="evenodd" d="M279.286 238.97C279.345 238.99 279.407 239 279.469 239C279.64 239.002 279.803 238.928 279.915 238.796C280.065 238.609 283.589 234.175 282.914 228.279C282.437 224.161 280.039 220.407 275.777 217.12C275.642 217.015 275.468 216.977 275.303 217.014C275.138 217.051 274.998 217.159 274.918 217.31C274.724 217.682 270.201 226.528 272.807 233.142C273.895 235.914 276.076 237.876 279.286 238.97ZM273.884 232.696C271.872 227.563 274.674 220.614 275.636 218.496C279.284 221.469 281.345 224.794 281.762 228.389C282.286 232.918 280.016 236.613 279.26 237.701C276.603 236.701 274.796 235.018 273.884 232.696Z" fill="#DBB497"/>
<path d="M279.738 237.979C279.611 237.983 279.498 237.89 279.466 237.754C277.25 228.239 277.003 223.36 277 223.3C277 223.14 277.113 223.008 277.258 223C277.333 222.996 277.405 223.026 277.459 223.083C277.513 223.139 277.544 223.218 277.544 223.3C277.544 223.348 277.794 228.188 279.991 237.634C280.009 237.711 279.999 237.793 279.962 237.862C279.926 237.931 279.866 237.98 279.795 238C279.776 237.995 279.757 237.988 279.738 237.979Z" fill="#000201"/>
<path d="M277.628 226.976C277.596 226.98 277.563 226.98 277.531 226.976L275.229 226.461C275.058 226.422 274.962 226.291 275.014 226.166C275.067 226.042 275.248 225.972 275.419 226.01L277.721 226.529C277.899 226.547 278.022 226.668 277.997 226.797C277.971 226.927 277.806 227.016 277.628 226.998V226.976Z" fill="#000201"/>
<path d="M277.345 229C277.261 229.001 277.178 228.973 277.115 228.922C276.973 228.807 276.961 228.609 277.087 228.48L279.387 226.117C279.467 226.027 279.594 225.984 279.718 226.005C279.843 226.026 279.945 226.108 279.983 226.217C280.022 226.327 279.992 226.447 279.904 226.53L277.604 228.897C277.538 228.963 277.444 229.001 277.345 229Z" fill="#000201"/>
<path d="M278.627 230.999H278.575L276.298 230.667C276.107 230.64 275.975 230.469 276.004 230.286C276.033 230.103 276.211 229.976 276.402 230.004L278.679 230.336C278.87 230.349 279.013 230.509 278.999 230.692C278.985 230.875 278.818 231.013 278.627 230.999Z" fill="#000201"/>
<path d="M278.375 234C278.234 234 278.105 233.936 278.041 233.834C277.977 233.732 277.989 233.61 278.072 233.518L279.322 232.125C279.444 231.989 279.678 231.959 279.846 232.058C280.013 232.157 280.05 232.347 279.928 232.483L278.678 233.876C278.608 233.954 278.495 234 278.375 234Z" fill="#000201"/>
<path d="M191.879 235.986C191.879 235.986 193.403 224.476 185.628 220C185.628 220 180.705 228.443 187.979 238L189.332 237.91" fill="#EFD2BC"/>
<path fill-rule="evenodd" clip-rule="evenodd" d="M189.793 238.979C189.845 238.993 189.898 239 189.952 239C190.113 238.997 190.266 238.931 190.377 238.816C190.597 238.615 195.711 233.524 194.916 226.675C194.332 221.649 190.723 217.077 184.185 213.088C183.906 212.919 183.541 213.001 183.363 213.272C182.182 215.167 181.203 217.178 180.443 219.271C178.767 223.873 178.547 228.016 179.805 231.25C181.256 234.981 184.618 237.581 189.793 238.979ZM184.067 214.422C184.067 214.421 184.067 214.421 184.067 214.421L184.055 214.415C184.059 214.417 184.063 214.419 184.067 214.422ZM180.931 230.835C178.49 224.573 182.841 216.497 184.067 214.422C189.935 218.128 193.177 222.289 193.718 226.805C194.356 232.275 190.735 236.675 189.763 237.744C185.178 236.435 182.207 234.111 180.931 230.835Z" fill="#EFD2BC"/>
<path d="M189.744 238C189.624 238.006 189.515 237.919 189.479 237.787C186.353 226.288 186.003 220.381 186 220.323C185.995 220.214 186.04 220.11 186.119 220.05C186.198 219.99 186.299 219.983 186.384 220.032C186.469 220.081 186.525 220.178 186.53 220.287C186.53 220.344 186.883 226.191 189.988 237.604C190.031 237.764 189.954 237.934 189.816 237.984C189.793 237.993 189.769 237.998 189.744 238Z" fill="#000201"/>
<path d="M186.637 223.985H186.56L183.242 223.423C183.07 223.394 182.966 223.277 183.01 223.162C183.053 223.047 183.227 222.978 183.399 223.007L186.717 223.569C186.894 223.584 187.02 223.692 186.997 223.81C186.975 223.929 186.814 224.013 186.637 223.998V223.985Z" fill="#000201"/>
<path d="M187.256 226C187.185 226 187.117 225.968 187.069 225.913C186.972 225.803 186.978 225.631 187.081 225.528L189.568 223.073C189.618 223.023 189.685 222.997 189.754 223C189.822 223.003 189.887 223.035 189.933 223.089C190.028 223.2 190.021 223.372 189.917 223.474L187.433 225.929C187.385 225.976 187.321 226.001 187.256 226Z" fill="#000201"/>
<path d="M187.725 230H187.694L185.228 229.626C185.136 229.612 185.057 229.54 185.021 229.436C184.984 229.333 184.997 229.214 185.053 229.125C185.109 229.035 185.201 228.989 185.293 229.002L187.756 229.373C187.899 229.384 188.008 229.532 188 229.704C187.991 229.876 187.868 230.007 187.725 229.997V230Z" fill="#000201"/>
<path d="M189.289 232C189.175 231.999 189.072 231.937 189.025 231.841C188.979 231.746 188.997 231.634 189.073 231.555L190.487 230.09C190.557 230.019 190.663 229.986 190.765 230.005C190.868 230.025 190.952 230.093 190.985 230.184C191.018 230.275 190.996 230.375 190.926 230.447L189.509 231.909C189.454 231.967 189.374 232 189.289 232Z" fill="#000201"/>
<path opacity="0.15" d="M190.915 219C190.915 219 190.845 219.081 190.72 219.241C189.564 220.716 183.901 228.744 189.288 238H192" fill="black"/>
<path d="M191.075 237.209C191.075 237.209 190.124 226.98 194.982 223C194.982 223 198.059 230.507 193.513 239L192.669 238.92" fill="#F8F3E6"/>
<path d="M195.222 218.59C195.222 218.59 201.512 229.803 195.521 236C195.521 236 202.71 232.754 196.42 218L195 218.404L195.222 218.885" fill="white"/>
<path fill-rule="evenodd" clip-rule="evenodd" d="M191.085 238.787C191.195 238.922 191.359 239 191.531 239C191.594 238.999 191.657 238.987 191.717 238.965C194.929 237.867 197.108 235.91 198.197 233.136C200.793 226.524 196.279 217.682 196.088 217.31C196.007 217.158 195.865 217.05 195.7 217.014C195.534 216.977 195.36 217.015 195.225 217.12C190.96 220.406 188.559 224.158 188.086 228.275C187.409 234.168 190.934 238.601 191.085 238.787ZM189.24 228.399C189.657 224.8 191.717 221.461 195.367 218.504C196.332 220.619 199.142 227.559 197.122 232.701C196.21 235.026 194.399 236.708 191.743 237.708C190.978 236.62 188.712 232.926 189.24 228.399Z" fill="#EFD2BC"/>
<path d="M192.272 238H192.205C192.134 237.98 192.074 237.931 192.038 237.862C192.001 237.793 191.991 237.711 192.009 237.634C194.211 228.188 194.456 223.348 194.456 223.3C194.456 223.218 194.487 223.139 194.541 223.083C194.595 223.026 194.667 222.996 194.742 223C194.887 223.008 195 223.14 195 223.3C195 223.348 194.75 228.239 192.534 237.754C192.51 237.894 192.401 237.997 192.272 238Z" fill="#000201"/>
<path d="M194.374 226.997C194.196 227.017 194.03 226.928 194.004 226.798C193.977 226.668 194.1 226.548 194.277 226.528L196.584 226.01C196.694 225.986 196.814 226.006 196.898 226.064C196.982 226.121 197.018 226.207 196.991 226.289C196.965 226.371 196.881 226.436 196.77 226.46L194.467 226.976C194.438 226.987 194.406 226.994 194.374 226.997Z" fill="#000201"/>
<path d="M194.655 229C194.556 229.001 194.462 228.963 194.396 228.896L192.086 226.521C191.96 226.391 191.974 226.193 192.117 226.078C192.26 225.964 192.478 225.976 192.604 226.106L194.914 228.478C195.04 228.609 195.026 228.807 194.883 228.921C194.82 228.972 194.739 229 194.655 229Z" fill="#000201"/>
<path d="M193.373 230.999C193.182 231.013 193.015 230.875 193.001 230.692C192.987 230.509 193.13 230.349 193.321 230.336L195.598 230.004C195.789 229.976 195.967 230.103 195.996 230.286C196.025 230.469 195.893 230.64 195.702 230.667L193.425 230.999H193.373Z" fill="#000201"/>
<path d="M192.625 234C192.505 234 192.392 233.954 192.322 233.876L191.072 232.483C191.013 232.418 190.989 232.337 191.005 232.257C191.02 232.177 191.074 232.106 191.154 232.059C191.235 232.011 191.335 231.991 191.433 232.004C191.532 232.016 191.62 232.06 191.678 232.125L192.928 233.518C193.011 233.61 193.023 233.732 192.959 233.834C192.895 233.936 192.766 234 192.625 234Z" fill="#000201"/>
<path d="M222.136 235.65C222.136 235.65 220.422 222.224 229.167 217C229.167 217 234.707 226.854 226.524 238L225.002 237.894" fill="#EFD2BC"/>
<path fill-rule="evenodd" clip-rule="evenodd" d="M223.224 238.826C223.335 238.938 223.486 239 223.643 239C223.697 239.001 223.75 238.993 223.801 238.979C229.644 237.364 233.452 234.366 235.092 230.061C236.515 226.328 236.262 221.542 234.362 216.22C233.5 213.797 232.393 211.469 231.058 209.274C230.882 208.999 230.518 208.918 230.243 209.091C222.84 213.704 218.753 218.99 218.095 224.793C217.196 232.695 222.973 238.571 223.223 238.826L223.224 238.826ZM219.28 224.919C219.884 219.633 223.611 214.748 230.362 210.428C231.692 212.714 236.788 222.248 233.978 229.649C232.514 233.481 229.1 236.2 223.831 237.726C222.777 236.55 218.538 231.375 219.28 224.919Z" fill="#EFD2BC"/>
<path d="M224.295 238C224.265 238 224.235 237.995 224.207 237.985C224.052 237.937 223.965 237.772 224.013 237.616C227.97 224.86 228.413 218.342 228.413 218.277C228.423 218.114 228.563 217.99 228.725 218.001C228.887 218.011 229.01 218.152 228.999 218.315C228.999 218.38 228.551 224.967 224.573 237.79C224.536 237.914 224.423 237.999 224.295 238Z" fill="#000201"/>
<path d="M228.323 221.998C228.221 222.007 228.12 221.978 228.058 221.921C227.996 221.864 227.983 221.788 228.023 221.722C228.063 221.656 228.15 221.61 228.252 221.601L231.645 221.006C231.744 220.989 231.848 221.009 231.919 221.06C231.99 221.111 232.017 221.184 231.989 221.253C231.961 221.321 231.883 221.374 231.785 221.391L228.391 221.987L228.323 221.998Z" fill="#000201"/>
<path d="M227.707 225C227.63 225 227.556 224.968 227.5 224.912L224.098 221.565C223.974 221.443 223.967 221.237 224.081 221.105C224.196 220.972 224.389 220.964 224.512 221.087L227.902 224.45C227.962 224.509 227.997 224.591 228 224.678C228.003 224.764 227.973 224.849 227.917 224.912C227.86 224.969 227.785 225.001 227.707 225Z" fill="#000201"/>
<path d="M226.311 227.997C226.154 227.998 226.021 227.886 226.002 227.737C225.982 227.575 226.102 227.428 226.271 227.408L229.65 227.002C229.76 226.989 229.87 227.033 229.937 227.118C230.004 227.203 230.019 227.316 229.976 227.414C229.932 227.513 229.838 227.581 229.727 227.594L226.348 228L226.311 227.997Z" fill="#000201"/>
<path d="M224.737 231C224.661 231 224.589 230.97 224.539 230.918L223.073 229.407C223.006 229.343 222.983 229.251 223.013 229.167C223.042 229.083 223.12 229.02 223.215 229.004C223.311 228.988 223.408 229.021 223.469 229.09L224.934 230.601C225.003 230.672 225.019 230.772 224.977 230.858C224.934 230.945 224.84 231 224.737 231Z" fill="#000201"/>
<path opacity="0.15" d="M222.303 217C222.303 217 222.388 217.09 222.538 217.267C223.923 218.897 230.719 227.77 224.255 238H221" fill="black"/>
<path d="M222.909 236.986C222.909 236.986 224.053 225.478 218.222 221C218.222 221 214.528 229.444 219.986 239L220.998 238.91" fill="#DBB497"/>
<path d="M218.723 215.689C218.723 215.689 210.862 228.77 218.348 236C218.348 236 209.363 232.213 217.224 215L219 215.47L218.723 216.034" fill="white"/>
<path fill-rule="evenodd" clip-rule="evenodd" d="M221.674 238.971C221.737 238.991 221.802 239 221.868 239C222.042 238.997 222.206 238.92 222.318 238.791C222.497 238.579 226.705 233.536 225.897 226.825C225.334 222.141 222.464 217.867 217.366 214.12C217.225 214.015 217.044 213.977 216.87 214.014C216.699 214.05 216.552 214.158 216.468 214.308C215.461 216.27 214.651 218.322 214.048 220.436C212.678 225.164 212.656 229.199 213.954 232.348C215.252 235.497 217.847 237.724 221.674 238.971ZM215.207 220.792C215.735 218.974 216.413 217.201 217.233 215.49C221.689 218.924 224.203 222.778 224.708 226.955C225.353 232.245 222.524 236.546 221.65 237.724C218.407 236.576 216.19 234.625 215.079 231.924C213.579 228.283 214.32 223.859 215.207 220.792Z" fill="#DBB497"/>
<path d="M221.701 237.979C221.549 237.984 221.414 237.891 221.377 237.756C218.341 226.92 218 221.354 218 221.297C218 221.14 218.133 221.009 218.305 221C218.478 221 218.621 221.124 218.629 221.282C218.629 221.336 218.973 226.855 221.99 237.637C222.011 237.714 221.999 237.795 221.955 237.863C221.911 237.931 221.84 237.98 221.756 238C221.737 237.995 221.719 237.988 221.701 237.979Z" fill="#000201"/>
<path d="M218.665 224.989C218.637 224.988 218.609 224.985 218.582 224.978L216.212 224.427C216.11 224.406 216.032 224.345 216.008 224.268C215.983 224.191 216.017 224.11 216.094 224.057C216.172 224.003 216.282 223.986 216.382 224.012L218.752 224.562C218.911 224.58 219.021 224.692 218.997 224.813C218.973 224.933 218.824 225.016 218.665 224.998V224.989Z" fill="#000201"/>
<path d="M219.31 227C219.235 227 219.162 226.975 219.105 226.93C218.977 226.827 218.964 226.649 219.077 226.532L221.465 224.087C221.58 223.978 221.77 223.971 221.894 224.07C222.019 224.17 222.036 224.341 221.931 224.459L219.544 226.904C219.485 226.965 219.4 227 219.31 227Z" fill="#000201"/>
<path d="M219.665 229.999H219.618L217.268 229.636C217.096 229.609 216.978 229.447 217.004 229.272C217.029 229.098 217.189 228.977 217.361 229.004L219.712 229.367C219.883 229.38 220.012 229.532 219.999 229.707C219.986 229.881 219.837 230.012 219.665 229.999Z" fill="#000201"/>
<path d="M220.339 233C220.268 232.999 220.198 232.981 220.14 232.947C219.988 232.858 219.955 232.688 220.065 232.565L221.379 231.114C221.433 231.054 221.514 231.015 221.604 231.003C221.694 230.992 221.786 231.01 221.86 231.053C222.012 231.142 222.045 231.313 221.935 231.435L220.634 232.887C220.566 232.962 220.455 233.004 220.339 233Z" fill="#000201"/>
<circle opacity="0.16243" cx="329" cy="47" r="5" fill="#DBB497"/>
<circle opacity="0.170184" cx="359.5" cy="49.5" r="2.5" fill="#DBB497"/>
<circle opacity="0.301364" cx="367" cy="101" r="5" fill="#DBB497"/>
<circle opacity="0.405007" cx="79" cy="47" r="5" fill="#DBB497"/>
<circle opacity="0.149778" cx="66.5" cy="81.5" r="2.5" fill="#48D2A0"/>
<g opacity="0.364272">
<path d="M142.038 17.7125L134.954 5.44287" stroke="#DBB497" stroke-width="7" stroke-linecap="round"/>
<path d="M132.362 15.1194L144.631 8.03554" stroke="#DBB497" stroke-width="7" stroke-linecap="round"/>
</g>
<path d="M360.136 280.889L373.774 288.763" stroke="#EFD2BC" stroke-width="6" stroke-linecap="round"/>
<path d="M370.891 278.007L363.018 291.645" stroke="#EFD2BC" stroke-width="6" stroke-linecap="round"/>
<circle opacity="0.223822" cx="59" cy="284" r="5" fill="#DBB497"/>
<circle opacity="0.135378" cx="241.5" cy="276.5" r="2.5" fill="#48D2A0"/>
<g opacity="0.608515">
<path d="M365.005 146.742L374.991 144.066" stroke="#BC2C3D" stroke-width="6" stroke-linecap="round"/>
<path d="M368.668 140.415L371.344 150.401" stroke="#BC2C3D" stroke-width="6" stroke-linecap="round"/>
</g>
<circle cx="127.5" cy="37.5" r="4.5" stroke="#BC2C3D" stroke-width="3"/>
<circle cx="326.5" cy="75.5" r="6.5" stroke="#BC2C3D" stroke-width="4"/>
<circle cx="307.5" cy="58.5" r="3.5" fill="#BC2C3D"/>
<circle cx="111.5" cy="54.5" r="3.5" fill="#BC2C3D"/>
<circle cx="45.5" cy="271.5" r="4.5" stroke="#BC2C3D" stroke-width="3"/>
<circle cx="55.5" cy="259.5" r="3.5" fill="#BC2C3D"/>
<circle cx="57.5" cy="149.5" r="1.5" fill="#BC2C3D"/>
<circle cx="349.5" cy="209.5" r="4.5" stroke="#BC2C3D" stroke-width="3"/>
<circle cx="362.5" cy="213.5" r="3.5" fill="#BC2C3D"/>
</svg>
