<svg xmlns="http://www.w3.org/2000/svg" xmlns:xlink="http://www.w3.org/1999/xlink" width="1280" zoomAndPan="magnify" viewBox="0 0 960 225" height="300" preserveAspectRatio="xMidYMid meet" version="1.0"><defs><g/></defs><rect x="-96" width="1152" fill="#ffffff" y="-22.5" height="270" fill-opacity="1"/><rect x="-96" width="1152" fill="#ffffff" y="-22.5" height="270" fill-opacity="1"/><rect x="-96" width="1152" fill="#ffffff" y="-22.5" height="270" fill-opacity="1"/><rect x="-96" width="1152" fill="#ffffff" y="-22.5" height="270" fill-opacity="1"/><g fill="#000000" fill-opacity="1"><g transform="translate(358.329359, 130.740005)"><g><path d="M 15.296875 0 L 15.296875 -51.964844 L 0.960938 -47.742188 L 0.960938 -47.101562 L 14.65625 -51.070312 L 14.65625 0 Z M 15.296875 0 "/></g></g></g><g fill="#000000" fill-opacity="1"><g transform="translate(378.744571, 130.740005)"><g><path d="M 2.558594 -0.640625 C 13.441406 -16.574219 20.734375 -27.773438 20.734375 -40.128906 L 20.734375 -40.957031 C 20.734375 -48.0625 17.28125 -52.605469 10.433594 -52.605469 C 7.421875 -52.605469 4.542969 -51.710938 1.921875 -50.238281 L 2.113281 -49.597656 C 4.734375 -51.132812 7.488281 -51.964844 10.433594 -51.964844 C 16.894531 -51.964844 20.09375 -47.679688 20.09375 -40.957031 L 20.09375 -40.128906 C 20.09375 -29.246094 14.976562 -20.160156 1.921875 -0.769531 L 1.921875 0 L 21.632812 0 L 21.632812 -0.640625 Z M 2.558594 -0.640625 "/></g></g></g><g fill="#000000" fill-opacity="1"><g transform="translate(403.575613, 130.740005)"><g><path d="M 15.808594 -27.457031 C 20.480469 -28.671875 22.847656 -32.703125 22.847656 -37.503906 L 22.847656 -42.238281 C 22.847656 -48.0625 19.390625 -52.605469 12.863281 -52.605469 C 6.335938 -52.605469 2.878906 -48.0625 2.878906 -42.238281 L 2.878906 -37.503906 C 2.878906 -32.703125 5.246094 -28.671875 9.917969 -27.457031 C 5.054688 -26.367188 2.558594 -22.335938 2.558594 -17.40625 L 2.558594 -9.726562 C 2.558594 -3.902344 6.015625 0.640625 12.863281 0.640625 C 19.710938 0.640625 23.167969 -3.902344 23.167969 -9.726562 L 23.167969 -17.40625 C 23.167969 -22.335938 20.671875 -26.367188 15.808594 -27.457031 Z M 3.519531 -42.238281 C 3.519531 -47.679688 6.71875 -51.964844 12.863281 -51.964844 C 19.007812 -51.964844 22.207031 -47.679688 22.207031 -42.238281 L 22.207031 -37.503906 C 22.207031 -32.0625 19.007812 -27.773438 12.863281 -27.773438 C 6.71875 -27.773438 3.519531 -32.0625 3.519531 -37.503906 Z M 22.527344 -9.726562 C 22.527344 -4.289062 19.328125 0 12.863281 0 C 6.398438 0 3.199219 -4.289062 3.199219 -9.726562 L 3.199219 -17.40625 C 3.199219 -22.847656 6.398438 -27.136719 12.863281 -27.136719 C 19.328125 -27.136719 22.527344 -22.847656 22.527344 -17.40625 Z M 22.527344 -9.726562 "/></g></g></g><g fill="#000000" fill-opacity="1"><g transform="translate(429.302619, 130.740005)"><g><path d="M 13.121094 0.640625 C 19.199219 0.640625 23.296875 -1.984375 23.296875 -12.609375 L 23.296875 -39.359375 C 23.296875 -49.984375 19.199219 -52.605469 13.121094 -52.605469 C 6.976562 -52.605469 2.878906 -49.984375 2.878906 -39.359375 L 2.878906 -12.609375 C 2.878906 -1.984375 6.976562 0.640625 13.121094 0.640625 Z M 13.121094 0 C 5.441406 0 3.519531 -4.929688 3.519531 -12.609375 L 3.519531 -39.359375 C 3.519531 -46.910156 5.441406 -51.964844 13.121094 -51.964844 C 20.734375 -51.964844 22.65625 -47.101562 22.65625 -39.359375 L 22.65625 -12.609375 C 22.65625 -5.054688 20.734375 0 13.121094 0 Z M 13.121094 0 "/></g></g></g><g fill="#000000" fill-opacity="1"><g transform="translate(455.47761, 130.740005)"><g><path d="M 9.34375 -17.597656 L 16.382812 -33.917969 L 15.617188 -33.917969 L 8.832031 -18.304688 L 2.046875 -33.917969 L 1.28125 -33.917969 L 8.382812 -17.597656 L 0.640625 0 L 1.40625 0 L 8.832031 -16.832031 L 16.253906 0 L 17.023438 0 Z M 9.34375 -17.597656 "/></g></g></g><g fill="#000000" fill-opacity="1"><g transform="translate(473.14093, 130.740005)"><g><path d="M 20.734375 -42.238281 C 20.734375 -48.0625 17.28125 -52.605469 10.433594 -52.605469 C 7.421875 -52.605469 4.542969 -51.710938 1.921875 -50.238281 L 2.113281 -49.597656 C 4.734375 -51.132812 7.488281 -51.964844 10.433594 -51.964844 C 16.894531 -51.964844 20.09375 -47.679688 20.09375 -42.238281 L 20.09375 -38.65625 C 20.09375 -33.214844 16.894531 -27.648438 9.152344 -27.648438 L 6.785156 -27.648438 L 6.785156 -27.007812 L 9.152344 -27.007812 C 16.894531 -27.007812 20.09375 -22.078125 20.09375 -16.640625 L 20.09375 -9.726562 C 20.09375 -4.289062 16.894531 0 10.433594 0 C 7.488281 0 4.734375 -0.832031 2.113281 -2.367188 L 1.921875 -1.726562 C 4.542969 -0.257812 7.421875 0.640625 10.433594 0.640625 C 17.28125 0.640625 20.734375 -3.902344 20.734375 -9.726562 L 20.734375 -16.640625 C 20.734375 -21.632812 18.238281 -26.046875 12.480469 -27.328125 C 18.175781 -28.671875 20.734375 -33.664062 20.734375 -38.65625 Z M 20.734375 -42.238281 "/></g></g></g><g fill="#000000" fill-opacity="1"><g transform="translate(496.436024, 130.740005)"><g><path d="M 13.121094 0.640625 C 19.199219 0.640625 23.296875 -1.984375 23.296875 -12.609375 L 23.296875 -39.359375 C 23.296875 -49.984375 19.199219 -52.605469 13.121094 -52.605469 C 6.976562 -52.605469 2.878906 -49.984375 2.878906 -39.359375 L 2.878906 -12.609375 C 2.878906 -1.984375 6.976562 0.640625 13.121094 0.640625 Z M 13.121094 0 C 5.441406 0 3.519531 -4.929688 3.519531 -12.609375 L 3.519531 -39.359375 C 3.519531 -46.910156 5.441406 -51.964844 13.121094 -51.964844 C 20.734375 -51.964844 22.65625 -47.101562 22.65625 -39.359375 L 22.65625 -12.609375 C 22.65625 -5.054688 20.734375 0 13.121094 0 Z M 13.121094 0 "/></g></g></g><g fill="#000000" fill-opacity="1"><g transform="translate(522.611023, 130.740005)"><g><path d="M 13.121094 0.640625 C 19.199219 0.640625 23.296875 -1.984375 23.296875 -12.609375 L 23.296875 -39.359375 C 23.296875 -49.984375 19.199219 -52.605469 13.121094 -52.605469 C 6.976562 -52.605469 2.878906 -49.984375 2.878906 -39.359375 L 2.878906 -12.609375 C 2.878906 -1.984375 6.976562 0.640625 13.121094 0.640625 Z M 13.121094 0 C 5.441406 0 3.519531 -4.929688 3.519531 -12.609375 L 3.519531 -39.359375 C 3.519531 -46.910156 5.441406 -51.964844 13.121094 -51.964844 C 20.734375 -51.964844 22.65625 -47.101562 22.65625 -39.359375 L 22.65625 -12.609375 C 22.65625 -5.054688 20.734375 0 13.121094 0 Z M 13.121094 0 "/></g></g></g><g fill="#000000" fill-opacity="1"><g transform="translate(548.786022, 130.740005)"><g><path d="M 13.121094 0.640625 C 19.199219 0.640625 23.296875 -1.984375 23.296875 -12.609375 L 23.296875 -39.359375 C 23.296875 -49.984375 19.199219 -52.605469 13.121094 -52.605469 C 6.976562 -52.605469 2.878906 -49.984375 2.878906 -39.359375 L 2.878906 -12.609375 C 2.878906 -1.984375 6.976562 0.640625 13.121094 0.640625 Z M 13.121094 0 C 5.441406 0 3.519531 -4.929688 3.519531 -12.609375 L 3.519531 -39.359375 C 3.519531 -46.910156 5.441406 -51.964844 13.121094 -51.964844 C 20.734375 -51.964844 22.65625 -47.101562 22.65625 -39.359375 L 22.65625 -12.609375 C 22.65625 -5.054688 20.734375 0 13.121094 0 Z M 13.121094 0 "/></g></g></g></svg>