<?xml version="1.0" encoding="UTF-8"?>
<svg width="70px" height="70px" viewBox="0 0 70 70" version="1.1" xmlns="http://www.w3.org/2000/svg" xmlns:xlink="http://www.w3.org/1999/xlink">
    <!-- Generator: Sketch 61 (89581) - https://sketch.com -->
    <title>Artboard</title>
    <desc>Created with Sketch.</desc>
    <g id="Artboard" stroke="none" stroke-width="1" fill="none" fill-rule="evenodd">
        <rect id="Rectangle" x="0" y="0" width="70" height="70"></rect>
        <g id="003-burger" transform="translate(12.000000, 12.000000)" fill-rule="nonzero">
            <path d="M31.7699316,1 L15.2260859,1 C8.47266687,1 3,6.07025907 3,12.3223079 C3.02682989,13.8257358 4.32107139,15.0240508 5.89164854,14.9996334 L41.1083515,14.9996334 C42.6789286,15.0240508 43.9731701,13.8257358 44,12.3223079 C43.9980088,6.06797174 38.5233507,1 31.7699316,1 Z" id="Path" fill="#EF983B"></path>
            <rect id="Rectangle" fill="#8C3F07" x="5" y="26" width="37" height="7" rx="3.5"></rect>
            <path d="M41.108211,32.0003666 C42.6788644,31.9759492 43.9731688,33.1742642 44,34.6776921 C44,40.9297409 38.525076,46 31.7733203,46 L15.2266797,46 C8.47293267,46 3,40.9297409 3,34.6776921 C3.02683119,33.1742642 4.32113556,31.9759492 5.89178898,32.0003666 L41.108211,32.0003666 Z" id="Path" fill="#EF983B"></path>
            <path d="M20,26.0015238 L20,29.1055977 C20,29.6295069 20.2068202,30.1319871 20.5752205,30.5024469 C20.9436209,30.8729066 21.4433078,31.0809839 21.9643045,31.0808829 L23.3925452,31.0808829 C23.913542,31.0807818 24.4132289,31.2888591 24.7816293,31.6593189 C25.1500296,32.0297786 25.3569502,32.5322588 25.3568497,33.056168 L25.3568497,33.7038025 C25.3574772,34.7942143 26.2368038,35.6777743 27.3211542,35.6775637 C27.8424138,35.6775634 28.3422907,35.8859468 28.7106637,36.2568077 C29.0790366,36.6276686 29.2856832,37.1305806 29.2850799,37.6547537 L29.2850799,40.0247148 C29.2849794,40.548624 29.4919,41.0511042 29.8603004,41.421564 C30.2287007,41.7920237 30.7283876,42 31.2493844,42 L31.8934187,42 C32.4143498,42 32.9139394,41.791878 33.2822578,41.4214292 C33.6505762,41.0509805 33.8574448,40.548558 33.8573443,40.0247148 L33.8573443,31.4740351 C33.8573443,30.3831152 34.7367934,29.49875 35.8216488,29.49875 L36.0356955,29.49875 C36.5566266,29.498851 37.0562561,29.290826 37.4246456,28.9204486 C37.793035,28.5500713 38,28.047689 38,27.5238458 L38,26 L20,26.0015238 Z" id="Path" fill="#EF3829"></path>
            <path d="M10,26 L10,34.1419147 C9.99988484,34.6346751 10.2266184,35.1072873 10.6303098,35.4557567 C11.0340012,35.8042261 11.5815731,36 12.1525365,36 L12.8474635,36 C13.4184269,36 13.9659988,35.8042261 14.3696902,35.4557567 C14.7733816,35.1072873 15.0001152,34.6346751 15,34.1419147 L15,26 L10,26 Z" id="Path" fill="#EF3829"></path>
            <path d="M46.9773515,19.2331571 C46.7297795,17.6261246 44.529937,15.3771032 43.0197877,14 C42.59094,14.2356552 42.1125333,14.3584965 41.6268464,14.3576677 L6.37235616,14.3576677 C5.88684577,14.358488 5.4086014,14.2357948 4.97981356,14.0004121 C3.47006297,15.3779273 1.27022041,17.6265366 1.02264842,19.2335691 C0.641921775,21.7059268 5.15602422,17.4048486 7.43440411,17.4048486 C8.96767603,17.4048486 9.81005866,19.9814573 11.9855826,19.9802211 C14.9755824,19.9781608 15.8590277,17.8758327 18.2275062,17.8758327 C20.8132581,17.8758327 21.0835541,20 24.000598,20 C26.9176418,20 27.1899311,17.8758327 29.7736897,17.8758327 C32.1421682,17.8758327 33.0240189,19.9773367 36.0156134,19.9802211 C38.1911373,19.9802211 39.0335199,17.4048486 40.5667918,17.4048486 C42.8439757,17.4044365 47.3580781,21.7063389 46.9773515,19.2331571 L46.9773515,19.2331571 Z" id="Path" fill="#64BC0F"></path>
            <path d="M40.2538918,17 C38.7033222,17 37.8514362,19.3177859 35.6513691,19.3166739 C32.6276374,19.3148205 31.7342255,17.4236733 29.3390269,17.4236733 C26.7261196,17.4236733 26.4507585,19.3344659 23.5008059,19.3344659 C20.5508533,19.3344659 20.277508,17.4236733 17.6625848,17.4236733 C15.2673862,17.4236733 14.375587,19.3140792 11.3502427,19.3166739 C9.15017555,19.3166739 8.29828955,17 6.74771997,17 C6.40666479,17.0104533 6.06946738,17.0697306 5.74827588,17.1756965 C5.26466481,17.689245 4.99895513,18.3460446 5,19.025329 L5,20.1692099 C5,20.9199821 5.32439313,21.6400046 5.9018111,22.1708808 C6.47922907,22.7017569 7.2623759,23 8.07896822,23 L38.9210309,23 C39.7376232,23 40.52077,22.7017569 41.098188,22.1708808 C41.675606,21.6400046 42,20.9199821 42,20.1692099 L42,19.025329 C42.0011864,18.345955 41.7352992,17.6890706 41.2513201,17.1756965 C40.930788,17.0698553 40.5942756,17.0105788 40.2538918,17 L40.2538918,17 Z" id="Path" fill="#8C3F07"></path>
            <g id="Group" fill="#422002">
                <path d="M46.9466807,19.7822605 C46.7492017,18.5373529 45.5663025,16.9065714 43.4347143,14.9309916 C44.1260741,14.2879302 44.5197882,13.3869498 44.5220336,12.4427563 C44.5220336,5.59378992 38.7718403,0.0217226891 31.7036723,0.0217226891 L29.7529748,0.0217226891 C29.3712486,0.0217226891 29.0617983,0.331172941 29.0617983,0.71289916 C29.0617983,1.09462538 29.3712486,1.40407562 29.7529748,1.40407563 L31.7036723,1.40407563 C38.0095714,1.40407563 43.1396807,6.35605882 43.1396807,12.4427563 C43.1122818,13.6182741 42.1386492,14.549859 40.9630672,14.5253697 L6.03693277,14.5253697 C4.86135077,14.549859 3.88771823,13.6182741 3.86031933,12.4427563 C3.86031933,6.35605882 8.99042857,1.40407563 15.2963277,1.40407563 L26.4973361,1.40407563 C26.8790624,1.40407562 27.1885126,1.09462538 27.1885126,0.71289916 C27.1885126,0.331172941 26.8790624,0.0217226891 26.4973361,0.0217226891 L15.2963277,0.0217226891 C8.22657983,0.0217226891 2.47796639,5.59378992 2.47796639,12.4427563 C2.48030667,13.3869299 2.874005,14.2878741 3.56528571,14.9309916 C1.43251261,16.9057815 0.251588235,18.536563 0.0533193277,19.7818655 C-0.070302521,20.5587479 0.214857143,20.9402773 0.476319328,21.1247227 C1.21647059,21.6429076 2.25363025,21.0678487 3.82635294,20.1965714 C4.11585714,20.0362185 4.42392437,19.8659916 4.7347563,19.7016891 C4.70185054,19.8985306 4.68494371,20.0977141 4.68420168,20.2972857 L4.68420168,21.516521 C4.6853128,22.7150091 5.26649856,23.8388213 6.24389076,24.5324202 C5.26653871,25.2262334 4.68538282,26.350135 4.68420168,27.5487143 L4.68420168,28.7675546 C4.6835473,29.630937 4.98555886,30.4672338 5.53770588,31.1309832 C3.80561855,31.3497867 2.4998701,32.8119284 2.47757143,34.5576387 C2.47757143,41.406605 8.22776471,46.9786723 15.2959328,46.9786723 L16.8362689,46.9786723 C17.2179951,46.9786723 17.5274454,46.669222 17.5274454,46.2874958 C17.5274454,45.9057696 17.2179951,45.5963193 16.8362689,45.5963193 L15.2959328,45.5963193 C8.99003361,45.5963193 3.85992437,40.6443361 3.85992437,34.5576387 C3.88732327,33.3821209 4.86095581,32.450536 6.03653782,32.4750252 L10.2914202,32.4750252 L10.2914202,33.1116975 C10.2931617,34.5739046 11.478196,35.7587623 12.9404034,35.7602857 L13.5723361,35.7602857 C15.0343892,35.7585447 16.2191833,34.5737506 16.2209244,33.1116975 L16.2209244,32.4738403 L24.1457563,32.4738403 L24.1457563,32.5133361 C24.1474975,34.0251227 25.3726084,35.2502336 26.884395,35.2519748 C27.6342333,35.253718 28.2408061,35.8627658 28.2394958,36.612605 L28.2394958,39.0700336 C28.241237,40.5818202 29.4663479,41.8069311 30.9781345,41.8086723 L31.649563,41.8086723 C33.1613496,41.8069311 34.3864605,40.5818202 34.3882017,39.0700336 L34.3882017,32.4742353 L40.9622773,32.4742353 C42.1378593,32.449746 43.1114919,33.381331 43.1388908,34.5568487 C43.1388908,40.6435462 38.0087815,45.5955294 31.7028824,45.5955294 L25.2875798,45.5955294 C24.9058536,45.5955294 24.5964034,45.9049797 24.5964034,46.2867059 C24.5964034,46.6684321 24.9058536,46.9778824 25.2875798,46.9778824 L31.7036723,46.9778824 C38.7734202,46.9778824 44.5220336,41.4058151 44.5220336,34.5568487 C44.4995643,32.8112049 43.1939013,31.3491589 41.4618992,31.1301933 C42.0140462,30.4664438 42.3160577,29.6301471 42.3154034,28.7667647 L42.3154034,27.5475294 C42.3142222,26.3489501 41.7330663,25.2250485 40.7557143,24.5312353 C41.7331065,23.8376364 42.3142922,22.7138242 42.3154034,21.5153361 L42.3154034,20.2961008 C42.3144471,20.0964078 42.2975418,19.8971102 42.2648487,19.7001092 C42.5760756,19.8648067 42.8841429,20.0350336 43.1732521,20.1953866 C44.3328487,20.8383782 45.2017563,21.3202269 45.8755546,21.3202269 C46.1069201,21.3245861 46.3337055,21.2554442 46.5232857,21.1227479 C46.7847479,20.9406723 47.0703025,20.5591429 46.9466807,19.7822605 L46.9466807,19.7822605 Z M8.39206723,31.0914874 C7.10848166,31.0901812 6.06825581,30.0499553 6.06694958,28.7663697 L6.06694958,27.5475294 C6.06847302,26.264034 7.10857177,25.2239352 8.39206723,25.2224118 L10.2914202,25.2224118 L10.2914202,31.0914874 L8.39206723,31.0914874 Z M14.8373866,33.1105126 C14.8367333,33.8095643 14.270203,34.3760947 13.5711513,34.3767479 L12.9392185,34.3767479 C12.2401027,34.3760951 11.6734591,33.8096282 11.6725882,33.1105126 L11.6725882,25.2224118 L14.8362017,25.2224118 L14.8373866,33.1105126 Z M16.2197395,25.2224118 L18.5630252,25.2224118 L18.5630252,27.7501429 C18.5647664,29.2621475 19.7900541,30.4874353 21.3020588,30.4891765 L22.7890756,30.4891765 C23.2419716,30.4892755 23.6648968,30.7155568 23.9162857,31.0922773 L16.2197395,31.0922773 L16.2197395,25.2224118 Z M33.0054538,39.0680588 C33.0045832,39.8167538 32.3978631,40.423474 31.6491681,40.4243445 L30.9777395,40.4243445 C30.2290445,40.423474 29.6223244,39.8167538 29.6214538,39.0680588 L29.6214538,36.612605 C29.6199298,35.1005102 28.394515,33.8750954 26.8824202,33.8735714 C26.1337252,33.8727009 25.527005,33.2659807 25.5261345,32.5172857 L25.5261345,31.8458571 C25.5261345,31.8320336 25.5241597,31.8182101 25.5237647,31.8043866 C25.5237647,31.7972773 25.5261345,31.790563 25.5261345,31.7834538 C25.5261345,31.7621261 25.5217899,31.7415882 25.5198151,31.7202605 C25.4528023,30.2598675 24.2510016,29.109344 22.7890756,29.1060336 L21.300084,29.1060336 C20.5519422,29.1040762 19.9462458,28.4974968 19.9453782,27.7493529 L19.9453782,25.2216218 L37.327479,25.2216218 L37.327479,26.1086975 C37.3266084,26.8576106 36.7197115,27.4645076 35.9707983,27.4653782 L35.7476471,27.4653782 C34.2357063,27.4669017 33.010355,28.6920763 33.0086134,30.2040168 L33.0054538,39.0680588 Z M40.9318655,28.7663697 C40.9305593,30.0499553 39.8903335,31.0901812 38.6067479,31.0914874 L34.3889916,31.0914874 L34.3889916,30.2048067 C34.3898626,29.4559577 34.996823,28.8491739 35.7456723,28.848521 L35.9688235,28.848521 C37.4809183,28.846997 38.7063332,27.6215822 38.7078571,26.1094874 L38.7078571,25.2275462 C39.9506368,25.2814088 40.9310486,26.3035847 40.9330504,27.5475294 L40.9318655,28.7663697 Z M40.9318655,20.2961008 L40.9318655,21.5153361 C40.9303417,22.7987675 39.8901795,23.838753 38.6067479,23.8400588 L8.39246218,23.8400588 C7.10903062,23.838753 6.0688684,22.7987675 6.06734454,21.5153361 L6.06734454,20.2961008 C6.07007722,19.8014348 6.23103919,19.320625 6.52668067,18.9240168 C6.70902293,18.8683463 6.8977979,18.8364856 7.08831092,18.8292269 C7.50894118,18.8292269 7.94892437,19.2403782 8.45881513,19.7163025 C9.21318487,20.4209076 10.152,21.2961345 11.5951765,21.2961345 L11.5971513,21.2961345 C13.3495798,21.2961345 14.4483529,20.6642017 15.4175798,20.1073109 C16.1916975,19.6629832 16.8599664,19.2778992 17.7810084,19.2778992 C18.8102689,19.2778992 19.3608403,19.6538992 20.0611008,20.1302185 C22.0823344,21.7090105 24.9188505,21.7090105 26.940084,20.1302185 C27.6391597,19.6538992 28.190916,19.2778992 29.2197815,19.2778992 C30.1404286,19.2778992 30.8094874,19.6617983 31.5832101,20.1073109 C32.552437,20.6642017 33.6512101,21.2949496 35.4036387,21.2961345 L35.4060084,21.2961345 C36.8487899,21.2961345 37.787605,20.4193277 38.5419748,19.7163025 C39.0514706,19.2399832 39.4918487,18.8288319 39.9128739,18.8288319 C40.1030941,18.8361264 40.2915866,18.8678515 40.4737143,18.9232269 C40.7696403,19.319987 40.9306249,19.8011414 40.9330504,20.2961008 L40.9318655,20.2961008 Z M43.8423109,18.9864202 C42.9877802,18.4787157 42.0913799,18.0450503 41.162916,17.6901681 C41.1200919,17.6715215 41.0755004,17.657231 41.0298151,17.6475126 C40.6690662,17.5252297 40.2920537,17.4576017 39.9112941,17.4468739 C38.9452269,17.4468739 38.2595798,18.0871008 37.5964454,18.706395 C36.9333109,19.3256891 36.3021681,19.9153613 35.4044286,19.9153613 C34.0220756,19.9153613 33.1709412,19.4267983 32.2716218,18.9101933 C31.405479,18.4125462 30.5093193,17.8983109 29.2197815,17.8983109 C28.1068269,17.909382 27.0298471,18.293968 26.1616218,18.9903697 C24.6108498,20.2494306 22.3899401,20.2494306 20.8391681,18.9903697 C19.9710034,18.2938595 18.8939848,17.9092597 17.7810084,17.8983109 C16.4914706,17.8983109 15.5957059,18.4117563 14.7291681,18.9101933 C13.8298487,19.4267983 12.9802941,19.9141765 11.5963613,19.9153613 C10.6982269,19.9153613 10.0694538,19.3280588 9.40355462,18.706 C8.73765546,18.0839412 8.05516807,17.4468739 7.0894958,17.4468739 C6.70539133,17.4577406 6.3251192,17.5264453 5.9614958,17.6506723 C5.92549186,17.6589829 5.89022414,17.6702104 5.85604202,17.6842437 C4.92064104,18.0396673 4.01792103,18.475764 3.15808403,18.987605 C2.60602084,19.3098778 2.03580527,19.5999968 1.45028571,19.8565126 C1.69357983,18.9015042 2.89227731,17.4077731 4.79044538,15.6865462 C5.19001594,15.8342197 5.61252719,15.9101648 6.03851261,15.9108824 L40.9646471,15.9108824 C41.3906325,15.9101648 41.8131437,15.8342197 42.2127143,15.6865462 C44.1112773,17.4061933 45.3095798,18.9018992 45.5528739,19.8569076 C44.9667874,19.5999179 44.3960431,19.3092709 43.8434958,18.9864202 L43.8423109,18.9864202 Z" id="Shape"></path>
                <path d="M22.033916,45.5951345 L20.256605,45.5951345 C19.8748788,45.5951345 19.5654286,45.9045847 19.5654286,46.2863109 C19.5654286,46.6680371 19.8748788,46.9774874 20.256605,46.9774874 L22.033916,46.9774874 C22.4156422,46.9774874 22.7250924,46.6680371 22.7250924,46.2863109 C22.7250924,45.9045847 22.4156422,45.5951345 22.033916,45.5951345 Z" id="Path"></path>
                <path d="M7.54093277,37.0470588 C7.41703779,36.692229 7.03231864,36.50143 6.67486503,36.617538 C6.31741141,36.7336459 6.11824712,37.1141018 6.22651261,37.4740084 C7.26564202,40.2355513 9.54248903,42.3479797 12.3740336,43.1775966 C12.7403817,43.2851344 13.1245421,43.0753271 13.2320798,42.708979 C13.3396176,42.3426309 13.1298103,41.9584705 12.7634622,41.8509328 C10.3682053,41.1526229 8.43649302,39.3757632 7.54093277,37.0470588 L7.54093277,37.0470588 Z" id="Path"></path>
                <path d="M36.9862353,10.7389109 C37.2662761,10.7394091 37.5189443,10.5708828 37.6260747,10.3121431 C37.733205,10.0534034 37.673623,9.75559083 37.4751933,9.55798319 L36.6915966,8.77715126 C36.5184527,8.59500496 36.2600868,8.52119059 36.0168516,8.58437863 C35.7736164,8.64756668 35.583845,8.83779894 35.521247,9.08118665 C35.458649,9.32457437 35.5330898,9.58276054 35.7156555,9.75546218 L36.4976723,10.537479 C36.6272195,10.6669817 36.8030603,10.7394787 36.9862353,10.7389109 L36.9862353,10.7389109 Z" id="Path"></path>
                <path d="M9.47622689,9.7487479 L8.86404202,10.5489328 C8.71404751,10.7451391 8.68012172,11.0064624 8.77504416,11.2344646 C8.8699666,11.4624669 9.07931629,11.6225091 9.32423323,11.654305 C9.56915018,11.6861008 9.81242566,11.5848198 9.96242017,11.3886134 L10.5742101,10.5884286 C10.8005718,10.2850414 10.7407879,9.85601611 10.4401074,9.62607124 C10.1394269,9.39612637 9.7097226,9.45081643 9.47622689,9.7487479 L9.47622689,9.7487479 Z" id="Path"></path>
                <path d="M24.0442521,9.89211765 C23.89598,9.99986587 23.7966079,10.1621237 23.7680143,10.343167 C23.7394207,10.5242104 23.78395,10.7091957 23.8917983,10.857395 L24.2681933,11.3751849 C24.4111031,11.5809197 24.6541431,11.6932284 24.9034422,11.6687332 C25.1527413,11.644238 25.3692744,11.4867733 25.4694083,11.2571579 C25.5695422,11.0275425 25.537602,10.7617201 25.3859244,10.5623613 L25.0095294,10.0449664 C24.7851465,9.73626464 24.3530306,9.66784039 24.0442521,9.89211765 L24.0442521,9.89211765 Z" id="Path"></path>
                <path d="M18.0262773,4.72883193 C17.6445511,4.72883193 17.3351008,5.03828218 17.3351008,5.4200084 C17.3351008,5.80173463 17.6445511,6.11118487 18.0262773,6.11118487 L19.1088571,6.11118487 C19.4905834,6.11118487 19.8000336,5.80173463 19.8000336,5.4200084 C19.8000336,5.03828218 19.4905834,4.72883193 19.1088571,4.72883193 L18.0262773,4.72883193 Z" id="Path"></path>
                <path d="M28.7343782,6.94059664 C28.8249291,6.98275166 28.9236049,7.00457984 29.0234874,7.00457984 C29.2932378,7.00462125 29.5383942,6.84781373 29.6514706,6.60290756 L30.0638067,5.70990756 C30.2238045,5.36330015 30.0725276,4.95261547 29.7259202,4.79261765 C29.3793128,4.63261983 28.9686281,4.78389679 28.8086303,5.1305042 L28.397479,6.0235042 C28.2374553,6.36979221 28.3882394,6.78025032 28.7343782,6.94059664 L28.7343782,6.94059664 Z" id="Path"></path>
            </g>
        </g>
    </g>
</svg>