<?xml version="1.0" encoding="UTF-8"?>
<svg width="70px" height="70px" viewBox="0 0 70 70" version="1.1" xmlns="http://www.w3.org/2000/svg" xmlns:xlink="http://www.w3.org/1999/xlink">
    <!-- Generator: Sketch 61 (89581) - https://sketch.com -->
    <title>Artboard</title>
    <desc>Created with Sketch.</desc>
    <g id="Artboard" stroke="none" stroke-width="1" fill="none" fill-rule="evenodd">
        <rect id="Rectangle" x="0" y="0" width="70" height="70"></rect>
        <g id="007-chicken-leg" transform="translate(12.000000, 12.000000)" fill-rule="nonzero">
            <path d="M41.29207,6.70793005 C41.29207,6.70793005 32.2548474,-2.99555861 23.777026,5.45911513 C15.5484275,13.6661092 21.4094087,21.2056797 16,26.7993058 C16,26.7993058 15.9276629,29.2240205 18.6004432,29.3995568 C18.7759795,32.0723371 21.2006942,32 21.2006942,32 C26.7947061,26.5905913 34.3338908,32.4515725 42.5408849,24.2225882 C50.9955586,15.7451526 41.29207,6.70793005 41.29207,6.70793005 Z" id="Path" fill="#8C3F07"></path>
            <path d="M18.9176175,28.0831488 C18.057121,28.0853244 17.2452459,27.6844799 16.7237952,27 L10.8550382,32.868132 C9.06842101,34.6546818 7.12844611,34.0219034 4.20859622,33.9783192 C1.28874633,33.9347349 -0.101158716,37.1551251 2.03414547,39.2903487 C3.18711567,40.5328358 4.96333273,40.9804705 6.56747979,40.4328205 C6.01980904,42.036907 6.46746065,43.813057 7.70999465,44.9659837 C9.84529884,47.1012073 13.0658105,45.7109512 13.0222247,42.791615 C12.9786388,39.8722789 12.3442222,37.9319736 14.1324537,36.1454238 L20,30.2780989 C19.3155078,29.7562024 18.9149335,28.9438827 18.9176175,28.0831488 L18.9176175,28.0831488 Z" id="Path" fill="#F2E7CB"></path>
            <g id="Group" fill="#422002">
                <path d="M41.961916,5.03768908 C41.6064538,4.66326891 37.2022773,0.122831933 31.5239664,0.0177731092 C28.4575126,-0.0430504202 25.5995966,1.22002521 23.0540924,3.75921008 C18.2123025,8.58796639 17.9504454,13.2109496 17.719395,17.2896807 C17.5388992,20.4813361 17.3828908,23.2373529 15.0834454,25.615395 C14.9640574,25.7392714 14.8950665,25.90316 14.889916,26.0751261 C14.88397,26.5995162 14.9981316,27.11831 15.2236555,27.5917647 L13.442395,29.3734202 C13.2627545,29.5469933 13.1907474,29.8039895 13.2540496,30.0456321 C13.3173518,30.2872748 13.506112,30.4759587 13.7477802,30.5391632 C13.9894484,30.6023678 14.2464154,30.5302568 14.419916,30.3505462 L16.0815042,28.688563 C16.530175,29.0432968 17.0607873,29.2796074 17.624605,29.3757899 C17.7205429,29.9397763 17.9565733,30.470641 18.311042,30.9196807 L13.0707395,36.1595882 C11.4731345,37.7567983 11.580958,39.4898739 11.7061597,41.4966555 C11.7389412,42.0255042 11.7729076,42.572521 11.7815966,43.1629832 C11.8398489,44.1289301 11.2963426,45.0307421 10.415042,45.430437 C9.48454799,45.7956195 8.42502622,45.540678 7.7625042,44.7921849 C6.74299738,43.8617635 6.3640815,42.4198425 6.79446218,41.1084118 C6.9012617,40.8502011 6.84208263,40.5530854 6.64449862,40.3555014 C6.44691462,40.1579174 6.14979889,40.0987383 5.89158824,40.2055378 C4.5802406,40.6345972 3.139155,40.2558602 2.20821008,39.2374958 C1.45954561,38.5749083 1.20458961,37.5151685 1.56995798,36.584563 C1.96426528,35.6987193 2.86957604,35.153167 3.83701681,35.2184034 C4.42945378,35.2270924 4.97489076,35.2610588 5.5037395,35.2938403 C7.51170588,35.419042 9.24320168,35.5264706 10.8404118,33.9292605 L12.2752941,32.4943782 C12.545011,32.2238979 12.5443921,31.7859815 12.2739118,31.5162647 C12.0034315,31.2465479 11.5655152,31.2471668 11.2957983,31.5176471 L9.86131092,32.9521345 C8.70447899,34.1085714 7.46352101,34.0319496 5.58747059,33.9146471 C5.04242857,33.8806807 4.47921849,33.8459244 3.85597479,33.8356555 C2.32511543,33.7632439 0.90837924,34.6431067 0.294638655,36.0474202 C-0.287714762,37.4961944 0.0846842545,39.1540771 1.23068908,40.2146218 C2.26659012,41.3171328 3.75278577,41.8807215 5.2592605,41.7423193 C5.12085837,43.2487941 5.68444708,44.7349897 6.78695798,45.7708908 C7.51628252,46.5313623 8.51907248,46.9691321 9.57259664,46.9869664 C10.047613,46.9869664 10.5177415,46.8910753 10.9549496,46.7053613 C12.360022,46.0922841 13.2402091,44.6748685 13.1667143,43.1436303 C13.1576303,42.5207815 13.122479,41.9587563 13.0877227,41.4125294 C12.9692353,39.5352941 12.8937983,38.2951261 14.0498403,37.1382941 L19.4078403,31.7767395 C19.8578658,31.9907219 20.3488037,32.1049687 20.8470672,32.1116639 L20.9260588,32.1116639 C21.0982242,32.1065417 21.2622904,32.0373944 21.3861849,31.9177395 C23.7638319,29.6182941 26.5206387,29.4622857 29.7115042,29.281395 C33.7902353,29.0507395 38.4132185,28.7888824 43.2415798,23.9470924 C45.7811597,21.4011933 47.0398908,18.5511765 46.9830168,15.4772185 C46.8771681,9.79732773 42.3359412,5.39157143 41.961916,5.03768908 Z M42.2616891,22.9687815 C37.806563,27.4365462 33.651605,27.6719412 29.6321176,27.899437 C26.3993866,28.0823025 23.340437,28.2548992 20.6468235,30.7123277 C20.1333782,30.6475546 19.0377647,30.3205294 18.9323109,28.7118655 C18.9092133,28.365582 18.6329073,28.0901209 18.2865546,28.068084 C16.6747311,27.9622353 16.3488908,26.8606975 16.2853025,26.3535714 C18.7423361,23.659958 18.9157227,20.6010084 19.0981933,17.3678824 C19.326479,13.3491849 19.561479,9.1922521 24.0288487,4.73831092 C26.2970924,2.4759916 28.7979664,1.34838655 31.4892101,1.39973109 C36.6947563,1.49136134 40.9243613,5.95320168 40.9682017,5.99862185 C40.9788655,6.01007563 40.9903193,6.02192437 41.0021681,6.03258824 C41.0471933,6.07445378 45.5046891,10.2847059 45.6002689,15.5013109 C45.6492437,18.1862353 44.5259832,20.6993529 42.2605042,22.9695714 L42.2616891,22.9687815 Z" id="Shape"></path>
                <path d="M25.5142857,7.57094958 C22.2116471,11.0568487 22.1737311,15.8607227 22.1737311,16.0625462 C22.1737311,16.4439001 22.4827638,16.7531097 22.8641176,16.7533277 C23.2452278,16.7533277 23.554423,16.4448402 23.5552941,16.0637311 C23.5552941,16.0194958 23.6018992,11.5979412 26.517479,8.52003361 C26.7595054,8.24039396 26.7385236,7.81978719 26.4698686,7.56562267 C26.2012136,7.31145815 25.7800904,7.3138057 25.5142857,7.57094958 L25.5142857,7.57094958 Z" id="Path"></path>
                <path d="M31.7893782,4.35520168 C30.5462511,4.07470038 29.2429387,4.37080877 28.2430504,5.16091597 C27.9708747,5.41456448 27.9483101,5.83814689 28.1919978,6.1192759 C28.4356854,6.40040491 28.8581812,6.43820097 29.1478992,6.20478992 C29.8143362,5.69846174 30.6715707,5.51505815 31.4868403,5.70437815 C31.8594051,5.78759447 32.2288887,5.55303118 32.312105,5.18046639 C32.3953214,4.80790159 32.1607581,4.438418 31.7881933,4.35520168 L31.7893782,4.35520168 Z" id="Path"></path>
            </g>
        </g>
    </g>
</svg>