<?xml version="1.0" encoding="UTF-8"?>
<svg width="70px" height="70px" viewBox="0 0 70 70" version="1.1" xmlns="http://www.w3.org/2000/svg" xmlns:xlink="http://www.w3.org/1999/xlink">
    <!-- Generator: Sketch 61 (89581) - https://sketch.com -->
    <title>Artboard</title>
    <desc>Created with Sketch.</desc>
    <g id="Artboard" stroke="none" stroke-width="1" fill="none" fill-rule="evenodd">
        <rect id="Rectangle" x="0" y="0" width="70" height="70"></rect>
        <g id="010-coffee" transform="translate(20.000000, 12.000000)" fill-rule="nonzero">
            <polygon id="Path" fill="#EF983B" points="3 12 5.97369187 46 24.0263081 46 27 12"></polygon>
            <polygon id="Path" fill="#8C3F07" points="17.3601508 1 17 5 19.6398492 5 20 1"></polygon>
            <g id="Group" transform="translate(1.000000, 5.000000)" fill="#F2E7CB">
                <path d="M28.9711973,7.7029703 L28.9711973,6.01188119 C28.9711973,4.32199922 27.6064028,2.95207921 25.9228435,2.95207921 L3.07794558,2.95207921 C1.39438629,2.95207921 0.0295918367,4.32199922 0.0295918367,6.01188119 L0.0295918367,7.7029703 L28.9711973,7.7029703 Z" id="Path"></path>
                <polygon id="Path" points="6.24308844 0.0851485149 22.7569116 0.0851485149 22.7569116 2.95247525 6.24308844 2.95247525"></polygon>
                <polygon id="Path" points="1.39555102 14.1306931 2.8092517 29.9722772 26.1907483 29.9722772 27.604449 14.1306931"></polygon>
            </g>
            <ellipse id="Oval" fill="#8C3F07" transform="translate(14.994549, 26.829105) rotate(-45.000000) translate(-14.994549, -26.829105) " cx="14.9945494" cy="26.8291048" rx="5.3182448" ry="3.86790366"></ellipse>
            <g id="Group" fill="#422002">
                <path d="M26.2796104,7.09147059 L23.8351948,7.09147059 L23.8351948,4.92315126 C23.8351948,4.54142504 23.5299344,4.23197479 23.1533766,4.23197479 L20.5632468,4.23197479 L20.8683117,0.775302521 C20.885496,0.582023693 20.8216885,0.390331448 20.6924992,0.247121796 C20.56331,0.103912144 20.3806555,0.0225124777 20.1892208,0.0225124777 L17.4619481,0.0225124777 C17.1090853,0.0225124777 16.814514,0.295417173 16.7828571,0.651680672 L16.4668831,4.23197479 L6.84662338,4.23197479 C6.47006559,4.23197479 6.16480519,4.54142504 6.16480519,4.92315126 L6.16480519,7.09147059 L3.72038961,7.09147059 C1.68236205,7.09386469 0.0308032467,8.76809195 0.0284415584,10.8340924 L0.0284415584,12.5201681 C0.0284415584,12.9018943 0.333701956,13.2113445 0.71025974,13.2113445 L2.33766234,13.2113445 L2.78181818,18.2387647 L2.06103896,18.2387647 C1.86968213,18.2388895 1.68717427,18.3204793 1.55803756,18.4636307 C1.42890085,18.6067821 1.36500894,18.7983328 1.38194805,18.9915546 L1.7061039,22.6607143 C1.72641413,22.9078006 1.87572492,23.1249291 2.09738997,23.2297246 C2.31905503,23.33452 2.57911036,23.3109254 2.77889485,23.1678921 C2.97867935,23.0248589 3.0875816,22.7843028 3.06428571,22.5374874 L2.80519481,19.6215126 L27.1948052,19.6215126 L26.8020779,24.0608403 C26.7685118,24.4411142 27.0452834,24.7770208 27.4203896,24.8112605 C27.441039,24.8112605 27.4593506,24.8140252 27.4819481,24.8140252 C27.8346485,24.8136098 28.1288192,24.5405804 28.1602597,24.1844622 L28.6192208,18.9919496 C28.6361599,18.7987278 28.572268,18.6071771 28.4431313,18.4640257 C28.3139946,18.3208743 28.1314867,18.2392844 27.9401299,18.2391597 L27.2193506,18.2391597 L27.6623377,13.2117395 L29.2885714,13.2117395 C29.6651292,13.2117395 29.9703896,12.9022892 29.9703896,12.520563 L29.9703896,10.8340924 C29.9680293,8.76855382 28.3171815,7.09451733 26.2796104,7.09147059 Z M18.0857143,1.40486555 L19.4435065,1.40486555 L19.1941558,4.23197479 L17.835974,4.23197479 L18.0857143,1.40486555 Z M7.52727273,5.61432773 L22.4715584,5.61432773 L22.4715584,7.09147059 L7.52844156,7.09147059 L7.52727273,5.61432773 Z M25.8502597,18.2391597 L4.14896104,18.2391597 L3.70480519,13.2117395 L26.2944156,13.2117395 L25.8502597,18.2391597 Z M28.6079221,11.8293866 L1.39207792,11.8293866 L1.39207792,10.8340924 C1.3933665,9.53109337 2.4350327,8.4751298 3.72038961,8.47382353 L26.2788312,8.47382353 C27.5641881,8.4751298 28.6058543,9.53109337 28.6071429,10.8340924 L28.6079221,11.8293866 Z" id="Shape"></path>
                <path d="M2.90220779,28.4638319 C3.277314,28.4295922 3.5540856,28.0936856 3.52051948,27.7134118 L3.36467532,25.944 C3.342961,25.6979836 3.19342501,25.4823986 2.97239612,25.3784536 C2.75136722,25.2745087 2.49242497,25.2979956 2.2931104,25.4400671 C2.09379583,25.5821385 1.98438957,25.8212105 2.0061039,26.0672269 L2.16194805,27.8370336 C2.19338856,28.1931518 2.48755934,28.4661813 2.84025974,28.4665966 C2.86090909,28.4665966 2.88311688,28.4654118 2.90220779,28.4638319 L2.90220779,28.4638319 Z" id="Path"></path>
                <path d="M27.2758442,26.4503361 C26.9016158,26.4191952 26.5720021,26.6982881 26.5355844,27.0771345 L25.9203896,34.037479 L4.07961039,34.037479 L3.80688312,30.9548319 C3.78509921,30.7088861 3.63553604,30.4934038 3.41453261,30.3895553 C3.19352919,30.2857067 2.93466119,30.3092689 2.73544169,30.4513662 C2.53622218,30.5934635 2.42691736,30.8325079 2.4487013,31.0784538 L2.77675325,34.7910588 C2.80877613,35.1470771 3.10318935,35.4196755 3.45584416,35.4198319 L4.29857143,35.4198319 L5.26480519,46.3483193 C5.29646202,46.7045828 5.59103339,46.9774874 5.9438961,46.9774874 L24.0561039,46.9774874 C24.4089666,46.9774874 24.703538,46.7045828 24.7351948,46.3483193 L25.7014286,35.4198319 L26.5441558,35.4198319 C26.8970836,35.4196384 27.1916022,35.1465998 27.2232468,34.7902689 L27.8961039,27.2007563 C27.9122052,27.0178234 27.8558647,26.8359108 27.7395072,26.6951359 C27.6231497,26.5543609 27.4563326,26.4662867 27.2758442,26.4503361 L27.2758442,26.4503361 Z M23.4327273,45.5951345 L6.56727273,45.5951345 L5.66805195,35.4198319 L24.3303896,35.4198319 L23.4327273,45.5951345 Z" id="Shape"></path>
                <path d="M10.7676623,31.0879328 C10.7731169,31.0934622 10.777013,31.0993866 10.7824675,31.104916 C11.5287312,31.8321932 12.5322782,32.2244888 13.567013,32.1934202 C15.32458,32.1250465 16.9864065,31.3639277 18.1987013,30.0721008 C19.2597712,29.0314556 19.9721633,27.6796661 20.2355844,26.207042 C20.4993084,24.9126643 20.1336119,23.5686542 19.2525974,22.5943613 C19.245974,22.5864622 19.2393506,22.578563 19.2323377,22.5710588 C19.2253247,22.5635546 19.222987,22.559605 19.2175325,22.5540756 C17.4533766,20.764916 14.1268831,21.2293866 11.8012987,23.5864958 C10.7403482,24.6273919 10.0279854,25.9792639 9.76441558,27.4519496 C9.50075803,28.7462032 9.866454,30.0900646 10.7474026,31.0642353 C10.7532468,31.0725294 10.7606494,31.0804286 10.7676623,31.0879328 Z M18.8887013,25.9929748 C18.6703872,27.1771964 18.0919181,28.2624533 17.2344156,29.0965546 C15.5824675,30.7707815 13.3667532,31.2921261 12.0638961,30.3896471 C12.6250857,28.9936011 13.7768582,27.9281544 15.1994805,27.4890756 C16.7390884,27.0236137 18.04009,25.9699997 18.8279221,24.5505882 C18.9507045,25.0207537 18.9714408,25.5123201 18.8887013,25.991395 L18.8887013,25.9929748 Z M11.1112987,27.6675966 C11.329538,26.4833482 11.9080188,25.3980695 12.7655844,24.5640168 C13.7182356,23.5298972 15.0277394,22.9082479 16.4212987,22.8285714 C16.9587396,22.8162152 17.4872247,22.9694999 17.9368831,23.2681597 C17.3751929,24.6638109 16.2231419,25.7286702 14.8005195,26.1671513 C13.2610659,26.6329121 11.9601635,27.6864458 11.1720779,29.1056387 C11.0496438,28.6363607 11.0289089,28.1457708 11.1112987,27.6675966 L11.1112987,27.6675966 Z" id="Shape"></path>
                <path d="M9.05688312,43.8146639 L14.1471429,43.8146639 C14.5237006,43.8146639 14.828961,43.5052136 14.828961,43.1234874 C14.828961,42.7417612 14.5237006,42.4323109 14.1471429,42.4323109 L9.05688312,42.4323109 C8.68032533,42.4323109 8.37506494,42.7417612 8.37506494,43.1234874 C8.37506494,43.5052136 8.68032533,43.8146639 9.05688312,43.8146639 L9.05688312,43.8146639 Z" id="Path"></path>
            </g>
        </g>
    </g>
</svg>