<?xml version="1.0" encoding="UTF-8"?>
<svg width="70px" height="70px" viewBox="0 0 70 70" version="1.1" xmlns="http://www.w3.org/2000/svg" xmlns:xlink="http://www.w3.org/1999/xlink">
    <!-- Generator: Sketch 61 (89581) - https://sketch.com -->
    <title>Artboard</title>
    <desc>Created with Sketch.</desc>
    <g id="Artboard" stroke="none" stroke-width="1" fill="none" fill-rule="evenodd">
        <rect id="Rectangle" x="0" y="0" width="70" height="70"></rect>
        <g id="013-croissant" transform="translate(13.000000, 23.000000)" fill-rule="nonzero">
            <path d="M40.9495284,13.0863875 L40.9457153,13.0901784 C41.2610652,12.1689855 41.258396,11.2898718 40.7722156,10.5771793 C38.787074,7.66423844 34.9834269,5.7812898 34.9834269,5.7812898 C34.9834269,5.7812898 34.6284198,5.59515576 34.033945,5.34040612 L34.0308945,5.34798795 C33.8539418,4.41286687 33.280558,3.59876618 32.4571951,3.11362128 C28.462889,0.937634739 23.0005085,1 23.0005085,1 C23.0005085,1 17.538128,0.937634739 13.5438219,3.11362128 C12.7200234,3.59852531 12.1461971,4.41266241 11.9689785,5.34798795 L11.965928,5.34040612 C11.3714532,5.59515576 11.0164462,5.7812898 11.0164462,5.7812898 C11.0164462,5.7812898 7.21470562,7.66423844 5.22765748,10.5771793 C4.74147702,11.2898718 4.7388078,12.1693646 5.05415779,13.0901784 L5.05034461,13.0863875 C4.47531705,13.9560239 0.512660318,20.0878327 1.04993739,23.0856901 C1.61428804,26.2321515 8.64464815,20.366086 10.9867034,18.8732228 L10.9836528,18.869811 C12.1005333,19.3004592 13.109882,19.3501202 13.7367688,18.8015744 C14.5242168,18.0961538 15.3776729,17.4671614 16.2854984,16.9231749 L16.2816852,16.9133185 C16.9985631,17.427746 17.7333629,17.6642992 18.4304122,17.4887798 C21.3436818,16.7552373 23.0005085,16.8124801 23.0005085,16.8124801 C23.0005085,16.8124801 24.6573352,16.7552373 27.5694609,17.4887798 C28.2665102,17.6642992 29.00131,17.427746 29.7181878,16.9133185 L29.7143747,16.9231749 C30.6222002,17.4671614 31.4756563,18.0961538 32.2631042,18.8015744 C32.889991,19.3501202 33.8993398,19.3004592 35.0162202,18.869811 L35.0131697,18.8732228 C37.3552249,20.366086 44.385585,26.2325306 44.9499357,23.0856901 C45.4879754,20.0878327 41.524556,13.9560239 40.9495284,13.0863875 Z" id="Path" fill="#EF983B"></path>
            <g id="Group" fill="#422002">
                <path d="M17.7458824,1.86009308 C17.790574,1.8599638 17.8351492,1.85560261 17.8789916,1.84706977 C18.405,1.74139535 18.9536975,1.65060465 19.5107143,1.57730233 C19.7449784,1.54652765 19.944762,1.39511446 20.0348085,1.18009866 C20.124855,0.96508285 20.0914842,0.719130444 19.9472665,0.534889333 C19.8030488,0.350648222 19.5698944,0.256109016 19.3356303,0.286883721 C18.7487395,0.363906977 18.1697899,0.459162791 17.6139076,0.570790698 C17.2807948,0.637348307 17.0530995,0.941404621 17.0871635,1.27418622 C17.1212275,1.60696781 17.4059714,1.86023736 17.7458824,1.86009308 L17.7458824,1.86009308 Z" id="Path"></path>
                <path d="M41.0180672,12.468093 C41.3047848,11.5542119 41.1787677,10.563175 40.6720588,9.74697674 C38.6270168,6.78065116 34.8386975,4.90083721 34.6915966,4.82939535 C34.6791176,4.82232558 34.4166807,4.68762791 33.9761345,4.49451163 C33.6977209,3.54040552 33.0609897,2.72618223 32.195042,2.21693023 C28.4891597,0.219534884 23.5989076,0.0721860465 22.6561765,0.0632470175 L22.6512605,0.0632470175 C22.285778,0.0614063115 21.9879721,0.351442495 21.9860925,0.711069768 C21.9842128,1.07069704 22.2789712,1.36373187 22.6444538,1.3655814 C23.5319748,1.37413953 28.1321849,1.51106977 31.5605042,3.35925581 C33.5537395,4.43386047 33.169916,8.15516279 31.9696639,11.1575814 C30.6862185,14.3698605 28.5855882,16.6117209 27.1951261,16.2671628 C25.6654315,15.846069 24.0880468,15.6156771 22.5,15.5813953 C20.9125036,15.6150692 19.3356048,15.8449643 17.8063866,16.2656744 C16.4113866,16.6124651 14.3152941,14.368 13.0318487,11.156093 C11.8315966,8.15367442 11.4477731,4.43237209 13.4410084,3.35776744 C13.9174645,3.10355409 14.4100831,2.87983419 14.9157983,2.688 C15.1361471,2.60351915 15.293954,2.40978424 15.3297747,2.17977334 C15.3655953,1.94976244 15.2739877,1.71841967 15.0894595,1.57288962 C14.9049314,1.42735957 14.6555169,1.38975171 14.4351681,1.47423256 C13.8760516,1.68779065 13.3314076,1.93636132 12.8045798,2.2184186 C11.9386321,2.72767061 11.301901,3.5418939 11.0234874,4.496 C10.5829412,4.69023256 10.3227731,4.82455814 10.3212605,4.82530233 C10.1609244,4.90381395 6.37260504,6.78362791 4.32756303,9.74995349 C3.82085414,10.5661518 3.69483707,11.5571886 3.98155462,12.4710698 C2.93634454,14.0658605 -0.453781513,19.5415814 0.081302521,22.5045581 C0.146142999,23.0845517 0.525798811,23.5842169 1.07281513,23.8094884 C1.29965103,23.8963895 1.5414834,23.9391032 1.78487395,23.9354944 C3.51831933,23.9354944 6.2092437,22.1354419 9.2537395,19.9717209 C9.80470588,19.579907 10.2898739,19.2364651 10.6789916,18.9771163 C11.1434397,19.1366 11.6305805,19.222873 12.122395,19.2327442 C12.7170773,19.2525993 13.2979231,19.0535951 13.7514706,18.6746047 C14.4016213,18.1040042 15.0948755,17.5828154 15.8252521,17.1155349 C16.3235204,17.4238646 16.8972687,17.5938359 17.4857143,17.6074419 C17.7034158,17.6075005 17.9202689,17.58075 18.1312185,17.527814 C19.5472036,17.1373704 21.0068895,16.9210254 22.4769328,16.8837209 C22.4917971,16.8844652 22.5066903,16.8844652 22.5215546,16.8837209 C23.9926498,16.9203705 25.4534183,17.1367254 26.8702941,17.527814 C27.6642037,17.703962 28.4967763,17.5551569 29.1770168,17.1155349 C29.9073192,17.5826156 30.6004534,18.1036848 31.2504202,18.6742326 C31.7038389,19.0534445 32.2847745,19.2524796 32.8794958,19.2323721 C33.3713071,19.2224698 33.858443,19.1361977 34.3228992,18.9767442 C34.7120168,19.2372093 35.1971849,19.5795349 35.7481513,19.9713488 C38.7934034,22.1354419 41.4835714,23.9348837 43.2170168,23.9348837 C43.4604074,23.9387311 43.7022397,23.8960174 43.9290756,23.8091163 C44.4760919,23.5838449 44.8557478,23.0841796 44.9205882,22.504186 C45.4556723,19.5415814 42.0636555,14.0658605 41.0180672,12.468093 L41.0180672,12.468093 Z M8.47890756,18.9157209 C6.59420168,20.2552558 2.67504202,23.0377674 1.56894958,22.6024186 C1.52848739,22.5860465 1.43357143,22.5484651 1.38403361,22.2757209 C1.03462185,20.3482791 3.01008403,16.5082791 4.59831933,13.9497674 C5.24772065,15.0295015 6.07652265,15.994446 7.0502521,16.8044651 C7.73004967,17.3987653 8.47241122,17.9199225 9.26470588,18.3590698 C9.01966387,18.5317209 8.7594958,18.7162791 8.47890756,18.9157209 L8.47890756,18.9157209 Z M12.8771849,17.6967442 C12.4876891,18.0316279 11.7563445,18.0003721 10.8752521,17.6714419 C10.8507161,17.6598296 10.8254551,17.6497628 10.7996218,17.6413023 C9.746306,17.1986385 8.77577879,16.5855052 7.92831933,15.8273488 C6.79386555,14.8427907 5.76756303,13.5825116 5.34781513,12.4383256 C5.33666084,12.3902561 5.32004365,12.3435747 5.29827731,12.2991628 C5.04782896,11.7062137 5.09473263,11.0319776 5.42495798,10.4781395 C7.02226891,8.16074419 9.92987395,6.50976744 10.7190756,6.08744186 C10.6181092,7.54195349 10.9005882,9.38009302 11.8005882,11.6316279 C12.4478077,13.3554902 13.4439301,14.9321325 14.7286134,16.2660465 C14.0826052,16.7056263 13.4643242,17.183405 12.8771849,17.6967442 L12.8771849,17.6967442 Z M32.1228151,17.6967442 C31.5367128,17.1846204 30.9195704,16.7079617 30.2747899,16.2693953 C31.5587316,14.9344161 32.5544015,13.3572465 33.2016807,11.6331163 C34.1016807,9.3812093 34.3841597,7.54344186 34.2831933,6.08893023 C35.0542437,6.49823256 37.9758403,8.15404651 39.5773109,10.4796279 C39.9075363,11.033466 39.9544399,11.7077021 39.7039916,12.3006512 C39.6822253,12.3450631 39.6656081,12.3917445 39.6544538,12.439814 C39.2347059,13.584 38.2095378,14.8442791 37.0739496,15.8288372 C36.22927,16.5847033 35.2622833,17.1965223 34.2128571,17.6390698 C34.1812898,17.6491017 34.1505662,17.6615426 34.1209664,17.6762791 C33.2413866,18.0007442 32.5119328,18.0331163 32.1228151,17.6967442 L32.1228151,17.6967442 Z M43.6159664,22.2757209 C43.5664286,22.5484651 43.4715126,22.5860465 43.4310504,22.6024186 C42.3268487,23.0429767 38.4057983,20.2552558 36.5210924,18.9157209 C36.2401261,18.7162791 35.979958,18.5317209 35.7337815,18.3575814 C36.5261242,17.9183273 37.2686,17.3971788 37.9486134,16.8029767 C38.9223429,15.9929577 39.7511449,15.0280131 40.4005462,13.9482791 C41.9887815,16.5101395 43.9653782,20.3482791 43.6159664,22.2757209 L43.6159664,22.2757209 Z" id="Shape"></path>
                <path d="M28.5315126,9.79869767 C28.0655393,11.1727925 27.3228003,12.440341 26.3476891,13.5255814 C26.1874394,13.6989548 26.134232,13.9436874 26.2083687,14.1663991 C26.2825054,14.3891109 26.472549,14.5554434 26.7059864,14.6019309 C26.9394238,14.6484183 27.1802421,14.5678891 27.3365546,14.3910698 C28.4292016,13.1763603 29.2619448,11.7574974 29.785084,10.2191628 C29.861078,9.99882131 29.8118347,9.75532458 29.6559035,9.58039547 C29.4999724,9.40546636 29.261043,9.32568076 29.0291178,9.37109314 C28.7971926,9.41650552 28.6075066,9.58021665 28.5315126,9.80055814 L28.5315126,9.79869767 Z" id="Path"></path>
                <path d="M29.7257143,7.76818605 C29.7487815,7.7704186 29.7714706,7.77153488 29.7941597,7.77153488 C30.1333011,7.771168 30.4172694,7.51858226 30.4517647,7.18660465 C30.5396235,6.42662874 30.5503908,5.65993504 30.4839076,4.89786047 C30.4421381,4.54069921 30.1140268,4.28448116 29.7510504,4.32558142 C29.388074,4.36668168 29.1276844,4.68953642 29.1694538,5.04669767 C29.2231943,5.7152657 29.2116709,6.38736359 29.135042,7.05376744 C29.1170715,7.22558194 29.1692106,7.39738277 29.2799866,7.53136642 C29.3907626,7.66535007 29.5510987,7.75053829 29.7257143,7.76818605 L29.7257143,7.76818605 Z" id="Path"></path>
            </g>
        </g>
    </g>
</svg>