<?xml version="1.0" encoding="UTF-8"?>
<svg width="70px" height="70px" viewBox="0 0 70 70" version="1.1" xmlns="http://www.w3.org/2000/svg" xmlns:xlink="http://www.w3.org/1999/xlink">
    <!-- Generator: Sketch 61 (89581) - https://sketch.com -->
    <title>Artboard</title>
    <desc>Created with Sketch.</desc>
    <g id="Artboard" stroke="none" stroke-width="1" fill="none" fill-rule="evenodd">
        <rect id="Rectangle" x="0" y="0" width="70" height="70"></rect>
        <g id="037-dessert" transform="translate(13.000000, 13.000000)" fill-rule="nonzero">
            <path d="M20.0004749,10 C20.0004749,10 19.7798525,1.18842653 28.8492003,1 C28.8492003,1 30.8845139,10 20.0004749,10 Z" id="Path" fill="#64BC0F"></path>
            <path d="M42,16 L42,41.3173791 C41.9789777,42.8202305 40.7882165,44.0210014 39.3400177,44 L4.65998231,44 C3.21178355,44.0210014 2.02102231,42.8202305 2,41.3173791 L2,16 L42,16 Z" id="Path" fill="#EF983B"></path>
            <polygon id="Path" fill="#8C3F07" points="2 26 42 26 42 36 2 36"></polygon>
            <path d="M44,16.469298 L27.828977,16.469298 C26.6258848,16.4695138 25.6506373,17.4922366 25.6504316,18.7538957 L25.6504316,26.1469883 C25.6504316,27.4087368 24.6750636,28.431586 23.4718862,28.431586 C22.268794,28.4313703 21.2935465,27.4086474 21.2933407,26.1469883 L21.2933407,26.1079087 C21.2933407,24.8461602 20.3179727,23.8233109 19.1147953,23.8233109 L18.7794051,23.8233109 C17.5762277,23.8233109 16.6008597,24.8461602 16.6008597,26.1079087 L16.6008597,30.7154022 C16.6008597,31.3214506 16.3712328,31.9026654 15.962515,32.3311331 C15.5537973,32.7596007 14.9994843,33 14.421569,33 L14.0861788,33 C12.8830014,33 11.9076334,31.9771506 11.9076334,30.7154022 L11.9076334,18.7554589 C11.9079299,18.1493746 11.6785993,17.567996 11.2701019,17.1392464 C10.8616045,16.7104968 10.3074102,16.4695052 9.7294606,16.469298 L1,16.469298 L1,11.7355771 C1.00123413,10.2243804 2.16977939,9 3.61082608,9 L41.3891739,9 C42.8302206,9 43.9987659,10.2243804 44,11.7355771 L44,16.469298 Z" id="Path" fill="#F2E7CB"></path>
            <circle id="Oval" fill="#EF3829" cx="21" cy="6" r="3"></circle>
            <g id="Group" fill="#422002">
                <path d="M12.9866555,43.6571849 L11.3227899,43.6571849 C10.9654292,43.6571849 10.6757311,43.953467 10.6757311,44.3189496 C10.6757311,44.6844321 10.9654292,44.9807143 11.3227899,44.9807143 L12.9866555,44.9807143 C13.3440162,44.9807143 13.6337143,44.6844321 13.6337143,44.3189496 C13.6337143,43.953467 13.3440162,43.6571849 12.9866555,43.6571849 Z" id="Path"></path>
                <path d="M40.7417815,8.74739496 L26.5889412,8.74739496 C27.2292917,8.35253518 27.7976705,7.84685973 28.2687059,7.25294118 C30.4705546,4.46596639 29.7129412,0.70487395 29.6800336,0.546428571 C29.6197701,0.232933045 29.3451241,0.0111118814 29.0329748,0.0238235294 C26.4077647,0.0824369748 24.327563,0.961260504 22.834521,2.63306723 C21.9462264,2.10095855 20.8861558,1.95612187 19.892437,2.23109244 C19.3245042,1.2010084 18.0037647,-0.0695798319 15.6562353,0.0257142857 C15.4250634,0.0346984645 15.2161383,0.169131828 15.10816,0.37837463 C15.0001817,0.587617432 15.0095547,0.839880713 15.1327483,1.04013934 C15.2559418,1.24039796 15.4742399,1.35822788 15.7054118,1.3492437 C17.4972101,1.28193277 18.343563,2.19743697 18.7003697,2.78243697 C17.7649932,3.42717151 17.1494763,4.45555792 17.0135244,5.60076564 C16.8775725,6.74597336 17.2345861,7.89512004 17.9919328,8.75004202 L3.25821849,8.75004202 C1.47123854,8.75212593 0.0231132377,10.2331632 0.0210755243,12.0607563 L0.0210755243,16.6386555 C0.0210755243,16.8141971 0.0891180151,16.9825779 0.210486369,17.1067046 C0.331854724,17.2308314 0.496493709,17.3005206 0.668134454,17.3004202 L1.29189916,17.3004202 L1.29189916,41.6658403 C1.31483958,43.5161372 2.7978308,44.998324 4.60705882,44.9792017 L8.27717647,44.9792017 C8.63453719,44.9792017 8.92423529,44.6829195 8.92423529,44.317437 C8.92423529,43.9519544 8.63453719,43.6556723 8.27717647,43.6556723 L4.60705882,43.6556723 C3.51234397,43.6752895 2.6084678,42.7853715 2.58601681,41.6658403 L2.58601681,35.8684034 L41.4139832,35.8684034 L41.4139832,41.6673529 C41.3915322,42.7868841 40.487656,43.6768021 39.3929412,43.6571849 L16.1871933,43.6571849 C15.8298326,43.6571849 15.5401345,43.953467 15.5401345,44.3189496 C15.5401345,44.6844321 15.8298326,44.9808933 16.1871933,44.9808933 L39.3929412,44.9808933 C41.2020872,44.9996278 42.6849582,43.5175612 42.7081008,41.6673529 L42.7081008,22.2954202 C42.7081008,21.9299376 42.4184027,21.6336555 42.061042,21.6336555 C41.7036813,21.6336555 41.4139832,21.9299376 41.4139832,22.2954202 L41.4139832,25.0910924 L25.7714286,25.0910924 L25.7714286,18.8508403 C25.7714286,17.9945669 26.4501498,17.3004202 27.287395,17.3004202 L41.4150924,17.3004202 L41.4150924,19.3908403 C41.4150924,19.7563229 41.7047905,20.052605 42.0621513,20.052605 C42.419512,20.052605 42.7092101,19.7563229 42.7092101,19.3908403 L42.7092101,17.3019328 L43.3329748,17.3019328 C43.5046155,17.3020332 43.6692545,17.232344 43.7906229,17.1082172 C43.9119912,16.9840905 43.9800337,16.8157097 43.9800337,16.6401681 L43.9800337,12.0581092 C43.9779949,10.2300737 42.5291946,8.7488537 40.7417815,8.74739496 L40.7417815,8.74739496 Z M28.4916639,1.37495798 C28.595563,2.40806723 28.6317983,4.68756303 27.2618824,6.4210084 C26.4313253,7.41783145 25.3058391,8.11078058 24.0557983,8.39495798 C25.1050308,6.90182819 25.0131995,4.86693078 23.8339496,3.4789916 C24.9742521,2.2352521 26.5342185,1.52584034 28.4916639,1.37495798 Z M18.278853,6.08218487 C18.2770948,5.07215063 18.8347586,4.14821479 19.7183998,3.69715442 C20.602041,3.24609405 21.6592252,3.3457203 22.447395,3.95432773 C22.4762988,3.98890534 22.5085031,4.02044805 22.5435294,4.04848739 C22.5658444,4.06490824 22.5891886,4.0798142 22.6134118,4.09310924 C23.5090045,4.90704259 23.7461305,6.24084912 23.188001,7.3251082 C22.6298716,8.40936728 21.4204835,8.96434108 20.2574854,8.66988699 C19.0944873,8.37543291 18.2779316,7.30751982 18.278853,6.08218487 L18.278853,6.08218487 Z M9.3287395,17.3019328 C10.1659846,17.3019328 10.8447059,17.9960795 10.8447059,18.8523529 L10.8447059,25.0918487 L2.58601681,25.0918487 L2.58601681,17.3019328 L9.3287395,17.3019328 Z M41.4139832,34.5456303 L2.58601681,34.5456303 L2.58601681,26.4153782 L10.8435966,26.4153782 L10.8435966,30.4237815 C10.8435963,32.0102819 12.1005874,33.2966873 13.6518319,33.2977311 L13.984605,33.2977311 C15.536149,33.2966882 16.7936693,32.0105878 16.7946891,30.4237815 L16.7946891,26.4153782 L20.1882353,26.4153782 C20.3865061,27.8277164 21.5695586,28.876346 22.9646723,28.876346 C24.359786,28.876346 25.5428385,27.8277164 25.7411092,26.4153782 L41.4154622,26.4153782 L41.4139832,34.5456303 Z M17.0601681,25.0918487 C17.3418955,24.670551 17.8086372,24.4184357 18.3076975,24.4179832 L18.6404706,24.4179832 C19.1377865,24.4181738 19.6026317,24.6706113 19.8813445,25.0918487 L17.0601681,25.0918487 Z M24.4773109,18.8508403 L24.4773109,26.0031933 C24.494157,26.5725529 24.2043752,27.1055104 23.7225748,27.3912799 C23.2407744,27.6770495 22.6445527,27.669606 22.1697166,27.3718933 C21.6948805,27.0741807 21.4179056,26.5341476 21.4483361,25.9653782 C21.4483361,25.8935294 21.4431597,25.8231933 21.4379832,25.7528571 L21.4379832,25.7521008 C21.3272928,24.2548406 20.1082656,23.0970782 18.6401008,23.0948319 L18.3073277,23.0948319 C16.8404802,23.0969256 15.6219667,24.2525532 15.5094454,25.7483193 L15.5094454,25.7558824 C15.5046387,25.8258403 15.4990924,25.8957983 15.4990924,25.9672689 L15.4990924,30.4256723 C15.4990924,31.2819457 14.8203712,31.9760924 13.9831261,31.9760924 L13.6503529,31.9760924 C12.8138299,31.9750491 12.1362347,31.2812078 12.1362353,30.4256723 L12.1362353,18.8508403 C12.1352155,17.264034 10.8776952,15.9779337 9.32615126,15.9768908 L1.31519328,15.9768908 L1.31519328,12.0581092 C1.31621245,10.9610494 2.18553773,10.0719667 3.25821849,10.0709244 L40.7417815,10.0709244 C41.8144623,10.0719667 42.6837875,10.9610494 42.6848067,12.0581092 L42.6848067,15.9784034 L27.287395,15.9784034 C25.7360058,15.9784031 24.4781274,17.2641926 24.4773109,18.8508403 Z" id="Shape"></path>
                <path d="M7.08363025,12.1534034 L6.54453782,12.6654202 C6.28254136,12.9140527 6.26722874,13.3328264 6.51033613,13.6007773 C6.75344353,13.8687282 7.1629111,13.8843889 7.42490756,13.6357563 L7.964,13.1218487 C8.2210031,12.8721821 8.23375698,12.4575114 7.99260458,12.1918188 C7.75145219,11.9261263 7.34616947,11.9083236 7.08363025,12.1518908 L7.08363025,12.1534034 Z" id="Path"></path>
                <path d="M17.7035294,15.4236555 C17.4495877,15.172917 17.0460136,15.1765868 16.7964714,15.4319036 C16.5469292,15.6872204 16.543504,16.0999681 16.7887731,16.3595798 L17.5208739,17.1083193 C17.683368,17.2803155 17.9239601,17.3492585 18.1501788,17.28865 C18.3763974,17.2280415 18.5530377,17.0473137 18.6122079,16.8159292 C18.6713781,16.5845448 18.60387,16.3385125 18.4356303,16.172395 L17.7035294,15.4236555 Z" id="Path"></path>
                <path d="M27.8660504,11.8486134 C27.7119548,11.7711694 27.5340813,11.7595368 27.371596,11.8162771 C27.2091107,11.8730174 27.0753372,11.993478 26.9997311,12.1511345 L26.6218487,12.9376891 C26.5180761,13.1499308 26.5333621,13.4027515 26.6619113,13.600301 C26.7904605,13.7978505 27.0125926,13.9098848 27.2440923,13.893929 C27.475592,13.8779733 27.6810175,13.7364704 27.7824874,13.5230672 L28.1622185,12.735 C28.2380327,12.5773169 28.2494158,12.3952703 28.1938583,12.228995 C28.1383008,12.0627198 28.0203646,11.925869 27.8660504,11.8486134 L27.8660504,11.8486134 Z" id="Path"></path>
                <path d="M37.9146891,12.5833613 L37.221042,12.4256723 C36.8721559,12.3463103 36.5264219,12.5712308 36.4488235,12.9280462 C36.3712252,13.2848616 36.5911474,13.6384532 36.9400336,13.7178151 L37.6336807,13.8755042 C37.6800673,13.8859726 37.7274219,13.8912975 37.7749244,13.8913868 C38.1052796,13.8916595 38.382789,13.6373757 38.4186766,13.3015118 C38.4545643,12.9656479 38.2373048,12.6560669 37.9146891,12.5833613 Z" id="Path"></path>
            </g>
        </g>
    </g>
</svg>