<?xml version="1.0" encoding="UTF-8"?>
<svg width="70px" height="70px" viewBox="0 0 70 70" version="1.1" xmlns="http://www.w3.org/2000/svg" xmlns:xlink="http://www.w3.org/1999/xlink">
    <!-- Generator: Sketch 61 (89581) - https://sketch.com -->
    <title>Artboard</title>
    <desc>Created with Sketch.</desc>
    <g id="Artboard" stroke="none" stroke-width="1" fill="none" fill-rule="evenodd">
        <rect id="Rectangle" x="0" y="0" width="70" height="70"></rect>
        <g id="015-donut" transform="translate(13.000000, 13.000000)" fill-rule="nonzero">
            <path d="M23,1 C10.8497355,1 1,10.8497355 1,23 C1,35.1502645 10.8497355,45 23,45 C35.1502645,45 45,35.1502645 45,23 C45,10.8497355 35.1502645,1 23,1 Z M23,30.1055806 C19.0759564,30.1055806 15.8948007,26.924552 15.8948007,23.0005084 C15.8948007,19.0764648 19.0757022,15.895182 22.9997458,15.895182 C26.9237894,15.895182 30.1049887,19.0759564 30.1051993,23 C30.1051993,26.9240932 26.9240932,30.1051993 23,30.1051993 L23,30.1055806 Z" id="Shape" fill="#EF983B"></path>
            <path d="M39.2424332,18.7574192 C38.117386,17.6321465 37.4854184,16.1060506 37.4855491,14.5148384 C37.4857508,12.9234204 36.8536485,11.3971247 35.72834,10.2718222 C34.6030316,9.14651974 33.0767279,8.51442072 31.4853014,8.51462243 C29.8940262,8.51465226 28.3679146,7.88254807 27.2426982,6.75736744 C26.1175003,5.63214557 24.5913864,5 23.000095,5 C21.4088037,5 19.8826898,5.63214557 18.7574919,6.75736744 C17.6322755,7.88254807 16.1061639,8.51465226 14.5148887,8.51462243 C12.9234622,8.51442072 11.3971585,9.14651974 10.2718501,10.2718222 C9.14654163,11.3971247 8.51443928,12.9234204 8.51464099,14.5148384 C8.51467081,16.1061052 7.8825633,17.6322087 6.75737672,18.7574192 C5.63214891,19.8826113 5,21.4087171 5,23 C5,24.5912829 5.63214891,26.1173887 6.75737672,27.2425808 C7.8825633,28.3677913 8.51467081,29.8938948 8.51464099,31.4851616 C8.51443928,33.0765796 9.14654163,34.6028753 10.2718501,35.7281778 C11.3971585,36.8534803 12.9234622,37.4855793 14.5148887,37.4853776 C16.1061639,37.4853477 17.6322755,38.1174519 18.7574919,39.2426326 C19.8826898,40.3678544 21.4088037,41 23.000095,41 C24.5913864,41 26.1175003,40.3678544 27.2426982,39.2426326 C28.3679146,38.1174519 29.8940262,37.4853477 31.4853014,37.4853776 C33.0767279,37.4855793 34.6030316,36.8534803 35.72834,35.7281778 C36.8536485,34.6028753 37.4857508,33.0765796 37.4855491,31.4851616 C37.4855193,29.8938948 38.1176268,28.3677913 39.2428134,27.2425808 C40.3679908,26.1173383 41,24.5912042 41,22.9999213 C41,21.4086383 40.3677114,19.8825608 39.2424332,18.7574192 L39.2424332,18.7574192 Z M23.000095,30.0849084 C19.0871875,30.0849084 15.9151492,26.9128869 15.9151492,23 C15.9151492,19.0871131 19.0871875,15.9150916 23.000095,15.9150916 C26.9130026,15.9150916 30.0850409,19.0871131 30.0850409,23 C30.0850409,26.9128869 26.9130026,30.0849084 23.000095,30.0849084 L23.000095,30.0849084 Z" id="Shape" fill="#FFDE3E"></path>
            <g id="Group" fill="#422002">
                <path d="M6.06327731,37.5126051 C5.872022,37.5126947 5.69010283,37.4299415 5.5644958,37.2857143 C5.23928571,36.9136134 4.92390756,36.5294118 4.62592437,36.1380252 C4.41250828,35.8472478 4.47108458,35.4391468 4.75767241,35.2201368 C5.04426023,35.0011268 5.45341956,35.051785 5.67794118,35.3340756 C5.95815126,35.7008824 6.25537815,36.0646639 6.56168067,36.4152101 C6.73212377,36.6107142 6.77264339,36.8877658 6.66532765,37.123893 C6.5580119,37.3600202 6.32264712,37.5116871 6.06327731,37.5118487 L6.06327731,37.5126051 Z" id="Path"></path>
                <path d="M22.5,44.9814739 C16.9978933,44.9844762 11.6862457,42.9669059 7.57361345,39.3118487 C7.30033693,39.0690639 7.27561854,38.6507135 7.51840338,38.377437 C7.76118821,38.1041605 8.1795386,38.0794421 8.45281513,38.3222269 C16.7524374,45.691101 29.3353913,45.3943618 37.2784255,37.6424433 C45.2214598,29.8905247 45.8245079,17.3185274 38.659916,8.84193277 C38.4306305,8.56235952 38.4681808,8.15051231 38.7442455,7.91701442 C39.0203103,7.68351653 39.4326795,7.71481812 39.6703361,7.98731092 C45.3196024,14.6713445 46.576652,24.0262446 42.8922291,31.9644776 C39.2078062,39.9027106 31.2516007,44.9814739 22.5,44.9814739 L22.5,44.9814739 Z" id="Path"></path>
                <path d="M3.46764706,33.8400006 C3.22821414,33.8400006 3.0073239,33.7111472 2.89021008,33.5023109 C-2.48030772,23.9287243 -0.152690827,11.8765824 8.39651102,4.99129594 C16.9457129,-1.89399054 29.217027,-1.5994167 37.4260084,5.68815126 C37.6051088,5.84457328 37.6865159,6.08506096 37.6392541,6.31810843 C37.5919924,6.55115591 37.4233289,6.74092958 37.1974402,6.81522034 C36.9715516,6.8895111 36.7231707,6.83689592 36.5468067,6.67739496 C28.8202411,-0.17633418 17.274851,-0.451238694 9.23084152,6.02698107 C1.18683206,12.5052008 -1.00562413,23.8438401 4.04357143,32.8537815 C4.15851961,33.0585867 4.15637802,33.3089571 4.03794324,33.511766 C3.91950846,33.7145749 3.70250437,33.8394716 3.46764706,33.8400006 L3.46764706,33.8400006 Z" id="Path"></path>
                <path d="M22.5,41.0615679 C20.7412436,41.0650778 19.0536477,40.3673113 17.8109244,39.1227731 C16.8179999,38.1246989 15.4671341,37.5652082 14.0592857,37.5689496 C10.4001567,37.5641568 7.43521699,34.5987096 7.43105042,30.9395798 C7.43427812,29.5321661 6.87484286,28.1818426 5.87722689,27.1890756 C4.63395309,25.9458857 3.93548208,24.259708 3.93548208,22.5015126 C3.93548208,20.7433172 4.63395309,19.0571395 5.87722689,17.8139496 C6.87521593,16.8208133 7.43468214,15.4698705 7.43105042,14.0619328 C7.43438476,10.40177 10.4002583,7.43521979 14.0604202,7.43105042 C15.4678589,7.43440444 16.818229,6.87494984 17.8109244,5.87722689 C20.4015545,3.29261116 24.5954203,3.29261116 27.1860504,5.87722689 C28.1789749,6.87530108 29.5298407,7.43479183 30.9376891,7.43105042 C34.5974088,7.43500991 37.5632687,10.4007007 37.567437,14.0604202 C37.5638053,15.4683579 38.1232715,16.8193007 39.1212605,17.812437 C40.3645343,19.0556269 41.0630053,20.7418046 41.0630053,22.5 C41.0630053,24.2581954 40.3645343,25.9443731 39.1212605,27.187563 C38.1232715,28.1806993 37.5638053,29.5316421 37.567437,30.9395798 C37.5632691,34.5991519 34.5976393,37.5647817 30.9380672,37.5689496 C29.5301045,37.5651914 28.179115,38.124677 27.1860504,39.1227731 C25.9440671,40.3665673 24.2577085,41.0642724 22.5,41.0615679 L22.5,41.0615679 Z M22.5,5.26158637 C21.092901,5.25882648 19.7426784,5.81676969 18.7479832,6.81201681 C17.5072121,8.05983751 15.8186068,8.75911078 14.0589076,8.75382353 C11.1302509,8.75799188 8.75749573,11.131762 8.75457983,14.0604202 C8.75962946,15.8199981 8.06054732,17.5084708 6.81315126,18.7494958 C5.8180239,19.7444227 5.25895032,21.0939536 5.25895032,22.5011345 C5.25895032,23.9083154 5.8180239,25.2578462 6.81315126,26.2527731 C8.06054732,27.4937981 8.75962946,29.1822708 8.75457983,30.9418487 C8.75791411,33.8708012 11.1314677,36.2443548 14.0604202,36.2476891 C15.8201111,36.2424441 17.5087008,36.9417108 18.7494958,38.1894958 C20.8232447,40.2578904 24.1797805,40.2578904 26.2535294,38.1894958 C27.4938391,36.9421419 29.18167,36.2429075 30.9407143,36.2476891 C33.8698144,36.2445632 36.2435981,33.8709487 36.2469328,30.9418487 C36.2418831,29.1822708 36.9409653,27.4937981 38.1883613,26.2527731 C39.1834887,25.2578462 39.7425623,23.9083154 39.7425623,22.5011345 C39.7425623,21.0939536 39.1834887,19.7444227 38.1883613,18.7494958 C36.9409653,17.5084708 36.2418831,15.8199981 36.2469328,14.0604202 C36.243597,11.1308778 33.869123,8.75708057 30.9395798,8.75457983 C29.1798889,8.75982486 27.4912992,8.06055806 26.2505042,6.81277311 C25.2563033,5.81762047 23.9066839,5.25942943 22.5,5.26158637 L22.5,5.26158637 Z" id="Shape"></path>
                <path d="M22.5,30.2086134 C18.2426504,30.2086134 14.7913866,26.7573496 14.7913866,22.5 C14.7913866,18.2426504 18.2426504,14.7913866 22.5,14.7913866 C26.7573496,14.7913866 30.2086134,18.2426504 30.2086134,22.5 C30.2036124,26.7552764 26.7552764,30.2036124 22.5,30.2086134 L22.5,30.2086134 Z M22.5,16.114916 C18.9736155,16.114916 16.114916,18.9736155 16.114916,22.5 C16.114916,26.0263845 18.9736155,28.885084 22.5,28.885084 C26.0263845,28.885084 28.885084,26.0263845 28.885084,22.5 C28.8819566,18.9749117 26.0250883,16.1180434 22.5,16.114916 L22.5,16.114916 Z" id="Shape"></path>
                <path d="M35.1601261,23.5762185 C34.9093382,23.5762185 34.6800867,23.4344846 34.5679412,23.2101681 L33.8645798,21.8030672 C33.7010525,21.476117 33.833533,21.0785064 34.1604832,20.914979 C34.4874334,20.7514517 34.8850441,20.8839321 35.0485714,21.2108824 L35.7519328,22.6183613 C35.8543345,22.8235151 35.8433106,23.067045 35.7227921,23.2621078 C35.6022737,23.4571705 35.3894165,23.5759989 35.1601261,23.5762185 L35.1601261,23.5762185 Z" id="Path"></path>
                <path d="M12.7561765,15.6932795 C12.5029367,15.693103 12.2720021,15.5484237 12.1613644,15.3206307 C12.0507266,15.0928376 12.0797886,14.8218795 12.2362185,14.6227311 L13.6436975,12.8318067 C13.8699834,12.544433 14.2863868,12.4949116 14.5737605,12.7211975 C14.8611342,12.9474834 14.9106557,13.3638868 14.6843697,13.6512605 L13.2768908,15.4406723 C13.1515097,15.6006046 12.9593968,15.693801 12.7561765,15.6932795 L12.7561765,15.6932795 Z" id="Path"></path>
                <path d="M20.9435294,34.7744118 C20.5994966,34.7738577 20.3132704,34.5097881 20.2850592,34.1669135 C20.256848,33.8240389 20.4960626,33.5167369 20.8353782,33.459958 L23.1379412,33.0761345 C23.372045,33.0350974 23.6101761,33.1227527 23.7618038,33.3057765 C23.9134315,33.4888002 23.9552655,33.7390796 23.8714019,33.9614656 C23.7875382,34.1838516 23.5908584,34.3441854 23.3561345,34.3815126 L21.0531933,34.7653361 C21.0169435,34.771316 20.9802691,34.7743511 20.9435294,34.7744118 L20.9435294,34.7744118 Z" id="Path"></path>
                <path d="M32.9698739,32.2158403 C32.8962813,32.2155058 32.8232759,32.2027202 32.7539496,32.1780252 L30.8991176,31.5385714 C30.5759126,31.4044708 30.4129674,31.0419311 30.5272512,30.711199 C30.6415351,30.380467 30.993543,30.1958683 31.3305882,30.289916 L33.1854202,30.9297479 C33.4884692,31.0368147 33.6707712,31.3461489 33.61763,31.6631316 C33.5644888,31.9801143 33.2912714,32.2130821 32.9698739,32.2154622 L32.9698739,32.2158403 Z" id="Path"></path>
                <path d="M12.4366387,32.2158403 C12.2176551,32.2156413 12.0129499,32.1071258 11.8898774,31.9259989 C11.7668049,31.7448719 11.7413038,31.5145904 11.8217647,31.3109244 L12.4612185,29.6965966 C12.5958205,29.3568023 12.9803947,29.1904611 13.3201891,29.3250631 C13.6599834,29.4596651 13.8263247,29.8442393 13.6917227,30.1840336 L13.0522689,31.7983613 C12.9519108,32.0504583 12.7079772,32.2158776 12.4366387,32.2158403 L12.4366387,32.2158403 Z" id="Path"></path>
                <path d="M22.8781513,11.6164286 C22.6239948,11.6164286 22.3922654,11.4709571 22.2818067,11.2420588 L21.4997899,9.62281513 C21.3505959,9.29526024 21.490383,8.90851748 21.8145259,8.75204888 C22.1386688,8.59558028 22.5284356,8.72669952 22.6921008,9.04726891 L23.4737395,10.6668908 C23.5725223,10.8719251 23.5590822,11.1133231 23.4381494,11.3061245 C23.3172166,11.498926 23.1057409,11.6161081 22.8781513,11.6164286 L22.8781513,11.6164286 Z" id="Path"></path>
                <path d="M30.2736555,13.9027311 C29.9359369,13.9026176 29.6524843,13.6482211 29.6159886,13.3124803 C29.5794929,12.9767394 29.8016642,12.6673806 30.1314706,12.5947059 L31.8989496,12.2033193 C32.1312536,12.1483782 32.3751426,12.222806 32.5371883,12.398091 C32.699234,12.5733761 32.7543183,12.8223481 32.6813395,13.0496316 C32.6083608,13.2769151 32.4186312,13.4472795 32.1848319,13.4954622 L30.4173529,13.8868487 C30.3701711,13.8973361 30.3219887,13.9026615 30.2736555,13.9027311 L30.2736555,13.9027311 Z" id="Path"></path>
                <path d="M11.7790336,23.7565966 C11.7138144,23.7564724 11.6489655,23.7467897 11.5865546,23.7278571 L9.63037815,23.1330252 C9.39909394,23.0685969 9.22084724,22.8839545 9.16460891,22.6505436 C9.10837058,22.4171327 9.1829633,22.1715709 9.35952412,22.0088759 C9.53608494,21.8461808 9.78691499,21.7918763 10.014958,21.8669748 L11.9711345,22.4621849 C12.2852226,22.5572227 12.4822258,22.8680793 12.4340807,23.1926799 C12.3859355,23.5172806 12.1071853,23.7575729 11.7790336,23.7573531 L11.7790336,23.7565966 Z" id="Path"></path>
            </g>
        </g>
    </g>
</svg>