<?xml version="1.0" encoding="UTF-8"?>
<svg width="70px" height="70px" viewBox="0 0 70 70" version="1.1" xmlns="http://www.w3.org/2000/svg" xmlns:xlink="http://www.w3.org/1999/xlink">
    <!-- Generator: Sketch 61 (89581) - https://sketch.com -->
    <title>Artboard</title>
    <desc>Created with Sketch.</desc>
    <g id="Artboard" stroke="none" stroke-width="1" fill="none" fill-rule="evenodd">
        <rect id="Rectangle" x="0" y="0" width="70" height="70"></rect>
        <g id="023-fried-egg" transform="translate(14.000000, 13.000000)" fill-rule="nonzero">
            <path d="M41.5749487,25.1745234 L42.1591505,24.5764586 C42.6975369,24.0253062 43,23.2777773 43,22.4983232 C43,21.7188691 42.6975369,20.9713402 42.1591505,20.4201878 C41.3154555,19.556247 41.0817181,18.2481221 41.5720368,17.1343713 C42.2234969,15.6546984 41.579972,13.9145373 40.1346454,13.2475091 L39.3815527,12.899849 C38.3522847,12.4249025 37.6905069,11.3764539 37.6904612,10.2206678 L37.6904612,9.37480665 C37.6902602,7.75178135 36.4050864,6.43611081 34.8196823,6.43590507 C33.6261052,6.43623019 32.5568515,5.68046592 32.1341736,4.53774801 C31.8647129,3.80876094 31.3233502,3.21925512 30.629232,2.89897275 C29.9351138,2.57869038 29.1451268,2.5538803 28.4331364,2.83000287 L27.6603884,3.1281037 C26.6045159,3.53757595 25.4122228,3.275053 24.6141669,2.45737683 L24.029965,1.86080254 C23.4915881,1.30964045 22.7613866,1 22,1 C21.2386134,1 20.5084119,1.30964045 19.970035,1.86080254 C19.1263054,2.72484452 17.8483641,2.96430268 16.7603826,2.46222097 C15.3150079,1.79530192 13.6151831,2.45409746 12.9636164,3.9337212 L12.6240149,4.70468448 C12.1602238,5.75850551 11.1359861,6.43604774 10.0069361,6.43590507 L9.18068173,6.43590507 C7.59527756,6.43611081 6.31010377,7.75178135 6.3099028,9.37480665 C6.31006904,10.5965706 5.57184992,11.6910093 4.45574432,12.123669 C3.7436549,12.3995238 3.1678136,12.9537329 2.85495526,13.6643223 C2.54209692,14.3749117 2.51786193,15.1836448 2.78758408,15.9125305 L3.07877504,16.7036156 C3.47875588,17.7845436 3.22231811,19.0051294 2.42359537,19.822123 L1.84084945,20.4201878 C1.3024631,20.9713402 1,21.7188691 1,22.4983232 C1,23.2777773 1.3024631,24.0253062 1.84084945,24.5764586 C2.6854673,25.440649 2.91940222,26.7498101 2.42832722,27.8641382 C1.77686712,29.3438111 2.42039202,31.0839722 3.86571863,31.7510004 L4.61881126,32.0986605 C5.64820511,32.5734572 6.31004217,33.6219998 6.3099028,34.7778417 L6.3099028,35.6237028 C6.31010377,37.2467281 7.59527756,38.5623987 9.18068173,38.5626044 C10.3739926,38.5625891 11.4428788,39.3182985 11.8654624,40.4607615 C12.1349231,41.1897486 12.6762858,41.7792544 13.370404,42.0995368 C14.0645222,42.4198191 14.8545092,42.4446292 15.5664996,42.1685066 L16.3392476,41.8704058 C17.3951201,41.4609335 18.5874132,41.7234565 19.3854691,42.5411327 L19.969671,43.1391975 C20.5080479,43.6903596 21.2382494,44 21.999636,44 C22.7610226,44 23.4912241,43.6903596 24.029601,43.1391975 C24.873071,42.2732227 26.1521785,42.0323735 27.2414374,42.5344254 C28.686812,43.2013444 30.3866369,42.5425489 31.0382036,41.0629252 L31.377805,40.2919619 C31.8415962,39.2381409 32.8658339,38.5605986 33.9948839,38.5607413 L34.8211382,38.5607413 C36.4065424,38.5605356 37.6917162,37.244865 37.6919171,35.6218397 C37.6919022,34.400212 38.4300945,33.3059614 39.5460756,32.87335 C40.258165,32.5974951 40.8340063,32.0432861 41.1468647,31.3326967 C41.459723,30.6221073 41.483958,29.8133742 41.2142359,29.0844885 L40.9230449,28.2934034 C40.5220763,27.2130156 40.7772223,25.9923297 41.5749487,25.1745234 L41.5749487,25.1745234 Z" id="Path" fill="#F2E7CB"></path>
            <circle id="Oval" fill="#FFDE3E" cx="22" cy="22" r="9"></circle>
            <g id="Group" fill="#422002">
                <path d="M21.5,12.1787563 C16.1991524,12.1787563 11.9019664,16.5758769 11.9019664,22 C11.9019664,27.4241231 16.1991524,31.8212437 21.5,31.8212437 C26.8008476,31.8212437 31.0980336,27.4241231 31.0980336,22 C31.0918609,16.5784953 26.7982887,12.1850726 21.5,12.1787563 Z M21.5,30.5271261 C16.8976302,30.5271261 13.1666723,26.7094017 13.1666723,22 C13.1666723,17.2905983 16.8976302,13.4728739 21.5,13.4728739 C26.1023698,13.4728739 29.8333277,17.2905983 29.8333277,22 C29.8279515,26.7071211 26.1001411,30.5216248 21.5,30.5271261 L21.5,30.5271261 Z" id="Shape"></path>
                <path d="M26.6921597,21.3529412 C26.3430034,21.3531452 26.0600061,21.6427238 26.0598067,22 C26.0628695,23.2383731 25.5814066,24.4264818 24.7228319,25.2992605 C24.5629466,25.4631283 24.5006419,25.7018299 24.5593876,25.9254487 C24.6181333,26.1490676 24.7890045,26.3236306 25.0076356,26.3833815 C25.2262666,26.4431325 25.4594424,26.3789939 25.6193277,26.2151261 C26.7149988,25.0994574 27.3290041,23.581669 27.3245371,22 C27.3243133,21.6427238 27.0413159,21.3531452 26.6921597,21.3529412 L26.6921597,21.3529412 Z" id="Path"></path>
                <path d="M25.1734286,18.8941178 C25.4296919,18.894289 25.6607194,18.7361831 25.758427,18.4937683 C25.8561346,18.2513535 25.8012016,17.9725653 25.6193277,17.7878319 C25.0687959,17.2221641 24.4123851,16.7759729 23.6893866,16.4759664 C23.4778529,16.3763823 23.2299501,16.4038095 23.0441071,16.5473582 C22.8582642,16.6909069 22.7645532,16.9273488 22.8001818,17.1628053 C22.8358105,17.3982618 22.9950135,17.5946328 23.2145798,17.6739496 C23.7808358,17.9089281 24.2949305,18.2584127 24.726084,18.701479 C24.8441073,18.824195 25.0051678,18.893552 25.1734286,18.8941178 Z" id="Path"></path>
                <path d="M16.6597899,9.91922689 C16.9828858,9.78353192 17.1373043,9.40551728 17.0046933,9.07490756 C16.8720823,8.74429785 16.5026589,8.58628822 16.179563,8.72198319 C13.3109864,9.93432861 10.9125977,12.0798713 9.35521008,14.8268908 C9.23844416,15.0271739 9.23604075,15.2762575 9.34891921,15.4788608 C9.46179768,15.6814641 9.67249131,15.8062364 9.90040451,15.805453 C10.1283177,15.8046621 10.3381834,15.6784372 10.4497227,15.4750588 C11.8667634,12.9750684 14.0492997,11.022464 16.6597899,9.91922689 L16.6597899,9.91922689 Z" id="Path"></path>
                <path d="M8.6,18.2633277 C8.26015258,18.1823316 7.92046317,18.398499 7.84117647,18.7462185 C7.65225744,19.5813246 7.53676862,20.432058 7.49609244,21.2882353 C7.48794015,21.4596515 7.54667223,21.6273602 7.65936712,21.754464 C7.77206202,21.8815679 7.92948742,21.9576541 8.0970084,21.9659832 L8.12808403,21.9659832 C8.46517903,21.9656115 8.74279678,21.6948713 8.75935294,21.3503529 C8.79625213,20.5713966 8.90122002,19.7973836 9.073,19.0375798 C9.15073116,18.6902259 8.93920767,18.3439838 8.6,18.2633277 L8.6,18.2633277 Z" id="Path"></path>
                <path d="M33.3651092,28.385916 C33.2204877,28.2982624 33.0476996,28.2731713 32.8849553,28.3161913 C32.7222109,28.3592113 32.582919,28.466798 32.4978824,28.6151597 C31.6411144,30.1061604 30.5032302,31.4080065 29.1503866,32.4450084 C28.9696522,32.5837115 28.8749622,32.8105414 28.9019854,33.0400536 C28.9290086,33.2695657 29.0736396,33.4668917 29.2813972,33.5577007 C29.4891548,33.6485097 29.7284757,33.6190057 29.9092101,33.4803025 C31.3955568,32.3410118 32.6457117,30.9107094 33.5869748,29.2725714 C33.7648464,28.9650165 33.6655407,28.5681549 33.3651092,28.385916 L33.3651092,28.385916 Z" id="Path"></path>
                <path d="M41.9596891,24.5194622 C43.3172255,23.1270276 43.3172255,20.8729724 41.9596891,19.4805378 C41.3109373,18.8118219 41.1306298,17.8038253 41.5058403,16.9433277 C41.8853726,16.0818457 41.9149019,15.1013699 41.5879317,14.2176088 C41.2609615,13.3338477 40.6042776,12.6191999 39.7623529,12.2308908 L39.0147311,11.885916 C38.2196463,11.5181186 37.7085414,10.7081766 37.7081092,9.81532773 L37.7081092,8.976 C37.7057197,7.00913912 36.1479917,5.41535021 34.2258319,5.41310924 C33.305008,5.4096163 32.4810545,4.82711901 32.1520756,3.94705882 C31.4690079,2.10862681 29.4608625,1.18249882 27.6623697,1.87647059 L26.8955966,2.17226891 C26.0798102,2.48716048 25.1594327,2.2847201 24.5421597,1.65462185 L23.9622017,1.0645042 C22.6014956,-0.324806231 20.3985044,-0.324806231 19.0377983,1.0645042 C18.384231,1.72824618 17.3992057,1.91273521 16.5582521,1.52890756 C15.7163492,1.140549 14.758157,1.11033296 13.8944813,1.44490711 C13.0308057,1.77948125 12.3323999,2.45143689 11.952916,3.31294118 L11.6157815,4.07794958 C11.2563432,4.8915247 10.464809,5.41451581 9.5922521,5.41495798 L8.772,5.41495798 C6.8498405,5.41740305 5.29227407,7.01135736 5.29008403,8.97821849 C5.28667047,9.92045689 4.71741176,10.7635721 3.85735294,11.1002017 C2.05897902,11.7970689 1.15306296,13.8536489 1.83382353,15.6939496 L2.12289916,16.4789244 C2.43091925,17.3136608 2.23304585,18.255604 1.61701681,18.8870924 L1.03705882,19.4786891 C-0.320477585,20.8711237 -0.320477585,23.1251789 1.03705882,24.5176134 C1.68581061,25.1863293 1.8661181,26.1943259 1.49090756,27.0548235 C1.11101339,27.9169204 1.0816509,28.8981939 1.40928898,29.7824583 C1.73692707,30.6667227 2.39468353,31.3814254 3.23764706,31.7691092 L3.98526891,32.114084 C4.77975799,32.481605 5.29074969,33.2906445 5.29189076,34.1828235 L5.29189076,35.0221513 C5.29428026,36.9890121 6.85200833,38.5828011 8.77416807,38.585042 C9.69499196,38.588535 10.5189455,39.1710322 10.8479244,40.0510924 C11.5309921,41.8895244 13.5391375,42.8156524 15.3376303,42.1216807 L16.1044034,41.8258824 C16.9201685,41.510699 17.8407039,41.7131741 18.4578403,42.3435294 L19.0359916,42.9351261 C20.3966977,44.3244365 22.5996888,44.3244365 23.960395,42.9351261 C24.6137143,42.2708984 25.5990514,42.086351 26.4399412,42.4707227 C27.281844,42.8590813 28.2400363,42.8892973 29.103712,42.5547231 C29.9673876,42.220149 30.6657934,41.5481934 31.0452773,40.6866891 L31.3824118,39.9216807 C31.7414356,39.1085879 32.5321782,38.5856529 33.4041345,38.5846723 L34.2243866,38.5846723 C36.1465461,38.5822272 37.7041125,36.9882729 37.7063025,35.0214118 C37.7097161,34.0791734 38.2789748,33.2360581 39.1390336,32.8994286 C40.9359779,32.2007959 41.8411926,30.1456428 41.162563,28.3053109 L40.8734874,27.5207059 C40.5654673,26.6859694 40.7633407,25.7440263 41.3793697,25.1125378 L41.9596891,24.5194622 Z M40.4857647,24.1977815 C39.518179,25.1892036 39.2072233,26.6683405 39.6908067,27.9791933 L39.9798824,28.7637983 C40.4121848,29.9357933 39.8357358,31.2446886 38.6913277,31.6896134 C37.340879,32.2184929 36.4471745,33.5425545 36.441958,35.0221513 C36.4407628,36.2746531 35.4487838,37.2897014 34.2247479,37.2909244 L33.4044958,37.2909244 C32.0353175,37.2923244 30.7936459,38.1135162 30.230084,39.3903529 L29.8940336,40.1546218 C29.3907534,41.2969694 28.0778316,41.8056481 26.9613613,41.2908571 C25.641118,40.6876089 24.0942551,40.9771737 23.0682353,42.0196303 C22.2015201,42.9043945 20.7984799,42.9043945 19.9317647,42.0196303 L19.3536134,41.4280336 C18.3846781,40.4380317 16.9392107,40.119856 15.6581429,40.6145882 L14.8913697,40.9103866 C13.7460043,41.3529626 12.4667066,40.7630387 12.0320504,39.5918655 C11.515191,38.2100111 10.2212217,37.2955227 8.7752521,37.2901849 C7.55121618,37.2889619 6.55923717,36.2739136 6.55804202,35.0214118 L6.55804202,34.182084 C6.55649086,32.7811197 5.75402102,31.5106646 4.50632773,30.9338487 L3.75798319,30.5896134 C2.64155161,30.0744757 2.14445355,28.7309089 2.64757143,27.5883697 C3.23692559,26.2372745 2.95365106,24.6544177 1.93463866,23.6047059 C1.0699827,22.7178345 1.0699827,21.2821655 1.93463866,20.3952941 L2.51278992,19.8036975 C3.48031291,18.8123925 3.79126975,17.333395 3.3077479,16.0226555 L3.01867227,15.2376807 C2.81034989,14.6748484 2.82907564,14.050386 3.07072965,13.5016821 C3.31238366,12.9529782 3.75716863,12.5249849 4.30722689,12.3118655 C5.65767557,11.7829861 6.55138009,10.4589245 6.55659664,8.97932773 C6.55779179,7.72682585 7.5497708,6.71177757 8.77380672,6.71055462 L9.59405882,6.71055462 C10.963183,6.70896739 12.2047641,5.88783546 12.7684706,4.61112605 L13.1059664,3.84537815 C13.3475684,3.29672907 13.7923218,2.86879698 14.3423384,2.65576778 C14.8923549,2.44273857 15.5025558,2.4620719 16.0386387,2.70951261 C17.3591126,3.31236976 18.9059429,3.02237038 19.9317647,1.97963025 C20.7984799,1.09486602 22.2015201,1.09486602 23.0682353,1.97963025 L23.6463866,2.57122689 C24.6153675,3.56114313 26.0607822,3.8793072 27.3418571,3.38467227 L28.1086303,3.08887395 C29.253989,2.64651798 30.5331367,3.23637273 30.9679496,4.40739496 C31.484809,5.78924942 32.7787783,6.70373776 34.2247479,6.70907563 C35.4487838,6.71029858 36.4407628,7.72534686 36.441958,8.97784874 L36.441958,9.81717647 C36.4435091,11.2181408 37.245979,12.4885959 38.4936723,13.0654118 L39.2412941,13.4103866 C40.3577257,13.9255243 40.8548238,15.2690911 40.3517059,16.4116303 C39.7621678,17.7625769 40.0451516,19.3454134 41.063916,20.3952941 C41.9285719,21.2821655 41.9285719,22.7178345 41.063916,23.6047059 L40.4857647,24.1977815 Z" id="Shape"></path>
            </g>
        </g>
    </g>
</svg>