<?xml version="1.0" encoding="UTF-8"?>
<svg width="70px" height="70px" viewBox="0 0 70 70" version="1.1" xmlns="http://www.w3.org/2000/svg" xmlns:xlink="http://www.w3.org/1999/xlink">
    <!-- Generator: Sketch 61 (89581) - https://sketch.com -->
    <title>Artboard</title>
    <desc>Created with Sketch.</desc>
    <g id="Artboard" stroke="none" stroke-width="1" fill="none" fill-rule="evenodd">
        <rect id="Rectangle" x="0" y="0" width="70" height="70"></rect>
        <g id="025-hot-dog" transform="translate(11.000000, 12.000000)" fill-rule="nonzero">
            <path d="M24.2772838,-2.84776498 C26.597505,-2.87218837 28.498215,-1.01107649 28.5226384,1.30914473 C28.5229487,1.33862555 28.5229487,1.36810881 28.5226384,1.39758962 L28.0583975,45.5004664 C28.0333022,47.8845248 26.1067747,49.8110523 23.7227162,49.8361477 C21.402495,49.8605711 19.501785,47.9994592 19.4773616,45.679238 C19.4770513,45.6497572 19.4770513,45.6202739 19.4773616,45.5907931 L19.9416025,1.48791631 C19.9666978,-0.896142143 21.8932253,-2.82266963 24.2772838,-2.84776498 Z" id="Rectangle" fill="#EF3829" transform="translate(24.000000, 23.494191) rotate(45.000000) translate(-24.000000, -23.494191) "></path>
            <path d="M11.5778672,40.4117378 C10.8393123,41.088921 10.8040158,42.2195645 11.4989694,42.9390474 L12.6565482,44.0644713 C15.4290666,46.7599752 20.0643129,46.6233423 23.0118858,43.7592445 L44.6952229,22.6782223 C47.6411521,19.8141245 47.7816888,15.307635 45.0091705,12.610533 L43.8515916,11.4851091 C43.1115521,10.8094598 41.9486045,10.8437759 41.2520732,11.5618153 L11.5778672,40.4117378 Z" id="Path" fill="#EF983B"></path>
            <path d="M6.7472405,35.4381398 C6.05070289,36.1562366 4.88774471,36.1905554 4.14769837,35.5148521 L2.99010903,34.3893383 C0.217565442,31.693619 0.360158094,27.1867694 3.30405942,24.3208445 L24.987594,3.24093455 C27.93355,0.37660789 32.5688385,0.239964046 35.3430258,2.93568339 L36.5010261,4.06119716 C37.195986,4.7807376 37.1606891,5.91147144 36.4221275,6.58870874 L6.7472405,35.4381398 Z" id="Path" fill="#EF983B"></path>
            <path d="M13,39.7494992 L18.9647026,39.9968849 C20.6933037,40.0686241 22.2093175,38.8937443 22.5086484,37.250399 L22.5235491,37.1688433 C22.7900307,35.7043146 24.0326883,34.5885968 25.5665099,34.4367267 C27.0948718,34.2851264 28.3347126,33.1764489 28.6066517,31.7182027 L28.7629075,30.881674 C29.0185354,29.5156108 30.1271572,28.4463663 31.5436968,28.1996559 L32.4111581,28.048972 C33.9233265,27.78673 35.073,26.5911005 35.230206,25.1172381 C35.3882906,23.6383212 36.5455507,22.4404955 38.0641545,22.1839507 L38.148726,22.1695814 C39.8528378,21.8809243 41.0711616,20.4189697 40.9967697,18.7520084 L40.7402364,13 L13,39.7494992 Z" id="Path" fill="#64BC0F"></path>
            <path d="M7.25976735,34 L7.0032303,28.2481571 C6.92883734,26.5812437 8.14717867,25.1193312 9.85131505,24.8306824 L9.9358877,24.8163135 C11.4545926,24.5593417 12.6115834,23.3610303 12.7690716,21.8819454 C12.9262798,20.4081255 14.0759699,19.2125303 15.58816,18.9502958 L16.4556337,18.7996163 C17.8722308,18.5531108 18.981029,17.4840519 19.2368658,16.1180637 L19.3931239,15.2815591 C19.6650668,13.8233548 20.9049254,12.7147092 22.4333093,12.5631133 C23.967153,12.4112475 25.2098285,11.2955618 25.4763139,9.83107529 L25.4912148,9.74952192 C25.79055,8.10622392 27.3065856,6.93137788 29.0352117,7.00311498 L35,7.25049355 L7.25976735,34 Z" id="Path" fill="#64BC0F"></path>
            <g id="Group" fill="#422002">
                <path d="M45.816605,12.7907143 L44.6803361,11.6781176 C44.4128828,11.4173103 44.0852805,11.2233268 43.7251765,11.1125378 C45.2948222,9.14883519 45.1211298,6.34699246 43.3204338,4.58360985 C41.5197378,2.82022723 38.6583012,2.64983382 36.6526387,4.18655462 C36.5385761,3.83434385 36.3399512,3.51403639 36.0734118,3.25247899 L34.9371429,2.13790756 C31.9462185,-0.789915966 26.938084,-0.657210084 23.7761345,2.44005042 L21.4011429,4.76516807 C21.2176086,4.9386686 21.1439634,5.19563565 21.2085127,5.43730385 C21.273062,5.67897205 21.4657605,5.86773226 21.7125445,5.93103446 C21.9593285,5.99433665 22.2217926,5.92232954 22.3990588,5.74268908 L24.7744538,3.41717647 C27.3862185,0.859428571 31.4964706,0.724352941 33.9392269,3.11542857 L35.0750924,4.22802521 C35.479444,4.66900357 35.4457996,5.34654609 34.9996639,5.74703361 L34.5446723,6.19254622 L28.881479,5.95557143 C26.7958382,5.868746 24.9670588,7.30794458 24.605042,9.3210084 L24.5909244,9.4 C24.3756609,10.5838449 23.386783,11.4856155 22.1655126,11.6117647 C20.3252932,11.8040608 18.8332623,13.1583129 18.4981513,14.9404706 L18.3416471,15.7912101 C18.1354572,16.8952604 17.2531205,17.759215 16.1255798,17.9611092 L15.2567395,18.1143529 C13.4374267,18.4430627 12.0551907,19.9036655 11.8588235,21.704916 C11.7302893,22.8991698 10.8115368,23.8667073 9.60443697,24.0790084 L9.51731092,24.0936218 C7.46423382,24.4519201 5.9968931,26.2398719 6.08147899,28.2801765 L6.3234958,33.8253866 L5.86931092,34.2705042 C5.46040298,34.7075553 4.76826475,34.7405073 4.31798319,34.3443613 L3.18171429,33.2321597 C0.740168067,30.841084 0.878521008,26.8156723 3.48988235,24.2583193 L20.2084034,7.88691597 C20.4840816,7.61698099 20.4840816,7.17932993 20.2084034,6.90939496 C19.9327251,6.63945999 19.4857623,6.63945999 19.210084,6.90939496 L2.49196639,23.2807983 C-0.670386555,26.376479 -0.806722689,31.2806723 2.18339496,34.2092857 L3.31966387,35.3218824 C3.58900697,35.5812706 3.91834284,35.7731295 4.27966387,35.8811429 C2.70334655,37.8434657 2.87249347,40.6495037 4.67362057,42.4166301 C6.47474768,44.1837565 9.34014537,44.3549787 11.3473613,42.8154202 C11.4614239,43.1676309 11.6600488,43.4879384 11.9265882,43.7494958 L13.0628571,44.8620924 C14.4703693,46.2295803 16.3774584,46.9898608 18.3602017,46.9741781 C20.5643834,46.9626533 22.6736714,46.0942908 24.2238655,44.5599496 L26.6972773,42.1380672 C26.9647317,41.8668113 26.9608172,41.4357208 26.6884793,41.1691643 C26.4161414,40.9026079 25.9758772,40.8989492 25.698958,41.1609412 L23.2255462,43.5828235 C20.6137815,46.1401765 16.5035294,46.2756471 14.0607731,43.8845714 L12.9249076,42.7739496 C12.520556,42.3329712 12.5542004,41.6554287 13.0003361,41.2549412 L13.4553277,40.8094286 L19.118521,41.0464034 C19.1786218,41.0491681 19.2395294,41.0503529 19.2976134,41.0503529 C21.3164803,41.0450767 23.0419306,39.6253484 23.394958,37.6789916 L23.4090756,37.6 C23.6242525,36.4164122 24.6127211,35.5147148 25.8336807,35.3882353 C27.6739001,35.1959392 29.165931,33.8416871 29.501042,32.0595294 L29.6575462,31.2087899 C29.863736,30.1047396 30.7460727,29.240785 31.8736134,29.0388908 L32.7424538,28.8856471 C34.5620827,28.557249 35.9447153,27.096574 36.1411765,25.295084 C36.2697107,24.1008302 37.1884632,23.1332927 38.395563,22.9209916 L38.4826891,22.9063782 C40.5357662,22.5480799 42.0031069,20.7601281 41.918521,18.7198235 L41.6765042,13.1746134 L42.1314958,12.7291008 C42.5405043,12.2922596 43.2324626,12.2593162 43.6828235,12.6552437 L44.8190924,13.7674454 C47.2606387,16.158916 47.1222857,20.1839328 44.5109244,22.7412857 L31.7848739,35.203395 C31.6014113,35.3769681 31.5278722,35.6339643 31.5925212,35.8756069 C31.6571703,36.1172495 31.8499467,36.3059335 32.0967567,36.369138 C32.3435668,36.4323426 32.6060012,36.3602316 32.7831933,36.180521 L45.5096471,23.7192017 C48.6703866,20.623521 48.8087395,15.7193277 45.816605,12.7907143 Z M7.49082353,28.2201429 C7.43502483,26.8733479 8.40307147,25.6929257 9.75811765,25.455437 L9.8452437,25.4408235 C11.6742268,25.1207305 13.0672014,23.6558439 13.2629244,21.8467059 C13.3922971,20.6565294 14.3058311,19.6914766 15.5080336,19.4749832 L16.3772773,19.3213445 C18.083982,19.0145044 19.4192804,17.706553 19.7320336,16.0352941 L19.8889412,15.1841597 C20.1096969,14.007577 21.0943281,13.1131968 22.3091092,12.9858235 C24.1573608,12.7936541 25.6535077,11.4286495 25.9796975,9.63697479 L25.9938151,9.55798319 C26.2393065,8.23255476 27.4425871,7.28544045 28.8173445,7.33555462 L33.186958,7.51960504 L7.67878992,32.4987227 L7.49082353,28.2201429 Z M5.67327731,41.444916 C4.25790732,40.0554845 4.25790732,37.8065323 5.67327731,36.4171008 L6.86561345,35.25 L6.86964706,35.2460504 L6.87166387,35.2460504 L35.9943529,6.73008403 L35.9943529,6.72810924 L35.9983866,6.72376471 L37.1903193,5.55666387 C38.6082524,4.16827113 40.9071761,4.16827117 42.3251092,5.55666395 C43.7430422,6.94505673 43.7430422,9.19608617 42.3251092,10.584479 L41.1327731,11.7515798 L41.1287395,11.7555294 L41.1287395,11.7575042 L12.0060504,40.2734706 L12.0040336,40.2734706 L12,40.2778151 L10.810084,41.444916 C9.390766,42.8318953 7.09259534,42.8318953 5.67327731,41.444916 Z M40.5091765,18.7798571 C40.5649752,20.1266521 39.5969285,21.3070743 38.2418824,21.544563 L38.1547563,21.5591765 C36.3257732,21.8792695 34.9327986,23.3441561 34.7370756,25.1532941 C34.6069923,26.3427673 33.6935827,27.3068854 32.4919664,27.523042 L31.6227227,27.6766807 C29.9154237,27.9837883 28.5799666,29.2926811 28.2679664,30.9647059 L28.1110588,31.8158403 C27.89018,32.9923568 26.9056137,33.8866781 25.6908908,34.0141765 C23.8426392,34.2063459 22.3464923,35.5713505 22.0203025,37.3630252 L22.0061849,37.4420168 C21.7603744,38.7672594 20.5572962,39.7142145 19.1826555,39.6644454 L14.813042,39.480395 L40.324437,14.5004874 L40.5091765,18.7798571 Z" id="Shape"></path>
                <path d="M29.3316303,37.6039496 L28.0485378,38.8607059 C27.8650752,39.034279 27.791536,39.2912752 27.8561851,39.5329178 C27.9208341,39.7745605 28.1136105,39.9632444 28.3604206,40.026449 C28.6072307,40.0896535 28.8696651,40.0175425 29.0468571,39.8378319 L30.3295462,38.5814706 C30.5130804,38.4079701 30.5867257,38.151003 30.5221764,37.9093348 C30.4576271,37.6676666 30.2649286,37.4789064 30.0181446,37.4156042 C29.7713606,37.352302 29.5088964,37.4243091 29.3316303,37.6039496 Z" id="Path"></path>
                <path d="M14.8719328,33.7653529 L14.9122689,33.1432941 C14.9759349,32.1961512 15.7463858,31.4417514 16.7136807,31.3794118 C18.3888463,31.271085 19.7230491,29.9646782 19.8336807,28.3244118 C19.897174,27.3771922 20.6677193,26.6227 21.6350924,26.5605294 C23.3102581,26.4522027 24.6444609,25.1457958 24.7550924,23.5055294 C24.8185858,22.5583099 25.589131,21.8038176 26.5565042,21.7416471 C28.2316699,21.6333203 29.5658726,20.3269134 29.6765042,18.6866471 C29.7401702,17.7395041 30.5106211,16.9851043 31.477916,16.9227647 C33.1532247,16.8144155 34.4874781,15.5077902 34.597916,13.8673697 L34.6382521,13.2208235 C34.6872555,12.4973533 35.1533914,11.8646141 35.8390588,11.5908319 L37.8074622,10.8107899 C38.0463523,10.7217062 38.2173878,10.5131193 38.254599,10.265483 C38.2918102,10.0178467 38.1893816,9.76986199 37.9868207,9.61717857 C37.7842599,9.46449515 37.5132233,9.43097466 37.2782521,9.52954622 L35.3122689,10.3084034 C34.1248294,10.7828371 33.3174777,11.8785753 33.2321345,13.131563 L33.1897815,13.7785042 C33.1260944,14.7255696 32.3555998,15.4798434 31.3883697,15.5419916 C29.713061,15.6503408 28.3788077,16.9569661 28.2683697,18.5973866 C28.2047038,19.5445295 27.4342529,20.2989293 26.466958,20.3612689 C24.7917923,20.4695957 23.4575896,21.7760025 23.346958,23.4162689 C23.2834646,24.3634885 22.5129194,25.1179807 21.5455462,25.1801513 C19.8703805,25.288478 18.5361778,26.5948849 18.4255462,28.2351513 C18.3618802,29.1822942 17.5914294,29.936694 16.6241345,29.9990336 C14.9489688,30.1073604 13.614766,31.4137672 13.5041345,33.0540336 L13.4637983,33.6764874 C13.4140212,34.4090077 12.936797,35.0475392 12.2387899,35.315563 L10.1308235,36.1189076 C9.89300217,36.2064423 9.72157102,36.4123676 9.68195051,36.6580996 C9.64233,36.9038315 9.74063351,37.1514542 9.93934709,37.3064714 C10.1380607,37.4614885 10.4065232,37.4999814 10.6422857,37.4072605 L12.7494454,36.6051008 C13.9598309,36.1420745 14.7872409,35.0350546 14.8719328,33.7653529 L14.8719328,33.7653529 Z" id="Path"></path>
            </g>
        </g>
    </g>
</svg>