<?xml version="1.0" encoding="UTF-8"?>
<svg width="70px" height="70px" viewBox="0 0 70 70" version="1.1" xmlns="http://www.w3.org/2000/svg" xmlns:xlink="http://www.w3.org/1999/xlink">
    <!-- Generator: Sketch 61 (89581) - https://sketch.com -->
    <title>Artboard</title>
    <desc>Created with Sketch.</desc>
    <g id="Artboard" stroke="none" stroke-width="1" fill="none" fill-rule="evenodd">
        <rect id="Rectangle" x="0" y="0" width="70" height="70"></rect>
        <g id="026-ice-cream" transform="translate(17.000000, 12.000000)" fill-rule="nonzero">
            <polygon id="Path" fill="#EF983B" points="31 29 29.4040676 46 7.59593238 46 6 29"></polygon>
            <polygon id="Path" fill="#EF983B" points="4 20 32 20 32 29 4 29"></polygon>
            <path d="M32.4772675,13.8873878 L30.6259014,13.8873878 C31.8303195,13.0362313 32.3359675,11.5230971 31.877811,10.1410917 C31.4196546,8.75908641 30.102194,7.82343026 28.615974,7.82454576 L25.6943186,7.82454576 C25.5776528,4.02279951 22.3910697,1 18.5,1 C14.6089303,1 11.4223472,4.02279951 11.3056814,7.82454576 L8.38402598,7.82454576 C6.89780595,7.82343026 5.58034544,8.75908641 5.12218895,10.1410917 C4.66403247,11.5230971 5.1696805,13.0362313 6.37409856,13.8873878 L4.52273253,13.8873878 C2.57718107,13.8873878 1,15.4290562 1,17.3308006 C1,19.232545 2.57718107,20.7742134 4.52273253,20.7742134 L15.8153777,20.7742134 L15.8153777,23.4335766 C15.8152704,23.9401323 16.021059,24.4259766 16.387461,24.7842027 C16.753863,25.1424287 17.2508562,25.3436842 17.7690805,25.3436842 L18.2168547,25.3436842 C18.7350418,25.3435793 19.2320361,25.5447469 19.5984497,25.9029101 C19.9648633,26.2610734 20.1706648,26.7468771 20.1705575,27.2533964 L20.1705575,30.0902878 C20.1707808,31.1449023 21.0453526,32 22.1242604,32 L22.3386418,32 C23.4176421,32 24.2923447,31.1449927 24.2923447,30.0902878 L24.2923447,28.2932604 C24.2923447,27.7867048 24.4982361,27.3009021 24.864714,26.9427502 C25.2311918,26.5845983 25.7282277,26.3834433 26.246452,26.3835482 C27.3255177,26.3833299 28.2001549,25.5282095 28.2001549,24.4734406 L28.2001549,20.7753995 L32.4772675,20.7753995 C34.4228189,20.7753995 36,19.2337311 36,17.3319868 C36,15.4302424 34.4228189,13.888574 32.4772675,13.888574 L32.4772675,13.8873878 Z" id="Path" fill="#8C3F07"></path>
            <g id="Group" fill="#422002">
                <path d="M29.8056133,35.8791681 C29.4231986,35.8445759 29.0843685,36.1229541 29.0470276,36.5024118 L28.879558,38.2714286 C28.8621799,38.4539175 28.9185658,38.635782 29.0362993,38.7769749 C29.1540327,38.9181678 29.3234593,39.0071108 29.5072707,39.0242185 C29.5292083,39.0264533 29.5512515,39.0275081 29.5733039,39.0273888 C29.9321435,39.0269102 30.2318304,38.755692 30.2654586,38.4009748 L30.433326,36.6339328 C30.4511549,36.451144 30.3949857,36.2688251 30.2772165,36.127219 C30.1594474,35.9856128 29.9897615,35.8963625 29.8056133,35.8791681 L29.8056133,35.8791681 Z" id="Path"></path>
                <path d="M10.2156464,36.3361345 C10.5983192,36.3002993 10.8793213,35.9633051 10.8433591,35.5833445 L10.6742983,33.8032689 C10.6317753,33.4288807 10.2950941,33.1572754 9.91730182,33.1925893 C9.53950949,33.2279032 9.25979866,33.5571254 9.28839779,33.9328151 L9.45706077,35.7128908 C9.49223575,36.0665074 9.79172816,36.3360275 10.1496133,36.3361345 L10.2156464,36.3361345 Z" id="Path"></path>
                <path d="M10.8755801,43.982521 C10.8974586,43.982521 10.919337,43.982521 10.9416133,43.9797563 C11.1254583,43.9625501 11.2948852,43.8735234 11.4126093,43.7322677 C11.5303333,43.591012 11.5867076,43.4091027 11.569326,43.2265714 L11.1027182,38.3156639 C11.0833106,38.0666888 10.9301497,37.8474686 10.7020714,37.7422152 C10.4739931,37.6369619 10.2064688,37.6620448 10.0022664,37.8078285 C9.7980639,37.9536122 9.68894143,38.197424 9.71681768,38.445605 L10.1834254,43.3565126 C10.2170667,43.7111622 10.5168069,43.9822574 10.8755801,43.982521 L10.8755801,43.982521 Z" id="Path"></path>
                <path d="M35.9065193,17.0274286 C35.9038888,14.7470973 34.0427157,12.8991748 31.7460331,12.896563 L31.4675801,12.896563 C32.196907,11.6480449 32.198637,10.1077305 31.4721165,8.85760039 C30.745596,7.60747027 29.4016,6.83813617 27.9479337,6.84027731 L25.7203094,6.84027731 C25.2594494,2.95264202 21.9409492,0.0228338403 17.9984088,0.0228338403 C14.0558684,0.0228338403 10.7373683,2.95264202 10.2765083,6.84027731 L8.04888398,6.84027731 C6.59521765,6.83813617 5.25122172,7.60747027 4.52470118,8.85760039 C3.79818064,10.1077305 3.79991066,11.6480449 4.52923757,12.896563 L4.25078453,12.896563 C2.12759506,12.8975918 0.346005622,14.4862351 0.117648492,16.5820803 C-0.110708637,18.6779256 1.28747944,20.6081124 3.36132597,21.0599496 L3.36132597,23.2527563 C3.36132597,23.6344825 3.67299515,23.9439328 4.05745856,23.9439328 C4.44192198,23.9439328 4.75359116,23.6344825 4.75359116,23.2527563 L4.75359116,21.159479 L14.6637348,21.159479 L14.6637348,23.1247899 C14.6652695,24.5594489 15.8362471,25.7220896 17.2811934,25.7236134 L17.721547,25.7236134 C18.3979942,25.7244842 18.9460829,26.2688474 18.9467403,26.940479 L18.9467403,28.9267227 L4.75359116,28.9267227 L4.75359116,26.2848487 C4.75359116,25.9031225 4.44192198,25.5936723 4.05745856,25.5936723 C3.67299515,25.5936723 3.36132597,25.9031225 3.36132597,26.2848487 L3.36132597,29.6167143 C3.36132597,29.9984405 3.67299515,30.3078908 4.05745856,30.3078908 L4.96720442,30.3078908 L6.49074033,46.351084 C6.52441157,46.7062531 6.82479135,46.9774875 7.1840884,46.9774875 L28.817105,46.9774875 C29.1762633,46.9774875 29.4765896,46.7064917 29.510453,46.351479 L29.9583646,41.6360756 C29.9817428,41.3902003 29.8712317,41.1506189 29.6684597,41.0075793 C29.4656877,40.8645397 29.2014607,40.839773 28.9753105,40.9426087 C28.7491603,41.0454444 28.5954445,41.2602592 28.5720663,41.5061345 L28.1834254,45.5951345 L7.81657459,45.5951345 L6.36464088,30.3078908 L19.0032265,30.3078908 C19.2601124,31.5092692 20.3276365,32.3690273 21.5645967,32.3707563 L21.7750276,32.3707563 C23.0118924,32.3689917 24.0792826,31.509208 24.336,30.3078908 L29.6353591,30.3078908 L29.3700331,33.1014286 C29.3526551,33.2839175 29.4090409,33.465782 29.5267744,33.6069749 C29.6445079,33.7481678 29.8139344,33.8371108 29.9977459,33.8542185 C30.0196842,33.8564434 30.0417269,33.8574982 30.063779,33.8573782 C30.4225522,33.8571146 30.7222924,33.5860193 30.7559337,33.2313697 L31.0343867,30.3086807 L31.9441326,30.3086807 C32.328596,30.3086807 32.6402652,29.9992304 32.6402652,29.6175042 L32.6402652,21.0599496 C34.5459815,20.641399 35.9035734,18.9653146 35.9065193,17.0274286 Z M30.4003094,28.9255378 L24.3924862,28.9255378 L24.3924862,27.9776387 C24.3931436,27.3060071 24.9412323,26.7616439 25.6176796,26.7607731 C27.0626258,26.7592493 28.2336034,25.5966085 28.2351381,24.1619496 L28.2351381,21.1602689 L31.2464088,21.1602689 L31.2464088,28.9255378 L30.4003094,28.9255378 Z M31.7460331,19.7759412 L27.5390055,19.7759412 C27.154633,19.7761591 26.8430924,20.0854817 26.8428729,20.4671176 L26.8428729,24.1611597 C26.8422151,24.8327271 26.2940625,25.3769771 25.6176796,25.3776303 C24.1727597,25.3795888 23.001974,26.5422157 23.000221,27.9768487 L23.000221,29.7715378 C22.9995635,30.4431694 22.4514749,30.9875326 21.7750276,30.9884034 L21.5645967,30.9884034 C20.8879941,30.9877502 20.3396634,30.4433234 20.3390055,29.7715378 L20.3390055,26.9392941 C20.3372525,25.5046611 19.1664668,24.3420342 17.721547,24.3400756 L17.2811934,24.3400756 C16.6048104,24.3394225 16.0566579,23.7951725 16.056,23.123605 L16.056,20.4671176 C16.056,20.0853914 15.7443308,19.7759412 15.3598674,19.7759412 L4.25396685,19.7759412 C2.72512061,19.7759412 1.48574586,18.5453902 1.48574586,17.0274286 C1.48574586,15.509467 2.72512061,14.278916 4.25396685,14.278916 L6.07504972,14.278916 C6.3767099,14.2790322 6.64411959,14.0862272 6.73736265,13.801382 C6.83060572,13.5165367 6.72846191,13.2044761 6.48437569,13.028479 C5.54400202,12.3542415 5.14887576,11.1548035 5.50619671,10.0591369 C5.86351766,8.96347024 6.8917372,8.22163056 8.05166851,8.22263025 L10.9249061,8.22263025 C11.3015798,8.22256922 11.6098788,7.92504098 11.6206409,7.55120168 C11.7225822,4.12591212 14.5486434,1.40166047 18,1.40166047 C21.4513566,1.40166047 24.2774178,4.12591212 24.3793591,7.55120168 C24.3901212,7.92504098 24.6984202,8.22256922 25.0750939,8.22263025 L27.9483315,8.22263025 C29.1082628,8.22163056 30.1364823,8.96347024 30.4938033,10.0591369 C30.8511242,11.1548035 30.455998,12.3542415 29.5156243,13.028479 C29.2715381,13.2044761 29.1693943,13.5165367 29.2626373,13.801382 C29.3558804,14.0862272 29.6232901,14.2790322 29.9249503,14.278916 L31.7460331,14.278916 C33.2748794,14.278916 34.5142541,15.509467 34.5142541,17.0274286 C34.5142541,18.5453902 33.2748794,19.7759412 31.7460331,19.7759412 L31.7460331,19.7759412 Z" id="Shape"></path>
                <path d="M20.9778564,7.67877311 C21.2509507,7.94076512 21.6851339,7.93710641 21.9537102,7.67054994 C22.2222866,7.40399347 22.226147,6.97290295 21.9623867,6.70164706 L20.7479337,5.49584034 C20.5731159,5.31619987 20.314277,5.24419276 20.0709016,5.30749495 C19.8275263,5.37079715 19.6374893,5.55955736 19.5738316,5.80122557 C19.5101738,6.04289377 19.5828019,6.29986081 19.7638011,6.47336134 L20.9778564,7.67877311 Z" id="Path"></path>
                <path d="M14.6669171,9.61130252 C14.3202359,9.44605159 13.9042684,9.59102802 13.7376796,9.93516807 L13.1771934,11.0947647 C13.0603265,11.3187065 13.0755961,11.5880738 13.2170338,11.7975808 C13.3584716,12.0070879 13.6036187,12.1234672 13.8566562,12.1012305 C14.1096937,12.0789938 14.330442,11.921672 14.4326188,11.6907563 L14.993105,10.5315546 C15.1581716,10.1879581 15.0123361,9.77652221 14.6669171,9.61130252 L14.6669171,9.61130252 Z" id="Path"></path>
                <path d="M23.3864751,11.1662521 C23.082628,10.9324583 22.645433,10.987448 22.4099006,11.289084 L21.5403315,12.4016807 C21.3836887,12.5965063 21.3448486,12.8599876 21.4386868,13.0912129 C21.532525,13.3224383 21.7444996,13.4855757 21.9934259,13.5181446 C22.2423521,13.5507134 22.4896549,13.4476667 22.6406188,13.2484706 L23.5093923,12.135479 C23.7447711,11.8340675 23.6897632,11.4003192 23.3864751,11.1662521 L23.3864751,11.1662521 Z" id="Path"></path>
                <path d="M8.93396685,15.2623613 L7.62643094,16.0040924 C7.292497,16.1934286 7.17637797,16.6156956 7.36707182,16.9472521 C7.55776568,17.2788086 7.98306054,17.3941009 8.31699448,17.2047647 L9.62453039,16.4626387 C9.84261963,16.3412299 9.97838042,16.1130202 9.9802139,15.8647766 C9.98201054,15.6165329 9.84960103,15.3863903 9.63331006,15.2618506 C9.41701909,15.1373109 9.15007306,15.1375059 8.93396685,15.2623613 L8.93396685,15.2623613 Z" id="Path"></path>
                <path d="M20.7196906,18.6503109 C20.5409803,18.4779484 20.2831201,18.4135548 20.0435454,18.4814621 C19.8039707,18.5493693 19.6192137,18.7392224 19.5590869,18.9792831 C19.4989601,19.2193438 19.5726322,19.4730058 19.7522652,19.6444202 L21.1071381,20.943042 C21.3837321,21.2081781 21.8244323,21.2004861 22.0914696,20.9258613 C22.3585069,20.6512366 22.3507597,20.2136739 22.0741657,19.9485378 L20.7196906,18.6503109 Z" id="Path"></path>
                <path d="M29.5613702,16.7817647 L28.5016575,16.0396387 C28.1874959,15.8194372 27.7530291,15.8937937 27.5312487,16.2057185 C27.3094682,16.5176434 27.3843578,16.949017 27.6985193,17.1692185 L28.7566409,17.9109496 C29.0706926,18.1311511 29.5050704,18.056883 29.7268508,17.7450672 C29.9486313,17.4332514 29.8738307,17.0019662 29.559779,16.7817647 L29.5613702,16.7817647 Z" id="Path"></path>
            </g>
        </g>
    </g>
</svg>