<?xml version="1.0" encoding="UTF-8"?>
<svg width="70px" height="70px" viewBox="0 0 70 70" version="1.1" xmlns="http://www.w3.org/2000/svg" xmlns:xlink="http://www.w3.org/1999/xlink">
    <!-- Generator: Sketch 61 (89581) - https://sketch.com -->
    <title>Artboard</title>
    <desc>Created with Sketch.</desc>
    <g id="Artboard" stroke="none" stroke-width="1" fill="none" fill-rule="evenodd">
        <rect id="Rectangle" x="0" y="0" width="70" height="70"></rect>
        <g id="028-meat" transform="translate(13.000000, 18.000000)" fill-rule="nonzero">
            <path d="M1.32217156,16.193289 C1.32217156,16.193289 -2.08076553,4.60233682 13.2324514,5.68051154 C28.5456683,6.75868626 27.1328622,-0.418177264 38.4982297,1.25379702 C53.0423157,3.39292934 40.9509069,23.2117549 24.1783623,25.5662926 C7.47445608,27.9108827 2.48864226,20.1712104 1.32217156,16.193289 Z" id="Path" fill="#F2E7CB"></path>
            <path d="M22.7384584,11.020443 C18.3459241,8.65583414 23.6624349,7.75815516 23.6624349,7.75815516 C30.466058,6.86304203 31.4775338,3.66599995 35.7320885,4.02851711 C43.2443056,4.66887855 39.1834456,12.4408211 36.0615193,13.6123123 C36.0615193,13.6123123 33.1695588,14.6239881 28.732527,13.3788205 C26.6601254,12.7881843 24.6523446,11.9982191 22.7384584,11.020443 L22.7384584,11.020443 Z" id="Path" fill="#EF3829"></path>
            <path d="M11.2483685,9.00498092 C11.2483685,9.00498092 3.88472285,8.65118716 5.14513193,13.9070866 C6.40554101,19.1629861 14.9759367,22.697668 26.5701561,20.1592519 C38.1643755,17.6208359 23.7381925,16.0327432 20.2071169,14.3791734 C16.6760413,12.7256035 18.493115,9.60548978 11.2483685,9.00498092 L11.2483685,9.00498092 Z" id="Path" fill="#EF3829"></path>
            <path d="M45,7.0003789 C45,13.6425599 35.6920671,23.3921298 24.1792726,24.9926188 C7.47502424,27.3145404 2.4891083,19.6500773 1.3226137,15.7094794 C1.10265201,14.8656849 0.994456977,13.9969749 1.00076949,13.1253564 L1.00076949,20.6500041 C0.989708328,21.5394866 1.09794158,22.4264699 1.3226137,23.2875524 C2.4891083,27.2281504 7.47502424,34.8918557 24.1792726,32.5706919 C35.6726192,30.9728552 44.9679681,21.2539765 45,14.6106588 L45,7 L45,7.0003789 Z" id="Path" fill="#EF983B"></path>
            <g id="Group" fill="#422002">
                <path d="M36.2121429,15.0249438 C38.4772689,14.1489663 40.9855462,10.4120225 40.5756303,7.46089888 C40.4031933,6.2185618 39.5402521,4.08420225 35.7001261,3.7468764 C33.3722269,3.54249438 31.9186134,4.33519101 30.2354622,5.25319101 C28.1171531,6.51703746 25.7651834,7.32946467 23.3243697,7.64044944 C22.6281933,7.76155056 20.3369748,8.26658427 20.1013866,9.68541573 C19.8820588,11.0072135 21.6139916,11.968382 22.1834874,12.2831685 C24.1616524,13.3279944 26.238179,14.1705891 28.3821429,14.7984045 C29.8617774,15.2372804 31.3949131,15.4648794 32.9369748,15.4745843 C34.0454192,15.5015978 35.1510332,15.3498105 36.2121429,15.0249438 Z M28.7478151,13.514427 C26.6992348,12.9101673 24.7138713,12.1055122 22.819916,11.1118876 C21.4063748,10.3272135 21.4060084,9.91004494 21.4063748,9.90622472 C21.4502521,9.64110112 22.4478151,9.15173034 23.5240336,8.96186517 C26.1146064,8.62634373 28.6112032,7.76479046 30.8635714,6.42905618 C32.4809244,5.54658427 33.6478992,4.90746067 35.5847899,5.07860674 C37.8158824,5.27458427 39.055084,6.13833708 39.2645798,7.6465618 C39.5761765,9.8905618 37.4755462,13.1045169 35.7542017,13.77 C35.7277311,13.7799326 32.9471849,14.7292584 28.7478151,13.514427 L28.7478151,13.514427 Z" id="Shape"></path>
                <path d="M44.9803361,7.08422472 C44.9803361,4.92159551 44.0606723,1.19305618 37.967521,0.290337079 C36.7899495,0.106507879 35.5994699,0.0202654406 34.4079832,0.0324719101 C34.0425006,0.0354257082 33.7485888,0.33713548 33.7515126,0.70635955 C33.7544365,1.07558362 34.0530889,1.37250435 34.4185714,1.36955056 L34.4302941,1.36955056 C35.5500104,1.36021296 36.6686571,1.4418468 37.7754202,1.61366292 C41.632563,2.18669663 43.6670168,4.08458427 43.6571849,7.10752809 C43.6356303,13.6916854 34.3667647,23.0413034 23.5773529,24.5659551 C6.33063025,27.0021124 2.42621849,18.3806292 1.64004202,15.6808764 C1.62831933,15.6426742 0.512773109,11.645191 2.74726891,8.84764045 C4.51247899,6.63764045 7.88218487,5.69366292 12.7682773,6.03901124 C20.8607143,6.61395506 24.3741176,4.88339326 27.4742017,3.35721348 C28.6330034,2.74221965 29.8452829,2.23607759 31.0957563,1.84516854 C31.4475594,1.74505607 31.6524173,1.37578657 31.5533193,1.02038202 C31.4542213,0.664977478 31.0886938,0.458022361 30.7368908,0.558134831 C29.4098303,0.969008508 28.1234884,1.50372492 26.8944958,2.15537079 C23.944916,3.60705618 20.5994118,5.25319101 12.8605462,4.70537079 C7.51651261,4.32564045 3.75957983,5.44038202 1.70810924,8.01750562 C0.512107946,9.60692335 -0.0850619152,11.5743985 0.0234453782,13.5679101 L0.0234453782,20.2151011 C0.0234453782,20.4523371 0.0234453782,20.6655056 0.0419747899,20.8469663 L0.0238235294,20.8469663 C0.0118381266,21.8093287 0.128220584,22.7689372 0.369831933,23.6999101 C0.647762135,24.6415567 1.03958499,25.5449821 1.53642857,26.3897303 C1.65660041,26.5955474 1.8763332,26.720963 2.11285573,26.7187343 C2.34937826,26.7165056 2.56675713,26.5869711 2.68310783,26.3789253 C2.79945853,26.1708795 2.79710461,25.9159295 2.67693277,25.7101124 C2.23686325,24.9594562 1.88868295,24.1575758 1.64004202,23.3220899 C1.43682261,22.5164461 1.33843056,21.6874764 1.34735294,20.8561348 L1.34735294,20.8450562 C1.34735294,20.7854607 1.34735294,19.8307865 1.34735294,18.4088989 C3.12655462,21.6988764 7.47718487,26.332809 17.8517647,26.332427 C19.829694,26.3230101 21.8045973,26.1750674 23.7622689,25.8896629 C32.8961345,24.598809 40.659958,18.2629663 43.6571849,12.1452584 L43.6571849,14.7582921 C43.625042,21.3393933 34.3546639,30.6832809 23.5773529,32.2060225 C16.9759664,33.1381573 11.6330672,32.5448764 7.695,30.4418427 C7.37191342,30.2691513 6.97142463,30.393752 6.80048322,30.7201461 C6.62954181,31.0465402 6.75287983,31.4511288 7.07596639,31.6238202 C10.0009664,33.1862921 13.6179832,33.9702022 17.8797479,33.9702022 C19.847418,33.9609557 21.8120864,33.8139065 23.7596218,33.5301124 C35.4702101,31.875191 44.9428992,21.9112809 44.9780672,14.7617303 L44.9780672,7.08307865 L44.9803361,7.08422472 Z" id="Path"></path>
                <path d="M4.33210084,27.9082697 C4.07887364,27.6420064 3.65993069,27.63354 3.39636556,27.8893596 C3.13280043,28.1451791 3.12441987,28.5684109 3.37764706,28.8346742 C3.69151261,29.1643596 4.02882353,29.4841124 4.3805042,29.7870562 C4.65949994,30.0190354 5.07111219,29.9820409 5.30518856,29.7039483 C5.53926493,29.4258556 5.50925574,29.0094894 5.23777311,28.7685843 C4.9197479,28.4950562 4.61344538,28.2058652 4.33210084,27.9082697 L4.33210084,27.9082697 Z" id="Path"></path>
                <path d="M20.0552521,14.1313933 C18.9328992,13.5644719 18.457563,12.8374831 17.9069748,11.9958876 C16.9321008,10.506 15.8271429,8.81555056 11.0420168,8.38768539 L11.017437,8.38577528 C10.8510504,8.37737079 6.93340336,8.2008764 5.10844538,10.3879551 C4.25155462,11.4152135 3.99932773,12.7564944 4.35970588,14.3770337 C4.83806723,16.5266742 6.2712605,18.410809 8.50462185,19.8269663 C11.184958,21.5235281 14.7263445,22.3914831 18.7184874,22.3914831 C21.2195281,22.3759647 23.7106002,22.0714227 26.1431092,21.4837978 C29.6160504,20.6635955 30.9762605,19.9197978 30.9938264,18.8295056 C31.0171008,17.3820225 28.6279412,16.6630562 24.4028571,15.5173708 C22.700042,15.0551236 20.9378571,14.5768315 20.0552521,14.1313933 L20.0552521,14.1313933 Z M25.8432353,20.1818652 C16.4518487,22.3995056 11.0802101,19.8793034 9.20760504,18.6919775 C7.27903361,17.4695056 6.05004202,15.8768539 5.65071429,14.0824944 C5.38260504,12.8772135 5.53726891,11.951191 6.11848739,11.2513258 C7.30323529,9.82867416 9.91852941,9.71597753 10.7156723,9.71597753 C10.8344118,9.71597753 10.9130672,9.71865169 10.939916,9.71941573 C15.0765126,10.0922697 15.8766807,11.3158876 16.8012605,12.7320449 C17.3737815,13.6072584 18.0226891,14.5989888 19.4619328,15.3263596 C20.4640336,15.8321573 22.2103361,16.3058652 24.0598739,16.8074607 C25.8485294,17.2926292 29.122563,18.1804494 29.6357143,18.8039101 C29.4689496,18.9811685 28.7561345,19.4942247 25.8432353,20.1818652 L25.8432353,20.1818652 Z" id="Shape"></path>
                <path d="M18.2352101,30.9934831 C19.9817642,30.9902991 21.723102,30.8007836 23.4302521,30.4280899 C23.7827854,30.346331 24.0050291,29.9937751 23.9292699,29.6364737 C23.8535107,29.2791723 23.5078194,29.0495148 23.1530672,29.120809 C17.7160084,30.2974382 13.8252101,29.1460225 13.7862605,29.1345618 C13.4365459,29.0272758 13.0669551,29.2267053 12.9607563,29.58 C12.8545575,29.9332947 13.0519661,30.3066691 13.4016807,30.4139551 C14.9792922,30.8281865 16.6054484,31.0231586 18.2352101,30.9934831 L18.2352101,30.9934831 Z" id="Path"></path>
                <path d="M26.2610924,29.5777079 C26.318808,29.5775569 26.376261,29.5698523 26.4320168,29.5547865 C27.3803545,29.3027563 28.3122758,28.9914449 29.222395,28.6226517 C29.4420778,28.5270375 29.5935858,28.3190995 29.6186712,28.0787798 C29.6437567,27.8384601 29.5385145,27.60317 29.3434053,27.4633673 C29.1482961,27.3235646 28.8936931,27.3010128 28.677479,27.404382 C27.832878,27.7420003 26.9691722,28.0286399 26.0909244,28.2627865 C25.7704215,28.349797 25.5631874,28.6630618 25.6062098,28.9955041 C25.6492322,29.3279464 25.9292196,29.5768608 26.2610924,29.5777079 L26.2610924,29.5777079 Z" id="Path"></path>
            </g>
        </g>
    </g>
</svg>