<?xml version="1.0" encoding="UTF-8"?>
<svg width="70px" height="70px" viewBox="0 0 70 70" version="1.1" xmlns="http://www.w3.org/2000/svg" xmlns:xlink="http://www.w3.org/1999/xlink">
    <!-- Generator: Sketch 61 (89581) - https://sketch.com -->
    <title>Artboard</title>
    <desc>Created with Sketch.</desc>
    <g id="Artboard" stroke="none" stroke-width="1" fill="none" fill-rule="evenodd">
        <rect id="Rectangle" x="0" y="0" width="70" height="70"></rect>
        <g id="033-noodles" transform="translate(13.000000, 13.000000)" fill-rule="nonzero">
            <polygon id="Path" fill="#EF3829" points="12 39 32 39 32 43 12 43"></polygon>
            <g id="Group" transform="translate(5.000000, 3.000000)" fill="#F2E7CB">
                <path d="M4.48125,0.0929032258 L1.39425,0.0929032258 C0.668858499,0.0929032258 0.0808125,0.69991845 0.0808125,1.44870968 C0.0808125,2.1975009 0.668858499,2.80451613 1.39425,2.80451613 L4.48125,2.80451613 L4.48125,0.0929032258 Z" id="Path"></path>
                <polygon id="Path" points="18.133875 0.0929032258 38.978625 0.0929032258 38.978625 2.80451613 18.133875 2.80451613"></polygon>
                <path d="M4.48125,6.28645161 L1.39425,6.28645161 C0.669376287,6.28645161 0.0817500553,6.89303359 0.0817500553,7.64129032 C0.0817500553,8.38954706 0.669376287,8.99612903 1.39425,8.99612903 L4.48125,8.99612903 L4.48125,6.28645161 Z" id="Path"></path>
                <polygon id="Path" points="18.133875 6.28645161 38.978625 6.28645161 38.978625 8.99806452 18.133875 8.99806452"></polygon>
            </g>
            <path d="M9,21 L9,3.13468916 C9,2.56856865 9.23199863,2.02560116 9.64523154,1.62525857 C10.0584645,1.22491598 10.6189719,1 11.2034224,1 L20.7965776,1 C21.3810281,1 21.9415355,1.22491598 22.3547685,1.62525857 C22.7680014,2.02560116 23,2.56856865 23,3.13468916 L23,21 L9,21 Z" id="Path" fill="#FFDE3E"></path>
            <path d="M1,21 C0.998274321,28.9498127 5.36773437,36.2540309 12.3660001,40 L32.6362355,40 C39.6336361,36.2534312 44.0021662,28.9493307 44,21 L1,21 Z" id="Path" fill="#EF3829"></path>
            <g id="Group" fill="#422002">
                <path d="M33.9173445,3.97109244 L35.5812101,3.97109244 C35.9385708,3.97109244 36.2282689,3.68139433 36.2282689,3.32403361 C36.2282689,2.96667289 35.9385708,2.67697479 35.5812101,2.67697479 L33.9173445,2.67697479 C33.5599838,2.67697479 33.2702857,2.9666729 33.2702857,3.32403361 C33.2702857,3.68139433 33.5599838,3.97109244 33.9173445,3.97109244 L33.9173445,3.97109244 Z" id="Path"></path>
                <path d="M43.3318655,6.56117647 C43.6892263,6.56117647 43.9789291,6.27147837 43.9789291,5.91411765 L43.9789291,3.32403361 C43.9789291,3.15239287 43.910882,2.98775388 43.7895136,2.86638553 C43.6681453,2.74501717 43.5035063,2.67687663 43.3318655,2.67697479 L38.6268235,2.67697479 C38.2694628,2.67697479 37.9797647,2.96667289 37.9797647,3.32403361 C37.9797647,3.68139433 38.2694628,3.97109244 38.6268235,3.97109244 L42.6848067,3.97109244 L42.6848067,5.26705882 L23.4261176,5.26705882 L23.4261176,3.97109244 L30.7168067,3.97109244 C31.0741674,3.97109244 31.3638655,3.68139433 31.3638655,3.32403361 C31.3638655,2.96667289 31.0741674,2.67697479 30.7168067,2.67697479 L23.4205714,2.67697479 C23.3612972,1.19487595 22.1436854,0.0232610119 20.6604034,0.0210756303 L11.4374118,0.0210756303 C9.95412972,0.0232610119 8.73651792,1.19487595 8.6772437,2.67697479 L6.27388235,2.67697479 C5.21173931,2.69163062 4.35839443,3.55683148 4.35839443,4.61907563 C4.35839443,5.68131978 5.21173931,6.54652064 6.27388235,6.56117647 L8.67169748,6.56117647 L8.67169748,8.59294118 L6.27388235,8.59294118 C5.21173931,8.607597 4.35839443,9.47279787 4.35839443,10.535042 C4.35839443,11.5972862 5.21173931,12.462487 6.27388235,12.4771429 L8.67169748,12.4771429 L8.67169748,19.8739496 L0.668134454,19.8739496 C0.310773733,19.8739496 0.0210756303,20.1636477 0.0210756303,20.5210084 C0.0246744536,25.5638359 1.75904109,30.4526406 4.93428571,34.3702857 C5.15972928,34.6475976 5.56729312,34.6896452 5.84460504,34.4642017 C6.12191696,34.2387581 6.16396457,33.8311943 5.93852101,33.5538824 C3.09017273,30.0394243 1.46996409,25.6895205 1.32517647,21.1680672 L42.6748235,21.1680672 C42.448886,28.509409 38.3439486,35.1793868 31.8918655,38.6889412 L12.1081345,38.6889412 C10.6143245,37.873506 9.22647259,36.8774466 7.97583193,35.7231933 C7.80673827,35.5616628 7.56364574,35.5039373 7.33998398,35.5722029 C7.11632222,35.6404685 6.94689681,35.8241019 6.89682433,36.0525259 C6.84675185,36.2809499 6.92382443,36.5186178 7.09842017,36.6741849 C8.37372842,37.848055 9.78309066,38.8673481 11.2972773,39.7109244 L11.2972773,43.3344538 C11.2971791,43.5060945 11.3653197,43.6707335 11.4866881,43.7921019 C11.6080564,43.9134702 11.7726954,43.9815127 11.9443361,43.9815127 L32.0571429,43.9815127 C32.2287836,43.9815127 32.3934226,43.9134702 32.5147909,43.7921019 C32.6361593,43.6707335 32.7042998,43.5060945 32.7042017,43.3344538 L32.7042017,39.7183193 C39.6686208,35.8403171 43.9841465,28.4923325 43.9789291,20.5210084 C43.9789291,20.1636477 43.6892263,19.8739496 43.3318655,19.8739496 L23.4261176,19.8739496 L23.4261176,12.4771429 L43.3318655,12.4771429 C43.6892263,12.4771429 43.9789291,12.1874448 43.9789291,11.830084 L43.9789291,9.24184874 C43.9789291,9.07020799 43.910882,8.90556901 43.7895136,8.78420066 C43.6681453,8.6628323 43.5035063,8.59469175 43.3318655,8.59478992 L23.4261176,8.59478992 L23.4261176,6.56117647 L43.3318655,6.56117647 Z M12.591395,42.6855462 L12.591395,39.9837983 L31.408605,39.9837983 L31.408605,42.6855462 L12.591395,42.6855462 Z M16.6112941,1.31519328 L18.7281008,1.31519328 L18.7281008,19.8739496 L16.6112941,19.8739496 L16.6112941,1.31519328 Z M15.3171765,19.8739496 L13.2,19.8739496 L13.2,1.31519328 L15.316437,1.31519328 L15.3171765,19.8739496 Z M6.27388235,5.26890756 C5.92204037,5.26050233 5.6411941,4.97286674 5.6411941,4.62092437 C5.6411941,4.268982 5.92204037,3.98134641 6.27388235,3.97294118 L8.67169748,3.97294118 L8.67169748,5.26890756 L6.27388235,5.26890756 Z M6.27388235,11.1848739 C5.93121921,11.1648011 5.66361841,10.8810657 5.66361841,10.5378151 C5.66361841,10.1945646 5.93121921,9.9108292 6.27388235,9.8907563 L8.67169748,9.8907563 L8.67169748,11.1848739 L6.27388235,11.1848739 Z M9.96581513,2.78863866 C9.96663038,1.9762362 10.6250093,1.31785727 11.4374118,1.31704202 L11.9058824,1.31704202 L11.9058824,19.8739496 L9.96581513,19.8739496 L9.96581513,2.78863866 Z M20.022958,19.8757983 L20.022958,1.31519328 L20.6611429,1.31519328 C21.4735453,1.31600853 22.1319242,1.97438746 22.1327395,2.78678992 L22.1327395,19.8739496 L20.022958,19.8757983 Z M42.6855462,9.88890756 L42.6855462,11.1830252 L23.4261176,11.1830252 L23.4261176,9.88890756 L42.6855462,9.88890756 Z" id="Shape"></path>
                <path d="M37.3815126,27.9821513 C37.23017,27.9012062 37.0528576,27.8837425 36.8886314,27.9336068 C36.7244052,27.9834711 36.5867367,28.096573 36.5059496,28.248 C35.0324554,31.0100362 32.8019527,33.294666 30.0760336,34.8339496 C29.8731837,34.9468738 29.7463794,35.1598186 29.7437035,35.3919672 C29.7411113,35.6241159 29.8630512,35.8398831 30.0632866,35.9573809 C30.263522,36.0748787 30.5113593,36.0760962 30.7127395,35.9605714 C33.6522558,34.3003701 36.0574525,31.8364288 37.6462521,28.8577143 C37.8147718,28.5428131 37.6962783,28.1509239 37.3815126,27.9821513 L37.3815126,27.9821513 Z" id="Path"></path>
                <path d="M38.0736807,26.3426891 C38.2372006,26.394955 38.414788,26.3800985 38.567351,26.3013899 C38.7199139,26.2226813 38.8349462,26.0865726 38.8871261,25.9230252 C39.0888076,25.2919867 39.2547184,24.6500699 39.3840672,24.0003361 C39.4291788,23.7735896 39.3498957,23.5400004 39.1760832,23.3875594 C39.0022707,23.2351183 38.760335,23.1869849 38.5414109,23.2612904 C38.3224868,23.335596 38.1598342,23.5210517 38.1147227,23.7477983 C37.9950024,24.3501858 37.8413116,24.9453208 37.6543866,25.5303529 C37.5464547,25.8704073 37.7339666,26.2336909 38.0736807,26.3426891 L38.0736807,26.3426891 Z" id="Path"></path>
            </g>
        </g>
    </g>
</svg>