<?xml version="1.0" encoding="UTF-8"?>
<svg width="70px" height="70px" viewBox="0 0 70 70" version="1.1" xmlns="http://www.w3.org/2000/svg" xmlns:xlink="http://www.w3.org/1999/xlink">
    <!-- Generator: Sketch 61 (89581) - https://sketch.com -->
    <title>Artboard</title>
    <desc>Created with Sketch.</desc>
    <g id="Artboard" stroke="none" stroke-width="1" fill="none" fill-rule="evenodd">
        <rect id="Rectangle" x="0" y="0" width="70" height="70"></rect>
        <g id="024-pancake" transform="translate(12.000000, 15.000000)" fill-rule="nonzero">
            <rect id="Rectangle" fill="#FFDE3E" x="1" y="24" width="46" height="9" rx="4.5"></rect>
            <rect id="Rectangle" fill="#EF983B" x="1" y="14" width="46" height="9" rx="4.5"></rect>
            <rect id="Rectangle" fill="#FFDE3E" x="1" y="6" width="46" height="9" rx="4.5"></rect>
            <rect id="Rectangle" fill="#EF983B" x="1" y="31" width="46" height="9" rx="4.5"></rect>
            <path d="M23.500774,1 C14.9399345,1 8,3.45721163 8,6.49305697 L8,18.4224231 C8,18.990621 8.22025089,19.5355829 8.61257446,19.9373966 C9.00489804,20.3392103 9.53704656,20.5649532 10.0919272,20.5649531 L10.6415177,20.5649531 C11.1963983,20.5649532 11.7285469,20.3392103 12.1208704,19.9373966 C12.513194,19.5355829 12.7335475,18.990621 12.7334449,18.4224231 L12.7334449,16.8018524 C12.7334446,16.3495282 12.9090506,15.9157589 13.2215772,15.5961033 C13.5341039,15.2764477 13.9579104,15.0971313 14.3996329,15.0976573 L15.228276,15.0976573 C15.6699985,15.0971313 16.0938051,15.2764477 16.4063317,15.5961033 C16.7188583,15.9157589 16.8944644,16.3495282 16.8944641,16.8018524 L16.8944641,26.214162 C16.8943614,26.6878279 17.0780689,27.1421239 17.4051513,27.4770562 C17.7322336,27.8119886 18.175882,28 18.6384463,28 L19.4597357,28 C20.4229105,28 21.2037179,27.200453 21.2037179,26.214162 L21.2037179,12.5623697 C21.2037179,10.87565 22.5390269,9.50829344 24.1862139,9.50829344 L27.5058179,9.50829344 C29.1530049,9.50829344 30.4883138,10.87565 30.4883138,12.5623697 L30.4883138,18.7846637 C30.4883138,19.9009718 31.3720506,20.8059184 32.4621952,20.8059184 L32.9127046,20.8059184 C34.0028491,20.8059184 34.8865859,19.9009718 34.8865859,18.7846637 C34.8865859,17.6683555 35.7703226,16.763409 36.8604672,16.763409 L37.0261184,16.763409 C38.116263,16.763409 39,15.8584624 39,14.7421542 L39,6.49305697 C39.0015479,3.45919326 32.0616134,1 23.500774,1 L23.500774,1 Z" id="Path" fill="#8C3F07"></path>
            <g id="Group" fill="#422002">
                <path d="M46.9774874,18.9608325 C46.9751021,17.2087323 46.0392988,15.588779 44.5176891,14.7027177 C46.4557652,13.5752497 47.3925443,11.2972614 46.8034945,9.14426923 C46.2144447,6.99127706 44.2457861,5.49771923 41.9998319,5.49988517 L39.9148487,5.49988517 C39.696437,4.6987177 39.0408067,3.7182488 37.383958,2.7774067 C37.0525106,2.58921501 36.6302436,2.70356877 36.4407983,3.03282297 C36.251353,3.36207717 36.3664685,3.78154994 36.697916,3.96974163 C37.9420336,4.67596172 38.6268908,5.46339713 38.6268908,6.18648804 L38.6268908,14.3527464 C38.6262379,15.0786555 38.0341309,15.66702 37.3033866,15.6678852 L37.1343445,15.6678852 C35.6406627,15.6696148 34.4302285,16.8720394 34.4284874,18.3558373 C34.4278345,19.0817464 33.8357275,19.6701109 33.1049832,19.6709761 L32.6452521,19.6709761 C31.9138909,19.6709764 31.320822,19.0823588 31.3201681,18.3558373 L31.3201681,12.1960287 C31.317774,10.1480329 29.6470833,8.48839739 27.5854454,8.48601914 L24.1994706,8.48601914 C22.1377685,8.48839695 20.4669646,10.1479694 20.4643529,12.1960287 L20.4643529,25.7091579 C20.4639176,26.3060118 19.9770732,26.7898103 19.3762437,26.7904593 L18.5381429,26.7904593 C17.9372493,26.7898106 17.4502917,26.3060753 17.4496387,25.7091579 L17.4496387,16.3913684 C17.4481147,15.0800265 16.3782453,14.0174121 15.0581681,14.0161148 L14.212563,14.0161148 C12.8925499,14.0174125 11.8227937,15.08009 11.8214874,16.3913684 L11.8214874,17.9964498 C11.8206167,18.7882948 11.1746407,19.4299963 10.377521,19.4308612 L9.81668067,19.4308612 C9.01971523,19.4297802 8.3739795,18.7881418 8.37310924,17.9964498 L8.37310924,6.18688038 C8.37310924,3.9395311 14.5854034,1.43519617 23.5,1.43519617 C27.3867815,1.43519617 31.0989916,1.92837321 33.952958,2.82409569 C34.1884621,2.89803601 34.4457862,2.84155111 34.627999,2.67591833 C34.8102118,2.51028555 34.8896307,2.26066844 34.8363394,2.02109535 C34.783048,1.78152227 34.6051427,1.58839006 34.3696387,1.51444976 C31.3845462,0.577923445 27.5242269,0.0627751196 23.5,0.0627751196 C19.1996975,0.0627751196 15.1474286,0.641875598 12.0888739,1.69335885 C9.18711765,2.69069856 7.47694958,3.99720574 7.08120168,5.5010622 L5.00016807,5.5010622 C2.75421388,5.49889626 0.785555337,6.9924541 0.196505532,9.14544626 C-0.392544273,11.2984384 0.544234754,13.5764267 2.48231092,14.7038947 C0.958886666,15.5881836 0.0219788077,17.2092473 0.0219788077,18.9620096 C0.0219788077,20.7147718 0.958886666,22.3358356 2.48231092,23.2201244 C0.958904169,24.1045194 0.0219788077,25.7256346 0.0219788077,27.4784354 C0.0219788077,29.2312362 0.958904169,30.8523514 2.48231092,31.7367464 C0.544234754,32.8642144 -0.392544273,35.1422027 0.196505532,37.2951949 C0.785555337,39.4481871 2.75421388,40.9417449 5.00016807,40.9395813 L8.75226891,40.9395813 C9.13399513,40.9395813 9.44344538,40.6321764 9.44344538,40.2529761 C9.44344538,39.8737758 9.13399513,39.5663732 8.75226891,39.5663732 L5.00016807,39.5663732 C3.01453731,39.5663732 1.40486555,37.9673528 1.40486555,35.9948612 C1.40486555,34.0223697 3.01453731,32.4233493 5.00016807,32.4233493 L41.9998319,32.4233493 C43.9854627,32.4233493 45.5951345,34.0223697 45.5951345,35.9948612 C45.5951345,37.9673528 43.9854627,39.5663732 41.9998319,39.5663732 L17.2004202,39.5663732 C16.8186939,39.5663732 16.5092437,39.8737758 16.5092437,40.2529761 C16.5092437,40.6321764 16.8186939,40.9395813 17.2004202,40.9395813 L41.9998319,40.9395813 C44.2457861,40.9417449 46.2144447,39.4481871 46.8034945,37.2951949 C47.3925443,35.1422027 46.4557652,32.8642144 44.5176891,31.7367464 C46.0410958,30.8523514 46.9780212,29.2312362 46.9780212,27.4784354 C46.9780212,25.7256346 46.0410958,24.1045194 44.5176891,23.2201244 C46.039663,22.3338503 46.9755219,20.7133531 46.9774874,18.9608325 L46.9774874,18.9608325 Z M45.5951345,10.4442105 C45.5923065,12.4148873 43.9848206,14.0117362 42.0010168,14.0145455 L40.0092437,14.0145455 L40.0092437,6.87309091 L41.9998319,6.87309091 C43.9844965,6.87503702 45.5929573,8.47267898 45.5951345,10.4442105 L45.5951345,10.4442105 Z M24.1994706,9.8576555 L27.5870252,9.8576555 C28.8849546,9.86003308 29.9362937,10.9051172 29.9378151,12.1944593 L29.9378151,14.0161148 L21.8467059,14.0161148 L21.8467059,12.1944593 C21.8482298,10.9043526 22.90077,9.85895273 24.1994706,9.8576555 L24.1994706,9.8576555 Z M1.40486555,10.4442105 C1.40747651,8.47344433 3.01508933,6.87646928 4.99898319,6.8738756 L6.9907563,6.8738756 L6.9907563,14.0161148 L5.00016807,14.0161148 C3.01528563,14.0139521 1.40682462,12.415959 1.40486555,10.4442105 L1.40486555,10.4442105 Z M1.40486555,18.9608325 C1.4076935,16.9901558 3.01517938,15.3933068 4.99898319,15.3904976 L6.9907563,15.3904976 L6.9907563,17.9976268 C6.99249718,19.5473609 8.2566237,20.8032981 9.81668067,20.805244 L10.377521,20.805244 C11.9377322,20.8035142 13.202099,19.5475139 13.2038403,17.9976268 L13.2038403,16.3913684 C13.2044933,15.8382216 13.6557315,15.3899692 14.212563,15.3893206 L15.0581681,15.3893206 C15.6151538,15.389753 16.0666324,15.8380686 16.0672857,16.3913684 L16.0672857,22.5323445 L5.00016807,22.5323445 C3.01543964,22.5301822 1.40704226,20.9324278 1.40486555,18.9608325 L1.40486555,18.9608325 Z M45.5951345,27.4770622 C45.5923065,29.4477389 43.9848206,31.0445879 42.0010168,31.0473971 L5.00016807,31.0473971 C3.01442825,31.0473971 1.40466807,29.4482889 1.40466807,27.475689 C1.40466807,25.5030891 3.01442825,23.9039809 5.00016807,23.9039809 L16.0672857,23.9039809 L16.0672857,25.7087656 C16.0688094,27.063725 17.1741577,28.1617592 18.5381429,28.1632727 L19.3762437,28.1632727 C20.7401647,28.1617588 21.8453999,27.0636615 21.8467059,25.7087656 L21.8467059,23.9039809 L41.9998319,23.9039809 C43.9851765,23.9061446 45.5938285,25.5048541 45.5951345,27.4770622 L45.5951345,27.4770622 Z M42.0010168,22.5335215 L21.8467059,22.5335215 L21.8467059,15.3893206 L29.9378151,15.3893206 L29.9378151,18.3558373 C29.9393387,19.8397885 31.1498364,21.0424518 32.6436723,21.0441818 L33.1034034,21.0441818 C34.5972392,21.0424518 35.807737,19.8397885 35.8092605,18.3558373 C35.810131,17.6300814 36.4021744,17.0419557 37.1327647,17.0410909 L37.3018067,17.0410909 C38.3927256,17.0399078 39.3765225,16.3888986 39.7979412,15.3893206 L41.9982521,15.3893206 C43.9838829,15.3893206 45.5935546,16.9883409 45.5935546,18.9608325 C45.5935546,20.9333241 43.9838829,22.5323445 41.9982521,22.5323445 L42.0010168,22.5335215 Z" id="Shape"></path>
                <path d="M13.7812689,39.5651962 L12.0067227,39.5651962 C11.6249965,39.5651962 11.3155462,39.8725987 11.3155462,40.251799 C11.3155462,40.6309993 11.6249965,40.9384019 12.0067227,40.9384019 L13.7840336,40.9384019 C14.1657598,40.9384019 14.4752101,40.6309993 14.4752101,40.251799 C14.4752101,39.8725987 14.1657598,39.5651962 13.7840336,39.5651962 L13.7812689,39.5651962 Z" id="Path"></path>
                <path d="M22.6848067,3.27607472 C21.9391261,3.27921531 21.1776471,3.31295694 20.4201176,3.37651675 C20.0524777,3.40918903 19.7754638,3.72290598 19.7907641,4.08925662 C19.8060644,4.45560726 20.1082856,4.74545201 20.4773866,4.74776077 C20.4968711,4.74776077 20.516619,4.74697608 20.5366303,4.7454067 C21.2574286,4.6845933 21.9821765,4.65202871 22.6907311,4.6492823 C23.0724573,4.64841555 23.3812002,4.34031034 23.3803296,3.96111005 C23.3794552,3.58190976 23.0692976,3.27520982 22.6875714,3.27607472 L22.6848067,3.27607472 Z" id="Path"></path>
                <path d="M17.2253025,3.82261244 C15.1924178,4.19297625 13.2138629,4.81333648 11.3352941,5.66937799 C11.1127401,5.77845332 10.9661345,5.99768104 10.9511852,6.24375801 C10.936236,6.48983499 11.0552379,6.7249856 11.2629722,6.85985627 C11.4707065,6.99472695 11.7352835,7.00861349 11.9561681,6.89623923 C13.7240826,6.099139 15.5833415,5.51941248 17.4926891,5.16992344 C17.7365133,5.12409832 17.9368958,4.95194659 18.0177038,4.71887534 C18.0985117,4.4858041 18.0473418,4.22758724 17.8836356,4.04233133 C17.7199293,3.85707541 17.4688138,3.7732152 17.2256975,3.82261244 L17.2253025,3.82261244 Z" id="Path"></path>
            </g>
        </g>
    </g>
</svg>