<?xml version="1.0" encoding="UTF-8"?>
<svg width="70px" height="70px" viewBox="0 0 70 70" version="1.1" xmlns="http://www.w3.org/2000/svg" xmlns:xlink="http://www.w3.org/1999/xlink">
    <!-- Generator: Sketch 61 (89581) - https://sketch.com -->
    <title>Artboard</title>
    <desc>Created with Sketch.</desc>
    <g id="Artboard" stroke="none" stroke-width="1" fill="none" fill-rule="evenodd">
        <rect id="Rectangle" x="0" y="0" width="70" height="70"></rect>
        <g id="040-pizza-slice" transform="translate(15.000000, 12.000000)" fill-rule="nonzero">
            <path d="M36.3380466,14.2242982 C27.8636667,5.92523392 14.1359343,5.92523392 5.66155438,14.2242982 C5.47642097,14.4059905 5.24956197,14.541507 5,14.6194843 L10.9663587,26.3216883 C11.805788,27.9674012 12.2429366,29.7821707 12.2431826,31.6222687 L12.2431826,40.5663867 C12.2431826,41.4791691 12.9977652,42.2191254 13.9285901,42.2191254 C14.859415,42.2191254 15.6139977,41.4791691 15.6139977,40.5663867 L15.6139977,35.435619 L21.0005985,46 L27.8228282,32.6211896 L27.8228282,34.9297025 C27.8228282,35.8612851 28.5929527,36.616482 29.5429494,36.616482 C30.4929461,36.616482 31.2630706,35.8612851 31.2630706,34.9297025 L31.2630706,30.6092619 C31.2630706,29.8788632 31.8668797,29.2867579 32.6117159,29.2867579 L33.0358608,29.2867579 C33.7798534,29.2861102 34.3826901,28.6946083 34.38291,27.9650365 L34.38291,21.6064529 C34.383041,20.5612494 34.6144705,19.5285222 35.0612227,18.5795621 L37,14.6202669 C36.750178,14.5422036 36.5231503,14.4063997 36.3380466,14.2242982 L36.3380466,14.2242982 Z" id="Path" fill="#FFDE3E"></path>
            <path d="M2.99106713,14.0613171 C3.23089872,14.5444778 3.68899527,14.8843784 4.22334452,14.9756481 C4.75769378,15.0669177 5.30372589,14.8985275 5.69216813,14.5226793 C14.1497442,6.13016063 27.8502558,6.13016063 36.3078319,14.5226793 C36.6963493,14.8983572 37.2423237,15.0666335 37.7766082,14.9753749 C38.3108927,14.8841163 38.7689731,14.5443422 39.0089329,14.0613171 L40.8212151,10.4586558 C41.1606663,9.78361004 41.0067288,8.96660085 40.4445025,8.45928765 C29.4137257,-1.48642922 12.5862743,-1.48642922 1.55549745,8.45928765 C0.993271187,8.96660085 0.839333729,9.78361004 1.17878486,10.4586558 L2.99106713,14.0613171 Z" id="Path" fill="#EF983B"></path>
            <g id="Group" transform="translate(11.000000, 14.000000)" fill="#EF3829">
                <ellipse id="Oval" cx="9.5" cy="16.2944813" rx="2.64423404" ry="2.65837433"></ellipse>
                <ellipse id="Oval" cx="2.67455319" cy="2.73721925" rx="2.64423404" ry="2.65837433"></ellipse>
                <ellipse id="Oval" cx="16.3254468" cy="6.38074866" rx="2.64423404" ry="2.65837433"></ellipse>
            </g>
            <g id="Group" fill="#422002">
                <path d="M40.2135096,7.64717647 C39.5433173,7.03657143 38.8337019,6.45045378 38.1091058,5.90383193 C37.9119226,5.75567178 37.650821,5.72415615 37.4241552,5.82115667 C37.1974894,5.9181572 37.0396955,6.12893719 37.0102129,6.37409786 C36.9807302,6.61925853 37.084038,6.86155415 37.2812212,7.00971429 C37.9727019,7.53026891 38.647625,8.08952941 39.2870673,8.67130252 C39.6138421,8.97010398 39.7035811,9.44959482 39.5070481,9.84669748 L37.7125096,13.4408151 C37.5690018,13.7321027 37.2929271,13.9351569 36.9725385,13.9850672 C36.6702706,14.0368529 36.3616969,13.9386633 36.1446538,13.7216303 C27.5026095,5.0740697 13.5021212,5.0740697 4.86007692,13.7216303 C4.64324628,13.9390133 4.33448822,14.0372616 4.03219231,13.9850672 C3.71205761,13.9350568 3.43619591,13.7321984 3.29261538,13.4412101 L1.49807692,9.84709244 C1.30154393,9.44998978 1.39128292,8.97049894 1.71805769,8.67169748 C10.7150992,0.496676722 23.9500711,-0.92694108 34.4742981,5.14827731 C34.8041555,5.33935855 35.2261744,5.22636501 35.4169038,4.89589916 C35.6076333,4.56543331 35.4948478,4.14263586 35.1649904,3.95155462 C24.1208551,-2.42584585 10.2305552,-0.932580017 0.788461538,7.64717647 C0.00519486677,8.36320127 -0.209703556,9.5125147 0.261769231,10.4640168 L2.05630769,14.0581345 C2.46330431,14.8686684 3.2917292,15.3799964 4.197375,15.3796639 C4.23285577,15.3796639 4.26636538,15.3713697 4.30145192,15.3697899 L5.52632692,17.8232689 C5.6365382,18.0441686 5.85600924,18.1893829 6.1020674,18.2042109 C6.34812557,18.219039 6.58338879,18.101228 6.71923567,17.8951563 C6.85508256,17.6890846 6.87087474,17.4260594 6.76066346,17.2051597 L5.60241346,14.889916 C5.68311926,14.8317131 5.76002034,14.7683901 5.83264423,14.7003361 C13.9359642,6.59189496 27.0636415,6.59189496 35.1669615,14.7003361 C35.2412588,14.7736392 35.3202745,14.8419819 35.4035,14.9049244 L33.7658654,18.3177563 C33.2846744,19.3672082 33.0347163,20.5081712 33.0329904,21.6630504 L33.0329904,28.0815126 C33.0327732,28.436819 32.7454404,28.7248585 32.3907885,28.7252941 L31.9721154,28.7252941 C30.8559304,28.7263819 29.9512326,29.6323952 29.9497115,30.7506387 L29.9497115,35.1117647 C29.9497115,35.6703938 29.497687,36.1232521 28.9400865,36.1232521 C28.382486,36.1232521 27.9304615,35.6703938 27.9304615,35.1117647 L27.9304615,32.7815126 C27.9306231,32.460771 27.710515,32.1820605 27.3989115,32.1084406 C27.087308,32.0348207 26.7660925,32.1856375 26.6231923,32.4726555 L20.5,44.7408403 L15.7948558,35.3135882 C15.6517292,35.0270332 15.3307802,34.8766054 15.0194855,34.9501745 C14.7081908,35.0237436 14.4881851,35.3020166 14.4879808,35.6224454 L14.4879808,40.8019244 C14.4879808,41.3415762 14.051312,41.7790504 13.5126538,41.7790504 C12.9739957,41.7790504 12.5373269,41.3415762 12.5373269,40.8019244 L12.5373269,31.7735798 C12.5350503,29.8091225 12.0785562,27.8718991 11.2036442,26.1138319 L10.5334519,24.7709748 C10.4232406,24.5500751 10.2037696,24.4048608 9.95771144,24.3900328 C9.71165327,24.3752047 9.47639006,24.4930157 9.34054317,24.6990874 C9.20469629,24.9051591 9.1889041,25.1681843 9.29911538,25.389084 L9.96930769,26.7319412 C10.7485189,28.2980364 11.1549539,30.0237046 11.1567308,31.7735798 L11.1567308,40.8019244 C11.1567308,42.1050286 12.2111605,43.1614034 13.5118654,43.1614034 C14.8125703,43.1614034 15.867,42.1050286 15.867,40.8019244 L15.867,38.5506639 L19.8822404,46.595958 C19.9991433,46.8300101 20.2379738,46.9778354 20.4992115,46.9778354 C20.7604492,46.9778354 20.9992798,46.8300101 21.1161827,46.595958 L26.6015096,35.607042 C26.8537079,36.8072519 27.9705815,37.6223282 29.1882006,37.4947673 C30.4058196,37.3672063 31.3302215,36.3382807 31.329125,35.1117647 L31.329125,30.7502437 C31.329777,30.3950918 31.6172226,30.1074693 31.9717212,30.1072521 L32.3907885,30.1072521 C33.507037,30.1057287 34.4114951,29.1994255 34.4127981,28.0811176 L34.4127981,21.6630504 C34.4138203,20.7117961 34.618989,19.7718823 35.0143942,18.9070336 L36.7072212,15.3765042 C37.6481491,15.4221934 38.5268164,14.9054621 38.9456635,14.0601092 L40.7402019,10.4659916 C41.2126806,9.51398376 40.9977154,8.36350721 40.2135096,7.64717647 L40.2135096,7.64717647 Z" id="Path"></path>
                <path d="M8.28633654,20.2680588 C8.11596466,19.9265774 7.70153532,19.7881206 7.36068269,19.9588067 C7.01983007,20.1294929 6.88162812,20.5446867 7.052,20.8861681 L7.84519231,22.4766639 C7.95540358,22.6975636 8.17487462,22.8427779 8.42093279,22.8576059 C8.66699096,22.8724339 8.90225419,22.754623 9.03810107,22.5485513 C9.17394796,22.3424796 9.18974014,22.0794543 9.07952885,21.8585546 L8.28633654,20.2680588 Z" id="Path"></path>
                <path d="M17.2310385,30.4484958 C17.2312562,32.2571723 18.6949165,33.7232378 20.5002628,33.7230924 C22.3056091,33.722947 23.7690341,32.2566457 23.7689615,30.4479692 C23.7688889,28.6392927 22.3053463,27.1731092 20.5,27.1731092 C18.6951693,27.1748514 17.2325598,28.6403356 17.2310385,30.4484958 L17.2310385,30.4484958 Z M20.5,28.5554622 C21.2641273,28.5554622 21.9530062,29.0166316 22.2453883,29.7239106 C22.5377703,30.4311897 22.37607,31.2452783 21.8356941,31.7865381 C21.2953181,32.3277979 20.4826947,32.4896265 19.7767789,32.1965576 C19.0708631,31.9034886 18.6106867,31.2132427 18.6108461,30.4477059 C18.6127994,29.403306 19.4575228,28.557201 20.5,28.5554622 L20.5,28.5554622 Z" id="Shape"></path>
                <path d="M13.8438077,13.9988908 C12.0386791,13.9991089 10.5754895,15.4652923 10.5756346,17.2737507 C10.5757798,19.082209 12.0392048,20.5481567 13.8443333,20.548084 C15.6494619,20.5480113 17.1127692,19.0819458 17.1127692,17.2734874 C17.1108134,15.4656357 15.6483309,14.0006322 13.8438077,13.9988908 L13.8438077,13.9988908 Z M13.8438077,19.1657311 C12.8007259,19.165513 11.9552972,18.3182301 11.9554423,17.2732241 C11.9555875,16.2282182 12.8012515,15.3811711 13.8443333,15.3812437 C14.8874151,15.3813164 15.7329615,16.2284815 15.7329615,17.2734874 C15.7310083,18.3178873 14.8862849,19.1639923 13.8438077,19.1657311 L13.8438077,19.1657311 Z" id="Shape"></path>
                <path d="M23.8872307,20.8142857 C23.8870713,22.1389321 24.6834271,23.3332341 25.9049417,23.840265 C27.1264563,24.3472959 28.5325596,24.067199 29.4675578,23.1305891 C30.402556,22.1939791 30.6823067,20.7853159 30.1763567,19.5614869 C29.6704066,18.3376579 28.4783997,17.5396891 27.1561923,17.5396891 C25.3516691,17.5414305 23.8891866,19.006434 23.8872307,20.8142857 L23.8872307,20.8142857 Z M29.044952,20.8142857 C29.0451114,21.5798585 28.5848923,22.2701294 27.8789281,22.5631752 C27.1729639,22.856221 26.3603096,22.6943199 25.8199646,22.1529783 C25.2796197,21.6116366 25.1180167,20.7974832 25.410523,20.0902168 C25.7030292,19.3829503 26.3920292,18.9218823 27.1561923,18.922042 C28.1985156,18.9239981 29.0429994,19.7700397 29.044952,20.8142857 L29.044952,20.8142857 Z" id="Shape"></path>
                <path d="M21.5620577,17.5037479 C21.8817212,17.7046445 22.3031823,17.6109671 22.5080504,17.2934839 C22.7129186,16.9760007 22.625171,16.5525237 22.3110962,16.3429664 L21.1623077,15.5976807 C20.8426442,15.3967841 20.4211831,15.4904614 20.216315,15.8079447 C20.0114468,16.1254279 20.0991944,16.5489049 20.4132692,16.7584622 L21.5620577,17.5037479 Z" id="Path"></path>
                <path d="M28.6530865,14.6742689 C28.7480754,14.6740887 28.842011,14.6543259 28.9290481,14.6162101 L30.0112115,14.1422605 C30.3522052,13.9847094 30.504802,13.5828686 30.3545665,13.2380871 C30.204331,12.8933056 29.8064435,12.7322193 29.4592885,12.8756303 L28.377125,13.3495798 C28.0784829,13.4810782 27.9124907,13.8040686 27.9791374,14.1239905 C28.0457841,14.4439125 28.3268741,14.673422 28.6530865,14.6742689 L28.6530865,14.6742689 Z" id="Path"></path>
                <path d="M15.8512308,22.9517983 L14.9366154,24.3061092 C14.7352028,24.6219489 14.821751,25.0410617 15.1317197,25.2509095 C15.4416884,25.4607574 15.8621189,25.3848674 16.0794904,25.0798319 L16.9941058,23.725916 C17.2076966,23.4096285 17.1249166,22.9797579 16.8092115,22.7657731 C16.4935065,22.5517883 16.0644274,22.634721 15.8508365,22.9510084 L15.8512308,22.9517983 Z" id="Path"></path>
                <path d="M20.3490096,36.3471933 L19.7742212,36.8211429 C19.5744324,36.9750251 19.474289,37.2257998 19.5130023,37.4752761 C19.5517155,37.7247524 19.7231251,37.9332325 19.9601156,38.0190858 C20.1971061,38.1049392 20.4619664,38.0545045 20.6509904,37.8875294 L21.2257788,37.4135798 C21.4255676,37.2596976 21.525711,37.0089229 21.4869977,36.7594466 C21.4482845,36.5099703 21.2768749,36.3014902 21.0398844,36.2156368 C20.8028939,36.1297835 20.5380336,36.1802182 20.3490096,36.3471933 L20.3490096,36.3471933 Z" id="Path"></path>
                <path d="M26.3413173,26.1280504 C26.0225676,25.9273412 25.6020603,26.0197043 25.3963652,26.3356063 C25.19067,26.6515082 25.2757472,27.0742912 25.5875481,27.2856723 L26.4197692,27.8295294 C26.6262036,27.9694787 26.8919357,27.986989 27.1148884,27.8753341 C27.3378412,27.7636792 27.4833412,27.5402235 27.4954969,27.2908042 C27.5076526,27.0413849 27.3845734,26.8047913 27.1735385,26.6719076 L26.3413173,26.1280504 Z" id="Path"></path>
                <path d="M30.7393558,6.0479916 C30.6580119,6.21222158 30.6451709,6.4021116 30.7036614,6.57583257 C30.7621519,6.74955353 30.8871757,6.89285415 31.0511923,6.97416807 C32.7857992,7.81533137 34.3993244,8.88688805 35.8481923,10.1598992 C36.0317839,10.3247097 36.289193,10.3788753 36.523456,10.3019923 C36.7577191,10.2251093 36.9332461,10.0288581 36.9839176,9.78716454 C37.0345891,9.54547103 36.952707,9.29505422 36.7691154,9.1302437 C35.2275483,7.77319156 33.5103012,6.63067676 31.6638269,5.73360504 C31.4996225,5.65246679 31.3099696,5.6400069 31.1365949,5.69896676 C30.9632201,5.75792662 30.8203275,5.88347586 30.7393558,6.0479916 L30.7393558,6.0479916 Z" id="Path"></path>
            </g>
        </g>
    </g>
</svg>