<?xml version="1.0" encoding="UTF-8"?>
<svg width="70px" height="70px" viewBox="0 0 70 70" version="1.1" xmlns="http://www.w3.org/2000/svg" xmlns:xlink="http://www.w3.org/1999/xlink">
    <!-- Generator: Sketch 61 (89581) - https://sketch.com -->
    <title>Artboard</title>
    <desc>Created with Sketch.</desc>
    <g id="Artboard" stroke="none" stroke-width="1" fill="none" fill-rule="evenodd">
        <rect id="Rectangle" x="0" y="0" width="70" height="70"></rect>
        <g id="042-ribs" transform="translate(12.000000, 17.000000)" fill-rule="nonzero">
            <rect id="Rectangle" fill="#8C3F07" x="1" y="6" width="45" height="25" rx="12.5"></rect>
            <g id="Group" transform="translate(4.000000, 1.000000)" fill="#F2E7CB">
                <polygon id="Path" points="22.8051192 0.0502417582 26.5543212 0.0502417582 26.5543212 5.73547253 22.8051192 5.73547253"></polygon>
                <polygon id="Path" points="22.8051192 30.2649231 26.5543212 30.2649231 26.5543212 35.9501538 22.8051192 35.9501538"></polygon>
                <polygon id="Path" points="34.1645596 0.0502417582 37.9137617 0.0502417582 37.9137617 5.73547253 34.1645596 5.73547253"></polygon>
                <polygon id="Path" points="34.1645596 30.2649231 37.9137617 30.2649231 37.9137617 35.9501538 34.1645596 35.9501538"></polygon>
                <polygon id="Path" points="0.086238342 0.0502417582 3.83544041 0.0502417582 3.83544041 5.73547253 0.086238342 5.73547253"></polygon>
                <polygon id="Path" points="0.086238342 30.2649231 3.83544041 30.2649231 3.83544041 35.9501538 0.086238342 35.9501538"></polygon>
                <polygon id="Path" points="11.4456788 0.0502417582 15.1948808 0.0502417582 15.1948808 5.73547253 11.4456788 5.73547253"></polygon>
                <polygon id="Path" points="11.4456788 30.2649231 15.1948808 30.2649231 15.1948808 35.9501538 11.4456788 35.9501538"></polygon>
            </g>
            <g id="Group" fill="#422002">
                <path d="M45.3014958,25.4219365 C44.9278914,25.4219365 44.6250252,25.7287044 44.6250252,26.1071217 L44.6250252,28.6798942 C44.6243862,29.3828968 44.0620108,29.9526922 43.3679496,29.9535556 L2.63205042,29.9535556 C1.93798919,29.9526922 1.37561376,29.3828968 1.37497479,28.6798942 L1.37497479,18.9898095 C1.37497479,18.6113922 1.07210859,18.3046243 0.698504202,18.3046243 C0.324899812,18.3046243 0.0220336134,18.6113922 0.0220336134,18.9898095 L0.0220336134,28.6798942 C0.02352468,30.1393737 1.19113365,31.3221995 2.63205042,31.3239259 L3.75692437,31.3239259 L3.75692437,36.2650899 C3.75692437,36.6435073 4.05979057,36.9502752 4.43339496,36.9502752 L8.11378151,36.9502752 C8.29322411,36.9502752 8.46534668,36.8782235 8.59223178,36.7497038 C8.71911688,36.6211841 8.79035473,36.4468442 8.7902521,36.2650899 L8.7902521,31.3239259 L14.9078655,31.3239259 L14.9078655,36.2650899 C14.9078655,36.6435073 15.2107317,36.9502752 15.5843361,36.9502752 L19.2647227,36.9502752 C19.6383271,36.9502752 19.9411933,36.6435073 19.9411933,36.2650899 L19.9411933,31.3239259 L26.0588067,31.3239259 L26.0588067,36.2650899 C26.0587041,36.4468442 26.1299419,36.6211841 26.256827,36.7497038 C26.3837121,36.8782235 26.5558347,36.9502752 26.7352773,36.9502752 L30.4156639,36.9502752 C30.7892683,36.9502752 31.0921345,36.6435073 31.0921345,36.2650899 L31.0921345,31.3239259 L37.2097479,31.3239259 L37.2097479,36.2650899 C37.2096453,36.4468442 37.2808831,36.6211841 37.4077682,36.7497038 C37.5346533,36.8782235 37.7067759,36.9502752 37.8862185,36.9502752 L41.5662185,36.9502752 C41.7456611,36.9502752 41.9177837,36.8782235 42.0446688,36.7497038 C42.1715539,36.6211841 42.2427917,36.4468442 42.2426891,36.2650899 L42.2426891,31.3239259 L43.3679496,31.3239259 C44.8088664,31.3221995 45.9764753,30.1393737 45.9779665,28.6798942 L45.9779665,26.1071217 C45.9779665,25.9253674 45.9068312,25.7510275 45.7799461,25.6225078 C45.653061,25.4939881 45.4809384,25.4218326 45.3014958,25.4219365 L45.3014958,25.4219365 Z M7.43731092,35.5799048 L5.10986555,35.5799048 L5.10986555,31.3239259 L7.43731092,31.3239259 L7.43731092,35.5799048 Z M18.5882521,35.5799048 L16.2608067,35.5799048 L16.2608067,31.3239259 L18.5882521,31.3239259 L18.5882521,35.5799048 Z M29.7391933,35.5799048 L27.4117479,35.5799048 L27.4117479,31.3239259 L29.7391933,31.3239259 L29.7391933,35.5799048 Z M40.8897479,35.5799048 L38.5626891,35.5799048 L38.5626891,31.3239259 L40.8897479,31.3239259 L40.8897479,35.5799048 Z" id="Shape"></path>
                <path d="M43.3683361,5.67607407 L42.2426891,5.67607407 L42.2426891,0.734910053 C42.2427917,0.553155796 42.1715539,0.378815861 42.0446688,0.250296172 C41.9177837,0.121776484 41.7456611,0.0497247556 41.5662185,0.0497247556 L37.8862185,0.0497247556 C37.7067759,0.0497247556 37.5346533,0.121776484 37.4077682,0.250296172 C37.2808831,0.378815861 37.2096453,0.553155796 37.2097479,0.734910053 L37.2097479,5.67607407 L31.0921345,5.67607407 L31.0921345,0.734910053 C31.0921345,0.356492724 30.7892683,0.0497247556 30.4156639,0.0497247556 L26.7352773,0.0497247556 C26.5558347,0.0497247556 26.3837121,0.121776484 26.256827,0.250296172 C26.1299419,0.378815861 26.0587041,0.553155796 26.0588067,0.734910053 L26.0588067,5.67607407 L19.9411933,5.67607407 L19.9411933,0.734910053 C19.9411933,0.356492724 19.6383271,0.0497247556 19.2647227,0.0497247556 L15.5843361,0.0497247556 C15.2107317,0.0497247556 14.9078655,0.356492724 14.9078655,0.734910053 L14.9078655,5.67607407 L8.7902521,5.67607407 L8.7902521,0.734910053 C8.79035473,0.553155796 8.71911688,0.378815861 8.59223178,0.250296172 C8.46534668,0.121776484 8.29322411,0.0497247556 8.11378151,0.0497247556 L4.43339496,0.0497247556 C4.05979057,0.0497247556 3.75692437,0.356492724 3.75692437,0.734910053 L3.75692437,5.67607407 L2.63166387,5.67607407 C1.19080984,5.67780088 0.0233116595,6.86068962 0.0220336134,8.32010582 L0.0220336134,10.6141058 C0.0220336134,10.9925231 0.324899812,11.299291 0.698504202,11.299291 C1.07210859,11.299291 1.37497479,10.9925231 1.37497479,10.6141058 L1.37497479,8.32010582 C1.37561376,7.61731939 1.93781612,7.04769932 2.63166387,7.04683598 L43.3683361,7.04683598 C44.0621839,7.04769932 44.6243862,7.61731939 44.6250252,8.32010582 L44.6250252,23.1013122 C44.6250252,23.4797295 44.9278914,23.7864974 45.3014958,23.7864974 C45.6751002,23.7864974 45.9779664,23.4797295 45.9779664,23.1013122 L45.9779664,8.32010582 C45.9766883,6.86068962 44.8091902,5.67780088 43.3683361,5.67607407 L43.3683361,5.67607407 Z M38.5626891,1.42009524 L40.8897479,1.42009524 L40.8897479,5.67607407 L38.5626891,5.67607407 L38.5626891,1.42009524 Z M27.4117479,1.42009524 L29.7391933,1.42009524 L29.7391933,5.67607407 L27.4117479,5.67607407 L27.4117479,1.42009524 Z M16.2608067,1.42009524 L18.5882521,1.42009524 L18.5882521,5.67607407 L16.2608067,5.67607407 L16.2608067,1.42009524 Z M5.10986555,1.42009524 L7.43731092,1.42009524 L7.43731092,5.67607407 L5.10986555,5.67607407 L5.10986555,1.42009524 Z" id="Shape"></path>
                <path d="M0.698504202,16.4499259 C1.07202022,16.4497099 1.37476153,16.1430686 1.37497479,15.7647407 L1.37497479,14.002836 C1.37497479,13.6244187 1.07210859,13.3176508 0.698504202,13.3176508 C0.324899812,13.3176508 0.0220336134,13.6244187 0.0220336134,14.002836 L0.0220336134,15.7647407 C0.0220336134,16.1431581 0.324899812,16.4499259 0.698504202,16.4499259 Z" id="Path"></path>
                <path d="M34.1509412,18.755673 C34.3307543,18.7559844 34.5032915,18.6837721 34.6304388,18.5549869 C34.757586,18.4262016 34.8288799,18.2514417 34.8285724,18.0693122 L34.8285724,9.13214815 C34.8285724,8.75373082 34.5257052,8.44696296 34.1521008,8.44696296 C33.7784965,8.44696296 33.4756285,8.75373082 33.4756285,9.13214815 L33.4756285,18.0693122 C33.4752197,18.2510663 33.5461624,18.4255301 33.6728301,18.5542702 C33.7994977,18.6830102 33.9714983,18.7554646 34.1509412,18.755673 L34.1509412,18.755673 Z" id="Path"></path>
                <path d="M33.4756303,27.8678519 C33.4756303,28.2462692 33.7784965,28.553037 34.1521008,28.553037 C34.5257052,28.553037 34.8285714,28.2462692 34.8285714,27.8678519 L34.8285714,21.5966455 C34.8285714,21.2182282 34.5257052,20.9114603 34.1521008,20.9114603 C33.7784965,20.9114603 33.4756303,21.2182282 33.4756303,21.5966455 L33.4756303,27.8678519 Z" id="Path"></path>
                <path d="M11.8490588,19.7662223 C12.0285014,19.7662223 12.200624,19.6941706 12.3275091,19.5656509 C12.4543942,19.4371312 12.525632,19.2627913 12.5255295,19.081037 L12.5255295,9.13214815 C12.5255295,8.75373082 12.2226632,8.44696296 11.8490588,8.44696296 C11.4754544,8.44696296 11.1725882,8.75373082 11.1725882,9.13214815 L11.1725882,19.081037 C11.1725882,19.4594544 11.4754544,19.7662223 11.8490588,19.7662223 L11.8490588,19.7662223 Z" id="Path"></path>
                <path d="M11.1714286,27.8678519 C11.1714286,28.2462692 11.4742948,28.553037 11.8478992,28.553037 C12.2215035,28.553037 12.5243697,28.2462692 12.5243697,27.8678519 L12.5243697,22.7285714 C12.5243697,22.3501541 12.2215035,22.0433862 11.8478992,22.0433862 C11.4742948,22.0433862 11.1714286,22.3501541 11.1714286,22.7285714 L11.1714286,27.8678519 Z" id="Path"></path>
                <path d="M22.3235294,27.8678519 C22.3235294,28.2462692 22.6263956,28.553037 23,28.553037 C23.3736044,28.553037 23.6764706,28.2462692 23.6764706,27.8678519 L23.6764706,17.0767725 C23.6764706,16.6983552 23.3736044,16.3915873 23,16.3915873 C22.6263956,16.3915873 22.3235294,16.6983552 22.3235294,17.0767725 L22.3235294,27.8678519 Z" id="Path"></path>
                <path d="M23,14.3685291 C23.3736044,14.3685291 23.6764706,14.0617612 23.6764706,13.6833439 L23.6764706,9.13214815 C23.6764706,8.75373082 23.3736044,8.44696296 23,8.44696296 C22.6263956,8.44696296 22.3235294,8.75373082 22.3235294,9.13214815 L22.3235294,13.684127 C22.323956,14.0622385 22.6266973,14.3685291 23,14.3685291 Z" id="Path"></path>
                <path d="M42.2426891,13.6015132 L42.2426891,10.7867725 C42.2426891,10.4083552 41.9398229,10.1015873 41.5662185,10.1015873 C41.1926141,10.1015873 40.8897479,10.4083552 40.8897479,10.7867725 L40.8897479,13.5999471 C40.8897479,13.9783644 41.1926141,14.2851323 41.5662185,14.2851323 C41.9398229,14.2851323 42.2426891,13.9783644 42.2426891,13.5999471 L42.2426891,13.6015132 Z" id="Path"></path>
                <path d="M5.10986555,26.7042116 L5.10986555,23.891037 C5.10986555,23.5126197 4.80699935,23.2058519 4.43339496,23.2058519 C4.05979057,23.2058519 3.75692437,23.5126197 3.75692437,23.891037 L3.75692437,26.7042116 C3.75692437,27.082629 4.05979057,27.3893968 4.43339496,27.3893968 C4.80699935,27.3893968 5.10986555,27.082629 5.10986555,26.7042116 L5.10986555,26.7042116 Z" id="Path"></path>
            </g>
        </g>
    </g>
</svg>