<?xml version="1.0" encoding="UTF-8"?>
<svg width="70px" height="70px" viewBox="0 0 70 70" version="1.1" xmlns="http://www.w3.org/2000/svg" xmlns:xlink="http://www.w3.org/1999/xlink">
    <!-- Generator: Sketch 61 (89581) - https://sketch.com -->
    <title>Artboard</title>
    <desc>Created with Sketch.</desc>
    <g id="Artboard" stroke="none" stroke-width="1" fill="none" fill-rule="evenodd">
        <rect id="Rectangle" x="0" y="0" width="70" height="70"></rect>
        <g id="043-sandwich" transform="translate(14.000000, 14.000000)" fill-rule="nonzero">
            <path d="M42,1 L42,38.6116407 C42,39.5103184 41.6431377,40.3722156 41.0076766,41.0076766 C40.3722156,41.6431377 39.5103184,42 38.6116407,42 L1,42 L42,1 Z" id="Path" fill="#EF983B"></path>
            <polygon id="Path" fill="#F2E7CB" points="38 5 38 38 5 38"></polygon>
            <path d="M35,6.05836356 C33.8048423,4.88123744 32.1648874,4.26888271 30.490716,4.37460906 C28.8171237,4.47760023 27.1784015,3.86578656 25.9817868,2.69120927 C23.5634514,0.272873862 19.4436266,0.471859806 16.7798397,3.13564668 C15.5321933,4.40074808 13.8601902,5.15891154 12.0864671,5.26383858 C8.4233146,5.5057591 5.5057591,8.4233146 5.26383858,12.0864671 C5.15891154,13.8601902 4.40074808,15.5321933 3.13564668,16.7798397 C0.471859806,19.4436266 0.272873862,23.5634514 2.69120927,25.9817868 C3.86578656,27.1784015 4.47760023,28.8171237 4.37460906,30.490716 C4.26841618,32.1646207 4.8801115,33.8045369 6.05659007,35 L35,6.05836356 Z" id="Path" fill="#64BC0F"></path>
            <path d="M10.9121029,31 C9.27151263,29.3806708 8.62398502,27.0076017 9.21494512,24.78023 C9.80590521,22.5528584 11.5449093,20.8120729 13.7728426,20.2176638 C16.0007759,19.6232546 18.3766635,20.2661932 20,21.902794 L10.9121029,31 Z" id="Path" fill="#EF3829"></path>
            <path d="M21.9121029,20 C20.2715126,18.3806708 19.623985,16.0076017 20.2149451,13.78023 C20.8059052,11.5528584 22.5449093,9.81207293 24.7728426,9.21766377 C27.0007759,8.62325461 29.3766635,9.26619325 31,10.902794 L21.9121029,20 Z" id="Path" fill="#EF3829"></path>
            <path d="M22.8821743,11.4901055 L22.8779663,11.4901055 C19.6370767,9.2152825 15.2014776,9.57874719 12.3870186,12.3497614 C9.57255956,15.1207757 9.20289446,19.4883996 11.5126976,22.6799365 L11.5172564,22.6851161 C13.8195114,20.581772 17.3993002,20.6495246 19.6177718,22.8384298 L15.4016464,26.9962017 L15.4051531,27 L23,19.5211211 C20.7532454,17.319462 20.7009464,13.7547543 22.8821743,11.4901055 L22.8821743,11.4901055 Z" id="Path" fill="#FFDE3E"></path>
            <g id="Group" fill="#422002">
                <path d="M41.5987059,0.0670588235 C41.3679544,-0.0286508349 41.1022652,0.0241526169 40.9256471,0.200823529 L36.9112941,4.21552941 L35.3752941,5.75294118 C34.111852,4.72501103 32.5080809,4.20973817 30.8823529,4.30941176 C29.3906338,4.40642805 27.9283305,3.86271829 26.8623529,2.81470588 C24.2184706,0.171529412 19.7188235,0.369529412 16.8317647,3.25694118 C15.6965105,4.40366051 14.1793902,5.09313505 12.5689412,5.19423529 C8.61015811,5.45961626 5.45785155,8.61192282 5.19247059,12.5707059 C5.0916474,14.1803515 4.40281245,15.6968183 3.25694118,16.8317647 C1.88574965,18.1790906 1.06645981,19.9894568 0.959294118,21.9088235 C0.842153124,23.7489654 1.51737243,25.5513913 2.81470588,26.8616471 C3.86376395,27.927248 4.40763694,29.3902471 4.30941176,30.8823529 C4.21120033,32.5078972 4.72630662,34.1111497 5.75294118,35.3752941 L4.218,36.9102353 L0.200823529,40.9256471 C0.023899541,41.1022073 -0.0290894928,41.3680339 0.0666117874,41.5989384 C0.162313068,41.8298428 0.387813764,41.979883 0.637764706,41.979883 L8.25317647,41.979883 C8.59429352,41.979883 8.87082353,41.7033523 8.87082353,41.3622353 C8.87082353,41.0211182 8.59429352,40.7445882 8.25317647,40.7445882 L2.12858824,40.7445882 L4.90835294,37.9648235 L37.3471765,37.9648235 C37.5110154,37.9649172 37.6681708,37.899874 37.7840224,37.7840224 C37.899874,37.6681708 37.9649172,37.5110154 37.9648235,37.3471765 L37.9648235,4.90870588 L40.7445882,2.12894118 L40.7445882,6.55941176 C40.7445882,6.90052882 41.0211182,7.17705882 41.3622353,7.17705882 C41.7033523,7.17705882 41.9798824,6.90052882 41.9798824,6.55941176 L41.9798824,0.637764706 C41.9798824,0.3879488 41.8294877,0.162702624 41.5987059,0.0670588235 L41.5987059,0.0670588235 Z M5.54329412,30.9416471 C5.64914107,29.103095 4.97559538,27.3050086 3.68788235,25.9884706 C2.6389363,24.923087 2.09506527,23.46035 2.19317647,21.9684706 C2.28561575,20.3559852 2.97599848,18.8359099 4.12941176,17.7052941 C5.50072212,16.3581955 6.320042,14.5478887 6.42705882,12.6285882 C6.65085767,9.30086463 9.30082646,6.65134828 12.6285882,6.42811765 C14.5479605,6.32051538 16.358183,5.5008561 17.7052941,4.12941176 C20.1105882,1.72447059 23.8270588,1.52682353 25.9884706,3.68788235 C27.3047797,4.9757289 29.1028219,5.64930604 30.9412941,5.54329412 C32.2186394,5.46485965 33.4812483,5.85108859 34.4961176,6.63070588 L30.9787059,10.1477647 C28.4970867,8.08525882 24.8761072,8.1628996 22.4851765,10.3298824 C19.0031999,8.13601144 14.4664492,8.64391141 11.5558115,11.5534506 C8.64517377,14.4629898 8.13556128,18.9995485 10.3281176,22.4823529 C8.12007148,24.8699849 8.02300328,28.5241574 10.1011765,31.0256471 L6.63070588,34.4961176 C5.85093993,33.4814607 5.46468856,32.2189039 5.54329412,30.9416471 L5.54329412,30.9416471 Z M21,20.1264706 L20.2676471,19.3941176 C20.112604,19.2335252 19.8829739,19.1690856 19.6670151,19.2255663 C19.4510563,19.2820469 19.2823769,19.4506581 19.225809,19.6665941 C19.1692411,19.8825301 19.2335879,20.1121862 19.3941176,20.2672941 L20.1264706,21 L19.2568235,21.8696471 C19.0330712,21.6857209 18.7972491,21.5169902 18.5509412,21.3645882 L18.5509412,20.3936471 C18.5509412,20.05253 18.2744112,19.776 17.9332941,19.776 C17.5921771,19.776 17.3156471,20.05253 17.3156471,20.3936471 L17.3156471,20.7642353 C16.1908185,20.3541578 14.9742139,20.2644734 13.8014118,20.5051765 C13.2536243,19.7067526 12.9620929,18.7603837 12.9656149,17.7921176 C12.9687603,15.1280507 15.12805,12.9693927 17.7921176,12.9670298 C18.747705,12.9637237 19.6822403,13.2476503 20.4744706,13.782 C20.2170787,14.9581012 20.2952232,16.1828539 20.7,17.3167059 L20.4038824,17.3167059 C20.0627653,17.3167059 19.7862353,17.5932359 19.7862353,17.9343529 C19.7862353,18.27547 20.0627653,18.552 20.4038824,18.552 L21.2894118,18.552 C21.4487784,18.8148882 21.6266388,19.0661101 21.8216471,19.3037647 L21,20.1264706 Z M10.9810588,30.1457647 C9.3182753,28.050598 9.49077426,25.0416158 11.3821007,23.1501992 C13.2734271,21.2587825 16.282401,21.08614 18.3776471,22.7488235 L10.9810588,30.1457647 Z M20.8634118,12.5717647 C19.9337498,12.0196013 18.8719782,11.7293399 17.7907059,11.7317647 C15.6120918,11.7293391 13.6002691,12.8979538 12.5230403,14.7916125 C11.4458115,16.6852711 11.4694077,19.0117565 12.5848235,20.8831765 C12.1150091,21.0841957 11.6706266,21.3400918 11.2609412,21.6455294 C9.50316179,18.6680991 9.98217649,14.8786218 12.4255604,12.432246 C14.8689443,9.98587015 18.6578326,9.50221847 21.6374118,11.2563529 C21.3292394,11.6630427 21.0699314,12.1045415 20.8648235,12.5717647 L20.8634118,12.5717647 Z M22.7029412,18.4235294 C21.0409003,16.3283048 21.2137505,13.3199049 23.1048277,11.4288277 C24.9959049,9.53775052 28.0043048,9.36490034 30.0995294,11.0269412 L22.7029412,18.4235294 Z M36.7295294,36.7291765 L6.14364706,36.7291765 L35.8351765,7.038 L36.7291765,6.14364706 L36.7295294,36.7291765 Z" id="Shape"></path>
                <path d="M12.7482353,40.7445882 L11.16,40.7445882 C10.8188829,40.7445882 10.5423529,41.0211182 10.5423529,41.3622353 C10.5423529,41.7033523 10.8188829,41.9798824 11.16,41.9798824 L12.7482353,41.9798824 C13.0893523,41.9798824 13.3658824,41.7033523 13.3658824,41.3622353 C13.3658824,41.0211182 13.0893523,40.7445882 12.7482353,40.7445882 Z" id="Path"></path>
                <path d="M41.3622353,8.65129412 C41.0211989,8.65129412 40.7447829,8.92790481 40.7445882,9.26894118 L40.7445882,37.9983529 C40.7430319,39.5151914 39.5137796,40.7444437 37.9969412,40.746 L15.8032941,40.746 C15.4621771,40.746 15.1856471,41.02253 15.1856471,41.3636471 C15.1856471,41.7047641 15.4621771,41.9812941 15.8032941,41.9812941 L37.9969412,41.9812941 C40.1954497,41.9783777 41.9769659,40.1968614 41.9798824,37.9983529 L41.9798824,9.26894118 C41.9798824,8.92782413 41.7033523,8.65129412 41.3622353,8.65129412 L41.3622353,8.65129412 Z" id="Path"></path>
                <path d="M16.5088235,15.6352941 C16.267605,15.3940756 15.8765126,15.3940756 15.6352941,15.6352941 C15.3940756,15.8765126 15.3940756,16.267605 15.6352941,16.5088235 L16.7022353,17.5764706 C16.8583393,17.7326377 17.0858996,17.7936615 17.2991963,17.736555 C17.512493,17.6794485 17.6791213,17.5128874 17.7363139,17.2996138 C17.7935066,17.0863402 17.7325746,16.8587553 17.5764706,16.7025882 L16.5088235,15.6352941 Z" id="Path"></path>
                <path d="M19.0761176,14.4790588 C18.7350006,14.4790588 18.4584706,14.7555888 18.4584706,15.0967059 L18.4584706,16.6055294 C18.4584706,16.9466465 18.7350006,17.2231765 19.0761176,17.2231765 C19.4172347,17.2231765 19.6937647,16.9466465 19.6937647,16.6055294 L19.6937647,15.0967059 C19.6937647,14.7555888 19.4172347,14.4790588 19.0761176,14.4790588 L19.0761176,14.4790588 Z" id="Path"></path>
                <path d="M16.6055294,18.4475294 L15.0963529,18.4475294 C14.7552359,18.4475294 14.4787059,18.7240594 14.4787059,19.0651765 C14.4787059,19.4062935 14.7552359,19.6828235 15.0963529,19.6828235 L16.6055294,19.6828235 C16.9466465,19.6828235 17.2231765,19.4062935 17.2231765,19.0651765 C17.2231765,18.7240594 16.9466465,18.4475294 16.6055294,18.4475294 L16.6055294,18.4475294 Z" id="Path"></path>
                <path d="M33.3257647,18.2025882 L32.3022353,17.6689412 C32.0028309,17.5296966 31.6468603,17.6505706 31.4941501,17.9433361 C31.3414398,18.2361016 31.446008,18.5971986 31.7315294,18.7630588 L32.7550588,19.2963529 C32.9516613,19.4105599 33.1951128,19.4075174 33.3887998,19.2884329 C33.5824868,19.1693484 33.6950865,18.9534799 33.681914,18.7264948 C33.6687414,18.4995097 33.5319267,18.2981155 33.3257647,18.2022353 L33.3257647,18.2025882 Z" id="Path"></path>
                <path d="M20.0117647,30.8205882 C19.7287473,30.6304711 19.3452461,30.7053082 19.1544706,30.9878824 L18.3610588,32.1663529 C18.1862049,32.4484722 18.2655811,32.8183431 18.5407954,33.0038755 C18.8160097,33.1894079 19.1886497,33.1242582 19.3845882,32.8563529 L20.178,31.6778824 C20.3687386,31.3952237 20.2943262,31.0114707 20.0117647,30.8205882 L20.0117647,30.8205882 Z" id="Path"></path>
                <path d="M31.6729412,32.2637647 L30.4521176,31.9171765 C30.2390093,31.8543653 30.0085863,31.9108492 29.8486859,32.0650967 C29.6887856,32.2193442 29.6240482,32.4475858 29.6791517,32.662816 C29.7342552,32.8780461 29.9007082,33.0470982 30.1150588,33.1055294 L31.3358824,33.4521176 C31.6626088,33.5411821 32.0001238,33.3505493 32.0925312,33.0247526 C32.1849386,32.6989559 31.997774,32.3595054 31.6729412,32.2637647 L31.6729412,32.2637647 Z" id="Path"></path>
                <path d="M28.3708235,25.1551765 L26.7074118,25.7096471 C26.4980331,25.7794399 26.3417933,25.9556334 26.2975464,26.1718571 C26.2532995,26.3880808 26.3277676,26.6114851 26.4928993,26.7579159 C26.6580311,26.9043467 26.888739,26.9515576 27.0981176,26.8817647 L28.7615294,26.3272941 C29.0852007,26.2194036 29.2601257,25.8695537 29.1522353,25.5458824 C29.0443448,25.222211 28.6944949,25.047286 28.3708235,25.1551765 Z" id="Path"></path>
            </g>
        </g>
    </g>
</svg>