<svg width="28" height="23" viewBox="0 0 28 23" fill="none" xmlns="http://www.w3.org/2000/svg">
<path d="M25.5943 0H22.606V1.2065C22.606 1.35743 22.4806 1.48006 22.3254 1.48006H21.6749C21.5196 1.48006 21.394 1.35737 21.394 1.2065V0H18.4059C18.1818 0 18 0.176962 18 0.395188V6.60481C18 6.8232 18.1818 7 18.4059 7H25.5943C25.8183 7 26 6.82326 26 6.60481V0.395132C26 0.176962 25.8183 0 25.5943 0Z" fill="#CFCFCF"/>
<path fill-rule="evenodd" clip-rule="evenodd" d="M18.3413 18.6469C18.3413 20.4781 19.825 21.9675 21.6487 21.9675C23.4727 21.9675 24.9566 20.4781 24.9566 18.6469C24.9566 16.8157 23.4728 15.3262 21.6487 15.3262C19.825 15.3262 18.3413 16.8157 18.3413 18.6469ZM20.0078 18.6469C20.0078 17.7386 20.7441 16.9996 21.6487 16.9996C22.5535 16.9996 23.2896 17.7386 23.2897 18.6469C23.2897 19.555 22.5535 20.2943 21.6487 20.2943C20.7441 20.2943 20.0078 19.555 20.0078 18.6469Z" fill="#BC2C3D"/>
<path fill-rule="evenodd" clip-rule="evenodd" d="M0 18.6469C0 20.4781 1.48389 21.9675 3.3076 21.9675C5.13137 21.9675 6.6152 20.4781 6.6152 18.6469C6.6152 16.8157 5.13137 15.3262 3.3076 15.3262C1.48389 15.3262 0 16.8157 0 18.6469ZM1.66669 18.6469C1.66669 17.7386 2.4028 16.9996 3.3076 16.9996C4.21246 16.9996 4.94851 17.7386 4.94851 18.6469C4.94851 19.555 4.21246 20.2943 3.3076 20.2943C2.4028 20.2943 1.66669 19.555 1.66669 18.6469Z" fill="#BC2C3D"/>
<path d="M23.2283 12.1482V11.2382H25.5339C26.0556 11.2382 26.4787 10.8139 26.4787 10.2902V9.61523C26.4787 9.09175 26.0556 8.66723 25.5339 8.66723H13.9782C13.4566 8.66723 13.0335 9.09175 13.0335 9.61523V10.3003C13.0335 10.8238 13.4566 11.2484 13.9782 11.2484H15.2559V14.8924H8.85444C8.38547 14.1582 7.77055 13.5267 7.05107 13.0387L9.56913 3.92173H11.8963C12.418 3.92173 12.8407 3.49698 12.8407 2.97339C12.8407 2.44991 12.418 2.02539 11.8963 2.02539C11.8963 2.02539 9.44787 2.02539 8.58844 2.02539C8.47084 2.02539 8.26587 2.0749 8.16541 2.12464C8.01981 2.19749 7.89267 2.30752 7.79987 2.44744L1.09867 12.5333C0.899011 12.8289 0.751697 13.2001 0.861925 13.5262C1.03313 14.0329 1.61198 14.2142 2.20495 14.0376C2.65535 13.9036 3.02918 13.8449 3.5045 13.8449C5.96495 13.8449 7.96667 15.8545 7.96667 18.3247C7.96667 18.8484 8.3893 19.273 8.91095 19.273H16.2422C16.7639 19.273 17.1868 18.8484 17.1868 18.3247C17.1868 15.8545 19.1883 13.8449 21.6487 13.8449C24.1091 13.8449 26.111 15.8545 26.111 18.3247C26.111 18.8484 26.534 19.273 27.0554 19.273C27.5772 19.273 27.9999 18.8484 27.9999 18.3247C27.9999 15.3561 25.9685 12.8549 23.2283 12.1482Z" fill="#BC2C3D"/>
</svg>
