<svg width="50" height="50" viewBox="0 0 50 50" fill="none" xmlns="http://www.w3.org/2000/svg">
<path d="M5.65467 19.7167C5.2895 20.1668 4.70484 20.5215 4.12019 20.4707C4.04765 19.8628 4.33409 19.2159 4.66888 18.8172C5.03406 18.3547 5.67327 18.0248 6.19097 18C6.25173 18.6333 6.01427 19.2543 5.65467 19.7167ZM6.12277 20.7852C5.27028 20.7852 4.66082 21.2495 4.26279 21.2495C3.85855 21.2495 3.2553 20.7908 2.55781 20.7908C1.70532 20.7908 0.870805 21.3251 0.43061 22.1039C-0.473961 23.6608 0.195632 25.9663 1.06982 27.2335C1.49824 27.8613 2.01531 28.5237 2.71281 28.5237C3.35202 28.4995 3.5684 28.1368 4.34029 28.1368C5.11776 28.1368 5.34778 28.5237 6.04527 28.5237C6.74276 28.5237 7.1656 27.8854 7.59339 27.2577C8.08195 26.5457 8.28096 25.8518 8.29274 25.8152C8.28096 25.8035 6.9424 25.2903 6.93 23.745C6.91822 22.4536 7.98523 21.8377 8.03359 21.8018C7.43033 20.909 6.43276 20.7852 6.20027 20.7852H6.12277ZM14.696 19.2375H11.1602V28.5237H12.6327V25.4283H14.6477C16.4971 25.4283 17.8251 24.1437 17.8251 22.3329C17.8251 20.5221 16.5213 19.2375 14.696 19.2375ZM14.3377 24.1902H12.6327V20.4757H14.3377C15.6068 20.4757 16.3527 21.1598 16.3527 22.3329C16.3527 23.5061 15.613 24.1902 14.3377 24.1902ZM21.2035 21.7138C19.6603 21.7138 18.5195 22.5781 18.4774 23.7661H19.7862C19.8941 23.2015 20.4285 22.8313 21.1613 22.8313C22.0498 22.8313 22.552 23.2368 22.552 23.984L22.5526 24.4997L20.7354 24.5956C19.0484 24.6953 18.1351 25.372 18.1351 26.5482C18.1351 27.7362 19.0781 28.5243 20.4291 28.5243C21.3417 28.5243 22.1887 28.0718 22.5724 27.3543H22.6022V28.4537H23.947V23.8905C23.9476 22.5663 22.8669 21.7138 21.2035 21.7138ZM22.5483 25.9657C22.5483 26.8243 21.8036 27.436 20.8191 27.436C20.0447 27.436 19.5518 27.0713 19.5518 26.5129C19.5518 25.9366 20.0261 25.6016 20.9332 25.5484L22.5526 25.4283L22.5483 25.9657ZM29.5089 21.7138L27.7816 27.2137H27.7512L26.0233 21.7138H24.4901L26.975 28.4921L26.8417 28.9044C26.6173 29.6034 26.254 29.872 25.6054 29.872C25.4945 29.872 25.2843 29.8609 25.1876 29.8491V30.9666C25.2855 30.9882 25.6265 31 25.7325 31C27.1629 31 27.8356 30.4626 28.4239 28.832L31 21.7138H29.5089Z" fill="#353535"/>
</svg>
