<svg width="29" height="29" viewBox="0 0 29 29" fill="none" xmlns="http://www.w3.org/2000/svg">
<path fill-rule="evenodd" clip-rule="evenodd" d="M19 18.5C19 19.8786 17.8783 21 16.5 21C15.1217 21 14 19.8786 14 18.5C14 17.1214 15.1217 16 16.5 16C17.8783 16 19 17.1214 19 18.5ZM17.8462 18.5C17.8462 17.7577 17.2423 17.1538 16.5 17.1538C15.7577 17.1538 15.1538 17.7577 15.1538 18.5C15.1538 19.2423 15.7577 19.8462 16.5 19.8462C17.2423 19.8462 17.8462 19.2423 17.8462 18.5Z" fill="black"/>
<path fill-rule="evenodd" clip-rule="evenodd" d="M14 11.5C14 12.8786 12.8783 14 11.5 14C10.1217 14 9 12.8786 9 11.5C9 10.1214 10.1217 9 11.5 9C12.8783 9 14 10.1214 14 11.5ZM12.8462 11.5C12.8462 10.7577 12.2423 10.1538 11.5 10.1538C10.7577 10.1538 10.1538 10.7577 10.1538 11.5C10.1538 12.2423 10.7577 12.8462 11.5 12.8462C12.2423 12.8462 12.8462 12.2423 12.8462 11.5Z" fill="black"/>
<path d="M9.24134 19.8842C9.3554 19.962 9.4904 20 9.62477 20C9.81101 20 9.99539 19.9268 10.1185 19.7877L18.8683 9.88757C19.0802 9.64804 19.0312 9.30236 18.7587 9.11564C18.4862 8.92946 18.0934 8.97263 17.8815 9.21244L9.13165 19.1126C8.91978 19.3521 8.96884 19.6975 9.24134 19.8842Z" fill="black"/>
<path d="M27.1705 11.1047L27.3673 8.60898C27.4433 7.64511 26.9079 6.7177 26.035 6.30102L23.7753 5.22387L22.6978 2.96413C22.2815 2.09041 21.3533 1.55732 20.3903 1.6318L17.895 1.82857L15.8321 0.4104C15.0352 -0.1368 13.964 -0.1368 13.1675 0.4104L11.1046 1.82857L8.60973 1.6318C7.64589 1.55968 6.7181 2.0912 6.30183 2.96413L5.22432 5.22387L2.96464 6.30102C2.09173 6.7177 1.5563 7.64511 1.63234 8.60898L1.82911 11.1047L0.410976 13.1673C-0.136992 13.9642 -0.136992 15.0354 0.410976 15.8319L1.82911 17.8949L1.63234 20.3906C1.5563 21.3545 2.09173 22.2819 2.96464 22.6986L5.22432 23.7757L6.30183 26.0355C6.7181 26.9088 7.64589 27.4399 8.60934 27.3678L11.1046 27.171L13.1675 28.5892C13.5661 28.8628 14.033 29 14.4998 29C14.9666 29 15.4339 28.8628 15.8321 28.5892L18.1239 27.0135C18.481 26.7681 18.5712 26.2801 18.3258 25.9234C18.0808 25.5663 17.5924 25.4761 17.2357 25.7211L14.9439 27.2969C14.6781 27.4799 14.3219 27.4799 14.0557 27.2969L11.5354 25.5639L8.48587 25.8042C8.16485 25.8364 7.85598 25.6513 7.71722 25.3605L6.401 22.5994L3.63999 21.2828C3.34876 21.144 3.17042 20.8347 3.1959 20.5137L3.43617 17.4645L1.70368 14.9433C1.52102 14.678 1.52102 14.3213 1.70368 14.0555L3.43617 11.5347L3.1959 8.48551C3.17081 8.16448 3.34915 7.85521 3.63999 7.71645L6.401 6.3998L7.71722 3.63872C7.85598 3.34787 8.16289 3.16286 8.48626 3.195L11.5354 3.43528L14.0561 1.70235C14.3219 1.5193 14.6781 1.5193 14.9443 1.70235L17.4646 3.43528L20.5141 3.195C20.8367 3.16639 21.1444 3.34826 21.2828 3.63872L22.599 6.3998L25.36 7.71645C25.6512 7.85521 25.8296 8.16448 25.8041 8.48551L25.5638 11.5347L27.2963 14.0559C27.479 14.3213 27.479 14.678 27.2963 14.9437L25.5638 17.4645L25.8041 20.5137C25.8292 20.8347 25.6508 21.144 25.36 21.2828L22.599 22.5994L21.2828 25.3605C21.144 25.6513 20.8324 25.8289 20.5133 25.8042L20.0489 25.7678C19.6161 25.7341 19.2398 26.0563 19.2061 26.4882C19.1724 26.9202 19.495 27.2969 19.9266 27.331L20.3903 27.3674C21.3592 27.4407 22.2823 26.9084 22.6982 26.0351L23.7757 23.7753L26.0354 22.6982C26.9083 22.2815 27.4437 21.3541 27.3677 20.3902L27.1709 17.8945L28.589 15.8319C29.137 15.035 29.137 13.9638 28.589 13.1673L27.1705 11.1047Z" fill="black"/>
</svg>
