<svg width="25" height="20" viewBox="0 0 25 20" fill="none" xmlns="http://www.w3.org/2000/svg">
<path fill-rule="evenodd" clip-rule="evenodd" d="M22.6629 6.09289C23.1825 6.09289 23.6648 6.31846 23.9864 6.71166C24.302 7.09772 24.4184 7.59401 24.3059 8.07344L21.8018 18.7356C21.627 19.4801 20.9513 20 20.1589 20H4.18897C3.39648 20 2.72087 19.4801 2.54601 18.7356L0.0419459 8.07348C-0.0706152 7.59406 0.0458454 7.09776 0.361463 6.7117C0.682978 6.31846 1.16532 6.09293 1.6849 6.09293H6.37395L8.91663 0.417272C9.07427 0.0652844 9.4948 -0.0954349 9.85578 0.0583309C10.2168 0.21205 10.3816 0.621938 10.224 0.97388L7.93069 6.09293H16.4171L14.1238 0.97388C13.9661 0.621938 14.131 0.212004 14.492 0.0583309C14.8531 -0.0954349 15.2736 0.0653771 15.4312 0.417272L17.9739 6.09289H22.6629ZM4.18898 18.6093H20.1589C20.28 18.6093 20.3861 18.5319 20.4112 18.4252L22.9153 7.7631C22.9349 7.67952 22.9019 7.61657 22.8708 7.57846C22.8419 7.54304 22.7764 7.48366 22.663 7.48366H18.597L18.7838 7.90073C18.9415 8.25268 18.7767 8.66261 18.4156 8.81628C18.3227 8.85587 18.2258 8.8746 18.1305 8.8746C17.8556 8.8746 17.5936 8.71875 17.4765 8.45739L17.0403 7.48375H7.30769L6.87148 8.45739C6.7544 8.7187 6.49237 8.8746 6.21741 8.8746C6.12207 8.8746 6.02525 8.85587 5.93232 8.81628C5.57129 8.66256 5.40647 8.25268 5.56411 7.90073L5.75095 7.48366H1.68491C1.57154 7.48366 1.50606 7.54304 1.47715 7.57846C1.44595 7.61652 1.413 7.67947 1.43264 7.76315L3.93671 18.4251C3.96177 18.5319 4.06786 18.6093 4.18898 18.6093Z" fill="#2C2627"/>
<path d="M7.82611 9.56519C7.34588 9.56519 6.95654 9.8989 6.95654 10.3105V15.7764C6.95654 16.188 7.34588 16.5217 7.82611 16.5217C8.30634 16.5217 8.69567 16.188 8.69567 15.7764V10.3105C8.69567 9.8989 8.3064 9.56519 7.82611 9.56519Z" fill="#2C2627"/>
<path d="M12.1739 9.56519C11.6937 9.56519 11.3043 9.8989 11.3043 10.3105V15.7764C11.3043 16.188 11.6937 16.5217 12.1739 16.5217C12.6541 16.5217 13.0435 16.188 13.0435 15.7764V10.3105C13.0435 9.8989 12.6541 9.56519 12.1739 9.56519Z" fill="#2C2627"/>
<path d="M16.5217 9.56519C16.0414 9.56519 15.6521 9.8989 15.6521 10.3105V15.7764C15.6521 16.188 16.0414 16.5217 16.5217 16.5217C17.0019 16.5217 17.3912 16.188 17.3912 15.7764V10.3105C17.3912 9.8989 17.0019 9.56519 16.5217 9.56519Z" fill="#2C2627"/>
</svg>
