<svg width="20" height="20" viewBox="0 0 20 20" fill="none" xmlns="http://www.w3.org/2000/svg">
<path fill-rule="evenodd" clip-rule="evenodd" d="M10 0C4.47702 0 0 4.47702 0 10C0 15.523 4.47702 20 10 20C15.523 20 20 15.523 20 10C20 4.47702 15.523 0 10 0ZM14.1709 4.71774C14.0798 4.71774 13.9891 4.73266 13.9004 4.76451L7.65439 7.01653C7.35237 7.1254 7.12616 7.35161 7.01729 7.65362L4.76527 13.9C4.53745 14.5318 5.1818 15.2818 5.82979 15.2818C5.92092 15.2818 6.01164 15.2669 6.10035 15.2351L12.3463 12.9831C12.6483 12.8742 12.8745 12.648 12.9834 12.346L15.2354 6.09999C15.4629 5.46814 14.8189 4.71774 14.1709 4.71774ZM10.6843 9.31573C10.3065 8.9379 9.69357 8.9379 9.31575 9.31573C8.93752 9.69355 8.93752 10.3065 9.31575 10.6843C9.69357 11.0621 10.3065 11.0621 10.6843 10.6843C11.0625 10.3065 11.0625 9.69355 10.6843 9.31573ZM6.15685 13.8428L11.806 11.8061L13.8431 6.15648L8.19354 8.19317L6.15685 13.8428ZM1.29038 9.99996C1.29038 14.8024 5.19763 18.7096 10.0001 18.7096C14.8025 18.7096 18.7097 14.8024 18.7097 9.99996C18.7097 5.19754 14.8025 1.29028 10.0001 1.29028C5.19763 1.29028 1.29038 5.19754 1.29038 9.99996Z" fill="#2C2627"/>
</svg>
