<svg width="22" height="20" viewBox="0 0 22 20" fill="none" xmlns="http://www.w3.org/2000/svg">
<path fill-rule="evenodd" clip-rule="evenodd" d="M10.1056 19.6734C10.3399 19.8841 10.6405 20 10.9524 20C11.2641 20 11.5649 19.8841 11.799 19.6738C12.6859 18.8778 13.5404 18.1304 14.2944 17.4711L14.2948 17.4708C16.5011 15.5411 18.4065 13.8747 19.7324 12.2327C21.2146 10.3974 21.9048 8.65708 21.9048 6.75591C21.9048 4.90876 21.2878 3.20464 20.1672 1.95726C19.0333 0.695126 17.4772 0 15.7857 0C14.5212 0 13.3633 0.410249 12.344 1.21926C11.8294 1.62762 11.3633 2.1274 10.9524 2.71036C10.5416 2.1274 10.0753 1.62762 9.56094 1.21926C8.54167 0.410249 7.3837 0 6.11927 0C4.42751 0 2.87162 0.695126 1.73771 1.95726C0.617174 3.20464 0 4.90876 0 6.75591C0 8.65708 0.690373 10.3974 2.17256 12.2329C3.49849 13.8747 5.40416 15.5415 7.61098 17.4714L7.61483 17.4749C8.36753 18.1331 9.22068 18.8794 10.1056 19.6734ZM2.68101 2.8498C3.56926 1.86123 4.79023 1.31686 6.11934 1.31686C7.09281 1.31686 7.98674 1.63449 8.77605 2.26084C9.47962 2.81928 9.96962 3.52521 10.2567 4.01915C10.4045 4.27316 10.6645 4.42477 10.9525 4.42477C11.2404 4.42477 11.5004 4.27316 11.6482 4.01915C11.9355 3.52521 12.4254 2.81928 13.1289 2.26084C13.9182 1.63449 14.8121 1.31686 15.7857 1.31686C17.1147 1.31686 18.3358 1.86123 19.2239 2.8498C20.1253 3.8533 20.6219 5.24047 20.6219 6.75592C20.6219 8.3549 20.0428 9.78494 18.7446 11.3927C17.4908 12.9453 15.6267 14.5758 13.4681 16.4639L13.4623 16.469C12.7052 17.1308 11.8474 17.8812 10.9506 18.6826C10.0592 17.8827 9.20271 17.1336 8.44716 16.4728L8.44314 16.4693L8.44186 16.4682C6.28121 14.5785 4.41514 12.9464 3.16048 11.3927C1.86212 9.78494 1.28305 8.3549 1.28305 6.75592C1.28305 5.24047 1.77957 3.8533 2.68101 2.8498Z" fill="#2C2627"/>
</svg>
