<svg width="14" height="18" viewBox="0 0 14 18" fill="none" xmlns="http://www.w3.org/2000/svg">
<path fill-rule="evenodd" clip-rule="evenodd" d="M7 0C3.13399 0 0 3.02207 0 6.75C0 8.98617 0.663822 9.89807 3.83905 14.26L3.83909 14.26C4.52831 15.2068 5.33585 16.3161 6.2806 17.6368C6.6282 18.121 7.37177 18.1211 7.71943 17.6368C8.66421 16.3161 9.47177 15.2067 10.161 14.2599C13.3362 9.89807 14 8.98616 14 6.75C14 3.02207 10.866 0 7 0ZM3.5 6.75C3.5 4.88901 5.07008 3.375 7 3.375C8.92992 3.375 10.5 4.88901 10.5 6.75C10.5 8.611 8.92992 10.125 7 10.125C5.07008 10.125 3.5 8.611 3.5 6.75ZM4.66667 6.75C4.66667 7.99067 5.71339 9 7 9C8.28661 9 9.33333 7.99067 9.33333 6.75C9.33333 5.50934 8.28661 4.5 7 4.5C5.71339 4.5 4.66667 5.50934 4.66667 6.75ZM4.72983 13.5232C5.36899 14.4019 6.11951 15.4338 7 16.6616C7.88038 15.4339 8.63083 14.4022 9.26993 13.5235C12.3178 9.33302 12.8333 8.62423 12.8333 6.75C12.8333 5.24749 12.2266 3.83495 11.1248 2.77253C10.023 1.71011 8.55816 1.125 7 1.125C5.44184 1.125 3.97698 1.71011 2.87521 2.77253C1.77344 3.83495 1.16667 5.24749 1.16667 6.75C1.16667 8.62426 1.68247 9.33343 4.72983 13.5232Z" fill="white"/>
</svg>
