<svg width="65" height="63" viewBox="0 0 65 63" fill="none" xmlns="http://www.w3.org/2000/svg">
<rect opacity="0.661528" width="65" height="63" fill="#9E2432"/>
<mask id="mask0" mask-type="alpha" maskUnits="userSpaceOnUse" x="0" y="0" width="65" height="63">
<rect width="65" height="63" fill="white"/>
</mask>
<g mask="url(#mask0)">
<path d="M46.3499 39.9376L41.8713 35.4484C40.9792 34.5579 39.502 34.5849 38.5788 35.5105L36.3225 37.7714C36.1799 37.6927 36.0324 37.6104 35.8773 37.5232C34.4524 36.7319 32.5023 35.6473 30.4501 33.5891C28.3919 31.5264 27.3088 29.5689 26.5169 28.1399C26.4333 27.9885 26.3533 27.8425 26.2742 27.7039L27.7885 26.1884L28.533 25.4413C29.4576 24.5144 29.4831 23.0342 28.5931 22.1411L24.1145 17.6514C23.2245 16.7595 21.7466 16.7866 20.8221 17.7135L19.5599 18.9858L19.5943 19.0202C19.1711 19.5614 18.8174 20.1857 18.5542 20.8589C18.3116 21.4997 18.1606 22.1112 18.0915 22.724C17.5001 27.6377 19.7405 32.1284 25.8205 38.2223C34.2249 46.6451 40.9977 46.0088 41.2899 45.9778C41.9263 45.9015 42.5361 45.7491 43.1559 45.5079C43.8218 45.2472 44.4442 44.8932 44.9839 44.4699L45.0115 44.4945L46.2902 43.2395C47.2129 42.3128 47.2394 40.8321 46.3499 39.9376Z" fill="white"/>
</g>
</svg>
