<svg width="407" height="328" viewBox="0 0 407 328" fill="none" xmlns="http://www.w3.org/2000/svg">
<circle opacity="0.16243" cx="309" cy="36" r="5" fill="#DBB497"/>
<circle opacity="0.16243" cx="229" cy="118" r="5" fill="#DBB497"/>
<circle opacity="0.170184" cx="339.5" cy="38.5" r="2.5" fill="#DBB497"/>
<circle opacity="0.301364" cx="328" cy="90" r="5" fill="#DBB497"/>
<circle opacity="0.405007" cx="134" cy="115" r="5" fill="#DBB497"/>
<circle opacity="0.149778" cx="116.5" cy="100.5" r="2.5" fill="#48D2A0"/>
<g opacity="0.364272">
<path d="M232.038 46.7126L224.954 34.4429" stroke="#DBB497" stroke-width="7" stroke-linecap="round"/>
<path d="M222.362 44.1195L234.631 37.0356" stroke="#DBB497" stroke-width="7" stroke-linecap="round"/>
</g>
<path d="M301.136 250.889L314.774 258.763" stroke="#EFD2BC" stroke-width="6" stroke-linecap="round"/>
<path d="M311.891 248.007L304.018 261.645" stroke="#EFD2BC" stroke-width="6" stroke-linecap="round"/>
<circle opacity="0.223822" cx="88" cy="252" r="5" fill="#DBB497"/>
<circle opacity="0.223822" cx="193" cy="103" r="5" fill="#DBB497"/>
<circle opacity="0.135378" cx="241.5" cy="265.5" r="2.5" fill="#48D2A0"/>
<g opacity="0.608515">
<path d="M326.005 135.742L335.991 133.066" stroke="#BC2C3D" stroke-width="6" stroke-linecap="round"/>
<path d="M329.668 129.415L332.344 139.401" stroke="#BC2C3D" stroke-width="6" stroke-linecap="round"/>
</g>
<circle cx="187.5" cy="66.5" r="4.5" stroke="#BC2C3D" stroke-width="3"/>
<circle cx="157.5" cy="146.5" r="4.5" stroke="#BC2C3D" stroke-width="3"/>
<circle cx="306.5" cy="64.5" r="6.5" stroke="#BC2C3D" stroke-width="4"/>
<circle cx="287.5" cy="47.5" r="3.5" fill="#BC2C3D"/>
<circle cx="142.5" cy="81.5" r="3.5" fill="#BC2C3D"/>
<circle cx="85.5" cy="230.5" r="4.5" stroke="#BC2C3D" stroke-width="3"/>
<circle cx="105.5" cy="248.5" r="3.5" fill="#BC2C3D"/>
<circle opacity="0.223822" cx="241" cy="302" r="5" fill="#DBB497"/>
<circle cx="148.5" cy="290.5" r="4.5" stroke="#BC2C3D" stroke-width="3"/>
<circle cx="208.5" cy="279.5" r="3.5" fill="#BC2C3D"/>
<circle cx="87.5" cy="140.5" r="1.5" fill="#BC2C3D"/>
<circle cx="310.5" cy="198.5" r="4.5" stroke="#BC2C3D" stroke-width="3"/>
<circle cx="267.5" cy="142.5" r="3.5" fill="#BC2C3D"/>
<path fill-rule="evenodd" clip-rule="evenodd" d="M309.289 156.301H100.395C96.863 156.301 94 159.163 94 162.695V172.442C94 175.974 96.863 178.837 100.395 178.837H309.289C312.821 178.837 315.684 175.974 315.684 172.442V162.695C315.684 159.163 312.821 156.301 309.289 156.301Z" fill="#2C2627"/>
<path fill-rule="evenodd" clip-rule="evenodd" d="M149.597 280.109H260.087C274.963 280.109 287.75 269.562 290.58 254.958H119.104C121.934 269.562 134.721 280.109 149.597 280.109Z" fill="#2C2627"/>
<path fill-rule="evenodd" clip-rule="evenodd" d="M287.295 207.518C286.526 212.405 282.316 216.003 277.369 216.003H254.339L255.836 200.431C256.331 195.278 260.661 191.344 265.838 191.344H289.843L287.295 207.518ZM282.307 239.192C281.536 244.077 277.326 247.676 272.38 247.676H251.294L252.502 235.109C252.998 229.954 257.328 226.021 262.505 226.021H284.381L282.307 239.192ZM243.101 206.686C242.718 211.939 238.345 216.003 233.078 216.003H210.801L210.972 201.277C211.035 195.773 215.515 191.344 221.02 191.344H244.221L243.101 206.686ZM240.789 238.359C240.406 243.611 236.033 247.676 230.768 247.676H210.435L210.57 235.953C210.634 230.45 215.113 226.021 220.618 226.021H241.69L240.789 238.359ZM178.917 247.676C173.651 247.676 169.278 243.611 168.894 238.359L167.994 226.021H189.066C194.57 226.021 199.05 230.45 199.114 235.953L199.25 247.676H178.917ZM165.464 191.344H188.664C194.169 191.344 198.649 195.773 198.713 201.277L198.883 216.003H176.605C171.339 216.003 166.966 211.939 166.583 206.686L165.464 191.344ZM137.304 247.676C132.358 247.676 128.147 244.077 127.378 239.192L125.303 226.021H147.179C152.356 226.021 156.686 229.954 157.181 235.109L158.389 247.676H137.304ZM122.389 207.518L119.841 191.344H143.846C149.023 191.344 153.353 195.278 153.848 200.431L155.345 216.003H132.315C127.369 216.003 123.158 212.405 122.389 207.518ZM104.353 178.837L119.104 254.958H290.58L305.33 178.837H104.353Z" fill="#BC2C3D"/>
<path fill-rule="evenodd" clip-rule="evenodd" d="M185.939 182.514L193.406 188.779C195.377 190.433 197.878 191.344 200.449 191.344C203.699 191.344 206.761 189.917 208.85 187.428L216.06 178.837H183.098C183.764 180.234 184.718 181.49 185.939 182.514Z" fill="#2C2627"/>
<path fill-rule="evenodd" clip-rule="evenodd" d="M188.087 170.006L277.637 63.285C279.907 60.579 283.941 60.226 286.647 62.496L294.112 68.762C296.819 71.032 297.171 75.065 294.901 77.771L205.351 184.492C203.081 187.198 199.047 187.551 196.342 185.281L188.875 179.015C186.17 176.745 185.817 172.712 188.087 170.006Z" fill="#BC2C3D"/>
<path fill-rule="evenodd" clip-rule="evenodd" d="M209.216 171.239C207.189 173.654 203.588 173.97 201.172 171.942C198.757 169.915 198.441 166.314 200.468 163.899C202.495 161.483 206.096 161.168 208.512 163.195C210.928 165.222 211.242 168.823 209.216 171.239Z" fill="#2C2627"/>
</svg>
