<svg width="24" height="30" viewBox="0 0 24 30" fill="none" xmlns="http://www.w3.org/2000/svg">
<path fill-rule="evenodd" clip-rule="evenodd" d="M7.12939 11.5465C7.12939 8.89533 9.31763 6.73254 12 6.73254C14.6823 6.73254 16.8706 8.89533 16.8706 11.5465C16.8706 14.1977 14.6823 16.3605 12 16.3605C9.31763 16.3605 7.12939 14.1977 7.12939 11.5465ZM8.54116 11.5465C8.54116 13.4302 10.0941 14.9651 12 14.9651C13.9059 14.9651 15.4588 13.4302 15.4588 11.5465C15.4588 9.66278 13.9059 8.12789 12 8.12789C10.0941 8.12789 8.54116 9.66278 8.54116 11.5465Z" fill="black"/>
<path fill-rule="evenodd" clip-rule="evenodd" d="M0.176514 11.5465C0.176514 5.23255 5.47063 0.139526 12 0.139526C18.5295 0.139526 23.8236 5.23255 23.7883 11.5116C23.7883 13.9884 22.9765 16.3605 21.4589 18.3488L13.1295 29.3023C12.8471 29.6512 12.4589 29.8605 12 29.8605C11.5412 29.8605 11.153 29.6512 10.8706 29.3023L2.50593 18.3837C0.988278 16.3953 0.176514 14.0232 0.176514 11.5465ZM12 28.4651L20.3295 17.5465C21.7059 15.8023 22.4118 13.7093 22.4471 11.5116C22.4471 5.99999 17.753 1.49999 12.0353 1.49999C6.2824 1.49999 1.62357 5.99999 1.62357 11.5116C1.62357 13.7093 2.32945 15.7674 3.67063 17.5116L12 28.4651Z" fill="black"/>
</svg>
