<svg width="50" height="50" viewBox="0 0 50 50" fill="none" xmlns="http://www.w3.org/2000/svg">
<path fill-rule="evenodd" clip-rule="evenodd" d="M47.8377 20.0068C48.4301 20.0068 48.98 20.2662 49.3465 20.7184C49.7064 21.1624 49.8391 21.7331 49.7108 22.2845L46.8559 34.5459C46.6566 35.4021 45.8863 36 44.9828 36H26.7758C25.8723 36 25.102 35.4021 24.9027 34.5459L22.0478 22.2845C21.9195 21.7332 22.0523 21.1624 22.4121 20.7185C22.7787 20.2662 23.3286 20.0069 23.9209 20.0069H29.2669L32.1657 13.4799C32.3455 13.0751 32.8249 12.8902 33.2364 13.0671C33.648 13.2439 33.836 13.7152 33.6562 14.12L31.0417 20.0069H40.717L38.1024 14.12C37.9226 13.7152 38.1106 13.2438 38.5222 13.0671C38.9338 12.8902 39.4132 13.0752 39.5929 13.4799L42.4918 20.0068H47.8377ZM26.7757 34.4006H44.9827C45.1208 34.4006 45.2418 34.3116 45.2705 34.1889L48.1253 21.9275C48.1477 21.8314 48.1101 21.759 48.0746 21.7152C48.0416 21.6745 47.967 21.6062 47.8377 21.6062H43.2021L43.4151 22.0858C43.5949 22.4906 43.4069 22.962 42.9953 23.1387C42.8894 23.1842 42.7789 23.2058 42.6703 23.2058C42.3568 23.2058 42.0581 23.0265 41.9246 22.726L41.4273 21.6063H30.3313L29.834 22.726C29.7005 23.0265 29.4018 23.2058 29.0883 23.2058C28.9796 23.2058 28.8692 23.1842 28.7633 23.1387C28.3517 22.9619 28.1637 22.4906 28.3435 22.0858L28.5565 21.6062H23.9208C23.7916 21.6062 23.7169 21.6745 23.684 21.7152C23.6484 21.759 23.6108 21.8314 23.6332 21.9276L26.4881 34.1889C26.5167 34.3116 26.6376 34.4006 26.7757 34.4006Z" fill="white"/>
<path d="M31.1208 24.1035C30.4638 24.1035 29.9312 24.4839 29.9312 24.9532V31.1847C29.9312 31.654 30.4638 32.0345 31.1208 32.0345C31.7778 32.0345 32.3105 31.654 32.3105 31.1847V24.9532C32.3105 24.4839 31.7779 24.1035 31.1208 24.1035Z" fill="white"/>
<path d="M35.8794 24.1035C35.2223 24.1035 34.6897 24.4839 34.6897 24.9532V31.1847C34.6897 31.654 35.2223 32.0345 35.8794 32.0345C36.5364 32.0345 37.069 31.654 37.069 31.1847V24.9532C37.069 24.4839 36.5364 24.1035 35.8794 24.1035Z" fill="white"/>
<path d="M40.6379 24.1035C39.9809 24.1035 39.4482 24.4839 39.4482 24.9532V31.1847C39.4482 31.654 39.9809 32.0345 40.6379 32.0345C41.2949 32.0345 41.8276 31.654 41.8276 31.1847V24.9532C41.8275 24.4839 41.2949 24.1035 40.6379 24.1035Z" fill="white"/>
</svg>
