<svg width="50" height="50" viewBox="0 0 50 50" fill="none" xmlns="http://www.w3.org/2000/svg">
<path fill-rule="evenodd" clip-rule="evenodd" d="M36.578 19.8347C37.3249 19.8347 38.0182 20.1618 38.4804 20.7319C38.9341 21.2917 39.1015 22.0113 38.9397 22.7065L35.3401 38.1666C35.0887 39.2461 34.1176 40 32.9784 40H10.0216C8.88243 40 7.91125 39.2461 7.6599 38.1666L4.0603 22.7066C3.89849 22.0114 4.0659 21.2918 4.5196 20.732C4.98178 20.1618 5.67515 19.8348 6.42204 19.8348H13.1626L16.8177 11.605C17.0443 11.0947 17.6488 10.8616 18.1677 11.0846C18.6867 11.3075 18.9236 11.9018 18.697 12.4121L15.4004 19.8348H27.5996L24.303 12.4121C24.0763 11.9018 24.3133 11.3074 24.8323 11.0846C25.3513 10.8616 25.9557 11.0948 26.1823 11.605L29.8375 19.8347H36.578ZM10.0216 37.9834H32.9784C33.1525 37.9834 33.305 37.8712 33.3411 37.7165L36.9407 22.2565C36.969 22.1353 36.9215 22.044 36.8768 21.9887C36.8352 21.9374 36.7411 21.8513 36.5781 21.8513H30.7332L31.0017 22.456C31.2284 22.9663 30.9914 23.5608 30.4724 23.7836C30.3389 23.841 30.1996 23.8681 30.0626 23.8681C29.6674 23.8681 29.2907 23.6422 29.1224 23.2632L28.4953 21.8514H14.5048L13.8777 23.2632C13.7094 23.6421 13.3328 23.8681 12.9375 23.8681C12.8005 23.8681 12.6613 23.841 12.5277 23.7836C12.0087 23.5607 11.7718 22.9663 11.9984 22.456L12.267 21.8513H6.42204C6.25908 21.8513 6.16495 21.9374 6.12338 21.9887C6.07854 22.0439 6.03117 22.1352 6.0594 22.2565L9.659 37.7164C9.69502 37.8712 9.84753 37.9834 10.0216 37.9834Z" fill="white"/>
<path d="M15.5 25C14.6716 25 14 25.4797 14 26.0714V33.9286C14 34.5203 14.6716 35 15.5 35C16.3284 35 17 34.5203 17 33.9286V26.0714C17 25.4797 16.3285 25 15.5 25Z" fill="white"/>
<path d="M21.5 25C20.6716 25 20 25.4797 20 26.0714V33.9286C20 34.5203 20.6716 35 21.5 35C22.3284 35 23 34.5203 23 33.9286V26.0714C23 25.4797 22.3284 25 21.5 25Z" fill="white"/>
<path d="M27.5 25C26.6716 25 26 25.4797 26 26.0714V33.9286C26 34.5203 26.6716 35 27.5 35C28.3284 35 29 34.5203 29 33.9286V26.0714C28.9999 25.4797 28.3284 25 27.5 25Z" fill="white"/>
</svg>
