<svg width="349" height="176" viewBox="0 0 349 176" fill="none" xmlns="http://www.w3.org/2000/svg">
<path d="M333.583 0.853516H14.928C6.69845 0.853516 0 6.15196 0 12.6615V164.046C0 170.555 6.69845 175.854 14.928 175.854H333.583C341.812 175.854 348.511 170.555 348.511 164.046V12.6615C348.511 6.15196 341.812 0.853516 333.583 0.853516Z" fill="url(#paint0_linear)"/>
<path opacity="0.23" d="M91.0991 0.853516L174.925 175.854H248.034L164.208 0.853516H91.0991Z" fill="url(#paint1_linear)"/>
<path opacity="0.23" d="M175.882 0.853516L259.9 175.854H279.421L195.404 0.853516H175.882Z" fill="url(#paint2_linear)"/>
<path opacity="0.23" d="M74.6396 0.853516L158.657 175.854H166.504L82.4864 0.853516H74.6396Z" fill="url(#paint3_linear)"/>
<path d="M84.7832 60.2679H33.6836C31.5784 60.2679 29.856 58.5818 29.856 56.5212V25.4236C29.856 23.3629 31.5784 21.6769 33.6836 21.6769H84.7832C86.8885 21.6769 88.6109 23.3629 88.6109 25.4236V56.5212C88.6109 58.5818 86.8885 60.2679 84.7832 60.2679Z" fill="#F7E466" stroke="#EAC35F" stroke-width="0.9936"/>
<path d="M50.1425 21.4895V60.6425" stroke="#EAC35F" stroke-width="0.9936"/>
<path d="M69.2811 21.4895V60.6425" stroke="#EAC35F" stroke-width="0.9936"/>
<path d="M50.5255 29.1702H29.856" stroke="#EAC35F" stroke-width="0.9936"/>
<path d="M50.5255 37.2256H29.856" stroke="#EAC35F" stroke-width="0.9936"/>
<path d="M50.5255 45.4684H29.856" stroke="#EAC35F" stroke-width="0.9936"/>
<path d="M50.5255 53.5237H29.856" stroke="#EAC35F" stroke-width="0.9936"/>
<path d="M88.9933 29.1702H69.2808" stroke="#EAC35F" stroke-width="0.9667"/>
<path d="M88.9933 37.2256H69.2808" stroke="#EAC35F" stroke-width="0.9667"/>
<path d="M69.281 33.4789H49.7598" stroke="#EAC35F" stroke-width="0.9667"/>
<path d="M69.281 48.6531H49.7598" stroke="#EAC35F" stroke-width="0.9667"/>
<path d="M88.9933 45.4684H69.2808" stroke="#EAC35F" stroke-width="0.9667"/>
<path d="M88.9933 53.5237H69.2808" stroke="#EAC35F" stroke-width="0.9667"/>
<ellipse cx="306" cy="41.5" rx="14" ry="13.5" fill="#FFFFD0"/>
<ellipse opacity="0.5" cx="284" cy="41.5" rx="14" ry="13.5" fill="#FFFFD0"/>
<path d="M254.553 131L251.337 122.996H252.477L255.177 129.908L257.877 122.996H259.017L255.789 131H254.553ZM265.13 131L264.422 129.224H260.438L259.73 131H258.59L261.806 122.996H263.042L266.27 131H265.13ZM262.43 124.028L260.726 128.336H264.122L262.43 124.028ZM267.317 131V122.996H268.313V130.112H272.033V131H267.317ZM273.434 131V122.996H274.43V131H273.434ZM276.305 131V122.996H279.041C279.665 122.996 280.229 123.1 280.733 123.308C281.237 123.508 281.665 123.788 282.017 124.148C282.377 124.508 282.653 124.932 282.845 125.42C283.045 125.908 283.145 126.436 283.145 127.004C283.145 127.572 283.045 128.1 282.845 128.588C282.653 129.076 282.377 129.5 282.017 129.86C281.665 130.212 281.237 130.492 280.733 130.7C280.229 130.9 279.665 131 279.041 131H276.305ZM279.041 130.112C279.529 130.112 279.961 130.032 280.337 129.872C280.721 129.704 281.045 129.48 281.309 129.2C281.573 128.92 281.773 128.592 281.909 128.216C282.045 127.84 282.113 127.436 282.113 127.004C282.113 126.572 282.045 126.168 281.909 125.792C281.773 125.408 281.573 125.076 281.309 124.796C281.053 124.516 280.733 124.296 280.349 124.136C279.973 123.968 279.537 123.884 279.041 123.884H277.301V130.112H279.041Z" fill="white"/>
<defs>
<linearGradient id="paint0_linear" x1="195.463" y1="-34.2306" x2="104.52" y2="161.439" gradientUnits="userSpaceOnUse">
<stop stop-color="#2C2627"/>
<stop offset="1" stop-color="#BC2C3D"/>
</linearGradient>
<linearGradient id="paint1_linear" x1="46.1777" y1="58.6327" x2="158.013" y2="217.433" gradientUnits="userSpaceOnUse">
<stop stop-color="white"/>
<stop offset="1" stop-color="white" stop-opacity="0.01"/>
</linearGradient>
<linearGradient id="paint2_linear" x1="120.487" y1="69.1375" x2="266.032" y2="159.095" gradientUnits="userSpaceOnUse">
<stop stop-color="white"/>
<stop offset="1" stop-color="white" stop-opacity="0.01"/>
</linearGradient>
<linearGradient id="paint3_linear" x1="36.9491" y1="111.076" x2="181.532" y2="181.423" gradientUnits="userSpaceOnUse">
<stop stop-color="white"/>
<stop offset="1" stop-color="white" stop-opacity="0.01"/>
</linearGradient>
</defs>
</svg>
