<svg width="20" height="18" viewBox="0 0 20 18" fill="none" xmlns="http://www.w3.org/2000/svg">
<path d="M19.9601 7.5996C19.8907 7.45585 19.7426 7.36388 19.5788 7.36388H18.3333C17.5414 3.18027 13.7678 0 9.24494 0C4.14758 0 0 4.03779 0 9.00021C0 13.9626 4.14716 18 9.24494 18C12.5347 18 15.6027 16.2763 17.2516 13.5024C17.4839 13.1109 17.3469 12.6109 16.9444 12.3843C16.5427 12.1577 16.0286 12.2911 15.7967 12.6826C14.447 14.9531 11.9364 16.3641 9.24494 16.3641C5.07437 16.3641 1.68082 13.0608 1.68082 9.00104C1.68082 4.94046 5.07437 1.63715 9.24494 1.63715C12.8372 1.63715 15.8469 4.08999 16.6137 7.3643H15.378C15.2142 7.3643 15.0665 7.45626 14.9967 7.60001C14.9274 7.74376 14.9499 7.91319 15.0546 8.0354L17.1559 10.4899C17.2359 10.5831 17.3537 10.6369 17.4788 10.6369C17.6035 10.6369 17.7218 10.5827 17.8014 10.4899L19.9026 8.0354C20.0073 7.91278 20.0294 7.74334 19.9601 7.5996Z" fill="white"/>
<path fill-rule="evenodd" clip-rule="evenodd" d="M8.60253 2.81804C8.60253 2.36615 8.96218 2 9.40604 2C9.8495 2 10.2096 2.36657 10.2104 2.81804V7.78263C10.5415 8.01872 10.7624 8.39647 10.7999 8.82889L13.5977 10.4737C13.9826 10.6994 14.114 11.2002 13.8923 11.5908C13.7434 11.8534 13.4732 12 13.1958 12C13.0591 12 12.9216 11.9648 12.7946 11.8898L9.99962 10.2475C9.81899 10.3341 9.61882 10.3859 9.40645 10.3859C8.63101 10.3859 8 9.74345 8 8.95398C8 8.46854 8.23922 8.04109 8.60253 7.7818V2.81804ZM8.80351 8.95398C8.80351 9.29155 9.07365 9.567 9.40604 9.567C9.73802 9.567 10.0086 9.29155 10.0086 8.95398C10.0086 8.616 9.73802 8.34055 9.40604 8.34055C9.07406 8.34055 8.80351 8.616 8.80351 8.95398Z" fill="white"/>
</svg>
