<svg width="11" height="15" viewBox="0 0 11 15" fill="none" xmlns="http://www.w3.org/2000/svg">
<path fill-rule="evenodd" clip-rule="evenodd" d="M3.0164 11.8833C3.55793 12.6723 4.19244 13.5968 4.93476 14.6974C5.20787 15.1009 5.7921 15.1009 6.06524 14.6974C6.80756 13.5968 7.44207 12.6723 7.9836 11.8833C10.4784 8.24839 11 7.48847 11 5.625C11 2.51839 8.53758 0 5.5 0C2.46242 0 0 2.51839 0 5.625C0 7.48847 0.521575 8.24839 3.0164 11.8833ZM7.79167 5.625C7.79167 6.91942 6.76566 7.96875 5.5 7.96875C4.23434 7.96875 3.20833 6.91942 3.20833 5.625C3.20833 4.33058 4.23434 3.28125 5.5 3.28125C6.76566 3.28125 7.79167 4.33058 7.79167 5.625Z" fill="#B1B1B1"/>
</svg>
