<svg width="67" height="67" viewBox="0 0 67 67" fill="none" xmlns="http://www.w3.org/2000/svg">
<g filter="url(#filter0_d)">
<circle cx="33.5" cy="31.5" r="18.5" fill="white"/>
</g>
<path d="M34.5721 41.3433L38.9307 23.5593C38.9321 23.5536 38.9287 23.5483 38.9298 23.5426C38.9416 23.484 38.937 23.4245 38.9206 23.3654C38.9158 23.3477 38.9113 23.3323 38.904 23.3154C38.8982 23.3021 38.898 23.2876 38.8905 23.2747C38.8632 23.2274 38.8272 23.1886 38.7858 23.158C38.7855 23.1579 38.7855 23.1575 38.7855 23.1575C38.7842 23.1566 38.7827 23.1568 38.7817 23.1561C38.7275 23.1172 38.6639 23.0986 38.5979 23.091C38.5813 23.0891 38.5668 23.088 38.5501 23.0881C38.4831 23.0886 38.4157 23.0997 38.3532 23.1358L22.5843 32.24C22.5211 32.2765 22.4775 32.33 22.4436 32.3887C22.4351 32.4031 22.4288 32.4162 22.4223 32.4314C22.3954 32.4945 22.3794 32.5614 22.3878 32.6299C22.3878 32.6299 22.3876 32.6304 22.3877 32.6307C22.394 32.6827 22.4109 32.7312 22.436 32.7747C22.4615 32.8189 22.496 32.8573 22.5369 32.8883C22.5782 32.9196 22.6249 32.9422 22.6746 32.9549L30.0379 34.8582L33.8463 41.4545C33.926 41.5926 34.0833 41.6671 34.2436 41.6425C34.4036 41.6182 34.5338 41.4996 34.5721 41.3433Z" fill="#BC2C3D"/>
<defs>
<filter id="filter0_d" x="0" y="0" width="67" height="67" filterUnits="userSpaceOnUse" color-interpolation-filters="sRGB">
<feFlood flood-opacity="0" result="BackgroundImageFix"/>
<feColorMatrix in="SourceAlpha" type="matrix" values="0 0 0 0 0 0 0 0 0 0 0 0 0 0 0 0 0 0 127 0"/>
<feOffset dy="2"/>
<feGaussianBlur stdDeviation="7.5"/>
<feColorMatrix type="matrix" values="0 0 0 0 0.737255 0 0 0 0 0.172549 0 0 0 0 0.239216 0 0 0 0.180644 0"/>
<feBlend mode="normal" in2="BackgroundImageFix" result="effect1_dropShadow"/>
<feBlend mode="normal" in="SourceGraphic" in2="effect1_dropShadow" result="shape"/>
</filter>
</defs>
</svg>
