<svg width="18" height="18" viewBox="0 0 18 18" fill="none" xmlns="http://www.w3.org/2000/svg">
<path fill-rule="evenodd" clip-rule="evenodd" d="M0 9C0 4.02944 4.02944 0 9 0C11.3869 0 13.6761 0.948212 15.364 2.63604C17.0518 4.32387 18 6.61305 18 9C18 13.9706 13.9706 18 9 18C4.02944 18 0 13.9706 0 9ZM1.125 9C1.125 13.3492 4.65076 16.875 9 16.875C11.0886 16.875 13.0916 16.0453 14.5685 14.5685C16.0453 13.0916 16.875 11.0886 16.875 9C16.875 4.65076 13.3492 1.125 9 1.125C4.65076 1.125 1.125 4.65076 1.125 9Z" fill="#31AB5F"/>
<path d="M12.7799 6.37867L7.61051 11.548L5.21989 9.16304C4.99671 8.97192 4.66403 8.98477 4.45626 9.19254C4.24849 9.40031 4.23564 9.73299 4.42676 9.95617L6.81176 12.3412C7.02278 12.5524 7.30911 12.6711 7.6077 12.6711C7.90629 12.6711 8.19262 12.5524 8.40364 12.3412L13.573 7.17179C13.7641 6.94861 13.7513 6.61593 13.5435 6.40816C13.3357 6.20039 13.0031 6.18754 12.7799 6.37867Z" fill="#31AB5F"/>
</svg>
