<svg width="275" height="271" viewBox="0 0 275 271" fill="none" xmlns="http://www.w3.org/2000/svg">
<circle opacity="0.16243" cx="205" cy="82" r="5" fill="#DBB497"/>
<circle opacity="0.16243" cx="141" cy="91" r="5" fill="#DBB497"/>
<circle opacity="0.170184" cx="71.5" cy="93.5" r="2.5" fill="#DBB497"/>
<circle opacity="0.301364" cx="207" cy="172" r="5" fill="#DBB497"/>
<circle opacity="0.405007" cx="78" cy="116" r="5" fill="#DBB497"/>
<g opacity="0.364272">
<path d="M151.738 52.7909L144.654 40.5212" stroke="#DBB497" stroke-width="7" stroke-linecap="round"/>
<path d="M142.062 50.1977L154.331 43.1138" stroke="#DBB497" stroke-width="7" stroke-linecap="round"/>
</g>
<path d="M198.331 126.502L211.969 134.376" stroke="#EFD2BC" stroke-width="6" stroke-linecap="round"/>
<path d="M209.086 123.62L201.212 137.258" stroke="#EFD2BC" stroke-width="6" stroke-linecap="round"/>
<circle opacity="0.223822" cx="78" cy="188" r="5" fill="#DBB497"/>
<circle opacity="0.223822" cx="205" cy="51" r="5" fill="#DBB497"/>
<g opacity="0.608515">
<path d="M181.005 217.742L190.991 215.066" stroke="#BC2C3D" stroke-width="6" stroke-linecap="round"/>
<path d="M184.668 211.415L187.344 221.401" stroke="#BC2C3D" stroke-width="6" stroke-linecap="round"/>
</g>
<circle cx="99.5" cy="42.5" r="4.5" stroke="#BC2C3D" stroke-width="3"/>
<circle cx="216.5" cy="98.5" r="4.5" stroke="#BC2C3D" stroke-width="3"/>
<circle cx="50.5" cy="111.5" r="4.5" stroke="#BC2C3D" stroke-width="3"/>
<circle cx="186.5" cy="59.5" r="3.5" fill="#BC2C3D"/>
<circle cx="74.5" cy="66.5" r="3.5" fill="#BC2C3D"/>
<circle cx="73.5" cy="148.5" r="3.5" fill="#BC2C3D"/>
<circle opacity="0.223822" cx="143" cy="235" r="5" fill="#DBB497"/>
<circle cx="83.5" cy="221.5" r="4.5" stroke="#BC2C3D" stroke-width="3"/>
<circle cx="107.5" cy="182.5" r="3.5" fill="#BC2C3D"/>
<circle cx="176.5" cy="177.5" r="4.5" stroke="#BC2C3D" stroke-width="3"/>
<circle cx="179.5" cy="115.5" r="3.5" fill="#BC2C3D"/>
<path d="M148.01 189.069L147.9 188.983L126.155 189.052C108.63 191.045 95.75 197.756 95.75 205.724C95.75 215.264 114.22 223 137 223C159.78 223 178.25 215.264 178.25 205.724C178.25 197.78 165.445 191.087 148.01 189.069Z" fill="#EFD2BC"/>
<path d="M126.155 189.052C110.129 168.794 82 130.122 82 108.285C82 77.7502 106.623 53 137 53C167.377 53 192 77.7502 192 108.285C192 130.098 163.933 168.707 147.9 188.983C141.489 197.092 137 202.268 137 202.268C137 202.268 132.538 197.12 126.155 189.052Z" fill="#BC2C3D"/>
<ellipse cx="175.041" cy="68.3594" rx="3.44118" ry="3.45703" fill="black"/>
<path fill-rule="evenodd" clip-rule="evenodd" d="M91.7647 205.258C91.7647 193.842 108.075 188.081 119.273 186.028C105.478 168.179 78 130.412 78 107.77C78 75.364 104.243 49 136.5 49C146.19 49 155.79 51.4299 164.263 56.0271C165.935 56.9346 166.559 59.032 165.656 60.7117C164.752 62.3918 162.664 63.0179 160.993 62.1108C153.521 58.0567 145.052 55.9141 136.5 55.9141C108.038 55.9141 84.8824 79.1764 84.8824 107.77C84.8824 131.302 120.799 176.838 127.832 185.754C128.575 186.696 128.996 187.23 129.018 187.285C132.108 191.171 134.713 194.332 136.501 196.468C138.428 194.165 141.307 190.67 144.718 186.358C172.299 151.496 188.118 122.852 188.118 107.77C188.118 98.8594 185.832 90.073 181.508 82.3604C180.576 80.6968 181.162 78.5887 182.818 77.6519C184.473 76.7154 186.572 77.3038 187.505 78.9676C192.408 87.7136 195 97.6733 195 107.77C195 130.376 167.603 168.072 153.727 186.028C164.882 188.073 181.235 193.826 181.235 205.258C181.235 217.083 162.003 226 136.5 226C110.997 226 91.7647 217.083 91.7647 205.258ZM136.5 205.258H136.499C135.504 205.258 134.558 204.825 133.905 204.072L133.893 204.057C133.641 203.765 129.722 199.225 124.158 192.249C108.143 194.433 98.6471 200.463 98.6471 205.258C98.6471 213.819 120.912 219.086 136.5 219.086C147.957 219.086 174.353 215.095 174.353 205.258C174.353 200.472 164.85 194.429 148.845 192.247C143.12 199.425 139.136 204.024 139.094 204.072C138.44 204.826 137.494 205.258 136.5 205.258Z" fill="#2C2627"/>
<path d="M168.081 91.0093C166.743 89.6636 164.626 89.6636 163.4 91.0093L124.731 129.925L108.683 113.776C107.346 112.43 105.229 112.43 104.003 113.776C102.666 115.121 102.666 117.252 104.003 118.486L122.39 136.991C123.059 137.664 123.951 138 124.731 138C125.511 138 126.402 137.664 127.071 136.991L168.081 95.7196C169.306 94.486 169.306 92.3551 168.081 91.0093Z" fill="white"/>
</svg>
