<svg width="50" height="50" viewBox="0 0 50 50" fill="none" xmlns="http://www.w3.org/2000/svg">
<path fill-rule="evenodd" clip-rule="evenodd" d="M31.9614 17.5657L31.4016 17L16.9966 31.5567L17.5564 32.1223L31.9614 17.5657ZM16.3276 24.089C16.222 24.2043 16.1232 24.3151 16.0315 24.4206C16.1232 24.5261 16.222 24.637 16.3276 24.7523C16.9038 25.3815 17.5592 26.0113 18.2792 26.5977C18.7107 26.9491 19.153 27.2742 19.6043 27.5678L19.1756 28.2404C16.6558 26.6007 15 24.4206 15 24.4206C15 24.4206 19.2533 18.8206 24.5 18.8206C25.6279 18.8206 26.7099 19.0794 27.7136 19.4858L27.1067 20.1081C26.2294 19.7883 25.3589 19.6206 24.5 19.6206C22.4155 19.6206 20.3003 20.5977 18.2792 22.2435C17.5592 22.8299 16.9038 23.4597 16.3276 24.089ZM22.9359 27.4822L23.2281 26.7387C23.5503 26.8681 23.8954 26.9353 24.2503 26.9353C25.7806 26.9353 27.0211 25.6817 27.0211 24.1353C27.0211 23.8596 26.9818 23.5896 26.9052 23.3311L27.6637 23.1017C27.7622 23.4344 27.8128 23.7817 27.8128 24.1353C27.8128 26.1235 26.2178 27.7353 24.2503 27.7353C23.7949 27.7353 23.3507 27.6487 22.9359 27.4822ZM32.9685 24.4206C32.8768 24.5261 32.778 24.637 32.6724 24.7523C32.0962 25.3815 31.4408 26.0113 30.7208 26.5977C28.6997 28.2436 26.5845 29.2206 24.5 29.2206C23.7447 29.2206 22.9802 29.091 22.2096 28.8419L21.5766 29.468C22.4976 29.809 23.48 30.0206 24.5 30.0206C29.7467 30.0206 34 24.4206 34 24.4206C34 24.4206 32.529 22.4839 30.25 20.8883L29.7992 21.5459C30.1116 21.7647 30.4191 21.9979 30.7208 22.2435C31.4408 22.8299 32.0962 23.4597 32.6724 24.089C32.778 24.2043 32.8768 24.3151 32.9685 24.4206ZM26.0707 21.1886L25.7213 21.9065C25.3447 21.7193 24.9297 21.6206 24.5 21.6206C22.9697 21.6206 21.7292 22.8742 21.7292 24.4206C21.7292 24.8208 21.8121 25.2085 21.9703 25.5651L21.248 25.8925C21.0442 25.4334 20.9375 24.9342 20.9375 24.4206C20.9375 22.4324 22.5325 20.8206 24.5 20.8206C25.0516 20.8206 25.586 20.9477 26.0707 21.1886Z" fill="#CECECE"/>
</svg>
