<svg width="50" height="50" viewBox="0 0 50 50" fill="none" xmlns="http://www.w3.org/2000/svg">
<path fill-rule="evenodd" clip-rule="evenodd" d="M16.0315 24.6C16.1232 24.4945 16.222 24.3837 16.3276 24.2683C16.9038 23.6391 17.5592 23.0093 18.2792 22.4229C20.3003 20.777 22.4155 19.8 24.5 19.8C25.3589 19.8 26.2294 19.9676 27.1067 20.2875L27.7136 19.6651C26.7099 19.2588 25.6279 19 24.5 19C19.2533 19 15 24.6 15 24.6C15 24.6 16.6558 26.7801 19.1756 28.4198L19.6043 27.7472C19.153 27.4535 18.7107 27.1284 18.2792 26.7771C17.5592 26.1907 16.9038 25.5609 16.3276 24.9317C16.222 24.8163 16.1232 24.7055 16.0315 24.6ZM23.2281 26.9181L22.9359 27.6616C23.3507 27.8281 23.7949 27.9147 24.2503 27.9147C26.2178 27.9147 27.8128 26.3029 27.8128 24.3147C27.8128 23.961 27.7622 23.6138 27.6637 23.2811L26.9052 23.5105C26.9818 23.7689 27.0211 24.0389 27.0211 24.3147C27.0211 25.8611 25.7806 27.1147 24.2503 27.1147C23.8954 27.1147 23.5503 27.0474 23.2281 26.9181ZM32.6724 24.9317C32.778 24.8163 32.8768 24.7055 32.9685 24.6C32.8768 24.4945 32.778 24.3837 32.6724 24.2683C32.0962 23.6391 31.4408 23.0093 30.7208 22.4229C30.4191 22.1772 30.1116 21.9441 29.7992 21.7253L30.25 21.0677C32.529 22.6632 34 24.6 34 24.6C34 24.6 29.7467 30.2 24.5 30.2C23.48 30.2 22.4976 29.9884 21.5766 29.6474L22.2096 29.0212C22.9802 29.2703 23.7447 29.4 24.5 29.4C26.5845 29.4 28.6997 28.423 30.7208 26.7771C31.4408 26.1907 32.0962 25.5609 32.6724 24.9317ZM25.7213 22.0859L26.0707 21.368C25.586 21.1271 25.0516 21 24.5 21C22.5325 21 20.9375 22.6118 20.9375 24.6C20.9375 25.1136 21.0442 25.6128 21.248 26.0719L21.9703 25.7445C21.8121 25.3879 21.7292 25.0002 21.7292 24.6C21.7292 23.0536 22.9697 21.8 24.5 21.8C24.9297 21.8 25.3447 21.8987 25.7213 22.0859Z" fill="#CECECE"/>
</svg>
