<svg width="50" height="50" viewBox="0 0 50 50" fill="none" xmlns="http://www.w3.org/2000/svg">
<path d="M31.4728 12.0052L28.1148 12C24.3423 12 21.9043 14.4149 21.9043 18.1525V20.9893H18.528C18.2363 20.9893 18 21.2176 18 21.4993V25.6094C18 25.8911 18.2365 26.1191 18.528 26.1191H21.9043V36.4902C21.9043 36.7719 22.1405 37 22.4323 37H26.8374C27.1291 37 27.3654 36.7716 27.3654 36.4902V26.1191H31.3131C31.6048 26.1191 31.8411 25.8911 31.8411 25.6094L31.8427 21.4993C31.8427 21.364 31.7869 21.2345 31.688 21.1388C31.5892 21.0431 31.4545 20.9893 31.3144 20.9893H27.3654V18.5845C27.3654 17.4287 27.6507 16.842 29.2102 16.842L31.4723 16.8412C31.7637 16.8412 32 16.6128 32 16.3314V12.515C32 12.2338 31.764 12.0057 31.4728 12.0052Z" fill="white"/>
</svg>
