<svg width="30" height="30" viewBox="0 0 30 30" fill="none" xmlns="http://www.w3.org/2000/svg">
<circle cx="15" cy="15" r="15" fill="white"/>
<path d="M21.81 10.2722C21.0336 9.45183 19.9681 9 18.8097 9C17.9439 9 17.1509 9.26666 16.4528 9.79252C16.1006 10.058 15.7814 10.3827 15.5 10.7617C15.2187 10.3828 14.8994 10.058 14.5471 9.79252C13.8491 9.26666 13.0561 9 12.1903 9C11.0319 9 9.96632 9.45183 9.18984 10.2722C8.42263 11.083 8 12.1907 8 13.3913C8 14.6271 8.47276 15.7583 9.48773 16.9514C10.3957 18.0186 11.7007 19.1019 13.2119 20.3564C13.7279 20.7849 14.3128 21.2705 14.9201 21.7877C15.0806 21.9246 15.2865 22 15.5 22C15.7134 22 15.9194 21.9246 16.0796 21.788C16.687 21.2706 17.2722 20.7847 17.7885 20.3561C19.2994 19.1018 20.6044 18.0186 21.5124 16.9513C22.5274 15.7583 23 14.6271 23 13.3912C23 12.1907 22.5774 11.083 21.81 10.2722Z" stroke="#BC2C3D"/>
</svg>
