<svg width="276" height="272" viewBox="0 0 276 272" fill="none" xmlns="http://www.w3.org/2000/svg">
<ellipse opacity="0.16243" cx="201.896" cy="82.7308" rx="4.99742" ry="4.98377" fill="#DBB497"/>
<ellipse opacity="0.16243" cx="145.925" cy="90.705" rx="4.99742" ry="4.98377" fill="#DBB497"/>
<ellipse opacity="0.170184" cx="146.425" cy="70.2714" rx="2.49871" ry="2.49189" fill="#DBB497"/>
<ellipse opacity="0.301364" cx="232.88" cy="100.672" rx="4.99742" ry="4.98377" fill="#DBB497"/>
<ellipse opacity="0.405007" cx="44.9772" cy="131.572" rx="4.99742" ry="4.98377" fill="#DBB497"/>
<g opacity="0.364272">
<path d="M161.655 48.6324L154.575 36.4025" stroke="#DBB497" stroke-width="7" stroke-linecap="round"/>
<path d="M151.984 46.0479L164.247 38.9869" stroke="#DBB497" stroke-width="7" stroke-linecap="round"/>
</g>
<path d="M218.218 135.063L231.849 142.911" stroke="#EFD2BC" stroke-width="6" stroke-linecap="round"/>
<path d="M228.968 132.19L221.099 145.783" stroke="#EFD2BC" stroke-width="6" stroke-linecap="round"/>
<ellipse opacity="0.223822" cx="73.9623" cy="190.38" rx="4.99742" ry="4.98377" fill="#DBB497"/>
<ellipse opacity="0.223822" cx="109.944" cy="75.7535" rx="4.99742" ry="4.98377" fill="#DBB497"/>
<g opacity="0.608515">
<path d="M181.912 220.027L191.893 217.36" stroke="#BC2C3D" stroke-width="6" stroke-linecap="round"/>
<path d="M185.573 213.719L188.247 223.673" stroke="#BC2C3D" stroke-width="6" stroke-linecap="round"/>
</g>
<ellipse cx="114.442" cy="46.3492" rx="4.49768" ry="4.4854" stroke="#BC2C3D" stroke-width="3"/>
<ellipse cx="64.4672" cy="114.129" rx="4.49768" ry="4.4854" stroke="#BC2C3D" stroke-width="3"/>
<ellipse cx="184.405" cy="67.2811" rx="3.49819" ry="3.48864" fill="#BC2C3D"/>
<ellipse cx="77.4606" cy="76.2518" rx="3.49819" ry="3.48864" fill="#BC2C3D"/>
<ellipse cx="49.475" cy="167.953" rx="3.49819" ry="3.48864" fill="#BC2C3D"/>
<ellipse opacity="0.223822" cx="145.925" cy="241.215" rx="4.99742" ry="4.98377" fill="#DBB497"/>
<ellipse cx="76.4611" cy="224.768" rx="4.49768" ry="4.4854" stroke="#BC2C3D" stroke-width="3"/>
<ellipse cx="122.437" cy="219.785" rx="3.49819" ry="3.48864" fill="#BC2C3D"/>
<ellipse cx="227.383" cy="170.944" rx="4.49768" ry="4.4854" stroke="#BC2C3D" stroke-width="3"/>
<ellipse cx="184.405" cy="115.125" rx="3.49819" ry="3.48864" fill="#BC2C3D"/>
<path d="M113.947 55.5726C116.894 56.0906 118.854 58.8824 118.334 61.8215L114.935 80.7068C147.427 65.5432 186.042 76.8394 204.9 107.025C223.759 137.211 216.928 176.786 188.983 199.229C161.039 221.672 120.778 219.919 95.1799 195.146C69.5823 170.372 66.705 130.374 88.4762 101.957C90.3647 99.7996 93.6021 99.4585 95.8808 101.177C98.1596 102.896 98.6995 106.086 97.1159 108.473C78.9868 132.144 81.0334 165.381 101.917 186.451C122.801 207.521 156.165 210.011 180.193 192.291C204.221 174.572 211.599 142.039 197.502 115.963C183.406 89.8878 152.126 78.2088 124.116 88.5624L138.675 91.077C141.429 91.7745 143.167 94.467 142.665 97.2573C142.163 100.048 139.59 101.995 136.758 101.728L106.427 96.4896C104.996 96.2485 103.724 95.4482 102.895 94.2665C102.065 93.0848 101.746 91.6196 102.008 90.1963L107.446 59.9799C107.7 58.5278 108.537 57.2378 109.763 56.4065C110.989 55.5752 112.499 55.2741 113.947 55.5726Z" fill="#2C2627" stroke="white" stroke-width="4"/>
<path d="M144.032 173.207C143.225 173.207 142.402 173.176 141.595 173.098C141.374 173.082 141.168 173.051 140.947 173.035C140.235 172.957 141.421 173.129 140.71 173.004C140.219 172.91 139.713 172.831 139.223 172.737C138.416 172.565 137.625 172.362 136.85 172.111C136.486 172.001 136.106 171.86 135.742 171.735C135.537 171.657 135.347 171.578 135.157 171.516C134.904 171.406 134.904 171.406 135.141 171.516C135.015 171.453 134.888 171.406 134.762 171.343C133.211 170.654 131.724 169.809 130.332 168.822C130.19 168.728 130.047 168.618 129.921 168.524C129.367 168.117 130.269 168.822 129.747 168.383C129.43 168.117 129.114 167.866 128.798 167.584C128.117 166.989 127.485 166.363 126.884 165.721C126.599 165.423 126.33 165.11 126.061 164.796C125.934 164.64 125.792 164.483 125.665 164.311C125.998 164.718 125.571 164.186 125.539 164.139C125.049 163.481 124.59 162.792 124.163 162.087C123.736 161.382 123.34 160.646 122.992 159.894C122.897 159.706 122.818 159.518 122.739 159.33C122.454 158.704 122.897 159.769 122.644 159.127C122.47 158.672 122.296 158.218 122.138 157.748C121.885 157.012 121.679 156.276 121.505 155.509C121.41 155.101 121.315 154.678 121.236 154.256C121.204 154.052 121.173 153.833 121.125 153.629C121.078 153.347 121.078 153.347 121.125 153.613C121.11 153.472 121.094 153.331 121.078 153.19C120.951 152.11 120.92 151.029 120.92 149.948C120.92 147.771 120.92 145.578 120.92 143.401C120.92 142.822 120.92 142.258 120.92 141.678C120.92 141.6 120.92 141.537 120.936 141.459C120.904 141.741 120.92 141.741 120.983 141.475C120.951 141.537 120.936 141.6 120.904 141.663C121.046 141.443 121.046 141.428 120.888 141.647C120.936 141.6 120.983 141.553 121.03 141.506C120.809 141.663 120.809 141.663 121.046 141.522C120.983 141.553 120.92 141.569 120.856 141.6C121.125 141.537 121.125 141.522 120.841 141.553C120.951 141.537 121.046 141.553 121.157 141.537C123.514 141.506 125.871 141.537 128.212 141.537C137.767 141.537 147.338 141.537 156.893 141.537C159.993 141.537 163.094 141.537 166.21 141.537C166.479 141.537 166.732 141.537 167.001 141.537C167.033 141.537 167.064 141.537 167.096 141.537C167.175 141.537 167.238 141.537 167.317 141.553C167.033 141.522 167.033 141.537 167.302 141.6C167.238 141.569 167.175 141.553 167.112 141.522C167.333 141.663 167.349 141.663 167.128 141.506C167.175 141.553 167.223 141.6 167.27 141.647C167.112 141.428 167.112 141.428 167.254 141.663C167.159 141.412 167.159 141.412 167.238 141.663C167.223 141.381 167.223 141.381 167.238 141.663C167.223 143.417 167.238 145.171 167.238 146.925C167.238 149.009 167.317 151.107 167.08 153.175C167.08 153.237 166.969 153.942 167.049 153.41C167.017 153.629 166.985 153.833 166.954 154.052C166.875 154.475 166.795 154.898 166.701 155.305C166.511 156.135 166.289 156.95 166.004 157.748C165.878 158.14 165.72 158.531 165.577 158.923C165.562 158.986 165.293 159.612 165.498 159.127C165.419 159.315 165.324 159.503 165.245 159.69C164.865 160.505 164.438 161.304 163.98 162.071C163.584 162.713 163.173 163.356 162.714 163.966C162.588 164.139 162.461 164.295 162.334 164.468C162.651 164.06 162.224 164.593 162.192 164.64C161.891 165.016 161.575 165.376 161.243 165.721C160.689 166.331 160.088 166.911 159.471 167.459C159.171 167.741 158.854 168.007 158.522 168.258C158.475 168.289 157.937 168.712 158.348 168.399C158.19 168.524 158.016 168.65 157.842 168.775C156.434 169.793 154.915 170.654 153.333 171.359C153.286 171.39 152.637 171.657 153.128 171.453C152.938 171.531 152.732 171.61 152.542 171.688C152.21 171.813 151.878 171.923 151.546 172.048C150.676 172.346 149.774 172.581 148.872 172.769C148.445 172.863 148.034 172.941 147.607 173.004C147.543 173.019 146.832 173.113 147.385 173.051C147.164 173.082 146.958 173.098 146.737 173.129C145.803 173.16 144.917 173.207 144.032 173.207C142.798 173.207 141.595 174.288 141.659 175.557C141.722 176.825 142.703 177.906 144.032 177.906C151.688 177.875 159.171 174.727 164.391 169.151C169.279 163.951 171.905 157.106 171.905 150.011C171.905 147.756 171.905 145.516 171.905 143.26C171.905 142.571 171.953 141.866 171.873 141.177C171.589 138.671 169.595 136.87 167.033 136.776C164.834 136.698 162.603 136.776 160.404 136.776C155.58 136.776 150.755 136.776 145.914 136.776C140.804 136.776 135.711 136.776 130.601 136.776C127.564 136.776 124.527 136.776 121.489 136.776C121.331 136.776 121.157 136.776 120.999 136.776C118.294 136.87 116.237 138.906 116.127 141.6C116.063 143.495 116.127 145.406 116.127 147.317C116.127 149.76 116.127 152.172 116.475 154.6C117.012 158.234 118.373 161.805 120.366 164.922C124.384 171.218 130.965 175.854 138.368 177.327C140.219 177.687 142.117 177.89 144.016 177.89C145.25 177.89 146.452 176.81 146.389 175.541C146.341 174.288 145.36 173.207 144.032 173.207Z" fill="#BC2C3D"/>
<path d="M130.127 138.812C130.127 135.586 130.127 132.343 130.127 129.117C130.127 128.569 130.127 128.005 130.127 127.457C130.127 127.284 130.127 127.096 130.127 126.924C130.127 126.736 130.158 126.564 130.174 126.376C130.158 126.877 130.142 126.611 130.158 126.454C130.222 126.094 130.301 125.749 130.411 125.405C130.49 125.123 130.601 124.825 130.712 124.559C130.49 125.123 130.886 124.246 130.949 124.136C131.092 123.87 131.266 123.604 131.424 123.337C131.487 123.228 131.566 123.134 131.629 123.024C131.788 122.82 131.772 122.82 131.598 123.04C131.677 122.946 131.756 122.836 131.835 122.742C132.231 122.272 132.674 121.834 133.148 121.427C133.275 121.317 133.401 121.207 133.528 121.098C134.018 120.675 133.29 121.27 133.607 121.035C133.907 120.816 134.224 120.596 134.556 120.393C135.157 120.017 135.79 119.672 136.438 119.375C136.47 119.359 137.135 119.077 136.676 119.265C136.818 119.202 136.961 119.155 137.087 119.108C137.514 118.952 137.941 118.795 138.384 118.67C139.128 118.451 139.903 118.263 140.662 118.122C140.82 118.09 140.979 118.075 141.137 118.043C141.912 117.918 140.678 118.075 141.469 117.996C141.928 117.949 142.371 117.902 142.829 117.887C143.541 117.855 144.253 117.855 144.965 117.887C146.025 117.934 146.484 117.981 147.243 118.122C148.018 118.263 148.777 118.435 149.521 118.67C149.885 118.78 150.249 118.905 150.597 119.03C150.739 119.077 150.881 119.14 151.024 119.187C151.277 119.296 151.293 119.296 151.071 119.202C151.214 119.265 151.34 119.328 151.467 119.39C152.115 119.688 152.748 120.033 153.349 120.408C153.618 120.581 153.871 120.753 154.124 120.925C154.219 120.988 154.583 121.286 154.219 120.988C154.377 121.113 154.536 121.239 154.678 121.38C155.168 121.802 155.643 122.272 156.054 122.758C156.118 122.82 156.481 123.337 156.165 122.883C156.244 122.993 156.307 123.087 156.387 123.196C156.592 123.494 156.798 123.823 156.972 124.136C157.051 124.277 157.431 125.123 157.209 124.559C157.32 124.841 157.431 125.123 157.51 125.405C157.589 125.687 157.668 125.984 157.731 126.282C157.747 126.407 157.779 126.517 157.794 126.642C157.7 126.016 157.779 126.689 157.794 126.83C157.81 127.253 157.81 127.676 157.81 128.099C157.81 131.67 157.81 135.241 157.81 138.812C157.81 140.034 158.902 141.224 160.183 141.161C161.464 141.099 162.556 140.128 162.556 138.812C162.556 135.413 162.556 132.014 162.556 128.616C162.556 126.799 162.493 125.013 161.797 123.306C160.579 120.236 158.253 117.808 155.406 116.117C149.173 112.42 141.01 112.248 134.445 115.13C129.288 117.401 125.381 121.975 125.381 127.723C125.381 131.419 125.381 135.116 125.381 138.812C125.381 140.034 126.472 141.224 127.754 141.161C129.035 141.099 130.127 140.128 130.127 138.812V138.812Z" fill="#BC2C3D"/>
<path d="M147.48 164.896C145.511 164.896 143.543 164.896 141.574 164.896C142.073 165.408 142.588 165.936 143.088 166.448C143.088 165.005 143.088 163.577 143.088 162.134C143.088 160.473 142.982 158.781 143.088 157.136C143.134 156.469 143.482 156.174 144.133 156.159C144.936 156.143 145.875 156.035 145.966 157.059C146.087 158.456 145.966 159.899 145.966 161.296C145.966 163.018 145.966 164.741 145.966 166.448C145.966 168.45 148.995 168.45 148.995 166.448C148.995 164.756 148.995 163.065 148.995 161.373C148.995 160.287 148.995 159.201 148.995 158.114C148.995 157.416 149.04 156.702 148.859 156.035C147.965 152.543 142.71 151.984 140.771 154.777C139.696 156.314 140.059 158.688 140.059 160.458C140.059 162.46 140.059 164.462 140.059 166.448C140.059 167.286 140.756 168 141.574 168C143.543 168 145.511 168 147.48 168C149.434 168 149.434 164.896 147.48 164.896Z" fill="#BC2C3D"/>
</svg>
