<svg width="10" height="17" viewBox="0 0 10 17" fill="none" xmlns="http://www.w3.org/2000/svg">
<path fill-rule="evenodd" clip-rule="evenodd" d="M1.30841 0H8.69159C9.4081 0 10 0.587273 10 1.29818V15.7018C10 16.4127 9.4081 17 8.69159 17H1.30841C0.5919 17 0 16.4127 0 15.7018V1.29818C0 0.587273 0.5919 0 1.30841 0ZM4.11215 15.8255C3.92523 15.8255 3.80062 15.7018 3.80062 15.5164C3.80062 15.3309 3.92523 15.2073 4.11215 15.2073H5.919C6.07477 15.2073 6.23053 15.3309 6.23053 15.5164C6.23053 15.7018 6.07477 15.8255 5.919 15.8255H4.11215ZM0.872274 2.10182V14.0327H9.15888V2.10182H0.872274Z" fill="#2C2627"/>
</svg>
