<svg width="10" height="13" viewBox="0 0 10 13" fill="none" xmlns="http://www.w3.org/2000/svg">
<path fill-rule="evenodd" clip-rule="evenodd" d="M2.14286 2.73684C2.14286 4.24836 3.42204 5.47368 5 5.47368C5.75776 5.47368 6.48449 5.18534 7.02031 4.67208C7.55612 4.15882 7.85714 3.4627 7.85714 2.73684C7.85714 1.22533 6.57796 0 5 0C3.42204 0 2.14286 1.22533 2.14286 2.73684ZM3.57143 2.73684C3.57143 1.98108 4.21102 1.36842 5 1.36842C5.78898 1.36842 6.42857 1.98108 6.42857 2.73684C6.42857 3.4926 5.78898 4.10526 5 4.10526C4.21102 4.10526 3.57143 3.4926 3.57143 2.73684ZM0.714286 13C0.319797 13 0 12.6937 0 12.3158V9.57895C0 7.68955 1.59898 6.15789 3.57143 6.15789H6.42857C7.37577 6.15789 8.28418 6.51833 8.95395 7.1599C9.62373 7.80147 10 8.67163 10 9.57895V12.3158C10 12.6937 9.6802 13 9.28571 13H0.714286ZM8.57143 9.57895V11.6316H1.42857V9.57895C1.42857 8.44531 2.38796 7.52632 3.57143 7.52632H6.42857C7.61204 7.52632 8.57143 8.44531 8.57143 9.57895Z" fill="#2C2627"/>
</svg>
