<svg width="13" height="15" viewBox="0 0 13 15" fill="none" xmlns="http://www.w3.org/2000/svg">
<path d="M6.50744 13.894C6.32016 13.894 6.1292 13.8868 5.94191 13.8687C5.89049 13.8651 5.84275 13.8578 5.79134 13.8542C5.62609 13.8362 5.90151 13.8759 5.73626 13.847C5.62242 13.8253 5.5049 13.8072 5.39106 13.7856C5.20377 13.7458 5.02016 13.6988 4.84021 13.641C4.75575 13.6157 4.66761 13.5831 4.58315 13.5542C4.53541 13.5362 4.49134 13.5181 4.44727 13.5036C4.38852 13.4783 4.38852 13.4783 4.4436 13.5036C4.41422 13.4892 4.38484 13.4783 4.35547 13.4639C3.99558 13.3048 3.65038 13.1097 3.32722 12.8819C3.29417 12.8603 3.26112 12.835 3.23174 12.8133C3.10321 12.7193 3.31253 12.8819 3.19134 12.7807C3.1179 12.7193 3.04445 12.6615 2.971 12.5964C2.81309 12.4591 2.6662 12.3145 2.52665 12.1663C2.46055 12.0976 2.39812 12.0253 2.33569 11.953C2.30631 11.9169 2.27326 11.8807 2.24388 11.841C2.321 11.935 2.22185 11.8121 2.21451 11.8012C2.10066 11.6494 1.99417 11.4904 1.89501 11.3277C1.79586 11.1651 1.70405 10.9952 1.62326 10.8217C1.60123 10.7783 1.58287 10.735 1.56451 10.6916C1.4984 10.547 1.60123 10.7928 1.54247 10.6446C1.50208 10.5398 1.46168 10.435 1.42496 10.3265C1.3662 10.1566 1.31846 9.98676 1.27807 9.80965C1.25603 9.71568 1.234 9.61809 1.21564 9.5205C1.20829 9.47351 1.20095 9.42291 1.18993 9.37592C1.17891 9.31086 1.17891 9.31086 1.18993 9.3723C1.18626 9.33977 1.18259 9.30724 1.17891 9.27471C1.14953 9.02532 1.14219 8.77592 1.14219 8.52652C1.14219 8.02411 1.14219 7.51809 1.14219 7.01568C1.14219 6.88194 1.14219 6.75182 1.14219 6.61809C1.14219 6.60001 1.14219 6.58556 1.14586 6.56748C1.13852 6.63254 1.14219 6.63254 1.15688 6.5711C1.14953 6.58556 1.14586 6.60001 1.13852 6.61447C1.17157 6.56387 1.17157 6.56026 1.13485 6.61086C1.14586 6.60001 1.15688 6.58917 1.1679 6.57833C1.11648 6.61447 1.11648 6.61447 1.17157 6.58194C1.15688 6.58917 1.14219 6.59279 1.1275 6.60001C1.18993 6.58556 1.18993 6.58194 1.12383 6.58917C1.14953 6.58556 1.17157 6.58917 1.19727 6.58556C1.74445 6.57833 2.29162 6.58556 2.83513 6.58556C5.05321 6.58556 7.27496 6.58556 9.49304 6.58556C10.2128 6.58556 10.9326 6.58556 11.656 6.58556C11.7185 6.58556 11.7772 6.58556 11.8396 6.58556C11.847 6.58556 11.8543 6.58556 11.8617 6.58556C11.88 6.58556 11.8947 6.58556 11.9131 6.58917C11.847 6.58194 11.847 6.58556 11.9094 6.60001C11.8947 6.59279 11.88 6.58917 11.8654 6.58194C11.9168 6.61447 11.9204 6.61447 11.869 6.57833C11.88 6.58917 11.8911 6.60001 11.9021 6.61086C11.8654 6.56026 11.8654 6.56026 11.8984 6.61447C11.8764 6.55664 11.8764 6.55664 11.8947 6.61447C11.8911 6.54941 11.8911 6.54941 11.8947 6.61447C11.8911 7.01929 11.8947 7.42411 11.8947 7.82893C11.8947 8.30965 11.9131 8.79399 11.858 9.2711C11.858 9.28556 11.8323 9.44821 11.8507 9.32532C11.8433 9.37592 11.836 9.42291 11.8286 9.47351C11.8103 9.5711 11.7919 9.66869 11.7699 9.76266C11.7258 9.95423 11.6744 10.1422 11.6083 10.3265C11.5789 10.4169 11.5422 10.5072 11.5091 10.5976C11.5055 10.6121 11.443 10.7566 11.4908 10.6446C11.4724 10.688 11.4504 10.7313 11.432 10.7747C11.3439 10.9627 11.2447 11.147 11.1382 11.3241C11.0464 11.4723 10.9509 11.6205 10.8444 11.7615C10.8151 11.8012 10.7857 11.8374 10.7563 11.8771C10.8298 11.7831 10.7306 11.906 10.7233 11.9169C10.6535 12.0036 10.58 12.0868 10.5029 12.1663C10.3744 12.3072 10.2348 12.441 10.0916 12.5675C10.0219 12.6325 9.9484 12.694 9.87129 12.7518C9.86027 12.7591 9.73541 12.8566 9.83089 12.7844C9.79417 12.8133 9.75377 12.8422 9.71338 12.8711C9.38654 13.106 9.034 13.3048 8.66677 13.4675C8.65575 13.4747 8.50518 13.5362 8.61903 13.4892C8.57496 13.5072 8.52722 13.5253 8.48315 13.5434C8.40603 13.5723 8.32891 13.5976 8.25179 13.6265C8.04982 13.6952 7.84049 13.7494 7.63117 13.7928C7.53202 13.8145 7.43654 13.8325 7.33739 13.847C7.3227 13.8506 7.15744 13.8723 7.28597 13.8578C7.23456 13.8651 7.18682 13.8687 7.13541 13.8759C6.91874 13.8831 6.71309 13.894 6.50744 13.894C6.221 13.894 5.94191 14.1434 5.9566 14.4362C5.97129 14.7289 6.19897 14.9783 6.50744 14.9783C8.28485 14.9711 10.0219 14.2446 11.2337 12.9578C12.3685 11.7578 12.9781 10.1783 12.9781 8.54098C12.9781 8.0205 12.9781 7.50363 12.9781 6.98315C12.9781 6.82411 12.9891 6.66146 12.9707 6.50242C12.9046 5.92411 12.4419 5.50845 11.847 5.48676C11.3365 5.46869 10.8187 5.48676 10.3083 5.48676C9.18824 5.48676 8.06818 5.48676 6.94445 5.48676C5.75829 5.48676 4.57581 5.48676 3.38965 5.48676C2.68456 5.48676 1.97948 5.48676 1.27439 5.48676C1.23767 5.48676 1.19727 5.48676 1.16055 5.48676C0.532585 5.50845 0.055184 5.97833 0.0294778 6.60001C0.0147885 7.03736 0.0294778 7.47833 0.0294778 7.91929C0.0294778 8.48315 0.0294778 9.03977 0.110269 9.60001C0.235128 10.4386 0.550947 11.2627 1.01366 11.9819C1.94643 13.435 3.47411 14.5048 5.19275 14.8446C5.62242 14.9277 6.06309 14.9747 6.50377 14.9747C6.79021 14.9747 7.06931 14.7253 7.05462 14.4325C7.0436 14.1434 6.81592 13.894 6.50744 13.894Z" fill="black"/>
<path d="M3.27943 5.95662C3.27943 5.21204 3.27943 4.46385 3.27943 3.71927C3.27943 3.59276 3.27943 3.46264 3.27943 3.33614C3.27943 3.29638 3.27943 3.253 3.27943 3.21324C3.27943 3.16987 3.28677 3.13011 3.29045 3.08674C3.28677 3.2024 3.2831 3.14095 3.28677 3.10481C3.30146 3.02168 3.31982 2.94216 3.34553 2.86264C3.36389 2.79758 3.3896 2.72891 3.41531 2.66746C3.36389 2.79758 3.4557 2.59517 3.47039 2.56987C3.50344 2.50842 3.54384 2.44698 3.58056 2.38553C3.59525 2.36023 3.61361 2.33854 3.6283 2.31324C3.66502 2.26626 3.66135 2.26626 3.62095 2.31686C3.63932 2.29517 3.65768 2.26987 3.67604 2.24818C3.76785 2.13975 3.87067 2.03854 3.98084 1.94457C4.01022 1.91927 4.0396 1.89397 4.06898 1.86867C4.18282 1.77107 4.01389 1.90842 4.08734 1.85421C4.15711 1.8036 4.23056 1.753 4.30768 1.70601C4.44723 1.61927 4.59412 1.53975 4.74468 1.47107C4.75203 1.46746 4.90627 1.4024 4.79977 1.44577C4.83282 1.43132 4.86587 1.42047 4.89525 1.40963C4.9944 1.37348 5.09355 1.33734 5.19638 1.30842C5.36898 1.25782 5.54892 1.21445 5.72519 1.18192C5.76192 1.17469 5.79864 1.17107 5.83536 1.16385C6.01531 1.13493 5.72886 1.17107 5.91248 1.153C6.01898 1.14216 6.1218 1.13132 6.2283 1.1277C6.39355 1.12047 6.55881 1.12047 6.72406 1.1277C6.97011 1.13854 7.0766 1.14939 7.25288 1.18192C7.43282 1.21445 7.60909 1.25421 7.78169 1.30842C7.86615 1.33373 7.95062 1.36264 8.03141 1.39156C8.06446 1.4024 8.09751 1.41686 8.13056 1.4277C8.18932 1.453 8.19299 1.453 8.14158 1.43132C8.17463 1.44577 8.20401 1.46023 8.23338 1.47469C8.38395 1.54336 8.53084 1.62288 8.67039 1.70963C8.73282 1.74939 8.79158 1.78915 8.85033 1.82891C8.87237 1.84336 8.95683 1.91204 8.87237 1.84336C8.90909 1.87228 8.94581 1.9012 8.97886 1.93373C9.09271 2.03132 9.20288 2.13975 9.29836 2.2518C9.31305 2.26626 9.39751 2.38553 9.32406 2.28071C9.34242 2.30601 9.35711 2.3277 9.37547 2.353C9.42321 2.42168 9.47095 2.49758 9.51135 2.56987C9.52971 2.6024 9.61785 2.79758 9.56643 2.66746C9.59214 2.73252 9.61785 2.79758 9.63621 2.86264C9.65457 2.9277 9.67293 2.99638 9.68762 3.06505C9.69129 3.09397 9.69864 3.11927 9.70231 3.14818C9.68028 3.00361 9.69864 3.15903 9.70231 3.19156C9.70598 3.28915 9.70598 3.38674 9.70598 3.48433C9.70598 4.30842 9.70598 5.13252 9.70598 5.95662C9.70598 6.23854 9.95937 6.51324 10.2568 6.49879C10.5543 6.48433 10.8077 6.26023 10.8077 5.95662C10.8077 5.17228 10.8077 4.38794 10.8077 3.60361C10.8077 3.18433 10.793 2.77228 10.6314 2.3783C10.3486 1.66987 9.80881 1.10963 9.14779 0.719268C7.7009 -0.133744 5.80598 -0.173503 4.28197 0.491557C3.0848 1.01565 2.17773 2.07107 2.17773 3.39758C2.17773 4.25059 2.17773 5.1036 2.17773 5.95662C2.17773 6.23854 2.43112 6.51324 2.72858 6.49879C3.02604 6.48433 3.27943 6.26023 3.27943 5.95662Z" fill="black"/>
<path d="M7.2271 12.0253C6.7497 12.0253 6.2723 12.0253 5.7949 12.0253C5.91609 12.1446 6.04095 12.2675 6.16213 12.3867C6.16213 12.0506 6.16213 11.7181 6.16213 11.3819C6.16213 10.9952 6.13643 10.6012 6.16213 10.2181C6.17315 10.0627 6.25761 9.99398 6.41552 9.99036C6.61016 9.98675 6.83784 9.96145 6.85987 10.2C6.88925 10.5253 6.85987 10.8614 6.85987 11.1867C6.85987 11.588 6.85987 11.9892 6.85987 12.3867C6.85987 12.853 7.59434 12.853 7.59434 12.3867C7.59434 11.9928 7.59434 11.5988 7.59434 11.2048C7.59434 10.9518 7.59434 10.6988 7.59434 10.4458C7.59434 10.2831 7.60535 10.1169 7.56129 9.96145C7.34462 9.14819 6.07033 9.01807 5.60027 9.66868C5.33953 10.0265 5.42767 10.5795 5.42767 10.9916C5.42767 11.4578 5.42767 11.9241 5.42767 12.3867C5.42767 12.5819 5.5966 12.7482 5.7949 12.7482C6.2723 12.7482 6.7497 12.7482 7.2271 12.7482C7.70083 12.7482 7.70083 12.0253 7.2271 12.0253Z" fill="black"/>
</svg>
