<svg width="16" height="12" viewBox="0 0 16 12" fill="none" xmlns="http://www.w3.org/2000/svg">
<path fill-rule="evenodd" clip-rule="evenodd" d="M1.71429 0.0712585C0.774463 0.0712585 0 0.871108 0 1.84175V10.104C0 11.0747 0.774463 11.8745 1.71429 11.8745H14.2857C15.2255 11.8745 16 11.0747 16 10.104V1.84175C16 0.871108 15.2255 0.0712585 14.2857 0.0712585H1.71429ZM1.80952 1.25159H14.1845L8.3869 6.77824C8.1153 7.03716 7.87218 7.037 7.60119 6.77824L1.80952 1.25159ZM6.82143 7.64503L1.14286 2.21674V10.104C1.14286 10.4412 1.38784 10.6942 1.71429 10.6942H14.2857C14.6122 10.6942 14.8571 10.4412 14.8571 10.104V2.21674L9.16667 7.64503C8.51124 8.26989 7.47678 8.27086 6.82143 7.64503Z" fill="#2C2627"/>
</svg>
