<svg width="27" height="27" viewBox="0 0 27 27" fill="none" xmlns="http://www.w3.org/2000/svg">
<path fill-rule="evenodd" clip-rule="evenodd" d="M16.5556 9.97887H16.0432L15.6605 7.78101C15.6249 7.57633 15.4396 7.4257 15.2223 7.4257H12.5556C12.468 7.4257 12.3818 7.4508 12.3089 7.49718L11.3382 8.11675L11.1991 7.71676C11.1387 7.54272 10.9693 7.4257 10.7778 7.4257H8.55555C8.50799 7.4257 8.46044 7.43293 8.4151 7.4474L7.25643 7.81718L5.64308 7.04485C5.54397 6.99761 5.4293 6.98698 5.32219 7.01634L2.21106 7.86739C2.09017 7.90058 1.98928 7.98101 1.93417 8.08909C1.87861 8.19718 1.87372 8.32271 1.92039 8.43462L2.56573 9.97887H1.44439C1.32039 9.97887 1.20216 10.0287 1.11816 10.1155C1.03416 10.2023 0.991941 10.3193 1.00127 10.4376L2.33462 26.6077C2.35284 26.8294 2.54617 27 2.77773 27H15.2223C15.4538 27 15.6472 26.8294 15.6654 26.6081L16.9987 10.438C17.008 10.3197 16.9663 10.2027 16.8818 10.1159C16.7974 10.0291 16.6796 9.97887 16.5556 9.97887ZM12.6902 8.27675H14.8463L15.1423 9.97887H11.9867L11.6298 8.95334L12.6902 8.27675ZM10.4573 8.27675H8.62755L7.66665 8.58356V9.97887H11.0502L10.4573 8.27675ZM2.92884 8.55632L5.40042 7.88016L6.7782 8.53973V9.97887H3.52307L2.92884 8.55632ZM3.1884 26.1489H14.8116L16.0747 10.8299H1.92528L3.1884 26.1489Z" fill="#BC2C3D"/>
<path fill-rule="evenodd" clip-rule="evenodd" d="M18 3.75C18 3.06083 17.4231 2.5 16.7143 2.5H11.9657C11.7566 1.08875 10.5081 0 9 0C7.49186 0 6.24343 1.08875 6.03429 2.5H1.28571C0.576857 2.5 0 3.06083 0 3.75C0 4.43917 0.576857 5 1.28571 5H16.7143C17.4231 5 18 4.43917 18 3.75ZM9 0.833333C10.035 0.833333 10.9007 1.55042 11.0996 2.5H6.9C7.09929 1.55042 7.965 0.833333 9 0.833333ZM0.857143 3.75C0.857143 3.97958 1.04914 4.16667 1.28571 4.16667H16.7143C16.9509 4.16667 17.1429 3.97958 17.1429 3.75C17.1429 3.52042 16.9509 3.33333 16.7143 3.33333H11.5714H6.42857H1.28571C1.04914 3.33333 0.857143 3.52042 0.857143 3.75Z" fill="#BC2C3D"/>
<path d="M4.35977 12.2263L5.22726 12.1505L6.10195 22.1643L5.23447 22.2401L4.35977 12.2263Z" fill="#BC2C3D"/>
<path d="M12.1879 22.1664L13.0526 12.1526L13.9201 12.2276L13.0554 22.2414L12.1879 22.1664Z" fill="#BC2C3D"/>
<path d="M9 12H10V22H9V12Z" fill="#BC2C3D"/>
<path fill-rule="evenodd" clip-rule="evenodd" d="M19 4C19 1.79467 20.7942 0 23 0C25.2058 0 27 1.79467 27 4C27 6.20533 25.2058 8 23 8C20.7942 8 19 6.20533 19 4ZM19.8889 4C19.8889 5.71556 21.2849 7.11111 23 7.11111C24.7151 7.11111 26.1111 5.71556 26.1111 4C26.1111 2.28444 24.7151 0.888889 23 0.888889C21.2849 0.888889 19.8889 2.28444 19.8889 4Z" fill="#BC2C3D"/>
<path d="M24 2H25V3H24V2Z" fill="#BC2C3D"/>
<path d="M24.0762 4.2296L24.692 3.61383L25.5627 4.48453L24.9469 5.10031L24.0762 4.2296Z" fill="#BC2C3D"/>
<path d="M21.4639 2.48766L22.0797 1.87188L22.9504 2.74259L22.3346 3.35836L21.4639 2.48766Z" fill="#BC2C3D"/>
<path d="M20.9428 4.60366L21.378 3.73314L22.1567 4.12246L21.7214 4.99299L20.9428 4.60366Z" fill="#BC2C3D"/>
<path d="M23 5H24V6H23V5Z" fill="#BC2C3D"/>
<path d="M23 3H24V4H23V3Z" fill="#BC2C3D"/>
<path fill-rule="evenodd" clip-rule="evenodd" d="M25.5498 24.4999H23.4362L22.1996 23.7366C22.1006 23.6753 21.98 23.6528 21.8616 23.6749L21.7487 23.6958L20.5098 22.1665C20.4014 22.0324 20.216 21.972 20.0409 22.0124L18.241 22.4291C18.1325 22.4545 18.0376 22.5157 17.9755 22.6024L17.0755 23.8524C17.0053 23.9499 16.9828 24.0708 17.0134 24.1845L17.4634 25.8512C17.4832 25.9246 17.5241 25.9912 17.5817 26.0446L18.4817 26.8779L18.4835 26.8762C18.5667 26.9537 18.6792 27 18.7998 27H24.1998C24.3411 27 24.4748 26.9383 24.5598 26.8333L25.9098 25.1666C26.0124 25.0404 26.0286 24.8716 25.9526 24.7304C25.8761 24.5891 25.7204 24.4999 25.5498 24.4999ZM19.2818 24.3449L18.6351 25.8416L18.3062 25.537L17.9345 24.1612L18.6275 23.1987L19.9689 22.8882L20.7699 23.877L19.6112 24.0916C19.4627 24.1187 19.3385 24.2145 19.2818 24.3449ZM19.4645 26.1666H23.9748L24.6498 25.3333H23.2998C23.2112 25.3333 23.1239 25.3087 23.0501 25.2637L21.8553 24.5262L20.0274 24.8645L19.4645 26.1666Z" fill="#BC2C3D"/>
</svg>
