<svg width="35" height="35" viewBox="0 0 35 35" fill="none" xmlns="http://www.w3.org/2000/svg">
<circle cx="17.5" cy="17.5" r="17.5" fill="#BC2C3D"/>
<path d="M24.6905 12.0152C23.8057 11.0906 22.5916 10.5814 21.2716 10.5814C20.2849 10.5814 19.3813 10.882 18.5858 11.4746C18.1844 11.7737 17.8207 12.1397 17.5 12.5669C17.1795 12.1399 16.8156 11.7737 16.4141 11.4746C15.6187 10.882 14.7151 10.5814 13.7284 10.5814C12.4084 10.5814 11.1942 11.0906 10.3094 12.0152C9.43509 12.929 8.95349 14.1774 8.95349 15.5305C8.95349 16.9232 9.49221 18.1981 10.6488 19.5427C11.6835 20.7455 13.1705 21.9664 14.8926 23.3803C15.4806 23.8631 16.1471 24.4104 16.8392 24.9934C17.0221 25.1477 17.2567 25.2326 17.5 25.2326C17.7432 25.2326 17.978 25.1477 18.1605 24.9936C18.8526 24.4105 19.5195 23.863 20.1078 23.3799C21.8296 21.9663 23.3167 20.7455 24.3513 19.5426C25.5079 18.1981 26.0465 16.9232 26.0465 15.5304C26.0465 14.1774 25.5649 12.929 24.6905 12.0152Z" fill="white"/>
</svg>
