<svg width="35" height="35" viewBox="0 0 35 35" fill="none" xmlns="http://www.w3.org/2000/svg">
<circle cx="17.5" cy="17.5" r="17.5" fill="#2C2627"/>
<path fill-rule="evenodd" clip-rule="evenodd" d="M10.0124 11.3954H24.9874C25.1228 11.3954 25.2325 11.5052 25.2325 11.6406V23.3594C25.2325 23.4949 25.1228 23.6047 24.9874 23.6047H10.0124C9.87706 23.6047 9.76733 23.4949 9.76733 23.3594V11.6406C9.76733 11.5052 9.87706 11.3954 10.0124 11.3954ZM20.3925 18.1564L23.7624 21.6494V12.8669H11.2376V21.2772L14.7712 16.5314C14.7897 16.5066 14.8185 16.4917 14.8495 16.4911C14.8816 16.4904 14.9099 16.5041 14.9293 16.5282L17.9168 20.2099L20.2541 18.1508C20.2943 18.1154 20.3552 18.1179 20.3925 18.1564Z" fill="white"/>
<path d="M20.7558 16.279C21.4297 16.279 21.9768 15.7325 21.9768 15.0581C21.9768 14.384 21.4297 13.8372 20.7558 13.8372C20.0814 13.8372 19.5349 14.384 19.5349 15.0581C19.5349 15.7324 20.0815 16.279 20.7558 16.279Z" fill="white"/>
</svg>
