<svg width="126" height="126" viewBox="0 0 126 126" fill="none" xmlns="http://www.w3.org/2000/svg">
<g opacity="0.668713">
<circle cx="63" cy="63" r="63" fill="url(#paint0_linear)"/>
<circle opacity="0.172317" cx="63.5" cy="63.5" r="53.5" fill="url(#paint1_linear)"/>
<circle opacity="0.258766" cx="63" cy="63" r="44" fill="url(#paint2_linear)"/>
<circle opacity="0.783645" cx="64.5" cy="63.5" r="33.5" fill="url(#paint3_linear)"/>
</g>
<path d="M46.2904 66.4156C46.2219 66.0269 46.3897 65.6318 46.7218 65.4121L75.8282 46.1572C76.1694 45.9315 76.614 45.9374 76.9491 46.172C77.2843 46.4067 77.4418 46.8223 77.3465 47.2202L69.2077 81.1569C69.1104 81.5626 68.7706 81.8646 68.3564 81.9137C67.9421 81.9628 67.5411 81.7485 67.3516 81.3769L62.7211 72.2914C61.6499 70.1896 59.6126 68.763 57.2712 68.4753L47.1499 67.2315C46.7358 67.1807 46.3973 66.8771 46.3018 66.4709C46.2975 66.4526 46.2937 66.4341 46.2904 66.4156Z" fill="#FFD9DE"/>
<path d="M69.5409 81.8272L77.8946 47.5714C77.9925 47.1697 77.8327 46.7506 77.4918 46.5144L60.6614 70.2864C61.6138 70.9459 62.4041 71.8346 62.9478 72.8939L67.6493 82.0525C67.8417 82.4272 68.2499 82.6427 68.6721 82.5924C69.0944 82.5421 69.441 82.2367 69.5409 81.8272Z" fill="#FFEFF1"/>
<defs>
<linearGradient id="paint0_linear" x1="34.5248" y1="-8.41007" x2="3.54093" y2="110.508" gradientUnits="userSpaceOnUse">
<stop stop-color="#FFF3F5"/>
<stop offset="1" stop-color="#FFE9EC"/>
</linearGradient>
<linearGradient id="paint1_linear" x1="-16.5435" y1="46.7717" x2="19.4" y2="134.972" gradientUnits="userSpaceOnUse">
<stop stop-color="#FF8A98"/>
<stop offset="1" stop-color="#BC2C3D"/>
</linearGradient>
<linearGradient id="paint2_linear" x1="7.18179" y1="30.0642" x2="21.062" y2="113.94" gradientUnits="userSpaceOnUse">
<stop stop-color="#FF8A98"/>
<stop offset="1" stop-color="#BC2C3D"/>
</linearGradient>
<linearGradient id="paint3_linear" x1="49.3584" y1="25.528" x2="32.8829" y2="88.7622" gradientUnits="userSpaceOnUse">
<stop stop-color="#FF8A98"/>
<stop offset="1" stop-color="#BC2C3D"/>
</linearGradient>
</defs>
</svg>
