<svg width="268" height="268" viewBox="0 0 268 268" fill="none" xmlns="http://www.w3.org/2000/svg">
<circle cx="134" cy="134" r="134" fill="url(#paint0_linear)"/>
<circle opacity="0.172317" cx="134" cy="134" r="114" fill="url(#paint1_linear)"/>
<circle opacity="0.258766" cx="134" cy="134" r="94" fill="url(#paint2_linear)"/>
<circle opacity="0.581706" cx="136.5" cy="134.5" r="71.5" fill="url(#paint3_linear)"/>
<path d="M99.5856 137.169C99.4466 136.38 99.7871 135.578 100.461 135.132L159.53 96.0561C160.222 95.5981 161.125 95.61 161.805 96.0862C162.485 96.5625 162.805 97.406 162.611 98.2135L146.094 167.085C145.897 167.908 145.207 168.521 144.367 168.621C143.526 168.721 142.712 168.286 142.327 167.531L132.93 149.093C130.756 144.828 126.622 141.933 121.87 141.349L101.33 138.825C100.49 138.721 99.8027 138.105 99.6087 137.281C99.6 137.244 99.5923 137.206 99.5856 137.169Z" fill="#FFD9DE"/>
<path d="M146.09 166.466L162.797 97.9541C162.993 97.1508 162.673 96.3126 161.992 95.8402L128.331 143.384C130.236 144.703 131.816 146.481 132.904 148.599L142.307 166.916C142.691 167.666 143.508 168.097 144.352 167.996C145.197 167.896 145.89 167.285 146.09 166.466Z" fill="#FFEFF1"/>
<defs>
<linearGradient id="paint0_linear" x1="73.4337" y1="-17.8881" x2="7.5315" y2="235.049" gradientUnits="userSpaceOnUse">
<stop stop-color="#FFF3F5"/>
<stop offset="1" stop-color="#FFE9EC"/>
</linearGradient>
<linearGradient id="paint1_linear" x1="-36.56" y1="98.3546" x2="40.0298" y2="286.295" gradientUnits="userSpaceOnUse">
<stop stop-color="#FF8A98"/>
<stop offset="1" stop-color="#BC2C3D"/>
</linearGradient>
<linearGradient id="paint2_linear" x1="14.752" y1="63.6372" x2="44.4053" y2="242.827" gradientUnits="userSpaceOnUse">
<stop stop-color="#FF8A98"/>
<stop offset="1" stop-color="#BC2C3D"/>
</linearGradient>
<linearGradient id="paint3_linear" x1="104.183" y1="53.4552" x2="69.0187" y2="188.418" gradientUnits="userSpaceOnUse">
<stop stop-color="#FF8A98"/>
<stop offset="1" stop-color="#BC2C3D"/>
</linearGradient>
</defs>
</svg>
