<svg width="229" height="67" viewBox="0 0 229 67" fill="none" xmlns="http://www.w3.org/2000/svg">
<path d="M27.2862 51V41.925H14.5262V36.975H26.9012V27.9H14.5262V23.39H27.2862V14.315H4.13121V51H27.2862ZM62.5399 51L51.7599 14.315H39.1649L28.3849 51H39.6599L40.7049 46.27H50.2199L51.2649 51H62.5399ZM48.1849 37.195H42.7399L45.4899 25.04L48.1849 37.195ZM78.2068 51V23.39H85.7418V14.315H60.1668V23.39H67.7568V51H78.2068ZM126.995 51V41.925H115.555C123.97 34.885 126.72 30.925 126.72 25.92C126.72 18.66 121.11 13.765 112.585 13.765C107.195 13.765 102.135 15.8 98.6148 19.925L104.555 26.58C106.81 24.215 109.34 22.95 112.42 22.95C114.73 22.95 116.215 24.325 116.215 26.085C116.215 28.945 114.785 30.375 99.9898 42.64V51H126.995ZM155.086 51V44.73H158.496V35.655H155.086V14.315H141.776L129.346 36.205V44.73H144.691V51H155.086ZM144.691 35.655H138.586L144.691 24.545V35.655Z" fill="white"/>
<rect x="169" y="4" width="60" height="60" fill="white"/>
<path d="M201.846 51L212.901 21.52V14.315H186.281V23.39H201.186L190.626 51H201.846Z" fill="#BC2C3D"/>
</svg>
