<svg width="21" height="26" viewBox="0 0 21 26" fill="none" xmlns="http://www.w3.org/2000/svg">
<path fill-rule="evenodd" clip-rule="evenodd" d="M6.23828 10.0071C6.23828 7.70938 8.15299 5.83496 10.5 5.83496C12.8471 5.83496 14.7618 7.70938 14.7618 10.0071C14.7618 12.3047 12.8471 14.1791 10.5 14.1791C8.15299 14.1791 6.23828 12.3047 6.23828 10.0071ZM7.47358 10.0071C7.47358 11.6396 8.8324 12.9698 10.5 12.9698C12.1677 12.9698 13.5265 11.6396 13.5265 10.0071C13.5265 8.3745 12.1677 7.04426 10.5 7.04426C8.8324 7.04426 7.47358 8.3745 7.47358 10.0071Z" fill="#2C2627"/>
<path fill-rule="evenodd" clip-rule="evenodd" d="M0.154419 10.0069C0.154419 4.5348 4.78677 0.12085 10.5 0.12085C16.2132 0.12085 20.8456 4.5348 20.8147 9.97666C20.8147 12.1232 20.1044 14.179 18.7765 15.9022L11.4882 25.3953C11.2412 25.6976 10.9015 25.879 10.5 25.879C10.0985 25.879 9.75883 25.6976 9.51177 25.3953L2.19265 15.9325C0.864713 14.2092 0.154419 12.1534 0.154419 10.0069ZM10.5 24.6697L17.7882 15.2069C18.9927 13.6953 19.6103 11.8813 19.6412 9.97666C19.6412 5.19992 15.5338 1.29992 10.5309 1.29992C5.49707 1.29992 1.4206 5.19992 1.4206 9.97666C1.4206 11.8813 2.03824 13.665 3.21177 15.1767L10.5 24.6697Z" fill="#2C2627"/>
</svg>
