<svg width="21" height="25" viewBox="0 0 21 25" fill="none" xmlns="http://www.w3.org/2000/svg">
<path fill-rule="evenodd" clip-rule="evenodd" d="M20.6761 2.93096L9.30115 0.0142914C9.16977 -0.019278 9.02942 0.00696716 8.92133 0.085906C8.81345 0.164845 8.75 0.287118 8.75 0.416716V12.0834H0.4375C0.195892 12.0834 0 12.2699 0 12.5001V17.5C0 17.7302 0.195892 17.9167 0.4375 17.9167H1.75V24.5834C1.75 24.8135 1.94589 25 2.1875 25H4.8125H7.4375H12.6875H20.5625C20.8041 25 21 24.8135 21 24.5834V3.33338C21 3.14499 20.8673 2.97999 20.6761 2.93096ZM0.875 12.9167H9.1875H14V17.0834H12.6875H2.1875H0.875V12.9167ZM12.25 17.9167H2.625V24.1667H4.375V21.2501C4.375 21.0199 4.57089 20.8334 4.8125 20.8334H7.4375C7.67911 20.8334 7.875 21.0199 7.875 21.2501V24.1667H9.625V20.4167C9.625 20.1866 9.82089 20.0001 10.0625 20.0001C10.3041 20.0001 10.5 20.1866 10.5 20.4167V24.1667H12.25V17.9167ZM5.25 24.1667V21.6667H7V24.1667H5.25ZM13.125 24.1667H20.125V3.6528L9.625 0.960336V12.0834H14.4375C14.6791 12.0834 14.875 12.2699 14.875 12.5V17.5001C14.875 17.7302 14.6791 17.9167 14.4375 17.9167H13.125V24.1667Z" fill="black"/>
<path fill-rule="evenodd" clip-rule="evenodd" d="M18.375 9.16675H11.375C11.1334 9.16675 10.9375 8.98018 10.9375 8.75008V5.83341C10.9375 5.60331 11.1334 5.41675 11.375 5.41675H18.375C18.6166 5.41675 18.8125 5.60331 18.8125 5.83341V8.75008C18.8125 8.98018 18.6166 9.16675 18.375 9.16675ZM17.9375 6.25008H11.8125V8.33341H17.9375V6.25008Z" fill="black"/>
<path d="M11.375 11.2501H18.375C18.6166 11.2501 18.8125 11.0635 18.8125 10.8334C18.8125 10.6033 18.6166 10.4167 18.375 10.4167H11.375C11.1334 10.4167 10.9375 10.6033 10.9375 10.8334C10.9375 11.0635 11.1334 11.2501 11.375 11.2501Z" fill="black"/>
<path d="M18.375 12.0833H16.1875C15.9459 12.0833 15.75 12.2698 15.75 12.4999C15.75 12.73 15.9459 12.9166 16.1875 12.9166H18.375C18.6166 12.9166 18.8125 12.73 18.8125 12.4999C18.8125 12.2698 18.6166 12.0833 18.375 12.0833Z" fill="black"/>
<path d="M18.375 13.75H16.1875C15.9459 13.75 15.75 13.9366 15.75 14.1667C15.75 14.3968 15.9459 14.5833 16.1875 14.5833H18.375C18.6166 14.5833 18.8125 14.3968 18.8125 14.1667C18.8125 13.9366 18.6166 13.75 18.375 13.75Z" fill="black"/>
<path d="M18.375 15.4167H16.625C16.3834 15.4167 16.1875 15.6033 16.1875 15.8334C16.1875 16.0635 16.3834 16.2501 16.625 16.2501H18.375C18.6166 16.2501 18.8125 16.0635 18.8125 15.8334C18.8125 15.6033 18.6166 15.4167 18.375 15.4167Z" fill="black"/>
<path d="M18.375 17.0833H16.1875C15.9459 17.0833 15.75 17.2698 15.75 17.4999C15.75 17.73 15.9459 17.9166 16.1875 17.9166H18.375C18.6166 17.9166 18.8125 17.73 18.8125 17.4999C18.8125 17.2698 18.6166 17.0833 18.375 17.0833Z" fill="black"/>
<path d="M18.375 18.75H14.4375C14.1959 18.75 14 18.9366 14 19.1667C14 19.3968 14.1959 19.5833 14.4375 19.5833H18.375C18.6166 19.5833 18.8125 19.3968 18.8125 19.1667C18.8125 18.9366 18.6166 18.75 18.375 18.75Z" fill="black"/>
<path d="M18.375 20.4167H14.4375C14.1959 20.4167 14 20.6033 14 20.8334C14 21.0635 14.1959 21.2501 14.4375 21.2501H18.375C18.6166 21.2501 18.8125 21.0635 18.8125 20.8334C18.8125 20.6033 18.6166 20.4167 18.375 20.4167Z" fill="black"/>
<path fill-rule="evenodd" clip-rule="evenodd" d="M7.4375 16.25H2.625C2.38339 16.25 2.1875 16.0634 2.1875 15.8333V14.1667C2.1875 13.9366 2.38339 13.75 2.625 13.75H7.4375C7.67911 13.75 7.875 13.9366 7.875 14.1667V15.8333C7.875 16.0634 7.67911 16.25 7.4375 16.25ZM7 14.5833H3.0625V15.4167H7V14.5833Z" fill="black"/>
</svg>
