<svg width="19" height="22" viewBox="0 0 19 22" fill="none" xmlns="http://www.w3.org/2000/svg">
<path fill-rule="evenodd" clip-rule="evenodd" d="M18.3799 14.3864C17.1941 13.2425 16.2874 12.0454 16.2874 7.98789C16.2874 4.56801 13.599 1.77891 10.1786 1.4416V0.6875C10.1786 0.307656 9.87496 0 9.50005 0C9.12515 0 8.82149 0.307656 8.82149 0.6875V1.44203C5.40112 1.77934 2.71275 4.56801 2.71275 7.98789C2.71275 12.045 1.8056 13.2425 0.619814 14.3864C0.0273453 14.9579 -0.159683 15.822 0.142701 16.5877C0.451446 17.3697 1.19447 17.875 2.03588 17.875H16.9642C17.8056 17.875 18.5487 17.3693 18.8574 16.5872C19.1598 15.8215 18.9723 14.9579 18.3799 14.3864ZM9.50005 20.625C8.75109 20.625 8.14293 20.0071 8.14293 19.2487H6.78581C6.78581 20.7659 8.00383 22 9.50005 22C10.9963 22 12.2143 20.7659 12.2143 19.2487H10.8572C10.8572 20.0071 10.249 20.625 9.50005 20.625ZM2.03588 16.5H16.9642C17.5652 16.5 17.8709 15.794 17.4443 15.382C15.957 13.9477 14.9302 12.3428 14.9302 7.98789C14.9302 5.09266 12.501 2.75 9.50005 2.75C6.49869 2.75 4.06987 5.09309 4.06987 7.98832C4.06987 12.36 3.03422 13.9562 1.5558 15.3824C1.13085 15.7923 1.43239 16.5 2.03588 16.5Z" fill="white"/>
</svg>
