<svg width="20" height="15" viewBox="0 0 20 15" fill="none" xmlns="http://www.w3.org/2000/svg">
<path fill-rule="evenodd" clip-rule="evenodd" d="M1.95618 0C0.879204 0 0 0.888531 0 1.98039V3.58787V5.70952V12.8344C0 13.9263 0.879204 14.8148 1.95618 14.8148H18.0438C19.1208 14.8148 20 13.9263 20 12.8344V5.70952V3.58787V1.98039C20 0.888531 19.1208 0 18.0438 0H1.95618ZM1.95607 0.723199H18.0437C18.7378 0.723199 19.2865 1.27666 19.2865 1.98037V3.22482H0.713252V1.98037C0.713252 1.27666 1.26195 0.723199 1.95607 0.723199ZM19.2865 3.94812H0.713252V5.34654H19.2865V3.94812ZM0.713252 6.07042H19.2865V12.8344C19.2865 13.5381 18.7378 14.0916 18.0437 14.0916H1.95607C1.26195 14.0916 0.713252 13.5381 0.713252 12.8344V6.07042ZM11.5219 8.90899C11.9032 8.52245 12.4206 8.30518 12.9598 8.30512C13.3921 8.30541 13.8088 8.44751 14.1538 8.70205C14.4995 8.44694 14.9172 8.30512 15.35 8.30512C15.8893 8.30512 16.4065 8.5224 16.7879 8.90899C17.1692 9.29557 17.3835 9.82002 17.3835 10.3667C17.3835 10.9135 17.1692 11.4386 16.7879 11.8252C16.4065 12.2118 15.8893 12.4291 15.35 12.4291C14.9173 12.4291 14.4994 12.2871 14.1538 12.0321C13.8088 12.2867 13.3921 12.4288 12.9598 12.4291C12.4206 12.429 11.9032 12.211 11.5219 11.8245C11.1407 11.438 10.9263 10.9134 10.9263 10.3667C10.9263 9.82009 11.1407 9.29552 11.5219 8.90899ZM2.98297 8.85456C2.85365 8.85164 2.7329 8.91992 2.6674 9.033C2.6019 9.14608 2.6019 9.28625 2.6674 9.39933C2.7329 9.51241 2.85365 9.58069 2.98297 9.57778H7.47215C7.60147 9.58069 7.72221 9.51241 7.78772 9.39933C7.85322 9.28625 7.85322 9.14608 7.78772 9.033C7.72221 8.91992 7.60147 8.85164 7.47215 8.85456H2.98297ZM13.6542 9.22961C13.4473 9.09942 13.2075 9.02851 12.9597 9.02832C12.6095 9.02839 12.2738 9.16996 12.0262 9.42101C11.7785 9.67208 11.6396 10.0117 11.6395 10.3667C11.6396 10.7218 11.7785 11.0621 12.0262 11.3131C12.2738 11.5642 12.6095 11.705 12.9597 11.7051C13.2073 11.7049 13.4467 11.6338 13.6535 11.5038C13.6023 11.4252 13.5577 11.3427 13.5177 11.258C13.5134 11.2489 13.5092 11.2397 13.5051 11.2306L13.5038 11.2277C13.4265 11.0574 13.3728 10.8772 13.3435 10.6909C13.3412 10.677 13.3391 10.6632 13.3372 10.6492C13.3245 10.5561 13.3156 10.4618 13.3156 10.3667C13.3156 10.2717 13.3245 10.178 13.3372 10.0849L13.3428 10.0481L13.3435 10.0432C13.3728 9.85696 13.4265 9.67676 13.5038 9.50647L13.5177 9.4761C13.5579 9.39116 13.6028 9.30848 13.6542 9.22961ZM15.3498 9.02832C15.7001 9.02832 16.0356 9.16919 16.2833 9.4203C16.531 9.67142 16.6699 10.0116 16.6699 10.3667C16.6699 10.7218 16.531 11.062 16.2833 11.3131C16.0356 11.5642 15.7001 11.7058 15.3498 11.7058C14.9995 11.7058 14.664 11.5642 14.4163 11.3131L14.4131 11.3096L14.41 11.306L14.4093 11.3046C14.1664 11.0545 14.0299 10.7177 14.0296 10.3667C14.0299 10.0157 14.1665 9.67967 14.4093 9.42949C14.4131 9.42534 14.4168 9.4211 14.4204 9.41677C14.6678 9.16812 15.0013 9.02832 15.3498 9.02832ZM2.61724 11.1894C2.60796 10.9928 2.75526 10.8247 2.9489 10.8109C2.96027 10.8104 2.97167 10.8104 2.98304 10.8109H4.9023C5.03162 10.808 5.15237 10.8763 5.21787 10.9893C5.28338 11.1024 5.28338 11.2426 5.21787 11.3557C5.15237 11.4688 5.03162 11.537 4.9023 11.5341H2.98304C2.78897 11.5391 2.62652 11.386 2.61724 11.1894Z" fill="#2C2627"/>
</svg>
