<svg width="26" height="26" viewBox="0 0 26 26" fill="none" xmlns="http://www.w3.org/2000/svg">
<path fill-rule="evenodd" clip-rule="evenodd" d="M13 24.4706C13.4223 24.4706 13.7647 24.813 13.7647 25.2353C13.7647 25.6576 13.4223 26 13 26C5.8203 26 0 20.1797 0 13C0 5.8203 5.8203 0 13 0C13.4223 0 13.7647 0.342371 13.7647 0.764706C13.7647 1.18704 13.4223 1.52941 13 1.52941C6.66497 1.52941 1.52941 6.66497 1.52941 13C1.52941 19.335 6.66497 24.4706 13 24.4706ZM13 13H19.1176C19.54 13 19.8824 13.3424 19.8824 13.7647C19.8824 14.187 19.54 14.5294 19.1176 14.5294H12.2353C11.813 14.5294 11.4706 14.187 11.4706 13.7647V4.58824C11.4706 4.1659 11.813 3.82353 12.2353 3.82353C12.6576 3.82353 13 4.1659 13 4.58824V13ZM15.4281 0.983693C15.3188 1.39164 15.5609 1.81095 15.9688 1.92026C16.3768 2.02957 16.7961 1.78748 16.9054 1.37953C17.0147 0.971589 16.7726 0.552273 16.3646 0.442964C15.9567 0.333656 15.5374 0.575748 15.4281 0.983693ZM18.7353 3.06618C18.3695 2.85501 18.2442 2.38732 18.4554 2.02157C18.6666 1.65582 19.1342 1.5305 19.5 1.74167C19.8658 1.95284 19.9911 2.42052 19.7799 2.78628C19.5687 3.15203 19.101 3.27735 18.7353 3.06618ZM21.1109 3.80761C20.8123 4.10625 20.8123 4.59043 21.1109 4.88907C21.4096 5.18771 21.8938 5.18771 22.1924 4.88907C22.491 4.59043 22.491 4.10625 22.1924 3.80761C21.8938 3.50898 21.4096 3.50898 21.1109 3.80761ZM22.9338 7.26471C22.7227 6.89895 22.848 6.43127 23.2137 6.2201C23.5795 6.00893 24.0472 6.13425 24.2583 6.5C24.4695 6.86575 24.3442 7.33344 23.9784 7.54461C23.6127 7.75578 23.145 7.63046 22.9338 7.26471ZM24.6205 9.09462C24.2125 9.20393 23.9704 9.62325 24.0797 10.0312C24.189 10.4391 24.6084 10.6812 25.0163 10.5719C25.4243 10.4626 25.6663 10.0433 25.557 9.63535C25.4477 9.22741 25.0284 8.98532 24.6205 9.09462ZM24.4706 13C24.4706 12.5777 24.813 12.2353 25.2353 12.2353C25.6576 12.2353 26 12.5777 26 13C26 13.4223 25.6576 13.7647 25.2353 13.7647C24.813 13.7647 24.4706 13.4223 24.4706 13ZM25.0163 15.4281C24.6084 15.3188 24.189 15.5609 24.0797 15.9688C23.9704 16.3768 24.2125 16.7961 24.6205 16.9054C25.0284 17.0147 25.4477 16.7726 25.557 16.3646C25.6663 15.9567 25.4243 15.5374 25.0163 15.4281ZM22.9338 18.7353C23.145 18.3695 23.6127 18.2442 23.9784 18.4554C24.3442 18.6666 24.4695 19.1342 24.2583 19.5C24.0472 19.8658 23.5795 19.9911 23.2137 19.7799C22.848 19.5687 22.7227 19.101 22.9338 18.7353ZM22.1924 21.1109C21.8938 20.8123 21.4096 20.8123 21.1109 21.1109C20.8123 21.4096 20.8123 21.8938 21.1109 22.1924C21.4096 22.491 21.8938 22.491 22.1924 22.1924C22.491 21.8938 22.491 21.4096 22.1924 21.1109ZM18.7353 22.9338C19.101 22.7227 19.5687 22.848 19.7799 23.2137C19.9911 23.5795 19.8658 24.0472 19.5 24.2583C19.1342 24.4695 18.6666 24.3442 18.4554 23.9784C18.2442 23.6127 18.3695 23.145 18.7353 22.9338ZM16.9054 24.6205C16.7961 24.2125 16.3768 23.9704 15.9688 24.0797C15.5609 24.189 15.3188 24.6084 15.4281 25.0163C15.5374 25.4243 15.9567 25.6663 16.3646 25.557C16.7726 25.4477 17.0147 25.0284 16.9054 24.6205Z" fill="#CFCFCF"/>
</svg>
