<svg width="27" height="27" viewBox="0 0 27 27" fill="none" xmlns="http://www.w3.org/2000/svg">
<path d="M13.254 26.5002C7.72967 26.5016 2.78417 23.0754 0.84434 17.9028C-1.09549 12.7303 0.377468 6.89697 4.54041 3.26542C8.70336 -0.366123 14.6826 -1.03375 19.544 1.59017C19.7573 1.69683 19.9673 1.81683 20.174 1.95017C20.6417 2.2386 20.7891 2.8504 20.504 3.32017C20.3654 3.54762 20.1417 3.71037 19.8827 3.77232C19.6236 3.83427 19.3505 3.7903 19.124 3.65017C18.954 3.55017 18.774 3.44017 18.594 3.35017C13.7269 0.7258 7.67424 2.02754 4.31642 6.42082C0.958602 10.8141 1.29131 16.9962 5.10123 21.0038C8.91116 25.0113 15.0686 25.6559 19.6259 22.5244C24.1832 19.3928 25.7891 13.4136 23.414 8.42017L13.714 18.1202C13.5262 18.3095 13.2706 18.416 13.004 18.416C12.7374 18.416 12.4818 18.3095 12.294 18.1202L8.294 14.1202C7.90628 13.7301 7.90628 13.1002 8.294 12.7102C8.48177 12.5209 8.73737 12.4144 9.004 12.4144C9.27064 12.4144 9.52624 12.5209 9.714 12.7102L13.004 16.0002L22.944 6.06017C23.1599 5.84306 23.4635 5.73685 23.7676 5.77195C24.0718 5.80705 24.3432 5.97958 24.504 6.24017C27.0445 10.3273 27.1711 15.4701 24.8349 19.6774C22.4987 23.8846 18.0664 26.4959 13.254 26.5002Z" fill="#CFCFCF"/>
</svg>
