<svg width="27" height="20" viewBox="0 0 27 20" fill="none" xmlns="http://www.w3.org/2000/svg">
<path fill-rule="evenodd" clip-rule="evenodd" d="M2.64085 0C1.18693 0 0 1.19952 0 2.67353V4.84363V7.70786V17.3265C0 18.8005 1.18693 20 2.64085 20H24.3592C25.8131 20 27 18.8005 27 17.3265V7.70786V4.84363V2.67353C27 1.19952 25.8131 0 24.3592 0H2.64085ZM2.64085 0.976354H24.3592C25.2962 0.976354 26.037 1.72353 26.037 2.67353V4.35355H0.963042V2.67353C0.963042 1.72353 1.70378 0.976354 2.64085 0.976354ZM26.037 5.3299H0.963042V7.21777H26.037V5.3299ZM0.963042 8.19508H26.037V17.3265C26.037 18.2765 25.2962 19.0236 24.3592 19.0236H2.64085C1.70378 19.0236 0.963042 18.2765 0.963042 17.3265V8.19508ZM15.5545 12.0271C16.0692 11.5053 16.7677 11.2119 17.4956 11.2119C18.0792 11.2122 18.6417 11.4041 19.1076 11.7477C19.5741 11.4033 20.1381 11.2119 20.7224 11.2119C21.4504 11.2119 22.1487 11.5052 22.6635 12.0271C23.1783 12.549 23.4676 13.257 23.4676 13.995C23.4676 14.7331 23.1783 15.4421 22.6635 15.964C22.1487 16.4859 21.4504 16.7792 20.7224 16.7792C20.1382 16.7792 19.5741 16.5876 19.1076 16.2433C18.6417 16.587 18.0792 16.7788 17.4956 16.7792C16.7677 16.7791 16.0692 16.4848 15.5545 15.963C15.0397 15.4412 14.7504 14.733 14.7504 13.995C14.7504 13.2571 15.0397 12.5489 15.5545 12.0271ZM4.0271 11.9537C3.85252 11.9497 3.68951 12.0419 3.60108 12.1946C3.51265 12.3472 3.51265 12.5365 3.60108 12.6891C3.68951 12.8418 3.85252 12.9339 4.0271 12.93H10.0875C10.2621 12.9339 10.4251 12.8418 10.5135 12.6891C10.6019 12.5365 10.6019 12.3472 10.5135 12.1946C10.4251 12.0419 10.2621 11.9497 10.0875 11.9537H4.0271ZM18.4332 12.46C18.1539 12.2842 17.8301 12.1885 17.4956 12.1882C17.0228 12.1883 16.5697 12.3794 16.2354 12.7183C15.901 13.0573 15.7135 13.5157 15.7134 13.995C15.7135 14.4744 15.901 14.9338 16.2354 15.2727C16.5697 15.6116 17.0228 15.8018 17.4956 15.8019C17.8298 15.8016 18.1531 15.7056 18.4323 15.5301C18.3631 15.424 18.303 15.3126 18.2489 15.1983C18.2432 15.1861 18.2376 15.1739 18.2321 15.1617L18.2301 15.1573C18.1258 14.9274 18.0533 14.6842 18.0138 14.4327C18.0107 14.4139 18.0078 14.3953 18.0052 14.3764C17.9881 14.2507 17.9761 14.1234 17.9761 13.995C17.9761 13.8667 17.9881 13.7403 18.0052 13.6146C18.0068 13.6037 18.0084 13.5929 18.0101 13.5822C18.011 13.5765 18.0119 13.5708 18.0127 13.5651L18.0138 13.5584C18.0533 13.3069 18.1258 13.0636 18.2301 12.8337L18.2489 12.7927C18.3032 12.678 18.3638 12.5664 18.4332 12.46ZM20.7224 12.1882C21.1952 12.1882 21.6482 12.3784 21.9826 12.7174C22.317 13.0564 22.5045 13.5156 22.5045 13.995C22.5045 14.4745 22.317 14.9337 21.9826 15.2727C21.6482 15.6117 21.1952 15.8028 20.7224 15.8028C20.2495 15.8028 19.7965 15.6117 19.4621 15.2727C19.4596 15.2702 19.4576 15.2675 19.4553 15.2649C19.4547 15.2643 19.4542 15.2637 19.4536 15.2631L19.4526 15.2613C19.1248 14.9235 18.9405 14.4689 18.9401 13.995C18.9405 13.5212 19.1248 13.0675 19.4526 12.7298C19.4578 12.7242 19.4628 12.7185 19.4677 12.7126C19.8016 12.3769 20.2519 12.1882 20.7224 12.1882ZM3.53327 15.1058C3.52075 14.8404 3.71959 14.6135 3.98102 14.5948C3.99637 14.594 4.01174 14.594 4.0271 14.5948H6.6181C6.79268 14.5908 6.95569 14.683 7.04413 14.8357C7.13256 14.9883 7.13256 15.1776 7.04413 15.3302C6.95569 15.4829 6.79268 15.5751 6.6181 15.5711H4.0271C3.76511 15.5778 3.5458 15.3712 3.53327 15.1058Z" fill="#2C2627"/>
</svg>
