<svg width="50" height="50" viewBox="0 0 50 50" fill="none" xmlns="http://www.w3.org/2000/svg">
<path d="M16.8351 19.0634C16.6973 18.9844 16.5278 18.9789 16.3849 19.0487C16.2422 19.1187 16.1458 19.2543 16.1287 19.4089C16.1117 19.5592 16.0854 19.7095 16.0524 19.8671C15.1302 23.9388 13.2784 25.9192 10.3895 25.9192H6.15083C5.92733 25.9196 5.73491 26.0727 5.69022 26.2858L4.27733 32.7292L4.02491 34.3697C3.87978 35.1156 4.38365 35.8348 5.15032 35.976C5.23488 35.9916 5.32066 35.9996 5.40672 36H8.24191C8.89175 36.0019 9.45832 35.5704 9.61242 34.9562L10.7578 30.5014H13.2153C16.1155 30.5014 18.1199 28.2516 18.8593 24.1661V24.1661C19.3474 22.2207 18.5399 20.1853 16.8351 19.0634Z" fill="#03A9F4"/>
<path d="M15.8403 15.6123C14.9326 14.5983 13.6299 14.0121 12.2573 14H4.65038C3.51196 13.994 2.54275 14.8143 2.37751 15.9235L0.0154985 31.4411C-0.0976324 32.1823 0.420737 32.8734 1.17338 32.9849C1.24168 32.995 1.31071 33 1.37979 33H4.90765C5.12564 32.9996 5.31331 32.8484 5.3569 32.6381L6.65689 26.6667H10.4236C13.6924 26.6667 15.8523 24.4166 16.8445 19.9715C16.8844 19.7943 16.9151 19.6152 16.9364 19.4349C17.1667 18.0636 16.7649 16.6624 15.8403 15.6123Z" fill="#283593"/>
</svg>
