<svg width="15" height="17" viewBox="0 0 15 17" fill="none" xmlns="http://www.w3.org/2000/svg">
<path fill-rule="evenodd" clip-rule="evenodd" d="M14.5104 11.1167C13.5743 10.2329 12.8584 9.30783 12.8584 6.17246C12.8584 3.52982 10.736 1.37461 8.03575 1.11396V0.53125C8.03575 0.237734 7.79602 0 7.50004 0C7.20406 0 6.96433 0.237734 6.96433 0.53125V1.1143C4.26404 1.37494 2.14164 3.52982 2.14164 6.17246C2.14164 9.3075 1.42547 10.2329 0.489326 11.1167C0.0215884 11.5583 -0.126065 12.2261 0.112658 12.8177C0.356404 13.422 0.943002 13.8125 1.60728 13.8125H13.3928C14.0571 13.8125 14.6437 13.4217 14.8874 12.8174C15.1261 12.2257 14.9782 11.5583 14.5104 11.1167ZM7.50004 15.9375C6.90875 15.9375 6.42863 15.46 6.42863 14.874H5.35722C5.35722 16.0464 6.31881 17 7.50004 17C8.68127 17 9.64286 16.0464 9.64286 14.874H8.57145C8.57145 15.46 8.09132 15.9375 7.50004 15.9375ZM1.60728 12.75H13.3928C13.8672 12.75 14.1086 12.2045 13.7718 11.8861C12.5976 10.7777 11.787 9.5376 11.787 6.17246C11.787 3.93523 9.8692 2.125 7.50004 2.125C5.13055 2.125 3.21306 3.93557 3.21306 6.17279C3.21306 9.55088 2.39543 10.7844 1.22827 11.8864C0.89278 12.2031 1.13083 12.75 1.60728 12.75Z" fill="#BC2C3D"/>
</svg>
