<svg width="15" height="11" viewBox="0 0 15 11" fill="none" xmlns="http://www.w3.org/2000/svg">
<path fill-rule="evenodd" clip-rule="evenodd" d="M1.46714 0C0.659403 0 0 0.659734 0 1.47044V2.664V4.23932V9.52956C0 10.3403 0.659403 11 1.46714 11H13.5329C14.3406 11 15 10.3403 15 9.52956V4.23932V2.664V1.47044C15 0.659734 14.3406 0 13.5329 0H1.46714ZM1.46714 0.536995H13.5329C14.0535 0.536995 14.465 0.947941 14.465 1.47044V2.39445H0.535023V1.47044C0.535023 0.947941 0.946545 0.536995 1.46714 0.536995ZM14.465 2.93145H0.535023V3.96977H14.465V2.93145ZM0.535023 4.50729H14.465V9.52956C14.465 10.0521 14.0535 10.463 13.5329 10.463H1.46714C0.946545 10.463 0.535023 10.0521 0.535023 9.52956V4.50729ZM8.64137 6.61489C8.92732 6.32789 9.31538 6.16656 9.71978 6.16652C10.044 6.16673 10.3565 6.27224 10.6153 6.46124C10.8745 6.27183 11.1878 6.16652 11.5124 6.16652C11.9169 6.16652 12.3048 6.32785 12.5908 6.61489C12.8768 6.90193 13.0375 7.29133 13.0375 7.69727C13.0375 8.10321 12.8768 8.49314 12.5908 8.78018C12.3048 9.06722 11.9169 9.22855 11.5124 9.22855C11.1879 9.22855 10.8745 9.12318 10.6153 8.93383C10.3565 9.12282 10.044 9.22834 9.71978 9.22855C9.31538 9.22851 8.92732 9.06666 8.64137 8.77965C8.35542 8.49265 8.19468 8.10316 8.19464 7.69727C8.19468 7.29139 8.35542 6.9019 8.64137 6.61489ZM2.23728 6.57451C2.14029 6.57235 2.04973 6.62305 2.0006 6.70701C1.95147 6.79097 1.95147 6.89505 2.0006 6.97901C2.04973 7.06297 2.14029 7.11367 2.23728 7.11151H5.60417C5.70116 7.11367 5.79171 7.06297 5.84084 6.97901C5.88997 6.89505 5.88997 6.79097 5.84084 6.70701C5.79171 6.62305 5.70116 6.57235 5.60417 6.57451H2.23728ZM10.2407 6.85297C10.0855 6.75631 9.90561 6.70366 9.71978 6.70352C9.45713 6.70357 9.20537 6.80869 9.01965 6.99509C8.83391 7.18151 8.72971 7.43364 8.72967 7.69727C8.72971 7.9609 8.83391 8.21356 9.01965 8.39998C9.20537 8.58638 9.45713 8.69097 9.71978 8.69103C9.90545 8.69089 10.085 8.63809 10.2402 8.54157C10.2017 8.48319 10.1683 8.42192 10.1383 8.35908L10.1278 8.33653C10.0699 8.21009 10.0296 8.07628 10.0077 7.93798C10.0059 7.92765 10.0043 7.91741 10.0029 7.90704C9.99338 7.8379 9.98671 7.76785 9.98671 7.69727C9.98671 7.62669 9.9934 7.55717 10.0029 7.48803L10.0077 7.45709C10.0296 7.31879 10.0699 7.18498 10.1278 7.05854L10.1383 7.03599C10.1684 6.97293 10.2021 6.91154 10.2407 6.85297ZM11.5124 6.70352C11.7751 6.70352 12.0268 6.80811 12.2125 6.99456C12.3983 7.18102 12.5025 7.43359 12.5025 7.69727C12.5025 7.96096 12.3983 8.21353 12.2125 8.39998C12.0268 8.58643 11.7751 8.69155 11.5124 8.69155C11.2497 8.69155 10.9981 8.58643 10.8123 8.39998L10.8099 8.39734L10.8075 8.3947L10.807 8.39369C10.6249 8.20793 10.5225 7.95788 10.5223 7.69727C10.5225 7.43667 10.6249 7.18715 10.807 7.00138L10.8154 6.99194C11.0009 6.80732 11.2511 6.70352 11.5124 6.70352ZM1.96293 8.30818C1.95597 8.16222 2.06644 8.0374 2.21168 8.02713C2.2202 8.02672 2.22875 8.02672 2.23728 8.02713H3.67672C3.77371 8.02496 3.86427 8.07566 3.9134 8.15962C3.96253 8.24358 3.96253 8.34766 3.9134 8.43163C3.86427 8.51559 3.77371 8.56629 3.67672 8.56412H2.23728C2.09173 8.56781 1.96989 8.45415 1.96293 8.30818Z" fill="#BC2C3D"/>
</svg>
