<svg width="16" height="15" viewBox="0 0 16 15" fill="none" xmlns="http://www.w3.org/2000/svg">
<path d="M13.81 2.27222C13.0336 1.45183 11.9681 1 10.8097 1C9.94389 1 9.15092 1.26666 8.45284 1.79252C8.10059 2.05795 7.78141 2.3827 7.5 2.76173C7.2187 2.38281 6.89941 2.05795 6.54705 1.79252C5.84908 1.26666 5.05611 1 4.19025 1C3.03188 1 1.96632 1.45183 1.18984 2.27222C0.42263 3.08302 0 4.19069 0 5.39134C0 6.62711 0.472755 7.7583 1.48773 8.95137C2.39571 10.0186 3.70068 11.1019 5.21187 12.3564C5.72788 12.7849 6.31279 13.2705 6.92013 13.7877C7.08057 13.9246 7.28645 14 7.5 14C7.71343 14 7.91943 13.9246 8.07964 13.788C8.68698 13.2706 9.27223 12.7847 9.78848 12.3561C11.2994 11.1018 12.6044 10.0186 13.5124 8.95126C14.5274 7.7583 15 6.62711 15 5.39123C15 4.19069 14.5774 3.08302 13.81 2.27222Z" stroke="#BC2C3D"/>
</svg>
