<svg width="18" height="18" viewBox="0 0 18 18" fill="none" xmlns="http://www.w3.org/2000/svg">
<path fill-rule="evenodd" clip-rule="evenodd" d="M0 9C0 4.02944 4.02944 0 9 0C11.3869 0 13.6761 0.948212 15.364 2.63604C17.0518 4.32387 18 6.61305 18 9C18 13.9706 13.9706 18 9 18C4.02944 18 0 13.9706 0 9ZM16.74 9C16.74 4.72532 13.2747 1.26 9 1.26C4.72532 1.26 1.26 4.72532 1.26 9C1.26 13.2747 4.72532 16.74 9 16.74C13.2747 16.74 16.74 13.2747 16.74 9Z" fill="#BC2C3D"/>
<path d="M8.94243 4C9.99991 4.0402 10.8338 4.4369 11.4578 5.22333C12.3246 6.32083 12.1322 7.86397 11.0227 8.77448C10.7453 9.00167 10.4437 9.20089 10.1438 9.40012C9.83804 9.57217 9.665 9.91278 9.7052 10.2634C9.71477 10.3517 9.71477 10.4408 9.7052 10.5291C9.67692 10.8077 9.43648 11.0146 9.15912 10.9992C8.88813 10.9933 8.66451 10.7836 8.63905 10.5116C8.56104 9.68848 8.80374 9.00691 9.50584 8.53156C9.77108 8.3568 10.0259 8.16281 10.3033 7.9863C11.1701 7.42008 11.1701 5.86645 10.0918 5.34217C9.3886 4.978 8.55354 4.98192 7.85374 5.35265C7.48489 5.54307 7.19675 5.86147 7.04243 6.24918C6.97665 6.44267 6.80808 6.5821 6.60699 6.60933C6.4059 6.63656 6.20681 6.54692 6.09272 6.37778C5.97862 6.20865 5.96911 5.98904 6.06815 5.81053C6.54142 4.83012 7.34927 4.2901 8.38421 4.06291C8.56904 4.03191 8.75538 4.01091 8.94243 4V4Z" fill="#BC2C3D"/>
<path d="M9.00376 13.5075C9.00376 13.1587 9.27125 12.9449 9.61242 13.0124C9.79745 13.0391 9.94317 13.1654 9.97602 13.3275C10.0177 13.5371 10.0289 13.7495 9.80624 13.9028C9.65431 14.0154 9.43805 14.0318 9.26644 13.9436C9.08331 13.8611 8.97838 13.6869 9.00376 13.5075Z" fill="#BC2C3D"/>
</svg>
