<svg width="14" height="17" viewBox="0 0 14 17" fill="none" xmlns="http://www.w3.org/2000/svg">
<path fill-rule="evenodd" clip-rule="evenodd" d="M4.15881 6.54309C4.15881 5.04077 5.43528 3.81519 6.99999 3.81519C8.5647 3.81519 9.84117 5.04077 9.84117 6.54309C9.84117 8.04542 8.5647 9.271 6.99999 9.271C5.43528 9.271 4.15881 8.04542 4.15881 6.54309ZM4.98234 6.54309C4.98234 7.61053 5.88823 8.4803 6.99999 8.4803C8.11175 8.4803 9.01764 7.61053 9.01764 6.54309C9.01764 5.47565 8.11175 4.60588 6.99999 4.60588C5.88823 4.60588 4.98234 5.47565 4.98234 6.54309Z" fill="#BC2C3D"/>
<path fill-rule="evenodd" clip-rule="evenodd" d="M0.102966 6.54306C0.102966 2.96515 3.1912 0.0791016 7.00003 0.0791016C10.8088 0.0791016 13.8971 2.96515 13.8765 6.52329C13.8765 7.92678 13.403 9.27096 12.5177 10.3977L7.65885 16.6047C7.49414 16.8024 7.26767 16.921 7.00003 16.921C6.73238 16.921 6.50591 16.8024 6.3412 16.6047L1.46179 10.4175C0.576496 9.29073 0.102966 7.94654 0.102966 6.54306ZM7.00003 16.1303L11.8588 9.94306C12.6618 8.95468 13.0736 7.76864 13.0941 6.52329C13.0941 3.40003 10.3559 0.850032 7.02061 0.850032C3.66473 0.850032 0.947084 3.40003 0.947084 6.52329C0.947084 7.76864 1.35885 8.93492 2.1412 9.92329L7.00003 16.1303Z" fill="#BC2C3D"/>
</svg>
