<svg width="18" height="14" viewBox="0 0 18 14" fill="none" xmlns="http://www.w3.org/2000/svg">
<path d="M7.07241 14C9.40344 13.9989 11.5841 12.8598 12.9011 10.9551C13.0137 10.7965 13.0315 10.5901 12.9476 10.4149C12.8637 10.2396 12.6911 10.1226 12.4958 10.1085C12.3005 10.0944 12.1126 10.1854 12.0039 10.3467C10.5226 12.489 7.80502 13.426 5.30043 12.6582C2.79585 11.8904 1.08824 9.59672 1.08824 7.00034C1.08824 4.40397 2.79585 2.11028 5.30043 1.34247C7.80502 0.574647 10.5226 1.51172 12.0039 3.65397C12.1752 3.89513 12.5104 3.95512 12.756 3.78855C13.0016 3.62198 13.0663 3.29078 12.9011 3.04553C11.0013 0.298156 7.41005 -0.743603 4.3136 0.55445C1.21714 1.8525 -0.527292 5.13102 0.142248 8.39412C0.811787 11.6572 3.70995 14.0016 7.07241 14Z" fill="#BC2C3D"/>
<path d="M13.854 6.87343H6V8.12657H13.854V10L18 7.5L13.854 5V6.87343Z" fill="#BC2C3D"/>
</svg>
