<svg width="17" height="17" viewBox="0 0 17 17" fill="none" xmlns="http://www.w3.org/2000/svg">
<path fill-rule="evenodd" clip-rule="evenodd" d="M11 10.5C11 11.3272 10.327 12 9.5 12C8.673 12 8 11.3272 8 10.5C8 9.67283 8.673 9 9.5 9C10.327 9 11 9.67283 11 10.5ZM10.3077 10.5C10.3077 10.0546 9.94536 9.69231 9.5 9.69231C9.05464 9.69231 8.69231 10.0546 8.69231 10.5C8.69231 10.9454 9.05464 11.3077 9.5 11.3077C9.94536 11.3077 10.3077 10.9454 10.3077 10.5Z" fill="#BC2C3D"/>
<path fill-rule="evenodd" clip-rule="evenodd" d="M8 6.5C8 7.32717 7.327 8 6.5 8C5.673 8 5 7.32717 5 6.5C5 5.67283 5.673 5 6.5 5C7.327 5 8 5.67283 8 6.5ZM7.30769 6.5C7.30769 6.05464 6.94536 5.69231 6.5 5.69231C6.05464 5.69231 5.69231 6.05464 5.69231 6.5C5.69231 6.94536 6.05464 7.30769 6.5 7.30769C6.94536 7.30769 7.30769 6.94536 7.30769 6.5Z" fill="#BC2C3D"/>
<path d="M5.1448 11.9368C5.21324 11.9793 5.29424 12 5.37486 12C5.48661 12 5.59723 11.9601 5.67111 11.8842L10.921 6.48413C11.0481 6.35348 11.0187 6.16493 10.8552 6.06307C10.6917 5.96152 10.456 5.98507 10.3289 6.11587L5.07899 11.5159C4.95187 11.6466 4.98131 11.835 5.1448 11.9368Z" fill="#BC2C3D"/>
<path d="M15.9275 6.50965L16.0429 5.04665C16.0875 4.48162 15.7736 3.93796 15.2619 3.6937L13.9372 3.06227L13.3056 1.73759C13.0616 1.22541 12.5175 0.912914 11.9529 0.956572L10.4902 1.07192L9.28088 0.240579C8.81376 -0.080193 8.18579 -0.080193 7.71889 0.240579L6.50959 1.07192L5.04708 0.956572C4.48207 0.914292 3.9382 1.22587 3.69418 1.73759L3.06253 3.06227L1.73789 3.6937C1.22618 3.93796 0.912314 4.48162 0.95689 5.04665L1.07224 6.50965L0.240917 7.71875C-0.0803057 8.18589 -0.0803057 8.81388 0.240917 9.28079L1.07224 10.4901L0.95689 11.9531C0.912314 12.5182 1.22618 13.0618 1.73789 13.3061L3.06253 13.9375L3.69418 15.2622C3.9382 15.7741 4.48207 16.0855 5.04685 16.0432L6.50959 15.9278L7.71889 16.7592C7.95257 16.9196 8.22623 17 8.49989 17C8.77355 17 9.04743 16.9196 9.28088 16.7592L10.6244 15.8355C10.8337 15.6916 10.8865 15.4056 10.7427 15.1965C10.5991 14.9871 10.3128 14.9343 10.1037 15.0779L8.76022 16.0016C8.60443 16.1089 8.39557 16.1089 8.23955 16.0016L6.76211 14.9858L4.97447 15.1266C4.78629 15.1455 4.60523 15.037 4.52389 14.8665L3.75231 13.2479L2.13379 12.4761C1.96307 12.3948 1.85852 12.2135 1.87346 12.0253L2.01431 10.2378L0.998709 8.75988C0.891635 8.60432 0.891635 8.39522 0.998709 8.23943L2.01431 6.76172L1.87346 4.97426C1.85875 4.78608 1.9633 4.60478 2.13379 4.52344L3.75231 3.75161L4.52389 2.13304C4.60523 1.96255 4.78514 1.85409 4.9747 1.87293L6.76211 2.01379L8.23978 0.997932C8.39557 0.890625 8.60443 0.890625 8.76045 0.997932L10.2379 2.01379L12.0255 1.87293C12.2146 1.85616 12.395 1.96278 12.4761 2.13304L13.2477 3.75161L14.8662 4.52344C15.0369 4.60478 15.1415 4.78608 15.1265 4.97426L14.9857 6.76172L16.0013 8.23966C16.1084 8.39522 16.1084 8.60432 16.0013 8.76011L14.9857 10.2378L15.1265 12.0253C15.1412 12.2135 15.0367 12.3948 14.8662 12.4761L13.2477 13.2479L12.4761 14.8665C12.3948 15.037 12.2121 15.1411 12.0251 15.1266L11.7528 15.1052C11.4991 15.0855 11.2785 15.2744 11.2588 15.5276C11.239 15.7808 11.4281 16.0016 11.6811 16.0216L11.9529 16.043C12.5209 16.0859 13.062 15.7739 13.3058 15.2619L13.9375 13.9373L15.2621 13.3058C15.7738 13.0616 16.0877 12.5179 16.0431 11.9529L15.9278 10.4899L16.7591 9.28079C17.0803 8.81365 17.0803 8.18566 16.7591 7.71875L15.9275 6.50965Z" fill="#BC2C3D"/>
</svg>
