<svg width="16" height="20" viewBox="0 0 16 20" fill="none" xmlns="http://www.w3.org/2000/svg">
<path fill-rule="evenodd" clip-rule="evenodd" d="M15.7258 6.85454L11.7221 5.29282C12.2974 3.64659 11.7387 1.81504 10.345 0.777872C8.95129 -0.259291 7.04871 -0.259291 5.65499 0.777872C4.26127 1.81504 3.70264 3.64659 4.27791 5.29282L0.274215 6.85454C0.108807 6.91952 -6.70658e-05 7.08005 0 7.25885V16.6113C-5.0189e-05 16.7904 0.109171 16.9511 0.274954 17.0159L7.84418 19.9707C7.89389 19.9901 7.94672 20 8 20C8.05274 19.9989 8.10482 19.988 8.1536 19.9678L8.15582 19.9707L15.7258 17.0159C15.8913 16.9509 16.0002 16.7902 16 16.6113V7.25885C16.0001 7.08005 15.8912 6.91952 15.7258 6.85454ZM14.3781 7.25885L12.9807 7.80421L10.6649 6.90684C10.9287 6.66238 11.1584 6.38302 11.3477 6.0764L14.3781 7.25885ZM11.7868 8.27099L9.8176 7.50823C9.44689 7.70223 9.04776 7.83529 8.63532 7.90238L10.675 8.7048L11.7868 8.27099ZM11.1579 9.4465L12.6046 8.8818V10.6892L12.3626 10.5303C12.1879 10.4158 11.9569 10.4435 11.8139 10.5962L11.1579 11.2973V9.4465ZM11.0843 3.98469C11.0843 2.26925 9.70342 0.878604 8 0.878604C6.29737 0.880517 4.91759 2.27004 4.91569 3.98469C4.91569 5.70013 6.29658 7.09078 8 7.09078C9.70342 7.09078 11.0843 5.70013 11.0843 3.98469ZM4.89846 6.43138L4.89763 6.43106C4.80944 6.31716 4.72746 6.19852 4.65206 6.07566L4.32197 6.20456L4.89763 6.43106L4.89846 6.43213V6.43138ZM9.48554 9.16886L3.13378 6.66837L1.62191 7.25885L8 9.74868L9.48554 9.16886ZM0.861538 16.3141V7.89246L7.56923 10.5112V18.9328L0.861538 16.3141ZM8.43077 10.5112V18.9328L15.1385 16.3141V7.89246L13.4649 8.54541V11.4884C13.4645 11.6471 13.3781 11.793 13.2396 11.8687C13.1011 11.9444 12.9326 11.938 12.8002 11.8518L12.194 11.4552L11.0407 12.6879C10.9593 12.775 10.8459 12.8243 10.7271 12.8243C10.6728 12.8243 10.6189 12.8139 10.5684 12.7935C10.4042 12.728 10.2964 12.5683 10.2964 12.3905V9.78239L8.43077 10.5112Z" fill="#BC2C3D"/>
<path d="M7.24104 5.88873C7.40242 6.04049 7.63984 6.03659 7.79711 5.87959L9.84898 3.83022C9.96739 3.71973 10.0221 3.54626 9.99174 3.37779C9.96136 3.20932 9.8507 3.07268 9.70312 3.02142C9.55555 2.97016 9.39456 3.01244 9.28325 3.13169L7.50578 4.9073L6.69634 4.14698C6.51789 3.97931 6.25091 4.00415 6.10002 4.20246C5.94914 4.40076 5.97149 4.69745 6.14995 4.86512L7.24104 5.88873Z" fill="#BC2C3D"/>
</svg>
