<svg width="19" height="15" viewBox="0 0 19 15" fill="none" xmlns="http://www.w3.org/2000/svg">
<path fill-rule="evenodd" clip-rule="evenodd" d="M9.07155 0.221077C9.21191 0.132607 9.35645 0.0836148 9.49876 0.0811521C9.64108 0.0786917 9.78118 0.122767 9.92597 0.221077L18.7309 6.9375C19.0303 7.15383 19.0784 7.65044 18.8829 7.90998C18.6601 8.20575 18.1595 8.23689 17.8764 7.99394L9.49876 1.60634L1.12109 7.99394C0.83805 8.23689 0.347744 8.19823 0.114616 7.90998C-0.118514 7.62174 0.0404906 7.1545 0.266674 6.9375L9.07155 0.221077ZM2.54754 7.7001L3.93779 6.63666V13.514H6.94998V11.4991C6.94998 10.1463 8.09876 9.03637 9.49876 9.03637C10.8988 9.03637 12.0475 10.1463 12.0475 11.4991V13.514H15.0597V6.63666L16.45 7.7001V14.1856C16.4499 14.5565 16.1387 14.8572 15.7549 14.8573H11.3524C10.9685 14.8572 10.6573 14.5565 10.6573 14.1856V11.4991C10.6573 10.8673 10.1526 10.3797 9.49876 10.3797C8.84491 10.3797 8.34023 10.8673 8.34023 11.4991V14.1856C8.34019 14.5565 8.02899 14.8572 7.6451 14.8573H3.24267C2.85878 14.8572 2.54758 14.5565 2.54754 14.1856V7.7001Z" fill="black"/>
</svg>
