<svg width="22" height="19" viewBox="0 0 22 19" fill="none" xmlns="http://www.w3.org/2000/svg">
<path d="M21.7684 6.02619C21.4826 5.74288 21.0211 5.74288 20.7354 6.02619L18.9039 7.85299C18.0692 3.12234 13.8253 -0.242402 9.01639 0.0136855C4.20747 0.269773 0.346935 4.0661 0.0219731 8.8585C-0.302989 13.6509 3.0099 17.9311 7.74045 18.8307C12.471 19.7303 17.1304 16.9662 18.5962 12.3907C18.6892 12.0175 18.4763 11.6362 18.1092 11.5187C17.7421 11.4011 17.3464 11.5875 17.2042 11.945C15.9828 15.7556 12.1377 18.0903 8.18302 17.4224C4.22832 16.7546 1.36803 13.2876 1.47234 9.2883C1.57666 5.28902 4.61383 1.97503 8.59799 1.51319C12.5821 1.05135 16.3004 3.58227 17.3215 7.45109L15.9148 6.04811C15.6242 5.79983 15.1909 5.81653 14.9203 6.08643C14.6497 6.35633 14.633 6.78851 14.8819 7.07842L17.8123 10.0013C17.9499 10.1396 18.1371 10.2174 18.3325 10.2174C18.5278 10.2174 18.715 10.1396 18.8526 10.0013L21.783 7.07842C21.9244 6.93872 22.0027 6.74767 21.9999 6.5492C21.9972 6.35073 21.9136 6.16193 21.7684 6.02619Z" fill="#BC2C3D"/>
</svg>
