<svg width="39" height="52" viewBox="0 0 39 52" fill="none" xmlns="http://www.w3.org/2000/svg">
<path fill-rule="evenodd" clip-rule="evenodd" d="M10.6945 41.1954C12.6145 43.9306 14.8641 47.1354 17.496 50.9508C18.4643 52.3497 20.5356 52.3498 21.504 50.9508C24.1359 47.1354 26.3855 43.9306 28.3055 41.1954C37.1508 28.5944 39 25.96 39 19.5C39 8.73041 30.2696 0 19.5 0C8.73041 0 0 8.73041 0 19.5C0 25.96 1.84922 28.5944 10.6945 41.1954ZM27.3 19.2593C27.3 23.5139 23.8078 26.963 19.5 26.963C15.1922 26.963 11.7 23.5139 11.7 19.2593C11.7 15.0046 15.1922 11.5556 19.5 11.5556C23.8078 11.5556 27.3 15.0046 27.3 19.2593Z" fill="#BC2C3D"/>
</svg>
