<svg width="21" height="25" viewBox="0 0 21 25" fill="none" xmlns="http://www.w3.org/2000/svg">
<path fill-rule="evenodd" clip-rule="evenodd" d="M0 13C0 10.7944 1.79436 9 4 9C6.20564 9 8 10.7944 8 13C8 15.2056 6.20564 17 4 17C1.79436 17 0 15.2056 0 13ZM1.7778 13C1.7778 14.2254 2.77451 15.2222 4 15.2222C5.22549 15.2222 6.2222 14.2254 6.2222 13C6.2222 11.7746 5.22544 10.7778 4 10.7778C2.77456 10.7778 1.7778 11.7746 1.7778 13Z" fill="white"/>
<path fill-rule="evenodd" clip-rule="evenodd" d="M13 4C13 1.79436 14.7944 0 17 0C19.2056 0 21 1.79436 21 4C21 6.20564 19.2056 8 17 8C14.7944 8 13 6.20564 13 4ZM14.7778 4C14.7778 5.22549 15.7745 6.2222 17 6.2222C18.2255 6.2222 19.2222 5.22544 19.2222 4C19.2222 2.77451 18.2254 1.7778 17 1.7778C15.7746 1.7778 14.7778 2.77451 14.7778 4Z" fill="white"/>
<path fill-rule="evenodd" clip-rule="evenodd" d="M13 21C13 18.7944 14.7944 17 17 17C19.2056 17 21 18.7943 21 21C21 23.2056 19.2056 25 17 25C14.7944 25 13 23.2057 13 21ZM14.7778 21C14.7778 22.2255 15.7745 23.2222 17 23.2222C18.2255 23.2222 19.2222 22.2255 19.2222 21C19.2222 19.7745 18.2254 18.7778 17 18.7778C15.7746 18.7778 14.7778 19.7745 14.7778 21Z" fill="white"/>
<path d="M6.27466 10.27L14.0312 5.30084L15.0342 6.8369L7.27766 11.8061L6.27466 10.27Z" fill="white"/>
<path d="M6.27222 15.1277L7.2776 13.5933L14.8189 18.4413L13.8135 19.9757L6.27222 15.1277Z" fill="white"/>
</svg>
