<svg width="36" height="42" viewBox="0 0 36 42" fill="none" xmlns="http://www.w3.org/2000/svg">
<path d="M34.0984 28.0473C32.9621 31.1068 31.2437 33.7671 28.9902 35.9534C26.4251 38.4419 23.0663 40.4193 19.0069 41.8298C18.8737 41.876 18.7347 41.9138 18.5951 41.9417C18.4106 41.9779 18.2229 41.9974 18.0368 42H18.0003C17.802 42 17.6026 41.9801 17.4049 41.9417C17.2653 41.9138 17.1282 41.876 16.9956 41.8308C12.9315 40.4225 9.56845 38.4461 7.0008 35.9576C4.74632 33.7712 3.02821 31.1126 1.89356 28.0531C-0.169662 22.4903 -0.0522613 16.3623 0.0422396 11.4379L0.0438522 11.3623C0.0628814 10.9556 0.0751375 10.5285 0.0819107 10.0568C0.116421 7.74104 1.96967 5.82516 4.30091 5.69603C9.16142 5.42654 12.9215 3.8516 16.1342 0.740502L16.1622 0.714868C16.6957 0.228768 17.3678 -0.00963551 18.0368 0.000298012C18.6818 0.00862934 19.3243 0.246712 19.8387 0.714868L19.8662 0.740502C23.0795 3.8516 26.8395 5.42654 31.7001 5.69603C34.0313 5.82516 35.8845 7.74104 35.9191 10.0568C35.9258 10.5317 35.9381 10.9582 35.9571 11.3623L35.9581 11.3943C36.0523 16.3281 36.169 22.4682 34.0984 28.0473Z" fill="#BC2C3D"/>
<path d="M34.0945 28.0472C32.9559 31.1067 31.2339 33.767 28.9758 35.9534C26.4055 38.4419 23.0398 40.4193 18.9722 41.8298C18.8387 41.876 18.6994 41.9138 18.5594 41.9417C18.3746 41.9779 18.1865 41.9974 18 42V0C18.6464 0.00833138 19.2902 0.246416 19.8057 0.714575L19.8331 0.74021C23.0531 3.85133 26.8208 5.42628 31.6913 5.69577C34.0273 5.8249 35.8843 7.7408 35.9189 10.0566C35.9257 10.5315 35.938 10.958 35.957 11.3621L35.958 11.3941C36.0524 16.3279 36.1694 22.4681 34.0945 28.0472Z" fill="#A62736"/>
<path d="M29 21.4998C29 27.2769 24.3094 31.9794 18.5371 32H18.5002C12.7109 32 8 27.2894 8 21.4998C8 15.7106 12.7109 11 18.5002 11H18.5371C24.3094 11.0206 29 15.7231 29 21.4998Z" fill="white"/>
<path d="M28 21.4998C28 27.2769 23.5169 31.9794 18 32V11C23.5169 11.0206 28 15.7231 28 21.4998Z" fill="#E1EBF0"/>
<path d="M22.6525 19.3095L18.1146 24.4856L17.134 25.6039C16.9024 25.8681 16.5986 26 16.295 26C15.9912 26 15.6877 25.8681 15.4557 25.6039L13.3475 23.1984C12.8842 22.6701 12.8842 21.8142 13.3475 21.2855C13.8101 20.7571 14.5615 20.7571 15.0248 21.2855L16.295 22.7341L20.9752 17.3965C21.4385 16.8678 22.1899 16.8678 22.6525 17.3965C23.1158 17.9249 23.1158 18.7818 22.6525 19.3095Z" fill="#2C2627"/>
<path d="M22.6444 19.1597L18 24V20.4213L20.9277 17.3708C21.4018 16.8764 22.1708 16.8764 22.6444 17.3708C23.1185 17.8649 23.1185 18.6663 22.6444 19.1597Z" fill="#171414"/>
</svg>
