<svg width="10" height="12" viewBox="0 0 10 12" fill="none" xmlns="http://www.w3.org/2000/svg">
<path fill-rule="evenodd" clip-rule="evenodd" d="M6.44593 5.77021L0.745916 0.0951474C0.619009 -0.0312639 0.413798 -0.0312639 0.289591 0.0924578L0.0978804 0.28342C-0.0290266 0.409831 -0.0290266 0.614241 0.0978804 0.740652L5.37397 5.99882L0.0951802 11.2543C-0.0317267 11.3807 -0.0317267 11.5851 0.0951802 11.7115L0.286891 11.9025C0.413798 12.0289 0.619009 12.0289 0.745916 11.9025L6.44593 6.22744C6.57284 6.10103 6.57284 5.89662 6.44593 5.77021ZM3.55137 0.286109L3.74308 0.0951474C3.86999 -0.0312639 4.0752 -0.0312639 4.20481 0.097837L9.90482 5.7729C10.0317 5.89931 10.0317 6.10372 9.90482 6.23013L4.20481 11.9052C4.0779 12.0316 3.87269 12.0316 3.74578 11.9052L3.55407 11.7142C3.42716 11.5878 3.42716 11.3834 3.55407 11.257L8.83016 5.99882L3.55137 0.743342C3.42446 0.61693 3.42446 0.41252 3.55137 0.286109Z" fill="#CBCBCB"/>
</svg>
