<svg width="25" height="76" viewBox="0 0 25 76" fill="none" xmlns="http://www.w3.org/2000/svg">
<path fill-rule="evenodd" clip-rule="evenodd" d="M3.14232 0.10206C2.93091 0.121671 2.749 0.261735 2.67357 0.462975L0.42531 6.59854C0.418668 6.61584 0.412874 6.63347 0.407948 6.65136C0.225868 7.35967 0.432421 8.0722 0.859337 8.59678C1.28626 9.12136 1.93135 9.48605 2.66489 9.6003C3.7192 9.76451 4.75748 9.3752 5.36455 8.62319C5.89421 9.25995 6.75771 9.65312 7.69093 9.65312H8.0208C8.93921 9.65312 9.78327 9.26962 10.3125 8.6496C10.808 9.2627 11.5971 9.65312 12.5 9.65312C13.4028 9.65312 14.192 9.2627 14.6875 8.6496C14.8878 8.88437 15.1298 9.08901 15.4079 9.24819V17.2499C15.4051 17.4531 15.5104 17.6421 15.6834 17.7445C15.8565 17.847 16.0705 17.847 16.2436 17.7445C16.4166 17.6421 16.5219 17.4531 16.5191 17.2499V9.6179C16.6701 9.63949 16.8227 9.65312 16.9791 9.65312H17.309C18.2422 9.65312 19.1057 9.25995 19.6354 8.62319C20.194 9.31066 21.1142 9.70172 22.0746 9.63551V18.6936H2.92531V11.044C2.92876 10.8817 2.86305 10.7258 2.74501 10.6162C2.62697 10.5067 2.46806 10.454 2.30899 10.4718C2.02277 10.5037 1.80801 10.752 1.8142 11.044V18.6936H0.833296C0.815944 18.6928 0.798564 18.6928 0.781212 18.6936C0.582703 18.703 0.404221 18.8191 0.313014 18.9981C0.221807 19.1772 0.231735 19.392 0.339058 19.5616C0.446382 19.7312 0.63479 19.8298 0.833296 19.8204H24.1666C24.367 19.8232 24.5533 19.7165 24.6543 19.541C24.7553 19.3655 24.7553 19.1485 24.6543 18.973C24.5533 18.7975 24.367 18.6907 24.1666 18.6936H23.1857V9.33622C23.561 9.15675 23.8897 8.90507 24.1406 8.59678C24.5675 8.0722 24.7741 7.35967 24.592 6.65136C24.5871 6.63347 24.5813 6.61584 24.5746 6.59854L22.3264 0.462975C22.2434 0.2447 22.0362 0.101069 21.8055 0.10206H3.19441C3.17706 0.101234 3.15968 0.101234 3.14232 0.10206ZM3.57635 1.22882H21.4236L23.5156 6.93305V6.95065C23.5957 7.28483 23.5136 7.59814 23.2812 7.88375C23.0445 8.17455 22.6479 8.41672 22.1701 8.49114C21.2149 8.63991 20.3724 8.07563 20.2257 7.35558L20.217 7.34678L20.1736 7.15312C20.1748 7.06138 20.154 6.97073 20.1128 6.88903L19.0711 2.39079C19.0441 2.17748 18.8998 1.99835 18.699 1.92909C18.4982 1.85983 18.2761 1.91251 18.1264 2.06489C17.9767 2.21726 17.9257 2.44274 17.9948 2.64607L19.0538 7.24995C18.9914 7.9224 18.2938 8.52636 17.309 8.52636H16.9791C15.9469 8.52636 15.2258 7.86367 15.2257 7.15312C15.2265 7.13552 15.2265 7.1179 15.2257 7.1003L14.8437 2.47882C14.8253 2.18152 14.5819 1.9501 14.2882 1.95065C14.1297 1.9497 13.9783 2.01745 13.8722 2.13683C13.7661 2.25622 13.7153 2.41588 13.7326 2.57565L14.1145 7.15312V7.18833C14.1098 7.2145 14.1069 7.24097 14.1059 7.26755C14.0424 7.95806 13.4601 8.52636 12.5 8.52636C11.5399 8.52636 10.9575 7.95806 10.8941 7.26755C10.8926 7.24392 10.8897 7.2204 10.8854 7.19713V7.15312L11.2586 2.57565C11.276 2.40425 11.2151 2.23423 11.0932 2.11412C10.9714 1.99401 10.8021 1.93703 10.6336 1.95945C10.3734 1.99632 10.1742 2.213 10.1562 2.47882L9.77427 7.1003C9.77345 7.1179 9.77345 7.13552 9.77427 7.15312C9.7741 7.86367 9.05301 8.52636 8.0208 8.52636H7.69093C6.69326 8.52636 5.99235 7.9065 5.94614 7.22354L7.00517 2.64607C7.05014 2.44951 6.98829 2.24356 6.84291 2.10579C6.69753 1.96802 6.49072 1.91936 6.30037 1.97815C6.11003 2.03693 5.96507 2.19423 5.9201 2.39079L4.86975 6.93305C4.84507 6.99173 4.83039 7.05424 4.82635 7.1179L4.77427 7.34678V7.35558C4.62752 8.07563 3.78499 8.63991 2.82982 8.49114C2.35198 8.41672 1.95538 8.17455 1.71871 7.88375C1.48627 7.59814 1.40427 7.28483 1.48434 6.95065C1.48501 6.9477 1.48464 6.9449 1.48427 6.94211C1.48387 6.93914 1.48348 6.93618 1.48434 6.93305L3.57635 1.22882ZM17.0643 13.48C17.1653 13.3045 17.3517 13.1978 17.552 13.2007H18.9409C19.1413 13.1978 19.3276 13.3045 19.4286 13.48C19.5296 13.6555 19.5296 13.8726 19.4286 14.048C19.3276 14.2235 19.1413 14.3303 18.9409 14.3274H17.552C17.3517 14.3303 17.1653 14.2235 17.0643 14.048C16.9633 13.8726 16.9633 13.6555 17.0643 13.48Z" fill="#2C2627"/>
<path fill-rule="evenodd" clip-rule="evenodd" d="M7.23828 60.0069C7.23828 57.7093 9.15299 55.8348 11.5 55.8348C13.8471 55.8348 15.7618 57.7093 15.7618 60.0069C15.7618 62.3046 13.8471 64.179 11.5 64.179C9.15299 64.179 7.23828 62.3046 7.23828 60.0069ZM8.47358 60.0069C8.47358 61.6395 9.8324 62.9697 11.5 62.9697C13.1677 62.9697 14.5265 61.6395 14.5265 60.0069C14.5265 58.3744 13.1677 57.0441 11.5 57.0441C9.8324 57.0441 8.47358 58.3744 8.47358 60.0069Z" fill="#2C2627"/>
<path fill-rule="evenodd" clip-rule="evenodd" d="M1.1543 60.007C1.1543 54.5349 5.78665 50.121 11.4999 50.121C17.2131 50.121 21.8455 54.5349 21.8146 59.9768C21.8146 62.1233 21.1043 64.1791 19.7764 65.9024L12.4881 75.3954C12.2411 75.6977 11.9014 75.8791 11.4999 75.8791C11.0984 75.8791 10.7587 75.6977 10.5117 75.3954L3.19253 65.9326C1.86459 64.2093 1.1543 62.1535 1.1543 60.007ZM11.4999 74.6698L18.7881 65.207C19.9925 63.6954 20.6102 61.8814 20.6411 59.9768C20.6411 55.2 16.5337 51.3 11.5308 51.3C6.49694 51.3 2.42047 55.2 2.42047 59.9768C2.42047 61.8814 3.03812 63.6652 4.21165 65.1768L11.4999 74.6698Z" fill="#2C2627"/>
<path d="M11.5 22.4167V26.5833" stroke="#2C2627" stroke-linecap="square"/>
<path d="M11.5 29.4167V33.5833" stroke="#2C2627" stroke-linecap="square"/>
<path d="M11.5 36.4167V40.5833" stroke="#2C2627" stroke-linecap="square"/>
<path d="M11.5 43.4167V47.5833" stroke="#2C2627" stroke-linecap="square"/>
</svg>
