<svg width="159" height="385" viewBox="0 0 159 385" fill="none" xmlns="http://www.w3.org/2000/svg">
<circle cx="123.5" cy="25.5" r="25.5" fill="#BC2C3D"/>
<path d="M11.5 95.5L129.5 58.5" stroke="#BC2C3D" stroke-width="3" stroke-linecap="square"/>
<path d="M128 43L132 58" stroke="#BC2C3D" stroke-width="3" stroke-linecap="square"/>
<path d="M11.5 95.5L42.5 216.5" stroke="#BC2C3D" stroke-width="3" stroke-linecap="square"/>
<path d="M42.5 218.5L10.5 303.5" stroke="#2C2627" stroke-width="3" stroke-linecap="square"/>
<path d="M12.5 304.5L117 345" stroke="#2C2627" stroke-width="3" stroke-linecap="square"/>
<g filter="url(#filter0_d)">
<circle cx="41.5" cy="203.5" r="25.5" fill="white"/>
</g>
<circle opacity="0.285249" cx="117" cy="345" r="33" fill="#BC2C3D"/>
<circle opacity="0.285249" cx="118" cy="344" r="41" fill="#BC2C3D"/>
<circle opacity="0.677595" cx="116.5" cy="345.5" r="25.5" fill="#BC2C3D"/>
<path d="M135.373 34.4059L125.817 24.995L114.653 14H113.78L113.602 14.4458C113.132 15.6226 112.931 16.8261 113.021 17.9262C113.124 19.1802 113.608 20.2659 114.42 21.066L123.136 29.6493L124.285 28.5172L132.343 37.3903C133.145 38.1796 134.524 38.2265 135.373 37.3903C136.209 36.5674 136.209 35.2287 135.373 34.4059Z" fill="white"/>
<path d="M119.109 28L112.598 34.5146C111.801 35.3119 111.801 36.6093 112.598 37.4066C113.355 38.164 114.664 38.2309 115.488 37.4066L122 30.892L119.109 28Z" fill="white"/>
<path d="M135.015 17.9379L131.242 21.7117L130.257 20.7272L134.031 16.9534L133.046 15.9689L129.273 19.7427L128.288 18.7582L132.062 14.9844L131.078 14L126.155 18.9224C125.553 19.5246 125.193 20.3242 125.143 21.1739C125.13 21.3892 125.081 21.601 125 21.8024L128.198 25C128.399 24.919 128.611 24.8702 128.826 24.8574C129.676 24.8066 130.475 24.447 131.078 23.8448L136 18.9224L135.015 17.9379Z" fill="white"/>
<path fill-rule="evenodd" clip-rule="evenodd" d="M111.484 353.39C112.469 354.81 113.623 356.474 114.972 358.455C115.469 359.182 116.531 359.182 117.028 358.455C118.377 356.474 119.531 354.81 120.516 353.39C125.052 346.847 126 345.479 126 342.125C126 336.533 121.523 332 116 332C110.477 332 106 336.533 106 342.125C106 345.479 106.948 346.847 111.484 353.39ZM120 342C120 344.209 118.209 346 116 346C113.791 346 112 344.209 112 342C112 339.791 113.791 338 116 338C118.209 338 120 339.791 120 342Z" fill="white"/>
<path d="M55.5436 191H52.1818V192.379C52.1818 192.551 52.0406 192.691 51.866 192.691H51.1342C50.9595 192.691 50.8183 192.551 50.8183 192.379V191H47.4567C47.2046 191 47 191.202 47 191.452V198.548C47 198.798 47.2046 199 47.4567 199H55.5436C55.7956 199 56 198.798 56 198.548V191.452C56 191.202 55.7956 191 55.5436 191Z" fill="#BC2C3D"/>
<path fill-rule="evenodd" clip-rule="evenodd" d="M46.9614 212.025C46.9614 214.118 48.6571 215.82 50.7413 215.82C52.8259 215.82 54.5218 214.118 54.5218 212.025C54.5218 209.932 52.826 208.23 50.7413 208.23C48.6571 208.23 46.9614 209.932 46.9614 212.025ZM48.866 212.025C48.866 210.987 49.7075 210.142 50.7413 210.142C51.7754 210.142 52.6166 210.987 52.6167 212.025C52.6167 213.063 51.7754 213.908 50.7413 213.908C49.7075 213.908 48.866 213.063 48.866 212.025Z" fill="#BC2C3D"/>
<path fill-rule="evenodd" clip-rule="evenodd" d="M26 212.025C26 214.118 27.6959 215.82 29.7801 215.82C31.8644 215.82 33.5602 214.118 33.5602 212.025C33.5602 209.932 31.8644 208.23 29.7801 208.23C27.6959 208.23 26 209.932 26 212.025ZM27.9048 212.025C27.9048 210.987 28.7461 210.142 29.7801 210.142C30.8142 210.142 31.6554 210.987 31.6554 212.025C31.6554 213.063 30.8142 213.908 29.7801 213.908C28.7461 213.908 27.9048 213.063 27.9048 212.025Z" fill="#BC2C3D"/>
<path d="M52.5466 204.598V203.558H55.1816C55.7778 203.558 56.2613 203.073 56.2613 202.475V201.703C56.2613 201.105 55.7778 200.62 55.1816 200.62H41.975C41.3788 200.62 40.8954 201.105 40.8954 201.703V202.486C40.8954 203.084 41.3788 203.57 41.975 203.57H43.4352V207.734H36.1193C35.5833 206.895 34.8806 206.173 34.0583 205.616L36.9361 195.196H39.5957C40.1919 195.196 40.675 194.711 40.675 194.112C40.675 193.514 40.1919 193.029 39.5957 193.029C39.5957 193.029 36.7975 193.029 35.8153 193.029C35.6809 193.029 35.4466 193.086 35.3318 193.142C35.1654 193.226 35.0201 193.351 34.9141 193.511L27.2556 205.038C27.0274 205.376 26.859 205.8 26.985 206.173C27.1806 206.752 27.8422 206.959 28.5199 206.757C29.0346 206.604 29.4619 206.537 30.0051 206.537C32.817 206.537 35.1047 208.834 35.1047 211.657C35.1047 212.255 35.5877 212.741 36.1839 212.741H44.5625C45.1586 212.741 45.642 212.255 45.642 211.657C45.642 208.834 47.9294 206.537 50.7413 206.537C53.5532 206.537 55.841 208.834 55.841 211.657C55.841 212.255 56.3245 212.741 56.9203 212.741C57.5168 212.741 57.9998 212.255 57.9998 211.657C57.9998 208.264 55.6782 205.406 52.5466 204.598Z" fill="#BC2C3D"/>
<defs>
<filter id="filter0_d" x="0" y="164" width="83" height="83" filterUnits="userSpaceOnUse" color-interpolation-filters="sRGB">
<feFlood flood-opacity="0" result="BackgroundImageFix"/>
<feColorMatrix in="SourceAlpha" type="matrix" values="0 0 0 0 0 0 0 0 0 0 0 0 0 0 0 0 0 0 127 0"/>
<feOffset dy="2"/>
<feGaussianBlur stdDeviation="8"/>
<feColorMatrix type="matrix" values="0 0 0 0 0.737255 0 0 0 0 0.172549 0 0 0 0 0.239216 0 0 0 0.368608 0"/>
<feBlend mode="normal" in2="BackgroundImageFix" result="effect1_dropShadow"/>
<feBlend mode="normal" in="SourceGraphic" in2="effect1_dropShadow" result="shape"/>
</filter>
</defs>
</svg>
