<svg width="22" height="22" viewBox="0 0 22 22" fill="none" xmlns="http://www.w3.org/2000/svg">
<path fill-rule="evenodd" clip-rule="evenodd" d="M11 20.7059C11.3574 20.7059 11.6471 20.9956 11.6471 21.3529C11.6471 21.7103 11.3574 22 11 22C4.92487 22 0 17.0751 0 11C0 4.92487 4.92487 0 11 0C11.3574 0 11.6471 0.289698 11.6471 0.647059C11.6471 1.00442 11.3574 1.29412 11 1.29412C5.63959 1.29412 1.29412 5.63959 1.29412 11C1.29412 16.3604 5.63959 20.7059 11 20.7059ZM11 11H16.1765C16.5338 11 16.8235 11.2897 16.8235 11.6471C16.8235 12.0044 16.5338 12.2941 16.1765 12.2941H10.3529C9.99558 12.2941 9.70588 12.0044 9.70588 11.6471V3.88235C9.70588 3.52499 9.99558 3.23529 10.3529 3.23529C10.7103 3.23529 11 3.52499 11 3.88235V11ZM13.0545 0.832355C12.962 1.17754 13.1669 1.53235 13.5121 1.62484C13.8573 1.71733 14.2121 1.51248 14.3045 1.1673C14.397 0.822114 14.1922 0.467308 13.847 0.374816C13.5018 0.282324 13.147 0.487172 13.0545 0.832355ZM15.8529 2.59446C15.5435 2.41578 15.4374 2.02004 15.6161 1.71056C15.7948 1.40108 16.1905 1.29504 16.5 1.47372C16.8095 1.6524 16.9155 2.04814 16.7368 2.35762C16.5582 2.6671 16.1624 2.77314 15.8529 2.59446ZM17.8631 3.22183C17.6104 3.47452 17.6104 3.88421 17.8631 4.1369C18.1158 4.3896 18.5255 4.3896 18.7782 4.1369C19.0309 3.88421 19.0309 3.47452 18.7782 3.22183C18.5255 2.96913 18.1158 2.96913 17.8631 3.22183ZM19.4055 6.14706C19.2269 5.83758 19.3329 5.44184 19.6424 5.26316C19.9519 5.08448 20.3476 5.19052 20.5263 5.5C20.705 5.80948 20.5989 6.20522 20.2894 6.3839C19.98 6.56258 19.5842 6.45654 19.4055 6.14706ZM20.8327 7.69545C20.4875 7.78794 20.2827 8.14275 20.3752 8.48793C20.4677 8.83312 20.8225 9.03796 21.1676 8.94547C21.5128 8.85298 21.7177 8.49817 21.6252 8.15299C21.5327 7.80781 21.1779 7.60296 20.8327 7.69545ZM20.7059 11C20.7059 10.6426 20.9956 10.3529 21.3529 10.3529C21.7103 10.3529 22 10.6426 22 11C22 11.3574 21.7103 11.6471 21.3529 11.6471C20.9956 11.6471 20.7059 11.3574 20.7059 11ZM21.1676 13.0545C20.8225 12.962 20.4677 13.1669 20.3752 13.5121C20.2827 13.8573 20.4875 14.2121 20.8327 14.3045C21.1779 14.397 21.5327 14.1922 21.6252 13.847C21.7177 13.5018 21.5128 13.147 21.1676 13.0545ZM19.4055 15.8529C19.5842 15.5435 19.98 15.4374 20.2894 15.6161C20.5989 15.7948 20.705 16.1905 20.5263 16.5C20.3476 16.8095 19.9519 16.9155 19.6424 16.7368C19.3329 16.5582 19.2269 16.1624 19.4055 15.8529ZM18.7782 17.8631C18.5255 17.6104 18.1158 17.6104 17.8631 17.8631C17.6104 18.1158 17.6104 18.5255 17.8631 18.7782C18.1158 19.0309 18.5255 19.0309 18.7782 18.7782C19.0309 18.5255 19.0309 18.1158 18.7782 17.8631ZM15.8529 19.4055C16.1624 19.2269 16.5582 19.3329 16.7368 19.6424C16.9155 19.9519 16.8095 20.3476 16.5 20.5263C16.1905 20.705 15.7948 20.5989 15.6161 20.2894C15.4374 19.98 15.5435 19.5842 15.8529 19.4055ZM14.3045 20.8327C14.2121 20.4875 13.8573 20.2827 13.5121 20.3752C13.1669 20.4677 12.962 20.8225 13.0545 21.1676C13.147 21.5128 13.5018 21.7177 13.847 21.6252C14.1922 21.5327 14.397 21.1779 14.3045 20.8327Z" fill="#BC2C3D"/>
</svg>
