<svg width="262" height="212" viewBox="0 0 262 212" fill="none" xmlns="http://www.w3.org/2000/svg">
<path d="M138.693 50.0114C101.127 50.0114 70.675 81.866 70.675 121.16C70.6478 132.767 73.3727 144.214 78.6263 154.565H198.756C204.011 144.215 206.737 132.767 206.711 121.16C206.711 81.866 176.256 50.0114 138.693 50.0114Z" fill="#F6F6F6"/>
<g style="mix-blend-mode:multiply">
<path fill-rule="evenodd" clip-rule="evenodd" d="M202.531 110.093C201.373 110.08 200.276 109.572 199.518 108.695C199.328 108.452 199.165 108.188 199.032 107.91H198.732C197.612 107.891 196.513 107.602 195.529 107.067C194.558 106.569 193.672 105.921 192.903 105.146C193.744 105.812 194.675 106.357 195.668 106.764C196.624 107.196 197.664 107.407 198.712 107.383H198.817C198.598 106.748 198.55 106.067 198.678 105.408C198.797 104.812 199.091 104.265 199.521 103.837C199.746 103.611 200.018 103.437 200.317 103.327C200.634 103.211 200.979 103.191 201.307 103.269C201.654 103.351 201.957 103.559 202.157 103.854C202.34 104.137 202.435 104.469 202.429 104.806C202.414 105.427 202.192 106.024 201.8 106.506C201.246 107.18 200.48 107.648 199.627 107.832C199.717 108.019 199.824 108.197 199.947 108.366C200.591 109.172 201.54 109.677 202.569 109.76C203.628 109.868 204.695 109.654 205.629 109.144C204.726 109.785 203.639 110.118 202.531 110.093ZM199.974 104.323C199.631 104.659 199.395 105.088 199.294 105.557H199.29C199.163 106.137 199.198 106.741 199.392 107.301C199.654 107.239 199.908 107.149 200.151 107.033C200.592 106.817 200.979 106.503 201.28 106.115C201.572 105.745 201.738 105.291 201.752 104.819C201.795 104.413 201.531 104.037 201.134 103.939C200.706 103.857 200.268 104.003 199.974 104.323Z" fill="#A1AAAD"/>
<path d="M106.187 119.725L74.8853 120.133L84.8873 124.896L81.4864 132.584L87.5808 129.745L86.0436 127.48L93.393 138.299L106.187 119.725Z" fill="#EFEFEF"/>
<path d="M78.0141 134.96C77.1549 135.572 76.2446 136.109 75.2934 136.565C74.3982 136.993 73.4428 137.28 72.4604 137.419C72.5013 137.592 72.5387 137.759 72.5795 137.935C73.5918 137.756 74.5697 137.419 75.477 136.936C75.9522 136.683 76.4142 136.406 76.8612 136.106C77.3033 135.804 77.7284 135.481 78.1468 135.147C78.9766 134.467 79.7656 133.767 80.5274 133.036C79.7078 133.689 78.8779 134.352 78.0141 134.96Z" fill="#CBCFD1"/>
<path d="M170.95 147.16V91.0596L172.025 90.6754V78.1158L170.95 77.7316V75.3278L172.025 74.9436V68.3L170.95 67.9158V66.5558L172.025 66.1716V59.545L170.95 59.1608V58.5012C151.999 47.7753 128.951 47.1775 109.469 56.9066V74.7158H100.678C99.8935 72.7915 98.328 71.2912 96.3717 70.5893C94.4155 69.8874 92.253 70.0502 90.4239 71.037C89.2653 72.2565 88.1509 73.5179 87.0808 74.8212C86.3265 76.7383 86.4171 78.8846 87.3303 80.7313C88.2436 82.578 89.8944 83.9532 91.8761 84.518V101.195C91.8761 102.793 92.511 104.325 93.6411 105.455C94.7713 106.585 96.3042 107.22 97.9025 107.22H109.466V147.16C109.516 150.11 110.969 152.859 113.377 154.565H166.869C169.393 152.943 170.927 150.158 170.95 147.16Z" fill="#EFEFEF"/>
<path d="M175.188 95.9182L184.034 108.76L188.05 102.847L192.267 104.809L189.914 99.495L196.831 96.2004L175.188 95.9182Z" fill="#F3F3F3"/>
</g>
<path d="M204.541 154.565H72.8447" stroke="#F1F1F1" stroke-width="2.07" stroke-linecap="round" stroke-linejoin="round"/>
<path d="M169.971 64.1486V57.505L168.91 57.1208V54.5504C168.902 49.7883 165.042 45.9302 160.278 45.9246H116.067C111.302 45.9284 107.441 49.7875 107.435 54.5504V145.12C107.435 149.57 110.972 153.569 115.488 154.225C115.578 154.23 115.668 154.23 115.757 154.225H159.969C160.045 154.23 160.121 154.23 160.197 154.225C165.244 153.606 168.91 149.778 168.91 145.116V89.0162L169.984 88.632V76.0758L168.91 75.6916V73.2878L169.984 72.9036V66.26L168.91 65.8758V64.5158L169.971 64.1486Z" fill="#2C2627"/>
<path d="M115.737 152.368C112.319 151.875 109.275 148.846 109.275 145.12V54.5504C109.279 50.8208 112.302 47.7983 116.032 47.7946H160.244C163.974 47.8002 166.996 50.8216 167.002 54.5504V145.12C167.002 148.86 163.968 151.875 159.935 152.368H115.737Z" fill="#7A7A7A"/>
<path d="M160.265 50.4398H152.555C152.555 50.4398 150.004 54.037 148.756 54.037H128.691C127.443 54.037 124.892 50.4398 124.892 50.4398H116.05C114.959 50.4389 113.912 50.8716 113.14 51.6426C112.368 52.4135 111.935 53.4596 111.935 54.5504V136.49C111.935 139.425 114.314 141.805 117.25 141.805H159.081C160.491 141.805 161.842 141.245 162.839 140.248C163.835 139.251 164.394 137.899 164.393 136.49V54.5504C164.393 53.4572 163.958 52.4091 163.183 51.6377C162.408 50.8664 161.358 50.4353 160.265 50.4398Z" fill="white"/>
<rect x="116.261" y="59.7354" width="44.3784" height="4.437" fill="#DBB497"/>
<rect x="116.261" y="69.1466" width="44.3784" height="2.2168" fill="#DBB497"/>
<rect x="116.261" y="74.6104" width="44.3784" height="2.2168" fill="#DBB497"/>
<rect x="116.261" y="80.0742" width="44.3784" height="2.2168" fill="#DBB497"/>
<rect x="116.261" y="85.538" width="44.3784" height="2.2168" fill="#DBB497"/>
<rect x="116.261" y="90.9984" width="44.3784" height="2.2168" fill="#DBB497"/>
<rect x="116.261" y="96.4622" width="44.3784" height="2.2168" fill="#DBB497"/>
<rect x="116.261" y="101.926" width="44.3784" height="2.2168" fill="#DBB497"/>
<rect x="116.261" y="107.39" width="44.3784" height="2.2168" fill="#DBB497"/>
<rect x="116.261" y="112.85" width="44.3784" height="2.2168" fill="#DBB497"/>
<rect x="116.261" y="118.314" width="44.3784" height="2.2168" fill="#DBB497"/>
<rect x="116.261" y="123.778" width="44.3784" height="2.2168" fill="#DBB497"/>
<rect x="116.261" y="129.242" width="28.52" height="2.2168" fill="#DBB497"/>
<rect x="116.261" y="134.702" width="17.212" height="2.2168" fill="#DBB497"/>
<path d="M144.117 51.759H129.949C129.589 51.7484 129.3 51.4592 129.29 51.0994C129.3 50.7396 129.589 50.4504 129.949 50.4398H144.117C144.482 50.4398 144.777 50.7351 144.777 51.0994C144.777 51.4637 144.482 51.759 144.117 51.759Z" fill="white"/>
<path d="M148.165 51.1062C148.165 51.4817 147.86 51.7862 147.484 51.7862C147.109 51.7862 146.804 51.4817 146.804 51.1062C146.804 50.7306 147.109 50.4262 147.484 50.4262C147.86 50.4262 148.165 50.7306 148.165 51.1062Z" fill="white"/>
<ellipse cx="138.693" cy="147.279" rx="3.27847" ry="3.2776" fill="white"/>
<g style="mix-blend-mode:soft-light">
<path d="M161.486 50.62L111.931 133.451V136.511C111.931 139.446 114.311 141.825 117.247 141.825H126.399L164.376 78.3368V54.5368C164.372 52.7402 163.201 51.1545 161.486 50.62Z" fill="white"/>
<path d="M152.555 50.4398C152.555 50.4398 150.004 54.037 148.756 54.037H130.782L111.931 85.5448V126.528L157.452 50.4398H152.555Z" fill="white"/>
<path d="M143.376 141.811L164.377 106.706V85.2626L130.548 141.811H143.376Z" fill="white"/>
</g>
<path d="M168.23 36.187C168.427 36.9141 168.562 37.657 168.631 38.4072C168.705 39.145 168.741 39.886 168.74 40.6274C168.743 41.37 168.706 42.1122 168.631 42.851C168.563 43.6015 168.429 44.3444 168.23 45.0712C168.034 44.3437 167.9 43.601 167.829 42.851C167.755 42.1121 167.719 41.37 167.72 40.6274C167.72 39.8896 167.757 39.1484 167.832 38.4072C167.902 37.6573 168.035 36.9146 168.23 36.187V36.187Z" fill="#BC2C3D"/>
<path d="M180.007 48.1992C179.28 48.3955 178.537 48.5286 177.786 48.597C176.308 48.7443 174.819 48.7443 173.341 48.597C172.591 48.5274 171.848 48.3932 171.121 48.1958C171.845 48.0001 172.584 47.867 173.331 47.798C174.809 47.6529 176.298 47.6529 177.776 47.798C178.53 47.867 179.276 48.0012 180.007 48.1992Z" fill="#BC2C3D"/>
<path d="M176.069 40.233C175.693 40.8855 175.262 41.5043 174.78 42.0826C174.311 42.6577 173.813 43.2081 173.287 43.7316C172.762 44.2584 172.209 44.7566 171.631 45.2242C171.051 45.7054 170.431 46.1365 169.777 46.5128C170.151 45.8575 170.581 45.2363 171.063 44.6564C171.534 44.0829 172.032 43.5344 172.556 43.0108C173.08 42.4872 173.629 41.9897 174.205 41.5182C174.788 41.0365 175.412 40.6065 176.069 40.233Z" fill="#BC2C3D"/>
<path d="M177.589 56.3626C176.935 55.9871 176.315 55.556 175.736 55.074C174.588 54.1337 173.535 53.0825 172.593 51.9358C172.112 51.3565 171.682 50.7365 171.308 50.0828C171.961 50.4567 172.582 50.8868 173.161 51.368C173.734 51.8376 174.284 52.3358 174.807 52.8606C175.333 53.3841 175.831 53.9345 176.3 54.5096C176.781 55.0897 177.213 55.7096 177.589 56.3626Z" fill="#BC2C3D"/>
<path d="M166.217 44.993C165.563 44.6167 164.943 44.1856 164.363 43.7044C163.788 43.2357 163.237 42.7375 162.714 42.2118C162.187 41.6902 161.689 41.1409 161.221 40.5662C160.74 39.9891 160.309 39.3714 159.935 38.72C160.589 39.094 161.209 39.524 161.789 40.0052C162.364 40.4767 162.913 40.9742 163.435 41.4978C163.959 42.0199 164.458 42.568 164.928 43.14C165.409 43.7201 165.84 44.34 166.217 44.993Z" fill="#BC2C3D"/>
<path d="M111.775 99.0394C111.775 99.0394 116.512 116.291 137.962 114.231C137.962 114.231 127.222 112.418 127.222 99.0394L111.775 99.0394Z" fill="#BC2C3D" stroke="black"/>
<rect x="89.8354" y="72.6758" width="51.5951" height="32.504" rx="16.252" fill="#BC2C3D" stroke="black"/>
<rect x="102.871" y="82.7772" width="25.5238" height="18.3396" fill="#211D1E"/>
<rect x="106.15" y="76.7354" width="18.9634" height="23.4974" fill="white"/>
<rect x="108.262" y="79.282" width="14.7395" height="1.3838" fill="#D0D0D0"/>
<rect x="108.262" y="82.121" width="14.7395" height="1.3838" fill="#D0D0D0"/>
<rect x="108.262" y="84.9566" width="14.7395" height="1.3838" fill="#D0D0D0"/>
<rect x="108.262" y="87.7922" width="14.7395" height="1.3838" fill="#D0D0D0"/>
<rect x="108.262" y="90.6312" width="14.7395" height="1.3838" fill="#D0D0D0"/>
<rect x="108.262" y="93.4668" width="14.7395" height="1.3838" fill="#D0D0D0"/>
<rect x="108.262" y="96.3024" width="14.7395" height="1.3838" fill="#D0D0D0"/>
<path d="M108.574 91.3656L102.871 82.7772V101.117H128.395V82.7772L122.712 91.3656H108.574Z" fill="#453E40"/>
<path d="M128.395 101.117H102.871L108.574 91.3656H122.688L128.395 101.117Z" fill="#453E40"/>
<path d="M102.871 101.117C103.313 100.284 103.766 99.4576 104.231 98.6348C104.697 97.812 105.133 96.979 105.592 96.1596L106.976 93.698L108.367 91.2398L108.435 91.1208H108.581C110.935 91.0936 113.285 91.0902 115.638 91.0834C117.991 91.0766 120.342 91.0834 122.695 91.1208H122.841L122.909 91.2432C123.844 92.8786 124.759 94.5242 125.684 96.163C126.15 96.9824 126.599 97.812 127.045 98.6382C127.49 99.4644 127.953 100.287 128.405 101.12C127.895 100.328 127.385 99.529 126.898 98.7402C126.412 97.9514 125.899 97.1456 125.412 96.3398C124.436 94.7282 123.45 93.1234 122.484 91.5084L122.698 91.6308C120.345 91.658 117.995 91.6614 115.641 91.6682C113.288 91.675 110.938 91.6682 108.585 91.6308L108.799 91.5084L107.336 93.9258L105.871 96.3364C105.384 97.1456 104.881 97.9412 104.384 98.7402C103.888 99.5392 103.378 100.325 102.871 101.117Z" fill="#1E1B1C"/>
<path d="M137.231 83.5422C136.857 84.1959 136.427 84.8159 135.945 85.3952C135.474 85.9687 134.976 86.5183 134.452 87.0442C133.928 87.5701 133.38 88.0676 132.806 88.5368C132.226 89.0188 131.605 89.4489 130.949 89.822C131.326 89.169 131.757 88.5491 132.238 87.969C132.706 87.3943 133.205 86.845 133.731 86.3234C134.255 85.7977 134.805 85.2995 135.381 84.8308C135.959 84.3488 136.578 83.9177 137.231 83.5422Z" fill="white"/>
<path d="M137.057 100.352C136.404 99.9755 135.784 99.5444 135.203 99.0632C134.055 98.1229 133.003 97.0717 132.061 95.925C131.58 95.3457 131.149 94.7257 130.775 94.072C131.429 94.4459 132.049 94.876 132.629 95.3572C133.203 95.8287 133.751 96.3262 134.275 96.8498C134.8 97.3741 135.298 97.9245 135.768 98.4988C136.249 99.0789 136.68 99.6988 137.057 100.352Z" fill="white"/>
<path d="M139.907 91.9334C139.18 92.1311 138.437 92.2653 137.686 92.3346C136.948 92.4081 136.207 92.4445 135.466 92.4434C134.724 92.4462 133.983 92.4098 133.245 92.3346C132.494 92.267 131.751 92.1327 131.024 91.9334C131.751 91.7357 132.494 91.6015 133.245 91.5322C133.983 91.4586 134.724 91.4223 135.466 91.4234C136.207 91.4234 136.945 91.4608 137.686 91.5356C138.436 91.6054 139.179 91.7384 139.907 91.9334Z" fill="white"/>
<path d="M94.0322 83.5422C94.6854 83.9185 95.3055 84.3496 95.8857 84.8308C96.4591 85.3004 97.0085 85.7986 97.5318 86.3234C98.0584 86.845 98.5568 87.3943 99.0247 87.969C99.5072 88.5482 99.9385 89.1682 100.314 89.822C99.6588 89.4497 99.0385 89.0196 98.4602 88.5368C97.8858 88.0671 97.3353 87.569 96.8108 87.0442C96.287 86.5206 95.7894 85.9709 95.3178 85.3952C94.8364 84.8159 94.4063 84.1959 94.0322 83.5422V83.5422Z" fill="white"/>
<path d="M94.209 100.352C94.583 99.6981 95.0132 99.0781 95.4945 98.4988C95.9684 97.9253 96.466 97.3757 96.9875 96.8498C97.509 96.3239 98.0577 95.8264 98.6336 95.3572C99.2136 94.8752 99.835 94.4451 100.49 94.072C100.114 94.725 99.6829 95.3449 99.2015 95.925C98.2597 97.0717 97.2071 98.1229 96.0591 99.0632C95.4806 99.5452 94.8616 99.9763 94.209 100.352Z" fill="white"/>
<path d="M91.3691 91.9334C92.0969 91.7384 92.8398 91.6054 93.5899 91.5356C94.3313 91.4608 95.0727 91.4268 95.8107 91.4234C96.5523 91.4222 97.2935 91.4586 98.0315 91.5322C98.782 91.6012 99.5251 91.7354 100.252 91.9334C99.5255 92.133 98.7822 92.2673 98.0315 92.3346C97.2868 92.4095 96.5387 92.4447 95.7903 92.44C95.0487 92.441 94.3075 92.4047 93.5695 92.3312C92.826 92.2619 92.0898 92.1288 91.3691 91.9334Z" fill="white"/>
<ellipse cx="91.8583" cy="75.4438" rx="6.96817" ry="6.96687" transform="rotate(-22.5 91.8583 75.4438)" fill="white" stroke="#BC2C3D" stroke-width="2.1"/>
<path d="M92.5835 71.4824H91.8013C91.6975 71.4812 91.6033 71.5431 91.5632 71.6388C91.3898 72.0638 90.764 72.3528 89.8968 72.414C89.7626 72.423 89.6584 72.5345 89.6587 72.669V73.451C89.6587 73.5918 89.7729 73.706 89.9138 73.706H91.2061V79.146C91.2079 79.2861 91.3211 79.3992 91.4612 79.401H92.5835C92.7243 79.401 92.8385 79.2868 92.8385 79.146V71.734C92.8385 71.6667 92.8116 71.6022 92.7636 71.5549C92.7157 71.5076 92.6508 71.4815 92.5835 71.4824Z" fill="#2C2627"/>
<path d="M84.0029 125.44L104.146 117.685L91.3523 136.259L84.0029 125.44Z" fill="#D9E1E4"/>
<path d="M79.4458 130.544L84.003 125.44L85.5402 127.705L79.4458 130.544Z" fill="#A1AAAD"/>
<path d="M82.8467 122.856L79.4458 130.544L84.003 125.44L104.147 117.685L82.8467 122.856Z" fill="#CBCFD1"/>
<path d="M72.8447 118.093L82.8468 122.856L104.147 117.685L72.8447 118.093Z" fill="white"/>
<path d="M78.5071 130.996C76.3476 132.846 74.086 134.753 71.338 135.47C68.5901 136.188 65.2164 135.334 63.9241 132.791C63.3289 131.608 63.3085 130.051 64.1792 129.051C65.0498 128.052 67.3964 126.977 67.6209 129.072C65.3831 132.546 58.7071 128.528 56.2891 124.992" stroke="#CBCFD1"/>
<path d="M187.074 99.24L173.147 93.8782L181.993 106.72L187.074 99.24Z" fill="#D9E1E4"/>
<path d="M190.227 102.769L187.074 99.24L186.01 100.807L190.227 102.769Z" fill="#A1AAAD"/>
<path d="M187.873 97.455L190.227 102.769L187.074 99.24L173.147 93.8782L187.873 97.455Z" fill="#CBCFD1"/>
<path d="M194.791 94.1604L187.873 97.455L173.147 93.8782L194.791 94.1604Z" fill="white"/>
<path d="M190.846 103.13C191.687 103.796 192.618 104.341 193.611 104.748C194.566 105.18 195.606 105.391 196.654 105.367C197.157 105.337 197.649 105.21 198.103 104.993C198.545 104.777 198.931 104.463 199.232 104.075C199.525 103.705 199.691 103.251 199.705 102.779C199.748 102.373 199.483 101.997 199.086 101.899C198.659 101.817 198.22 101.963 197.926 102.283C197.584 102.619 197.348 103.048 197.246 103.517C197.044 104.502 197.277 105.526 197.886 106.326C198.53 107.132 199.479 107.637 200.508 107.72C201.567 107.828 202.634 107.614 203.568 107.104C202.665 107.745 201.578 108.078 200.47 108.053C199.312 108.04 198.215 107.532 197.457 106.655C196.698 105.745 196.385 104.543 196.603 103.378C196.722 102.782 197.016 102.235 197.447 101.807C197.672 101.581 197.943 101.407 198.243 101.297C198.56 101.181 198.904 101.161 199.232 101.239C199.579 101.321 199.882 101.529 200.083 101.824C200.266 102.107 200.36 102.439 200.355 102.776C200.339 103.397 200.118 103.995 199.725 104.476C198.971 105.386 197.847 105.91 196.665 105.904C195.544 105.885 194.445 105.596 193.461 105.061C192.493 104.559 191.61 103.907 190.846 103.13Z" fill="#D9E1E4"/>
<circle opacity="0.16243" cx="212" cy="24" r="3" fill="#DBB497"/>
<circle cx="141.5" cy="38.5" r="1.5" fill="#BC2C3D"/>
<circle opacity="0.405007" cx="52" cy="63" r="3" fill="#DBB497"/>
<circle opacity="0.149778" cx="43.5" cy="46.5" r="1.5" fill="#BC2C3D"/>
<g opacity="0.364272">
<path d="M117.699 31.0378L113.155 23.1675" stroke="#DBB497" stroke-width="7" stroke-linecap="round"/>
<path d="M111.493 29.3735L119.363 24.8296" stroke="#DBB497" stroke-width="7" stroke-linecap="round"/>
</g>
<path d="M214.621 93.5701L223.369 98.6208" stroke="#EFD2BC" stroke-width="6" stroke-linecap="round"/>
<path d="M221.52 91.7222L216.47 100.47" stroke="#EFD2BC" stroke-width="6" stroke-linecap="round"/>
<circle opacity="0.223822" cx="89" cy="157" r="3" fill="#DBB497"/>
<circle cx="82" cy="56" r="3" stroke="#BC2C3D" stroke-width="3"/>
<circle cx="208" cy="54" r="4" stroke="#BC2C3D" stroke-width="4"/>
<circle cx="198.5" cy="31.5" r="2.5" fill="#BC2C3D"/>
<circle cx="72.5" cy="68.5" r="2.5" fill="#BC2C3D"/>
<circle cx="64" cy="148" r="3" stroke="#BC2C3D" stroke-width="3"/>
<circle cx="52.5" cy="135.5" r="2.5" fill="#BC2C3D"/>
<circle cx="38" cy="90" r="1" fill="#BC2C3D"/>
<circle cx="225" cy="129" r="3" stroke="#BC2C3D" stroke-width="3"/>
<circle cx="233.5" cy="131.5" r="2.5" fill="#BC2C3D"/>
</svg>
