<svg width="12" height="15" viewBox="0 0 12 15" fill="none" xmlns="http://www.w3.org/2000/svg">
<path fill-rule="evenodd" clip-rule="evenodd" d="M2.9812 5.41077C2.9812 3.82148 4.3312 2.53577 5.99995 2.53577C7.6687 2.53577 9.0187 3.82148 9.0187 5.41077C9.0187 7.00005 7.6687 8.28577 5.99995 8.28577C4.3312 8.28577 2.9812 7.00005 2.9812 5.41077ZM4.1062 5.41077C4.1062 6.41077 4.94995 7.21434 5.99995 7.21434C7.04995 7.21434 7.8937 6.41077 7.8937 5.41077C7.8937 4.41077 7.04995 3.6072 5.99995 3.6072C4.94995 3.6072 4.1062 4.41077 4.1062 5.41077Z" fill="white"/>
<path fill-rule="evenodd" clip-rule="evenodd" d="M0.0187988 5.58925C0.0187988 2.51782 2.70005 0.0178223 6.00005 0.0178223C9.30005 0.0178223 11.9813 2.51782 11.9625 5.58925C11.9625 6.80354 11.55 7.96425 10.7813 8.92854L6.00005 14.9821L1.20005 8.92854C0.431299 7.94639 0.0187988 6.80354 0.0187988 5.58925ZM6.00005 13.1964L9.90005 8.28568C10.5188 7.49997 10.8563 6.57139 10.8563 5.58925C10.8563 3.10711 8.6813 1.08925 6.00005 1.08925C3.3188 1.08925 1.1438 3.10711 1.1438 5.58925C1.1438 6.55354 1.4813 7.48211 2.10005 8.26782L6.00005 13.1964Z" fill="white"/>
</svg>
