<svg width="14" height="17" viewBox="0 0 14 17" fill="none" xmlns="http://www.w3.org/2000/svg">
<path fill-rule="evenodd" clip-rule="evenodd" d="M13.7841 1.99305L6.20077 0.00971813C6.11318 -0.013109 6.01961 0.00473767 5.94755 0.058416C5.87563 0.112094 5.83333 0.195241 5.83333 0.283367V8.2167H0.291667C0.130595 8.2167 0 8.34356 0 8.50003V11.9C0 12.0565 0.130595 12.1834 0.291667 12.1834H1.16667V16.7167C1.16667 16.8732 1.29726 17 1.45833 17H3.20833H4.95833H8.45833H13.7083C13.8694 17 14 16.8732 14 16.7167V2.2667C14 2.13859 13.9116 2.02639 13.7841 1.99305ZM0.583333 8.78337H6.125H9.33333V11.6167H8.45833H1.45833H0.583333V8.78337ZM8.16667 12.1834H1.75V16.4334H2.91667V14.45C2.91667 14.2936 3.04726 14.1667 3.20833 14.1667H4.95833C5.1194 14.1667 5.25 14.2936 5.25 14.45V16.4334H6.41667V13.8834C6.41667 13.7269 6.54726 13.6 6.70833 13.6C6.86941 13.6 7 13.7269 7 13.8834V16.4334H8.16667V12.1834ZM3.5 16.4334V14.7334H4.66667V16.4334H3.5ZM8.75 16.4334H13.4167V2.4839L6.41667 0.653029V8.2167H9.625C9.78607 8.2167 9.91667 8.34356 9.91667 8.50003V11.9C9.91667 12.0565 9.78607 12.1834 9.625 12.1834H8.75V16.4334Z" fill="white"/>
<path fill-rule="evenodd" clip-rule="evenodd" d="M12.2501 6.23335H7.58341C7.42234 6.23335 7.29175 6.10649 7.29175 5.95002V3.96668C7.29175 3.81021 7.42234 3.68335 7.58341 3.68335H12.2501C12.4112 3.68335 12.5417 3.81021 12.5417 3.96668V5.95002C12.5417 6.10649 12.4112 6.23335 12.2501 6.23335ZM11.9584 4.25002H7.87508V5.66668H11.9584V4.25002Z" fill="white"/>
<path d="M7.58341 7.65004H12.2501C12.4112 7.65004 12.5417 7.52318 12.5417 7.36671C12.5417 7.21024 12.4112 7.08337 12.2501 7.08337H7.58341C7.42234 7.08337 7.29175 7.21024 7.29175 7.36671C7.29175 7.52318 7.42234 7.65004 7.58341 7.65004Z" fill="white"/>
<path d="M12.25 8.21667H10.7917C10.6306 8.21667 10.5 8.34354 10.5 8.50001C10.5 8.65648 10.6306 8.78334 10.7917 8.78334H12.25C12.4111 8.78334 12.5417 8.65648 12.5417 8.50001C12.5417 8.34354 12.4111 8.21667 12.25 8.21667Z" fill="white"/>
<path d="M12.25 9.34998H10.7917C10.6306 9.34998 10.5 9.47684 10.5 9.63331C10.5 9.78978 10.6306 9.91664 10.7917 9.91664H12.25C12.4111 9.91664 12.5417 9.78978 12.5417 9.63331C12.5417 9.47684 12.4111 9.34998 12.25 9.34998Z" fill="white"/>
<path d="M12.2501 10.4834H11.0834C10.9223 10.4834 10.7917 10.6103 10.7917 10.7667C10.7917 10.9232 10.9223 11.0501 11.0834 11.0501H12.2501C12.4112 11.0501 12.5417 10.9232 12.5417 10.7667C12.5417 10.6103 12.4112 10.4834 12.2501 10.4834Z" fill="white"/>
<path d="M12.25 11.6167H10.7917C10.6306 11.6167 10.5 11.7436 10.5 11.9C10.5 12.0565 10.6306 12.1834 10.7917 12.1834H12.25C12.4111 12.1834 12.5417 12.0565 12.5417 11.9C12.5417 11.7436 12.4111 11.6167 12.25 11.6167Z" fill="white"/>
<path d="M12.2499 12.75H9.62492C9.46385 12.75 9.33325 12.8769 9.33325 13.0333C9.33325 13.1898 9.46385 13.3167 9.62492 13.3167H12.2499C12.411 13.3167 12.5416 13.1898 12.5416 13.0333C12.5416 12.8769 12.411 12.75 12.2499 12.75Z" fill="white"/>
<path d="M12.2499 13.8833H9.62492C9.46385 13.8833 9.33325 14.0102 9.33325 14.1666C9.33325 14.3231 9.46385 14.45 9.62492 14.45H12.2499C12.411 14.45 12.5416 14.3231 12.5416 14.1666C12.5416 14.0102 12.411 13.8833 12.2499 13.8833Z" fill="white"/>
<path fill-rule="evenodd" clip-rule="evenodd" d="M4.95825 11.05H1.74992C1.58885 11.05 1.45825 10.9231 1.45825 10.7666V9.63331C1.45825 9.47684 1.58885 9.34998 1.74992 9.34998H4.95825C5.11932 9.34998 5.24992 9.47684 5.24992 9.63331V10.7666C5.24992 10.9231 5.11932 11.05 4.95825 11.05ZM4.66659 9.91664H2.04159V10.4833H4.66659V9.91664Z" fill="white"/>
</svg>
