<svg width="21" height="21" viewBox="0 0 21 21" fill="none" xmlns="http://www.w3.org/2000/svg">
<path fill-rule="evenodd" clip-rule="evenodd" d="M14.7715 13.5342L20.8718 19.6346C21.0427 19.8054 21.0427 20.0824 20.8719 20.2533L20.2533 20.8719C20.0824 21.0427 19.8055 21.0427 19.6346 20.8719L13.5342 14.7715C12.1058 15.9285 10.2897 16.6251 8.31254 16.6251C3.72903 16.6251 0 12.896 0 8.31253C0 3.72903 3.72899 0 8.3125 0C12.896 0 16.625 3.72903 16.625 8.31253C16.625 10.2897 15.9285 12.1058 14.7715 13.5342ZM1.75002 8.31253C1.75002 11.9313 4.69376 14.8751 8.31254 14.8751C11.9313 14.8751 14.8751 11.9313 14.8751 8.31253C14.8751 4.69376 11.9313 1.75002 8.31254 1.75002C4.69376 1.75002 1.75002 4.69376 1.75002 8.31253Z" fill="white"/>
</svg>
