<svg width="407" height="327" viewBox="0 0 407 327" fill="none" xmlns="http://www.w3.org/2000/svg">
<circle opacity="0.16243" cx="327" cy="180" r="5" fill="#DBB497"/>
<circle opacity="0.16243" cx="157" cy="58" r="5" fill="#DBB497"/>
<circle opacity="0.170184" cx="78.5" cy="187.5" r="2.5" fill="#DBB497"/>
<circle opacity="0.301364" cx="328" cy="90" r="5" fill="#DBB497"/>
<circle opacity="0.405007" cx="101" cy="70" r="5" fill="#DBB497"/>
<circle opacity="0.149778" cx="116.5" cy="100.5" r="2.5" fill="#48D2A0"/>
<g opacity="0.364272">
<path d="M231.738 69.7906L224.654 57.5209" stroke="#DBB497" stroke-width="7" stroke-linecap="round"/>
<path d="M222.062 67.1975L234.331 60.1136" stroke="#DBB497" stroke-width="7" stroke-linecap="round"/>
</g>
<path d="M301.331 255.502L314.969 263.376" stroke="#EFD2BC" stroke-width="6" stroke-linecap="round"/>
<path d="M312.086 252.62L304.212 266.258" stroke="#EFD2BC" stroke-width="6" stroke-linecap="round"/>
<circle opacity="0.223822" cx="88" cy="252" r="5" fill="#DBB497"/>
<circle opacity="0.223822" cx="253" cy="48" r="5" fill="#DBB497"/>
<circle opacity="0.135378" cx="241.5" cy="265.5" r="2.5" fill="#48D2A0"/>
<g opacity="0.608515">
<path d="M326.005 135.742L335.991 133.066" stroke="#BC2C3D" stroke-width="6" stroke-linecap="round"/>
<path d="M329.668 129.415L332.344 139.401" stroke="#BC2C3D" stroke-width="6" stroke-linecap="round"/>
</g>
<circle cx="187.5" cy="66.5" r="4.5" stroke="#BC2C3D" stroke-width="3"/>
<circle cx="85.5" cy="110.5" r="4.5" stroke="#BC2C3D" stroke-width="3"/>
<circle cx="293.5" cy="88.5" r="6.5" stroke="#BC2C3D" stroke-width="4"/>
<circle cx="287.5" cy="54.5" r="3.5" fill="#BC2C3D"/>
<circle cx="142.5" cy="81.5" r="3.5" fill="#BC2C3D"/>
<circle cx="84.5" cy="209.5" r="4.5" stroke="#BC2C3D" stroke-width="3"/>
<circle cx="105.5" cy="248.5" r="3.5" fill="#BC2C3D"/>
<circle opacity="0.223822" cx="239" cy="294" r="5" fill="#DBB497"/>
<circle cx="148.5" cy="290.5" r="4.5" stroke="#BC2C3D" stroke-width="3"/>
<circle cx="205.5" cy="279.5" r="3.5" fill="#BC2C3D"/>
<circle cx="87.5" cy="140.5" r="1.5" fill="#BC2C3D"/>
<circle cx="310.5" cy="198.5" r="4.5" stroke="#BC2C3D" stroke-width="3"/>
<circle cx="267.5" cy="142.5" r="3.5" fill="#BC2C3D"/>
<path d="M121 186H288V211H121V186Z" fill="#F69583"/>
<path d="M140.183 219.083H193.326V277.975H140.183V219.083Z" fill="#FFCEC0"/>
<path d="M216.683 219.083H269.826V277.975H216.683V219.083Z" fill="#FFCEC0"/>
<path d="M130.028 191.153L117.712 157.289C115.719 151.812 109.667 148.988 104.193 150.981C98.7191 152.975 95.8967 159.032 97.8891 164.509L110.206 198.372L130.028 191.153Z" fill="#FDB0A0"/>
<path d="M117.712 157.291L130.028 191.153L116.857 195.951L104.541 162.088C103.469 159.141 101.22 156.96 98.5218 155.889C99.7028 153.691 101.667 151.903 104.193 150.983C109.668 148.989 115.719 151.812 117.712 157.291Z" fill="#F69583"/>
<path d="M299.37 198.372L311.687 164.509C313.679 159.032 310.857 152.975 305.383 150.981C299.909 148.988 293.857 151.812 291.864 157.289L279.547 191.153L299.37 198.372Z" fill="#FDB0A0"/>
<path d="M311.687 164.511L299.371 198.373L289.46 194.763L301.776 160.901C303.112 157.228 302.283 153.296 299.944 150.508C301.71 150.193 303.578 150.326 305.383 150.983C310.855 152.975 313.68 159.031 311.687 164.511Z" fill="#F69583"/>
<path d="M284.954 187.272C307.04 165.115 307.025 129.238 284.904 107.103C262.784 84.9673 226.93 84.9522 204.788 107.054C182.646 84.9522 146.792 84.9673 124.671 107.103C102.551 129.238 102.535 165.115 124.622 187.272L202.036 264.74C203.555 266.26 206.02 266.26 207.54 264.74L284.954 187.272Z" fill="#BC2C3D"/>
<path d="M284.955 187.27L207.542 264.74C206.022 266.261 203.554 266.261 202.034 264.74L192.358 255.052L266.304 181.057C288.389 158.901 288.372 123.023 266.252 100.889C262.282 96.9156 257.865 93.6535 253.167 91.106C264.784 92.826 275.967 98.1592 284.904 107.101C307.024 129.24 307.041 165.114 284.955 187.27Z" fill="#A11E2D"/>
<path d="M130.097 205.597L124.224 175.308C122.957 168.75 116.15 164.846 109.842 167.094C104.714 168.922 101.798 174.352 102.838 179.698L108.846 210.583L111.602 224.754C115.717 245.908 136.191 259.719 157.331 255.601L169.243 253.281L166.31 238.204C163.03 221.345 149.457 208.404 132.47 205.941L130.097 205.597Z" fill="#FFDFD0"/>
<path d="M169.244 253.279L158.56 255.361L156.126 242.839C152.845 225.981 139.271 213.039 122.284 210.578C120.863 210.372 119.729 209.288 119.455 207.878L114.037 179.943C113.104 175.097 109.137 171.699 104.586 171.164C105.836 169.338 107.632 167.882 109.84 167.096C116.15 164.846 122.958 168.75 124.224 175.307L130.099 205.597L132.471 205.942C149.458 208.402 163.032 221.344 166.309 238.203L169.244 253.279Z" fill="#FFCEC0"/>
<path d="M279.479 205.597L285.351 175.308C286.619 168.75 293.426 164.846 299.734 167.094C304.862 168.922 307.778 174.352 306.738 179.698L300.73 210.583L297.973 224.754C293.858 245.908 273.385 259.719 252.245 255.601L240.333 253.281L243.266 238.204C246.546 221.345 260.119 208.404 277.106 205.941L279.479 205.597Z" fill="#FFDFD0"/>
<path d="M306.737 179.696L300.731 210.583L297.973 224.755C293.858 245.908 273.385 259.717 252.246 255.6L248.168 254.806C266.828 255.246 283.638 242.193 287.326 223.241L290.08 209.069L296.091 178.187C296.908 173.987 295.281 169.734 292.062 167.224C294.417 166.29 297.122 166.163 299.737 167.097C304.863 168.922 307.777 174.353 306.737 179.696Z" fill="#FFCEC0"/>
<path fill-rule="evenodd" clip-rule="evenodd" d="M279.565 188.102L205.244 262.443C205.088 262.6 204.91 262.633 204.788 262.633C204.665 262.633 204.487 262.6 204.33 262.443L130.011 188.102L127.411 174.692C126.627 170.632 124.118 167.127 120.529 165.077C118.439 163.882 116.11 163.26 113.76 163.218C107.775 144.119 112.773 123.602 126.966 109.4C134.83 101.531 144.759 96.3825 155.681 94.5104C157.448 94.2073 158.635 92.5289 158.332 90.7608C158.029 88.9927 156.353 87.8049 154.585 88.108C142.332 90.2082 131.194 95.9828 122.376 104.807C114.32 112.869 108.752 122.985 106.274 134.061C105.289 138.469 104.814 142.951 104.829 147.423C104.238 147.554 103.654 147.721 103.083 147.93C99.6205 149.191 96.8561 151.725 95.2991 155.066C93.7421 158.407 93.5785 162.155 94.8387 165.62L99.3042 177.898C99.3208 177.944 99.342 177.987 99.3631 178.03C99.3755 178.055 99.3879 178.08 99.3994 178.106C99.4275 178.841 99.508 179.58 99.6517 180.319L108.416 225.375C110.572 236.458 116.912 246.037 126.267 252.348C129.574 254.579 133.119 256.3 136.807 257.506V277.512C136.807 279.305 138.261 280.76 140.053 280.76C141.846 280.76 143.299 279.305 143.299 277.512V259.071C145.439 259.407 147.608 259.581 149.791 259.581C152.5 259.581 155.231 259.319 157.95 258.789L169.862 256.469C171.621 256.126 172.77 254.421 172.428 252.66C172.086 250.9 170.382 249.75 168.622 250.093L156.71 252.413C147.337 254.24 137.814 252.303 129.896 246.962C121.978 241.62 116.612 233.513 114.788 224.134L106.024 179.078C105.28 175.253 107.389 171.416 110.93 170.154C113.042 169.401 115.367 169.607 117.31 170.717C119.254 171.828 120.613 173.726 121.038 175.927L126.911 206.216C127.174 207.573 128.265 208.614 129.632 208.812L132.005 209.156C147.606 211.418 160.112 223.34 163.125 238.825C163.467 240.586 165.172 241.735 166.931 241.392C168.69 241.049 169.839 239.344 169.496 237.584C169.445 237.321 169.387 237.06 169.329 236.8L169.329 236.798C169.311 236.715 169.292 236.631 169.274 236.548L189.88 257.168V277.512C189.88 279.305 191.333 280.76 193.125 280.76C194.918 280.76 196.371 279.305 196.371 277.512V263.664L199.741 267.036C201.089 268.386 202.881 269.129 204.788 269.129C206.695 269.129 208.488 268.386 209.836 267.036L213.205 263.664V277.512C213.205 279.305 214.658 280.76 216.451 280.76C218.244 280.76 219.697 279.305 219.697 277.512V257.169L240.303 236.548L240.274 236.678L240.247 236.798C240.189 237.059 240.131 237.32 240.08 237.584C239.737 239.344 240.886 241.049 242.645 241.392C242.855 241.433 243.064 241.453 243.269 241.453C244.791 241.453 246.149 240.376 246.451 238.825C249.464 223.341 261.97 211.418 277.571 209.156L279.944 208.812C281.31 208.614 282.402 207.573 282.665 206.217L288.538 175.925C288.963 173.727 290.322 171.829 292.265 170.718C294.209 169.607 296.535 169.402 298.645 170.154C302.187 171.417 304.296 175.253 303.552 179.078L299.884 197.932C299.541 199.692 300.69 201.397 302.449 201.74C304.214 202.084 305.913 200.933 306.256 199.173L309.924 180.319C310.07 179.565 310.152 178.81 310.178 178.06C310.239 177.941 310.299 177.82 310.346 177.691L314.737 165.62C317.338 158.469 313.64 150.533 306.493 147.93C305.915 147.719 305.325 147.548 304.726 147.417C304.751 135.257 301.119 123.183 294.095 113.06C293.073 111.586 291.05 111.221 289.578 112.244C288.105 113.267 287.74 115.291 288.762 116.764C298.097 130.218 300.714 147.539 295.817 163.218C293.467 163.26 291.137 163.883 289.047 165.077C285.457 167.128 282.949 170.632 282.165 174.69L279.565 188.102ZM102.718 168.289L100.939 163.398C100.272 161.564 100.358 159.58 101.183 157.812C101.994 156.071 103.426 154.747 105.217 154.07C105.625 157.63 106.348 161.157 107.391 164.609C105.56 165.494 103.98 166.762 102.718 168.289ZM132.214 199.462L132.844 202.714L132.935 202.727C133.986 202.879 135.023 203.073 136.048 203.299L132.214 199.462ZM276.64 202.727C275.59 202.879 274.553 203.073 273.528 203.299L277.362 199.462L276.731 202.714L276.64 202.727ZM304.349 154.065C303.948 157.617 303.226 161.146 302.181 164.606C304.013 165.492 305.595 166.76 306.858 168.289L308.637 163.398C310.004 159.639 308.081 155.472 304.349 154.065Z" fill="#2C2627"/>
<path d="M170.35 94.0334C182.452 95.3009 193.868 100.742 202.496 109.354C203.129 109.986 203.958 110.302 204.788 110.302C205.618 110.302 206.447 109.986 207.08 109.354C226.673 89.7948 257.513 88.3316 278.817 105.951C280.198 107.094 282.244 106.9 283.387 105.517C284.529 104.135 284.334 102.088 282.953 100.945C271.523 91.4914 257.038 86.6471 242.167 87.3018C228.253 87.915 215.097 93.3154 204.787 102.585C195.425 94.1841 183.553 88.8854 171.026 87.5729C169.244 87.3897 167.647 88.681 167.46 90.4651C167.273 92.2493 168.567 93.8467 170.35 94.0334Z" fill="#2C2627"/>
<path d="M300.738 210.543C298.977 210.199 297.275 211.35 296.932 213.11L294.787 224.134C292.963 233.514 287.597 241.621 279.679 246.962C271.762 252.303 262.241 254.24 252.865 252.414L240.953 250.093C239.194 249.751 237.489 250.901 237.147 252.661C236.804 254.422 237.953 256.126 239.713 256.469L251.625 258.79C254.344 259.319 257.074 259.581 259.784 259.581C261.967 259.581 264.136 259.407 266.277 259.071V277.512C266.277 279.306 267.729 280.76 269.522 280.76C271.315 280.76 272.768 279.306 272.768 277.512V257.507C276.456 256.3 280.001 254.579 283.308 252.349C292.664 246.038 299.003 236.458 301.159 225.376L303.304 214.352C303.646 212.59 302.497 210.886 300.738 210.543Z" fill="black"/>
</svg>
